<?xml version="1.0" encoding="utf-8"?>
<!-- Generator: Adobe Illustrator 18.0.0, SVG Export Plug-In . SVG Version: 6.00 Build 0)  -->
<!DOCTYPE svg PUBLIC "-//W3C//DTD SVG 1.1//EN" "http://www.w3.org/Graphics/SVG/1.1/DTD/svg11.dtd">
<svg version="1.1" id="Layer_1" xmlns="http://www.w3.org/2000/svg" xmlns:xlink="http://www.w3.org/1999/xlink" x="0px" y="0px"
	 viewBox="0 0 1024 768" enable-background="new 0 0 1024 768" xml:space="preserve">
<linearGradient id="SVGID_1_" gradientUnits="userSpaceOnUse" x1="64" y1="-64" x2="960" y2="832">
	<stop  offset="0" style="stop-color:#FFC832"/>
	<stop  offset="0.33" style="stop-color:#AF7D00"/>
	<stop  offset="0.66" style="stop-color:#FFC832"/>
	<stop  offset="1" style="stop-color:#AF7D00"/>
</linearGradient>
<rect opacity="0.5" fill="url(#SVGID_1_)" width="1024" height="768"/>
<polygon fill="#C80000" points="355.8,732.1 506.6,169.2 584.1,190 452.5,681 "/>
<polygon fill="#C80000" points="609.9,745.3 459.1,182.5 536.7,161.7 668.2,652.8 "/>
<linearGradient id="SVGID_2_" gradientUnits="userSpaceOnUse" x1="139.9664" y1="-33.2231" x2="863.3724" y2="690.1829">
	<stop  offset="0" style="stop-color:#C8C8C8"/>
	<stop  offset="0.33" style="stop-color:#969696"/>
	<stop  offset="0.66" style="stop-color:#C8C8C8"/>
	<stop  offset="1" style="stop-color:#969696"/>
</linearGradient>
<polygon fill="url(#SVGID_2_)" points="805.7,301.7 831.9,277.8 798.8,265.2 821.7,238.2 787.3,229.8 806.7,200.1 771.4,196.2 
	787,164.3 751.5,164.8 762.9,131.2 727.8,136.1 734.9,101.4 700.7,110.7 703.4,75.3 670.6,88.8 668.9,53.4 638.1,70.9 631.9,36 
	603.5,57.2 593,23.4 567.5,48 552.8,15.7 530.6,43.3 512,13.1 493.4,43.3 471.2,15.7 456.5,48 431,23.4 420.5,57.2 392.1,36 
	385.9,70.9 355.1,53.4 353.4,88.8 320.6,75.3 323.3,110.7 289.1,101.4 296.2,136.1 261.1,131.2 272.5,164.8 237,164.3 252.6,196.2 
	217.3,200.1 236.7,229.8 202.3,238.2 225.2,265.2 192.1,277.8 218.3,301.7 187,318.4 215.9,338.8 187,359.3 218.3,375.9 
	192.1,399.8 225.2,412.4 202.3,439.4 236.7,447.8 217.3,477.5 252.6,481.4 237,513.3 272.5,512.8 261.1,546.4 296.2,541.5 
	289.1,576.2 323.3,566.9 320.6,602.3 353.4,588.8 355.1,624.2 385.9,606.7 392.1,641.6 420.5,620.4 431,654.2 456.5,629.6 
	471.2,661.9 493.4,634.3 512,664.5 530.6,634.3 552.8,661.9 567.5,629.6 593,654.2 603.5,620.4 631.9,641.6 638.1,606.7 
	668.9,624.2 670.6,588.8 703.4,602.3 700.7,566.9 734.9,576.2 727.8,541.5 762.9,546.4 751.5,512.8 787,513.3 771.4,481.4 
	806.7,477.5 787.3,447.8 821.7,439.4 798.8,412.4 831.9,399.8 805.7,375.9 837,359.3 808.1,338.8 837,318.4 "/>
<linearGradient id="SVGID_3_" gradientUnits="userSpaceOnUse" x1="301.1667" y1="127.9772" x2="722.8333" y2="549.6437">
	<stop  offset="0" style="stop-color:#FFC832"/>
	<stop  offset="0.33" style="stop-color:#AF7D00"/>
	<stop  offset="0.66" style="stop-color:#FFC832"/>
	<stop  offset="1" style="stop-color:#AF7D00"/>
</linearGradient>
<polygon fill="url(#SVGID_3_)" points="512,40.5 529,68.2 549.4,42.9 562.8,72.4 586.2,49.9 595.8,80.9 621.8,61.4 627.5,93.4 
	655.7,77.4 657.3,109.8 687.3,97.5 684.9,129.9 716.2,121.4 709.7,153.2 741.9,148.7 731.4,179.4 763.9,179 749.6,208.2 
	781.9,211.8 764.1,239 795.7,246.6 774.7,271.4 805,282.9 781.1,304.8 809.7,320.1 783.2,338.8 809.7,357.5 781.1,372.8 805,394.7 
	774.7,406.3 795.7,431 764.1,438.6 781.9,465.8 749.6,469.5 763.9,498.7 731.4,498.2 741.9,529 709.7,524.5 716.2,556.3 
	684.9,547.8 687.3,580.1 657.3,567.8 655.7,600.2 627.5,584.2 621.8,616.2 595.8,596.7 586.2,627.7 562.8,605.2 549.4,634.8 
	529,609.5 512,637.1 495,609.5 474.6,634.8 461.2,605.2 437.8,627.7 428.2,596.7 402.2,616.2 396.5,584.2 368.3,600.2 366.7,567.8 
	336.7,580.1 339.1,547.8 307.8,556.3 314.3,524.5 282.1,529 292.6,498.2 260.1,498.7 274.4,469.5 242.1,465.8 259.9,438.6 
	228.3,431 249.3,406.3 219,394.7 242.9,372.8 214.3,357.5 240.8,338.8 214.3,320.1 242.9,304.8 219,282.9 249.3,271.4 228.3,246.6 
	259.9,239 242.1,211.8 274.4,208.2 260.1,179 292.6,179.4 282.1,148.7 314.3,153.2 307.8,121.4 339.1,129.9 336.7,97.5 366.7,109.8 
	368.3,77.4 396.5,93.4 402.2,61.4 428.2,80.9 437.8,49.9 461.2,72.4 474.6,42.9 495,68.2 "/>
<g opacity="0.1">
	<path d="M503,138.3c-0.1,0-0.2,0-0.4,0c0.2,0.2,0,0,0.2,0.2c0,0.1,0,0.1,0,0.2c0.1,0,0.1,0,0.2,0C503,138.6,503,138.4,503,138.3z"
		/>
	<path d="M593.8,136.1c0,0.1,0,0.2,0,0.4c0.1,0,0.1,0,0.2,0c0-0.1,0-0.2,0-0.4C594,136.1,593.9,136.1,593.8,136.1z"/>
	<path d="M655,418.2c0.3,0.4,0.4,0.4,0.4,0.4C655.5,418.4,655,418.2,655,418.2z"/>
	<path d="M318.6,496.7c0,0.2,0,0.4,0,0.6c0.1,0,0.1,0,0.2,0c0-0.2,0-0.4,0-0.6C318.7,496.7,318.7,496.7,318.6,496.7z"/>
	<circle cx="323.5" cy="417.8" r="4"/>
	<circle cx="352.8" cy="467.2" r="4"/>
	<circle cx="394.3" cy="506.7" r="4"/>
	<circle cx="631.7" cy="506.6" r="4"/>
	<circle cx="672.8" cy="466.4" r="4"/>
	<circle cx="702" cy="417.8" r="4"/>
	<g>
		<path d="M440.3,551l3.8,1.1c3.1,0.9,3.7,0.4,4.2-1.5l6.5-21.8c0.6-1.9,0.4-2.7-2.7-3.6L448,524l0.8-2.7c6.5,1.8,11,2.2,15.6,0.8
			l1.9,0.6l-9.1,30.6c-0.6,1.9-0.4,2.6,2.7,3.6l3.6,1.1l-0.8,2.7l-23.3-6.9L440.3,551z"/>
		<path d="M469.9,552.1c0.9-4.3,4.9-6.4,9.1-6.7l0.1-0.1c-4.5-3.1-5.7-6.8-5-10.4c1.5-7.3,9.4-9.4,16.7-8
			c8.4,1.7,12.6,6.1,11.7,10.8c-0.8,3.8-4,6.1-7.5,6.5l0,0.1c4.2,2.5,7.4,5.8,6.3,11.7c-1.4,6.8-8.9,10.2-18.2,8.3
			C473.6,562.4,468.7,558,469.9,552.1z M482.7,547.5c-2.4,0.8-4.6,2.9-5.2,6c-0.8,4.1,1.7,7.3,6.3,8.3c4.4,0.9,8.8-0.3,9.7-4.6
			c0.7-3.3-1.7-5.2-5.6-7L482.7,547.5z M482.1,533.6c-0.6,2.9,1.1,5.4,9,8.5c2.7-0.7,4.4-3.1,4.9-5.5c0.7-3.4-1.5-6.4-5.5-7.2
			C487.1,528.8,483,529.5,482.1,533.6z"/>
		<path d="M508.7,556.5l-0.2-4.1l20.8-25l4.2-0.2c-0.1,2.5-0.2,5-0.1,7.5l0.8,17l6.1-0.3l0.2,3.6l-6.1,0.3l0.2,3.8
			c0.1,2,0.5,2.6,3.7,2.5l1.6-0.1l0.1,2.9l-20.3,1l-0.1-2.9l2.2-0.1c3.3-0.2,3.6-0.8,3.5-2.8l-0.2-3.8L508.7,556.5z M512.5,552.7
			l12.5-0.6l-0.7-13.6l-0.1,0L512.5,552.7z"/>
		<path d="M548.6,553l-0.9-4l16.2-28.2l4.1-0.9c0.3,2.5,0.7,5,1.2,7.4l3.7,16.6l6-1.3l0.8,3.5l-6,1.3l0.8,3.7c0.4,2,0.9,2.5,4.1,1.8
			l1.6-0.4l0.6,2.8l-19.8,4.4l-0.6-2.8l2.1-0.5c3.2-0.7,3.4-1.4,3-3.4l-0.8-3.7L548.6,553z M551.6,548.6l12.2-2.7l-3-13.3l-0.1,0
			L551.6,548.6z"/>
		<g>
			<path d="M704,317.1l0,2.7c0,3.3,0.7,3.7,2.7,3.6l27.7-0.2c2,0,2.7-0.4,2.7-3.7l0-2.7l2.9,0l0.3,40.9l-14.1,0.5l0-3
				c7.9-2.7,11.2-5.7,11.1-15.5c0-4.7-0.8-5.7-3.9-5.6l-10.5,0.1l0,1.2c0,5,3.1,7.8,7.8,8.4l0,3.2l-18.9,0.4l0-3.4
				c5-0.2,8.2-3.8,8.2-9l0-0.7l-12.4,0.1c-3,0-3.5,0.5-3.5,6.8c0.1,8.8,3.9,12.4,11.8,14.9l-0.2,3l-14.4-0.6l-0.3-41.3L704,317.1z"
				/>
			<path d="M721.3,300.2l3-2.4c5.7-4.7,6.9-10.2,5.4-15.2c-2.5-8.3-10.3-9.8-21.4-6.5c-8.1,2.4-15.4,6.8-12.9,15
				c2,6.8,6.5,7.7,12.8,5.9c2.1-0.6,2.5-1.1,1.9-3.1l-1.1-3.7l2.8-0.8l6.2,20.9l-2.8,0.8l-0.5-1.7c-0.9-3.2-1.7-3.3-3.6-2.7
				l-12.7,3.8l-0.9-2.9l4.2-4.5c-4.5-2.6-7.6-6.8-9.1-12c-3.9-13,1.4-23.2,13.2-26.7c11.1-3.3,22.3,3.9,26,16.3
				c1.5,5,1.6,9.2,0.7,12.6l3.6,2.6l0.7,2.5l-14.5,4.9L721.3,300.2z"/>
			<path d="M666.7,225.1l1.4,2.3c1.7,2.8,2.4,2.8,4.2,1.8l23.8-14.2c1.8-1,2.1-1.7,0.5-4.5l-1.4-2.3l2.5-1.5l20.9,35.1l-11.9,7.6
				l-1.6-2.6c5.4-6.3,6.7-10.6,1.8-19c-2.4-4-3.5-4.5-6.2-2.9l-9,5.4l0.6,1c2.6,4.3,6.7,5.2,11,3.3l1.6,2.7l-16.1,9.9l-1.7-2.9
				c4.2-2.7,5.2-7.4,2.5-11.9l-0.4-0.6l-10.6,6.3c-2.6,1.5-2.8,2.2,0.4,7.6c4.5,7.5,9.6,8.8,17.7,6.9l1.4,2.7l-12.7,6.8l-21.1-35.5
				L666.7,225.1z"/>
			<path d="M634.3,193.3l1.9,1.9c2.4,2.3,3.1,2.1,4.5,0.6l19.4-19.8c1.4-1.5,1.6-2.2-0.7-4.5l-1.9-1.9l2-2.1l17.1,16.7l-2,2.1
				l-2.2-2.1c-2.4-2.3-3.1-2.1-4.5-0.6l-18.7,19.1c-2.2,2.2-2.3,2.9,2.4,7.4c6.3,6.2,12.1,5.7,18.5,1.7l2.3,2.2l-10.7,9.9
				l-29.3-28.6L634.3,193.3z"/>
			<path d="M595.2,168.3l2.3,1.4c2.8,1.7,3.5,1.4,4.5-0.4l14.6-23.6c1.1-1.7,1.1-2.5-1.7-4.2l-2.3-1.4l1.5-2.5l20.3,12.5l-1.5,2.5
				l-2.6-1.6c-2.8-1.7-3.5-1.4-4.5,0.4l-14,22.8c-1.6,2.7-1.6,3.3,3.9,6.7c7.5,4.6,13.1,2.9,18.4-2.4l2.7,1.7l-8.3,12.1l-34.8-21.5
				L595.2,168.3z"/>
			<path d="M580.1,123.3c12.4,3.4,19.8,14.6,16.7,25.7c-3.1,11.1-15.2,16.8-27.6,13.4c-12.4-3.5-19.8-14.6-16.8-25.7
				C555.6,125.5,567.7,119.8,580.1,123.3z M570,159.8c7,2,12.1-2.8,15.2-14.1c3.1-11.3,1.3-18-5.8-19.9c-7.1-2-12.2,2.8-15.3,14.1
				C561,151.2,562.9,157.8,570,159.8z"/>
			<path d="M284.8,332.8c0.6-13.1,9.9-23.1,21.7-22.5c11.8,0.5,20.3,11.2,19.7,24.4c-0.6,13.2-9.9,23.1-21.7,22.6
				C292.6,356.7,284.2,346,284.8,332.8z M323.5,334.5c0.3-7.5-5.6-11.4-17.5-11.9c-12-0.5-18.2,2.9-18.5,10.3
				c-0.3,7.5,5.6,11.5,17.5,12C316.9,345.4,323.1,342,323.5,334.5z"/>
			<path d="M324.7,306.2l0.7-2.6c0.8-3.2,0.3-3.7-1.7-4.2l-26.8-6.9c-2-0.5-2.7-0.3-3.5,2.9l-0.7,2.6l-2.8-0.7l6-23.1l2.8,0.7
				l-0.8,2.9c-0.8,3.2-0.3,3.7,1.7,4.2l25.9,6.7c3,0.8,3.6,0.6,5.3-5.8c2.2-8.6-1.1-13.4-7.7-16.9l0.8-3.1l14,4.4l-10.2,39.6
				L324.7,306.2z"/>
			<path d="M336.4,262.3l1.3-2.3c1.6-2.9,1.2-3.5-0.6-4.5L313,241.9c-1.8-1-2.5-1-4.1,1.9l-1.3,2.3l-2.5-1.4l11.5-20.5l2.5,1.4
				l-1.3,2.3c-1.6,2.9-1.2,3.5,0.6,4.5l24.2,13.5c1.8,1,2.5,1,4.1-1.9l1.3-2.3l2.5,1.4L339,263.7L336.4,262.3z"/>
			<path d="M321.8,216.9l13.4-17.5l2.3,1.8l-1.8,2.4c-0.8,1.1-1.1,1.8-0.4,2.3c0.4,0.3,0.9,0.5,1.8,0.7l23.9,5.6l-10.6-19.1
				c-0.4-0.7-0.8-1.2-1.3-1.5c-1.7-1.3-4.3,0-5.8,2l-0.6,0.8l-2.3-1.8l11-14.4l2.3,1.8c-2.2,3.2-1.8,6.9,0.5,11.4l15,28.5l-3,4
				l-34.8-7.9c-3.9-0.9-4.5-0.6-7.1,2.6L321.8,216.9z"/>
			<path d="M381.5,201.5l2.1-1.6c2.6-2,2.5-2.7,1.2-4.4l-16.9-22c-1.3-1.6-1.9-1.9-4.5,0.1l-2.1,1.6l-1.8-2.3l32.4-25l9,10.9
				l-2.4,1.9c-6.9-4.6-11.3-5.4-19.1,0.5c-3.7,2.9-4,4.1-2.1,6.5l6.4,8.3l0.9-0.7c4-3,4.3-7.2,2-11.3l2.5-1.9l11.7,14.8l-2.7,2.1
				c-3.2-3.8-8-4.3-12.1-1.1l-0.6,0.4l7.5,9.8c1.8,2.4,2.5,2.5,7.5-1.3c6.9-5.4,7.5-10.6,4.8-18.4l2.5-1.7l8.2,11.8l-32.7,25.2
				L381.5,201.5z"/>
			<path d="M429,170.5l3.1-1.5c2.9-1.5,3-2.2,2.1-4l-12.7-25.8c-0.7-1.4-1.2-1.6-2.9-0.7c-5.8,2.9-5.4,10.6-3.9,15.3l-2.7,1.3
				l-5.6-13.6l35.9-17.7l7.4,12.7l-2.7,1.3c-2.8-4.1-8.8-9.1-14.6-6.2c-1.7,0.9-1.9,1.4-1.2,2.8l12.7,25.8c0.9,1.8,1.5,2.3,4.5,0.8
				l3.1-1.5l1.3,2.6l-22.4,11.1L429,170.5z"/>
			<path d="M536.1,130.4c-1.8-6.9-5.9-13.3-13.3-13.5c-8.6-0.3-12,5.9-12.4,17.7c-0.4,11.6,4,16.7,11.8,16.9
				c7.2,0.2,12.4-4.4,14.1-11.3l3.6,0.9c-2.7,9.6-9,14-20.2,13.6c-13.5-0.4-21.6-8.6-21.2-21c0.4-11.5,10.8-19.9,23.7-19.5
				c4.8,0.2,8.3,1.4,11,3.4l3.6-2.8l2.6,0.1l0.1,15.4L536.1,130.4z"/>
		</g>
	</g>
	<path d="M765.2,338.8C765.2,478.7,651.8,592,512,592S258.8,478.7,258.8,338.8C258.8,199,372.2,85.6,512,85.6S765.2,199,765.2,338.8
		z M511.6,99.2c-132.3,0-239.6,107.3-239.6,239.6c0,132.3,107.3,239.6,239.6,239.6c132.3,0,239.6-107.3,239.6-239.6
		C751.2,206.4,643.9,99.2,511.6,99.2z"/>
	<path d="M512.4,514.5c-96.4,0-174.9-78.5-174.9-174.9c0-96.4,78.5-174.9,174.9-174.9c96.4,0,174.9,78.5,174.9,174.9
		C687.3,436.1,608.9,514.5,512.4,514.5z M512.4,178.5c-88.9,0-161.1,72.3-161.1,161.2c0,88.9,72.3,161.1,161.1,161.1
		c88.9,0,161.1-72.3,161.1-161.1C673.6,250.8,601.3,178.5,512.4,178.5z"/>
	<g>
		<path d="M475.3,207.3l2.2-0.1h3.5h3.8l4.6,0.3l5.8,0.3l6.6,0.6l4.6,0.7l6.6,1l8.6,1.5l5.6,0.9l5.9,0.7h6.9l6.2-0.3l6.2-0.1
			l6.9-0.3l6.3-0.3l4.9-0.3l4,0.3l4.3,0.9l4.9,2.2l3.2,2.2l2.7,2.8l2.7,3.1l2.1,3.7l1.5,4.3l0.9,5.8l-0.1,4.6l-0.9,3.7l-1.3,3.8
			l-2.4,4.1l-2.5,2.7l-3,2.7l-2.7,1.8l-3.1,1.8l-3.7,1.6l-3.5,1l-3.1,0.4l-3.2,0.1l-1.8,4.6l-1.5,4.4l-0.7,4.1l-0.1,4.7L563,289
			l0.6,4.7l1.6,4.7l1.5,2.7l2.1,2.5l1.9,2.4l4.1,0.4l3.7,0.7l3.4,1.3l2.7,1.8l2.2,2.2l2.1,2.7l1.6,2.8l1.5,4.1l0.1,2.5l-0.6,2.8
			l-1,2.4l-1.5,2.5l-1.6,1.8l-2.2,1.5l-2.9,1.2l-3.2,0.7l-4.6,0.6l-4.3,0.4h-5.8l-6.5-0.3l-6.6-0.9l-8.7-1l-16.7-1.8l-11.1-0.7h-13
			l-18.7,0.9l-5.9,0.9l-4.1,0.6l-3.8,0.7l-4.9,0.7l-3.5,0.1l-4.6-0.4l-2.5-0.7l-3.4-1.2l-3.7-1.6l-3-1.8l-3.4-2.7l-3-2.7l-3.4-4.3
			l-3.4-5.5l-2.4-5.5l-2.8-6.3l-1.2-4.1l-0.4-3.7l-0.3-3.7l-0.3-5.5v-6.2l0.3-6.3l0.4-5.9l1-6.6l0.3-1.9l1.5-7.7l1.8-5.6l1.9-4.9
			l2.1-4.6l1.8-3.4l2.2-3.5l3.2-4l3.2-4l2.7-2.8l3.1-2.5l3-2.1l3.5-2.2l2.8-1.3l3.2-1.5l2.7-1.2l2.7-0.7l3.5-0.9l2.8-0.6
			L475.3,207.3z M490.7,214.7l1.9,1.9l1.8,2.4l1.5,2.8l1.2,2.8l0.9,2.5l0.9,4.3l-0.1,3.1l-0.7,3.8l-1.3,5.2l-1.5,4.4l-1.5,3
			l-1.5,2.2l7.4-0.1l7.1-0.1l8.7,0.3l7.4,0.3l5.3,0.3l9.6,0.9l8.7,0.9l7.1,0.9l5,1l4.9,0.7l4.7,0.1l4.4-0.6l3.4-1l3.5-1.8l2.8-1.8
			l2.4-1.8l1.9-2.5l1.6-2.8l1.2-3.2l0.4-2.7l-0.1-4.4l-1.2-4.3l-1.2-2.7l-2.2-3.5l-2.7-2.8l-3.5-2.2l-4.6-1.2l-4.1-0.1l-6,0.6
			l-6.5,0.1l-8.3,0.1l-6.2,0.4l-7.5,0.1l-5.8-0.3l-7.7-1.2l-6.8-1.2l-8.1-1.2l-6.3-1.2l-6.3-0.4L490.7,214.7z M465.1,242l0.7,2.7
			l0.9,2.5l1.3,2.4l1.9,2.5l1.6,1l3.1,0.9l2.8,0.1l2.1-0.1l2.5-1.5l3-2.4l2.2-2.4l1.9-3.5l-3,0.4l-5.5-0.6l-5.9-0.4l-4.3-0.7
			l-2.8-0.3L465.1,242z M457,227.8l3.7,2.7l2.5,1.8l2.8,1.9l2.4,1l3.4,0.7l4.1,0.6l4,0.1l3.5,0.4l3.1,0.1h1.9l1.5-0.4l1-0.4l0.7-1.5
			v-2.4l-0.9-4l-1.3-3.8l-1.2-2.1l-1.6-2.1l-1.8-1.6l-1.9-1l-2.4-0.9l-1.9-0.7l-2.2-0.7l-1.9-0.4h-1.9l-3.5,0.7l-3.7,1.2l-4.3,1.9
			l-5.5,3.1l-3.1,2.2l-3.2,2.8l-4.3,4.6l-3.4,4.4l-2.9,5.6l-2.5,5.6l-2.4,5.9l-1.5,7.5l-0.7,4.4l-1.2,9l-0.1,8V293l0.7,5.2l1.3,5.5
			l1.8,4.7l3,5.9l2.5,3.8l3,4.1l3.8,2.8l4,2.5l3.7,1.8l3.4,1l2.7,0.3h2.1l2.2-0.4l2.7-1.8l3.5-2.9l2.8-2.2l2.4-2.5l1.6-2.7l0.3-2.4
			l-0.4-2.2l-1.8-2.4l-1.9-2.7l-3.5-3.1l-3.7-3l20.2,0.1l26.8,0.6l22.7,0.6l16.7,0.9l8,0.6l-1.3-2.4l-1.3-2.7l-1.2-3.4l-0.6-3.8
			l-0.4-3.2v-6.2l0.1-4.4l0.7-5.2l1-3.7l2.4-5.6l-7.2-1.2l-8.9-1.2l-8.3-1l-9.1-0.6l-10-0.6l-12.4-0.1l-7.2,0.1l-5.8,0.1l-4.6,0.4
			l-5,0.3l-4.6,0.3l-3.1-0.1l-4.1-1l-1.9-0.9l-1.9-1.3l-2.2-2.1l-1.9-2.5l-2.1-3.7l-1.9-8l-0.7-9.3L457,227.8z M483.1,309.8l0.9,2.1
			l0.6,1.9l0.1,1.6l-0.1,2.1l-0.4,2.4l-1.3,2.8l-1.6,2.7l-2.7,2.7l10.8-0.6l10.5-0.4l8.1-0.3h7.4l6.5,0.4l14.3,1.3l16.5,1.8l5.2,0.6
			l5.6,0.3l5.2,0.3l3.7-0.3l4.7-0.4l2.7-0.4l2.2-0.9l1.3-1.3l0.9-1.5l0.4-1.5l0.3-2.4l-1.2-2.7l-1.2-1.9l-1.3-1.3l-1.8-1.5l-2.7-0.9
			l-4.1-0.9l-5.5-0.6l-9-0.9l-10-0.4l-23.2-0.9l-18.3-0.6L483.1,309.8z"/>
		<g>
			<path d="M366.1,309.5l16.3,2.5l-0.8,5.3c-0.3,2-0.6,3.3-0.8,3.9c-0.4,0.9-1,1.6-2,2.1c-0.9,0.5-2,0.7-3.3,0.5
				c-1-0.2-1.8-0.5-2.4-0.9c-0.6-0.5-1.1-1-1.4-1.6c-0.3-0.6-0.5-1.2-0.5-1.8c0-0.8,0.1-2,0.3-3.4l0.3-2.1l-6.2-0.9L366.1,309.5z
				 M379.1,314.9l-4.6-0.7l-0.3,1.8c-0.2,1.3-0.2,2.2-0.1,2.6c0.1,0.5,0.3,0.8,0.6,1.1c0.3,0.3,0.7,0.5,1.2,0.6
				c0.6,0.1,1.1,0,1.5-0.3c0.4-0.3,0.7-0.7,0.9-1.2c0.1-0.4,0.3-1.2,0.5-2.3L379.1,314.9z"/>
			<path d="M363.8,330.7l16.5,0.3l-0.1,7c0,1.8-0.2,3-0.5,3.8c-0.3,0.8-0.8,1.4-1.6,1.9c-0.8,0.5-1.6,0.7-2.6,0.7
				c-1.2,0-2.3-0.4-3-1.1c-0.8-0.7-1.3-1.8-1.5-3.3c-0.4,0.7-0.9,1.3-1.4,1.7c-0.5,0.5-1.4,1.1-2.7,1.8l-3.3,2l0.1-4l3.6-2.3
				c1.3-0.8,2.1-1.4,2.5-1.7c0.3-0.3,0.6-0.6,0.7-1c0.1-0.3,0.2-0.9,0.2-1.7l0-0.7l-6.9-0.1L363.8,330.7z M373.2,334.2l0,2.5
				c0,1.6,0,2.6,0.2,3c0.1,0.4,0.4,0.7,0.7,0.9c0.3,0.2,0.7,0.3,1.2,0.4c0.6,0,1-0.1,1.3-0.4c0.3-0.3,0.6-0.7,0.7-1.2
				c0-0.3,0.1-1.1,0.1-2.4l0-2.6L373.2,334.2z"/>
			<path d="M374.8,367.3c-1.7,0.3-3.1,0.3-4.3,0c-0.9-0.2-1.7-0.6-2.5-1.1c-0.8-0.5-1.4-1.1-1.8-1.8c-0.6-0.9-1-2.1-1.3-3.4
				c-0.4-2.4,0-4.4,1.2-6.1c1.2-1.7,3.2-2.8,5.8-3.3c2.6-0.5,4.8-0.1,6.5,1c1.7,1.2,2.8,2.9,3.3,5.3c0.4,2.4,0,4.5-1.2,6.2
				C379.3,365.7,377.4,366.8,374.8,367.3z M374.1,363.9c1.8-0.3,3.2-1,4-2c0.8-1,1.1-2.2,0.8-3.5c-0.2-1.3-0.9-2.3-2-3
				c-1.1-0.7-2.6-0.8-4.5-0.5c-1.9,0.3-3.2,1-4,2c-0.8,1-1,2.1-0.8,3.5c0.2,1.4,0.9,2.4,2,3C370.8,364.1,372.2,364.3,374.1,363.9z"
				/>
			<path d="M386.2,404.9l0.5,3.3c-1.9,0.3-3.4,0.2-4.7-0.5c-1.3-0.7-2.3-1.8-3.1-3.4c-1-2-1.1-3.9-0.3-5.9c0.7-1.9,2.3-3.4,4.6-4.6
				c2.5-1.2,4.7-1.5,6.7-0.9c2,0.6,3.5,2,4.5,4.1c0.9,1.8,1.1,3.6,0.5,5.2c-0.3,1-1,1.9-2,2.8l-2.1-2.6c0.7-0.5,1.1-1.2,1.3-2
				c0.2-0.8,0.1-1.6-0.3-2.4c-0.5-1.1-1.4-1.8-2.5-2.1c-1.1-0.3-2.6,0-4.3,0.8c-1.9,0.9-3.1,1.9-3.5,3c-0.5,1.1-0.4,2.1,0.1,3.2
				c0.4,0.8,1,1.4,1.8,1.7C383.9,405.2,384.9,405.2,386.2,404.9z"/>
			<path d="M387.1,417.9l13.4-9.6l1.9,2.7l-5.3,3.8l3.8,5.3l5.3-3.8l1.9,2.7l-13.4,9.6l-1.9-2.7l5.8-4.2l-3.8-5.3l-5.8,4.2
				L387.1,417.9z"/>
			<path d="M400.6,436.7l12.4-10.8l4.6,5.3c1.2,1.3,1.9,2.4,2.2,3.2c0.3,0.8,0.3,1.6,0.1,2.5s-0.8,1.6-1.5,2.2
				c-0.9,0.8-1.9,1.2-3,1.2c-1.1,0-2.2-0.5-3.3-1.4c0.2,0.8,0.2,1.6,0.1,2.2c-0.1,0.7-0.3,1.7-0.8,3.2l-1.1,3.6l-2.6-3l1.2-4.2
				c0.4-1.5,0.6-2.5,0.7-2.9c0-0.5,0-0.9-0.1-1.2c-0.1-0.3-0.5-0.8-1-1.4l-0.4-0.5l-5.2,4.5L400.6,436.7z M410,432.9l1.6,1.9
				c1,1.2,1.7,1.9,2.1,2.1c0.4,0.2,0.7,0.3,1.1,0.2c0.4,0,0.8-0.2,1.2-0.6c0.4-0.4,0.7-0.8,0.7-1.2c0.1-0.4,0-0.9-0.3-1.4
				c-0.1-0.2-0.7-0.8-1.5-1.9l-1.7-2L410,432.9z"/>
			<path d="M428.8,442.2l-10.5,12.7l-2.6-2.1l10.5-12.7L428.8,442.2z"/>
			<path d="M427.6,454.8l2.9,1.5c-0.4,1-0.5,1.9-0.3,2.7c0.2,0.7,0.8,1.4,1.7,1.9c0.9,0.6,1.7,0.8,2.4,0.7c0.7-0.1,1.2-0.4,1.5-0.9
				c0.2-0.3,0.3-0.7,0.2-1c0-0.4-0.3-0.8-0.6-1.2c-0.3-0.3-0.9-1-1.9-2c-1.3-1.3-2.1-2.4-2.3-3.4c-0.4-1.3-0.2-2.5,0.5-3.6
				c0.4-0.7,1.1-1.3,1.9-1.6c0.8-0.4,1.7-0.5,2.6-0.3c1,0.1,2,0.6,3.1,1.2c1.8,1.1,2.8,2.3,3.2,3.6c0.4,1.3,0.2,2.7-0.5,4l-2.9-1.7
				c0.3-0.8,0.4-1.5,0.2-2c-0.2-0.6-0.7-1.1-1.5-1.6c-0.8-0.5-1.6-0.7-2.2-0.7c-0.4,0-0.8,0.2-1,0.6c-0.2,0.3-0.2,0.7-0.1,1.1
				c0.2,0.5,0.8,1.4,2,2.6c1.2,1.2,2,2.2,2.4,2.9c0.4,0.8,0.7,1.6,0.7,2.4c0,0.8-0.3,1.7-0.8,2.6c-0.5,0.8-1.2,1.4-2.1,1.8
				c-0.9,0.4-1.8,0.6-2.9,0.4c-1-0.2-2.1-0.6-3.4-1.4c-1.8-1.1-2.9-2.4-3.3-3.8C426.7,458.1,426.9,456.5,427.6,454.8z"/>
			<path d="M446.4,472.2l6-12.3l-4.4-2.1l1.2-2.5L461,461l-1.2,2.5l-4.4-2.1l-6,12.3L446.4,472.2z"/>
			<path d="M464,471.1c0.5-1.6,1.2-2.9,2-3.8c0.6-0.7,1.3-1.2,2.2-1.7c0.8-0.4,1.7-0.7,2.5-0.7c1.1-0.1,2.3,0.1,3.6,0.5
				c2.3,0.8,3.9,2.1,4.8,4c0.9,1.9,0.9,4.1,0.1,6.7c-0.8,2.5-2.2,4.3-4,5.3c-1.8,1-3.9,1.1-6.2,0.3c-2.3-0.8-3.9-2.1-4.8-4
				C463.2,475.8,463.1,473.6,464,471.1z M467.2,472.1c-0.6,1.8-0.6,3.3-0.1,4.5c0.5,1.2,1.4,2,2.7,2.4c1.3,0.4,2.4,0.3,3.6-0.3
				c1.1-0.6,2-1.9,2.6-3.7c0.6-1.8,0.6-3.3,0.2-4.4c-0.5-1.1-1.4-1.9-2.7-2.4c-1.3-0.4-2.5-0.3-3.6,0.3
				C468.7,469.1,467.8,470.3,467.2,472.1z"/>
			<path d="M507.4,488.3l0-16.5l12.2,0l0,2.8l-8.9,0l0,3.7l8.3,0l0,2.8l-8.3,0l0,4.5l9.2,0l0,2.8L507.4,488.3z"/>
			<path d="M570.4,477.5l-7-14.9l3-1.4l2.8,5.9l5.9-2.8l-2.8-5.9l3-1.4l7,14.9l-3,1.4l-3.1-6.5l-5.9,2.8l3.1,6.5L570.4,477.5z"/>
			<path d="M582,453.3l2.8-1.8l4.9,7.5c0.8,1.2,1.3,1.9,1.6,2.2c0.5,0.5,1.1,0.8,1.7,0.8c0.7,0.1,1.4-0.2,2.2-0.7
				c0.8-0.5,1.3-1.1,1.5-1.6c0.2-0.6,0.2-1.1-0.1-1.7c-0.2-0.5-0.7-1.3-1.4-2.4l-5-7.7l2.8-1.8l4.7,7.3c1.1,1.7,1.8,2.9,2.1,3.7
				c0.3,0.8,0.4,1.5,0.3,2.3c-0.1,0.7-0.4,1.5-0.9,2.2c-0.5,0.7-1.3,1.4-2.4,2.1c-1.3,0.9-2.4,1.4-3.3,1.5c-0.9,0.1-1.7,0.1-2.4-0.1
				c-0.7-0.2-1.3-0.6-1.8-1c-0.7-0.7-1.5-1.8-2.6-3.3L582,453.3z"/>
			<path d="M609.4,453.6l-11.1-12.2l3.7-3.3l9.8,6.3l-5.4-10.3l3.7-3.3l11.1,12.2l-2.3,2.1l-8.7-9.6l6.3,11.8l-2.4,2.2l-11.1-7.4
				l8.7,9.6L609.4,453.6z"/>
			<path d="M637.6,424.3l-2.3,2.8l-3.8-1.3l-4.3,5l2,3.4l-2.3,2.7l-8.5-15.5l2.3-2.7L637.6,424.3z M628.6,424.7l-6.1-2.2l3.2,5.6
				L628.6,424.7z"/>
			<path d="M641.5,417.8l-14.2-8.3l1.6-2.8l13-0.3l-9.6-5.6l1.5-2.7l14.2,8.3l-1.7,2.9l-12.8,0.3l9.4,5.5L641.5,417.8z"/>
			<path d="M651.6,398.6l-15.1-6.7l1.4-3l15.1,6.7L651.6,398.6z"/>
			<path d="M657.8,383.4l-13-4.2l-1.5,4.6l-2.7-0.8l4-12.4l2.7,0.8l-1.5,4.6l13,4.2L657.8,383.4z"/>
			<path d="M664.4,353.8l-0.7,3.6l-3.9,0.7l-1.2,6.5l3.4,2l-0.7,3.5l-15-9.3l0.7-3.5L664.4,353.8z M656.9,358.6l-6.4,1.1l5.6,3.3
				L656.9,358.6z"/>
			<path d="M664.3,341.9l-13.7-0.1l0,4.9l-2.8,0l0.1-13.1l2.8,0l0,4.9l13.7,0.1L664.3,341.9z"/>
			<path d="M664,326.1l-16.4,1.6l-1.2-12.2l2.8-0.3l0.9,8.9l3.6-0.4l-0.8-8.3l2.8-0.3l0.8,8.3l4.4-0.4l-0.9-9.2l2.8-0.3L664,326.1z"
				/>
			<path d="M532.8,487.2l-1.9-13.6l-4.8,0.7l-0.4-2.8l12.9-1.8l0.4,2.8l-4.8,0.7l1.9,13.6L532.8,487.2z"/>
		</g>
		<g>
			<path d="M474.3,369.5l78.1,0.1l-39.1,60.4L474.3,369.5z M482.5,374l30.9,47.8l30.9-47.9L482.5,374z"/>
			<circle cx="513" cy="390.7" r="4"/>
			<g>
				<polygon points="478,363.6 479.1,364.6 481.7,364.7 479,362.1 478.6,362.6 478.3,363.1 				"/>
				<polygon points="481.2,359.3 485.5,364.7 487.7,364.7 482.4,358 482,358.4 481.5,358.9 				"/>
				<polygon points="491.1,364.7 493.2,364.6 486.5,354.2 485.9,354.6 485.4,355 485.1,355.3 				"/>
				<polygon points="489.2,352.1 496,364.7 498,364.7 490.6,351.1 490,351.5 489.6,351.8 				"/>
				<polygon points="494.4,349 501,364.7 503,364.7 496,348.2 495.2,348.6 494.7,348.9 				"/>
				<polygon points="499.8,346.8 505.4,364.7 507.2,364.7 501.5,346.2 500.9,346.4 500.3,346.6 				"/>
				<polygon points="505.5,345.3 509.5,364.7 511.3,364.7 507.3,345 506.8,345.1 506.2,345.1 				"/>
				<polygon points="512.7,344.6 512.9,364.7 514.7,364.7 514.5,344.5 513.7,344.6 513.2,344.6 				"/>
				<polygon points="518.8,344.9 515.9,364.7 517.7,364.7 520.6,345.2 519.8,345.1 519.3,345 				"/>
				<polygon points="525.6,346.4 520.1,364.7 521.9,364.7 527.3,347 526.7,346.8 526.1,346.5 				"/>
				<polygon points="531.6,348.7 525.7,364.7 527.6,364.7 533.2,349.5 532.5,349.2 531.9,348.9 				"/>
				<polygon points="537.9,352.5 531.5,364.7 533.5,364.7 539.3,353.5 538.7,353.1 538.2,352.7 				"/>
				<polygon points="543.7,357.6 538.1,364.7 540.4,364.7 544.9,358.8 544.4,358.3 544,357.8 				"/>
				<polygon points="547.4,362 544.5,364.7 547.1,364.7 548.5,363.5 548,362.8 547.7,362.4 				"/>
			</g>
			<g>
				<polygon points="507.6,432 507.9,430.5 506.5,428.3 505.8,431.9 506.4,432 507,432 				"/>
				<polygon points="502.2,431.6 504.4,425.1 503.2,423.2 500.4,431.3 501.1,431.5 501.7,431.6 				"/>
				<polygon points="501.4,420.4 500.2,418.7 495.1,430 495.7,430.2 496.3,430.4 496.7,430.5 				"/>
				<polygon points="491.9,428.8 498.7,416.3 497.6,414.6 490.3,428.1 490.9,428.4 491.4,428.6 				"/>
				<polygon points="486.5,426.2 496,412.1 494.9,410.4 484.9,425.2 485.6,425.7 486.1,426 				"/>
				<polygon points="481.6,422.9 493.6,408.4 492.6,406.9 480.2,421.7 480.7,422.1 481.2,422.5 				"/>
				<polygon points="477.2,418.8 491.4,405 490.4,403.5 476.1,417.5 476.4,417.9 476.7,418.3 				"/>
				<polygon points="472.8,413.2 489.5,402.1 488.6,400.6 471.8,411.7 472.2,412.3 472.5,412.8 				"/>
				<polygon points="469.7,407.8 487.9,399.6 486.9,398.1 469,406.2 469.3,407 469.5,407.5 				"/>
				<polygon points="467.2,401.4 485.6,396 484.6,394.5 466.8,399.6 467,400.2 467.1,400.9 				"/>
				<polygon points="466,395.1 482.6,391.4 481.5,389.8 465.8,393.3 465.9,394.1 465.9,394.7 				"/>
				<polygon points="465.7,387.8 479.4,386.5 478.3,384.8 465.8,386 465.8,386.7 465.7,387.3 				"/>
				<polygon points="466.8,380.1 475.8,380.9 474.6,379 467.2,378.4 467,379.1 466.9,379.8 				"/>
				<polygon points="468.5,374.5 472.4,375.6 470.9,373.4 469.2,372.9 468.9,373.7 468.7,374.1 				"/>
			</g>
			<g>
				<polygon points="557.8,372.9 556.3,373.2 554.9,375.4 558.5,374.5 558.3,373.9 558.1,373.4 				"/>
				<polygon points="559.7,377.9 552.8,378.6 551.6,380.5 560.1,379.7 560,379 559.8,378.4 				"/>
				<polygon points="549.8,383.3 548.7,385.1 561.1,385.1 561.1,384.4 561,383.8 561,383.4 				"/>
				<polygon points="561.4,388.5 547.1,387.5 546.1,389.1 561.4,390.3 561.4,389.6 561.4,389 				"/>
				<polygon points="561.2,394.5 544.4,391.7 543.4,393.3 560.9,396.4 561.1,395.5 561.1,394.9 				"/>
				<polygon points="560.2,400.3 542.1,395.3 541.1,396.9 559.7,402.1 559.8,401.5 560,400.8 				"/>
				<polygon points="558.3,405.9 539.8,398.8 538.9,400.3 557.6,407.6 557.8,407.1 558,406.6 				"/>
				<polygon points="555,412.3 538,401.6 537,403.1 554,413.9 554.4,413.2 554.7,412.8 				"/>
				<polygon points="551.4,417.3 536.4,404.2 535.4,405.7 550.2,418.7 550.7,418.1 551.1,417.7 				"/>
				<polygon points="546.5,422.3 534.1,407.7 533.1,409.2 545.1,423.3 545.6,422.9 546.1,422.5 				"/>
				<polygon points="541.3,426 531.1,412.4 530,414 539.7,426.9 540.4,426.5 541,426.2 				"/>
				<polygon points="534.7,429.3 527.9,417.3 526.8,419 533,429.9 533.7,429.6 534.3,429.4 				"/>
				<polygon points="527.3,431.4 524.3,422.9 523.1,424.8 525.5,431.7 526.3,431.6 526.9,431.5 				"/>
				<polygon points="521.5,432.1 520.9,428.2 519.4,430.4 519.7,432.2 520.6,432.2 521.1,432.2 				"/>
			</g>
		</g>
		<g>
			<polygon points="454.1,263.6 453.7,263.9 453.3,264.3 453,264.8 452.8,265.2 452.5,265.7 452.4,266.1 452.3,266.5 452.1,267 
				452.1,267.4 452.1,267.8 452,268.2 452,268.5 452.1,268.9 452.2,269.2 452.3,269.6 452.4,269.9 452.7,270.3 452.9,270.5 
				453.2,270.8 453.5,271.1 453.7,271.3 454.1,271.5 454.5,271.6 455,271.8 455.6,271.8 459.2,271.9 473.2,272.4 472.7,272.8 
				472.2,273.5 471.9,273.9 471.7,274.4 471.3,275 470.9,275.7 470.6,276.3 470.4,277 470.1,277.7 469.9,278.5 469.7,279.3 
				469.5,280 469.4,280.9 469.4,282 469.3,283.1 469.3,283.9 469.3,285.1 469.5,286.5 469.5,287.5 469.5,288.6 469.6,290.1 
				469.5,291.2 469.5,292.3 469.5,293.2 469.5,293.9 469.4,294.4 469.3,295 469.1,295.5 469,295.8 468.8,296.1 468.7,296.3 
				468.7,296.5 468.7,296.7 468.8,296.9 469,297 469.2,297.1 469.5,297.2 469.7,297.1 470.4,296.8 471.1,296.4 471.7,296 
				472.2,295.5 472.6,294.9 473,294.1 473.2,293.3 473.4,292 473.5,290.4 473.4,288.2 473.1,286.1 472.9,283.7 472.6,281.2 
				472.6,279.9 472.6,278.4 472.7,277.4 472.8,276.3 473,275.5 473.2,274.8 473.7,274 474.2,273.1 474.5,272.6 474.9,272.2 
				475.1,271.5 475.1,270.6 475.2,269.3 475.1,268.3 475,267.7 474.7,267.1 474.1,266.6 473.5,266.3 472.9,266.1 471.9,266 
				466.9,265.8 457,265.5 456.5,265.4 456.1,265.2 455.7,264.9 455.3,264.5 455.1,264.1 454.9,263.7 454.8,263.5 454.6,263.5 
				454.3,263.4 			"/>
			<polygon points="457.6,282.5 457.1,282.4 456.5,282.4 455.9,282.4 455.3,282.5 454.7,282.8 454.2,283.1 453.7,283.4 453.2,284 
				452.9,284.7 452.7,285.4 452.5,286.3 452.4,287.3 452.3,289.3 452.3,291.6 452.3,292.6 452.3,293.1 452.3,293.6 452.3,294.1 
				452.2,294.6 451.9,295.1 451.6,295.5 451.5,295.6 451.4,295.8 451.4,296.1 451.6,296.2 451.8,296.4 452.1,296.5 452.5,296.5 
				452.9,296.5 453.3,296.4 453.8,296.2 454.5,295.9 455.1,295.5 455.5,295.1 455.9,294.7 456.2,294 456.4,293.1 456.5,291.8 
				456.5,290.7 456.3,289.4 456.3,287.3 456.4,286 456.5,285.3 456.7,284.7 457,284.3 457.3,283.9 457.6,283.6 457.9,283.4 
				457.9,283 457.9,282.7 			"/>
			<polygon points="481.5,264.7 481,265.3 480.6,265.8 480.3,266.4 480.1,266.9 479.9,267.6 479.8,268.1 479.7,268.6 479.6,269.1 
				479.6,269.6 479.7,270 479.8,270.4 479.9,270.9 480.2,271.3 480.4,271.6 480.7,271.9 481,272 481.4,272.3 482,272.5 482.6,272.6 
				484.1,272.8 493.6,273.2 494.4,273.2 495.2,273.4 495.8,273.5 496.3,273.6 496.8,273.8 497.1,274.1 497.6,274.5 497.9,274.8 
				498.2,275.2 498.5,275.5 498.7,276 498.9,276.6 499.1,277.5 499.3,280.8 498.9,296.9 498.8,297.4 498.9,297.7 499,297.8 
				499.3,297.9 499.6,297.9 500.1,297.7 500.7,297.3 501.1,296.9 501.3,296.4 501.5,296 501.6,295.1 501.7,292.3 502,284.4 
				502.2,276.4 502.2,275.1 502.1,273.8 501.9,272.2 501.6,271.2 501.4,270.4 501,269.7 500.5,269 499.8,268.4 498.7,267.9 
				497.7,267.4 496.6,267.1 495.7,267 494.3,266.8 489.8,266.6 485.2,266.5 484.7,266.4 484.2,266.3 483.8,266 483.2,265.5 
				482.9,265 482.7,264.6 482.4,264.5 482,264.4 481.8,264.5 			"/>
			<polygon points="509.1,265.8 508.7,266.3 508.3,266.8 508,267.4 507.7,267.9 507.6,268.4 507.5,269 507.4,269.5 507.4,269.8 
				507.5,270.2 507.6,270.7 507.7,271.2 508,271.5 508.4,272.1 508.7,272.5 509.2,272.8 509.7,273.1 510.7,273.5 511.6,273.7 
				512.6,274 513.2,274.1 513.9,274.3 514.4,274.5 514.8,274.7 515,275.1 515.5,275.4 515.7,275.8 515.9,276.3 516,277.5 
				515.9,279.5 515.8,285.1 515.4,297.3 515.4,297.7 515.4,298.1 515.6,298.3 515.8,298.4 516,298.5 516.4,298.5 516.7,298.3 
				517.1,297.9 517.5,297.5 517.8,297 518,296.4 518.2,295.7 518.3,294.5 518.9,274.9 519,273.1 518.8,271.9 518.6,270.9 518.3,270 
				517.9,269.3 517.3,268.8 516.6,268.4 515.2,268 513.6,267.7 512.4,267.4 511.6,267 511,266.7 510.7,266.2 510.5,265.8 
				510.3,265.4 509.9,265.4 509.5,265.4 509.3,265.6 			"/>
			<polygon points="527.9,266.4 527.3,267.1 526.8,267.8 526.5,268.5 526.3,269.2 526.1,269.9 526,270.4 526,270.9 526.1,271.3 
				526.2,271.9 526.5,272.6 526.9,273.1 527.2,273.5 527.7,273.9 528.4,274.1 529,274.3 530.2,274.5 531.7,274.5 530.7,275.9 
				529.9,277.2 529.3,278.2 528.8,279.3 528.4,280.5 527.9,281.8 527.6,283.1 527.4,284.2 527.4,285 527.4,286 527.3,287.1 
				527.3,288.1 527.4,289.5 527.5,290.9 527.6,291.7 527.6,292 527.6,292.3 527.4,292.4 526.8,292.4 523.7,292.3 522.3,298.3 
				530.9,298.6 531.2,297.2 531.3,296 531.3,295 531.3,294 531.2,292.7 530.7,290.2 530.4,288.1 530.3,286.1 530.2,284.6 
				530.3,283.3 530.5,282.3 530.7,281.2 531,280.1 531.5,278.8 532.3,277.1 533.7,274.6 539.7,274.7 540.6,274.8 541.4,274.9 
				542,275.1 542.6,275.4 543.2,275.7 544.1,276.3 544.5,276.8 545,277.4 545.3,278.2 545.4,279.2 545.5,280.7 545.2,296.1 
				545,298.9 545,299.2 545.2,299.4 545.5,299.4 545.9,299.3 546.2,299.1 546.9,298.4 547.2,297.9 547.5,297.4 547.7,296.8 
				547.9,295.2 548.2,285.6 548.3,280.1 548.4,277.1 548.3,275.1 548.1,273.7 547.8,272.7 547.6,271.9 547.1,271.1 546.4,270.4 
				545.5,269.8 544.3,269.3 543.4,269 542.3,268.7 540.9,268.6 539,268.5 535.7,268.4 533.6,268.3 532.2,268.3 531.3,268.2 
				530.6,268.1 530,267.7 529.6,267.4 529.3,266.9 529.1,266.6 528.9,266.3 528.6,266.2 528.3,266.2 			"/>
		</g>
	</g>
</g>
<linearGradient id="SVGID_4_" gradientUnits="userSpaceOnUse" x1="512" y1="768" x2="512" y2="456.7206">
	<stop  offset="0" style="stop-color:#130C0E;stop-opacity:0"/>
	<stop  offset="7.066998e-002" style="stop-color:#130C0E;stop-opacity:0.1343"/>
	<stop  offset="0.5" style="stop-color:#130C0E;stop-opacity:0.95"/>
</linearGradient>
<path fill="url(#SVGID_4_)" d="M512,456.7L512,456.7C512,456.7,512,456.7,512,456.7C512,456.7,512,456.7,512,456.7L512,456.7
	c-256.5,0-427.9,46.7-512,77V768h512h0h512V533.7C939.9,503.5,768.5,456.7,512,456.7z"/>
<g>
	<path fill="#FFFFFF" d="M182.8,556.4c0,17.3-12.4,27.8-27.4,27.8c-16,0-27.1-11.8-27.1-27.1c0-13.8,9.8-27.3,28.1-27.3
		C170.8,529.8,182.8,540.6,182.8,556.4z M140.4,555.5c0,13.7,6.1,25.3,16.3,25.3c7.6,0,13.8-7.4,13.8-22.2
		c0-15.9-6.5-25.5-15.7-25.5C146.8,533.1,140.4,541.7,140.4,555.5z"/>
	<path fill="#FFFFFF" d="M229.9,581c-4.7,0.6-9.5,1.7-14.6,2.9l-0.6-0.6v-4.8c-1.4,1.1-2.2,1.9-4,3c-2.3,1.5-4.5,2.4-7,2.4
		c-6.7,0-10.5-4.3-10.5-11.4V556c0-3.8-0.3-4.2-4.4-5.2v-2.3c4.9-0.2,9.8-0.7,14.8-1.4c-0.2,3.4-0.2,7.4-0.2,12.1v11.6
		c0,5.2,2.7,7,5.5,7c2.2,0,3.9-0.5,5.8-2.2v-19.4c0-4.1-0.2-4.4-5.1-5.3v-2.3c5-0.2,10-0.6,15.3-1.4v26c0,4.2,0.5,5,3.4,5.3l1.8,0.2
		V581z"/>
	<path fill="#FFFFFF" d="M250.4,583c-1.4,0.6-2.7,0.9-3.3,0.9c-6.2,0-9.8-2.9-9.8-10.1v-22.4h-5l-0.4-1l2.2-2.9h3.2v-5.8l9-6.2
		l1.1,0.5v11.6h7.8c1,0.9,0.8,3.2-0.5,3.8h-7.4v19.8c0,6.2,2.9,7,4.6,7c1.4,0,2.6-0.3,4-1l0.8,2.8L250.4,583z"/>
	<path fill="#FFFFFF" d="M282.3,557.9c-2.2-4.9-4.7-8.2-8.5-8.2c-2.1,0-4.1,1.8-4.1,4.3c0,2.5,1.8,4.3,5.9,6.2
		c6.5,2.8,10.8,5.6,10.8,11.8c0,7.9-7.6,11.8-14.3,11.8c-4.2,0-8.5-1.5-10.1-2.7c-0.5-1.3-1.2-6.9-1.3-10.7l2.4-0.2
		c1.8,5,5.4,10.6,10.3,10.6c2.6,0,4.4-1.9,4.4-4.3c0-2.3-1.1-4.3-6.1-6.6c-3.7-1.8-10.2-5-10.2-11.8c0-6.2,5-11.4,13.4-11.4
		c3.7,0,5.8,0.6,7.7,1.4c0.8,1.8,1.8,7.5,1.9,9.1L282.3,557.9z"/>
	<path fill="#FFFFFF" d="M307.8,583c-1.4,0.6-2.7,0.9-3.3,0.9c-6.2,0-9.8-2.9-9.8-10.1v-22.4h-5l-0.4-1l2.2-2.9h3.2v-5.8l9-6.2
		l1.1,0.5v11.6h7.8c1,0.9,0.8,3.2-0.5,3.8h-7.4v19.8c0,6.2,2.9,7,4.6,7c1.4,0,2.6-0.3,4-1l0.8,2.8L307.8,583z"/>
	<path fill="#FFFFFF" d="M343.6,583.9c-2.2,0-3.8-0.7-4.9-1.7c-1.1-1-1.7-2-2.1-3c-3,2-6.8,4.6-8.3,4.6c-6.8,0-10.8-5.3-10.8-10.2
		c0-4.2,1.9-6.2,6.1-7.7c4.7-1.8,10.9-3.7,12.7-5.3v-2.4c0-5-1.9-7.8-4.9-7.8c-1,0-1.9,0.5-2.6,1.4c-1,1.1-1.7,3-2.3,5.5
		c-0.6,2.1-1.7,2.7-3.4,2.7c-2.1,0-5-1.9-5-4c0-1.4,1-2.5,2.8-3.8c3-2.1,8.7-4.9,13.3-5.7c3.3,0,5.7,0.7,7.8,2.3
		c3.4,2.6,4.2,6.1,4.2,10.6v13.2c0,3.7,1.3,4.7,2.6,4.7c1,0,1.8-0.3,2.7-0.6l0.8,2.6L343.6,583.9z M336.3,563.8
		c-1.4,0.7-2.8,1.6-4.4,2.5c-2.5,1.3-3.8,2.7-3.8,5.4c0,4.5,3,6.2,4.8,6.2c1.1,0,2-0.3,3.4-1.3V563.8z"/>
	<path fill="#FFFFFF" d="M377.2,583v-2.6c3.4-0.6,3.8-0.8,3.8-6.5v-13.6c0-5.8-2.6-7.5-5.5-7.5c-2,0-3.8,0.9-5.9,2.5v19.4
		c0,5,0.5,5.2,3.8,5.8v2.6H354v-2.6c5-0.7,5.4-0.8,5.4-6.2v-16.6c0-4.8-0.4-5.1-4.3-5.8v-2.3c4.6-0.6,9.8-1.7,14.5-3v5.9
		c1.6-1.1,3.2-2.4,5-3.5c2.4-1.5,3.9-2.2,6.2-2.2c6.5,0,10.5,4.8,10.5,12.8v15.1c0,5,0.5,5.2,4.6,5.8v2.6H377.2z"/>
	<path fill="#FFFFFF" d="M440.5,580.9c-1.9,0.3-9.4,1.3-15.8,3.1v-4.6l-4.8,3.1c-2,1.2-3.1,1.4-4.1,1.4c-6.8,0-16.3-5.6-16.3-17.5
		c0-10.9,9.4-19.8,21.9-19.8c0.6,0,1.5,0.2,3.3,0.4v-9.7c0-4.3-0.5-4.7-5.4-5.3v-2.5c5.1-0.6,11.5-1.7,15.6-2.9v46.2
		c0,4.6,0.4,4.9,3.8,5.3l1.8,0.2V580.9z M424.8,554.2c-1.3-2.8-3.4-4.2-5.8-4.2c-1.9,0-8.1,2.1-8.1,14.2c0.1,9.8,5.8,13.6,9.4,13.6
		c1.4,0,2.6-0.2,4.4-1.3V554.2z"/>
	<path fill="#FFFFFF" d="M443.3,583v-2.6c4.6-0.6,5.1-0.9,5.1-6.6V558c0-5.3-0.6-5.5-4.4-6.2v-2.3c4.8-0.6,10.1-1.6,14.6-2.9v27.2
		c0,5.5,0.4,5.9,5.2,6.6v2.6H443.3z M447.2,536c0-3.2,2.6-5.6,5.7-5.6c3.2,0,5.7,2.4,5.7,5.6c0,3-2.5,5.6-5.8,5.6
		C449.9,541.6,447.2,539,447.2,536z"/>
	<path fill="#FFFFFF" d="M489.9,583v-2.6c3.4-0.6,3.8-0.8,3.8-6.5v-13.6c0-5.8-2.6-7.5-5.5-7.5c-2,0-3.8,0.9-5.9,2.5v19.4
		c0,5,0.5,5.2,3.8,5.8v2.6h-19.3v-2.6c5-0.7,5.4-0.8,5.4-6.2v-16.6c0-4.8-0.4-5.1-4.3-5.8v-2.3c4.6-0.6,9.8-1.7,14.5-3v5.9
		c1.6-1.1,3.2-2.4,5-3.5c2.4-1.5,3.9-2.2,6.2-2.2c6.5,0,10.5,4.8,10.5,12.8v15.1c0,5,0.5,5.2,4.6,5.8v2.6H489.9z"/>
	<path fill="#FFFFFF" d="M549.1,548.4c-0.5,1.4-2,4-3.4,4.9l-4.6-0.3c1.3,1.5,2.2,3.4,2.2,6.1c0,8.3-7.4,12.5-15.3,12.5
		c-1.4,0-2.7-0.2-3.9-0.4c-0.6,0.6-1.1,1.4-1.1,2.2c0,1.4,1.3,3.1,5.1,3c2.6,0,4.8-0.1,7.4-0.1c5,0,12.3,1.4,12.3,9.8
		c0,9.1-10.7,16.4-21.4,16.4c-10.3,0-15-5.3-15-9.8c0-1.8,0.9-3,2.5-4.4c1.9-1.5,4-2.6,6.1-3.9c-3.4-1.2-4.9-2.7-6-4.4
		c-0.9-1.3-1.3-3.2-1.2-4.3c4.2-1.7,6.6-3.8,8.2-5.3c-4.8-1.6-7.8-5.7-7.8-10.6c0-9,8.3-13.1,15.5-13.1c3.3,0,5.6,0.6,8.6,2.2
		c4.2-0.2,8.4-0.6,11.6-1L549.1,548.4z M521.9,586.3c-1.1,1.2-1.8,2.4-1.8,4.1c0,3.8,4,7.7,10.3,7.7c6.1,0,9.7-3.3,9.7-7.5
		c0-2.9-2-4.6-4.5-5.2c-2.2-0.6-3.9-0.7-6.9-0.7C524.8,584.6,523.1,585,521.9,586.3z M523.3,558.5c0,5.6,1.8,10.1,5.5,10.1
		c3.1,0,4.8-3.2,4.8-9.1c0-5.2-1.7-9.8-5.5-9.8C525.6,549.6,523.3,552.6,523.3,558.5z"/>
	<path fill="#FFFFFF" d="M605.1,543.7c-0.9-3-1.8-5.4-3.2-6.9c-1.7-1.8-3.8-2.3-8.3-2.3h-4c-2.8,0-3.1,0.2-3.1,2.8V555h6.5
		c7.2,0,7.9-0.7,8.9-5.8h2.9V565h-2.9c-0.9-5.4-1.7-6.1-8.9-6.1h-6.5v12.6c0,7.5,0.6,8,7.6,8.6v2.8h-25v-2.8c5.8-0.6,6.6-1,6.6-8.6
		v-29.5c0-7.2-0.8-7.8-6.6-8.2V531H607c0.1,1.4,0.5,7.5,0.9,12.2L605.1,543.7z"/>
	<path fill="#FFFFFF" d="M626.4,555c2.9-5,6-8.4,9-8.4c3.2,0,5.4,2.2,5.4,5c0,2.9-1.8,5.1-3.9,5.9c-1.1,0.4-1.9,0.2-2.5-0.3
		c-1.4-1.1-2.3-1.7-3.7-1.7c-1.5,0-3.1,1-4.5,4.2v14.9c0,5,0.5,5.3,6.6,5.8v2.6h-21.9v-2.6c4.3-0.5,5.1-0.9,5.1-5.8v-17.4
		c0-4.1-0.6-4.4-4.3-5.3v-2.2c4.8-0.6,9.5-1.5,14.5-3v8.5H626.4z"/>
	<path fill="#FFFFFF" d="M673.6,575c-4.9,7.3-11.1,8.9-14.4,8.9c-10.6,0-16.6-7.9-16.6-17.1c0-6.1,2.6-11.2,5.9-14.5
		c3.5-3.5,7.9-5.7,12.3-5.7c7.4,0,13,6.3,13,12.9c0,1.6-0.5,2.6-2.3,2.9c-1.4,0.2-11.2,1-19,1.3c0.4,8.6,5.1,12.9,10.8,12.9
		c3.1,0,6.1-1,8.9-3.4L673.6,575z M652.8,559.9c3.3-0.1,6.2-0.2,9.5-0.2c1.2-0.1,1.6-0.2,1.7-1.6c0-4.1-1.8-8.2-4.9-8.2
		C656.1,549.8,653.3,553.5,652.8,559.9z"/>
	<path fill="#FFFFFF" d="M699.8,557.9c-2.2-4.9-4.7-8.2-8.5-8.2c-2.1,0-4.1,1.8-4.1,4.3c0,2.5,1.8,4.3,5.9,6.2
		c6.5,2.8,10.8,5.6,10.8,11.8c0,7.9-7.6,11.8-14.3,11.8c-4.2,0-8.5-1.5-10.1-2.7c-0.5-1.3-1.2-6.9-1.3-10.7l2.4-0.2
		c1.8,5,5.4,10.6,10.3,10.6c2.6,0,4.4-1.9,4.4-4.3c0-2.3-1.1-4.3-6.1-6.6c-3.7-1.8-10.2-5-10.2-11.8c0-6.2,5-11.4,13.4-11.4
		c3.7,0,5.8,0.6,7.7,1.4c0.8,1.8,1.8,7.5,1.9,9.1L699.8,557.9z"/>
	<path fill="#FFFFFF" d="M729.2,583v-2.6c3.8-0.6,4.1-1.1,4.1-5.5v-14.1c0-6.2-2.6-8.2-5.8-8.2c-1.9,0-4.1,0.6-5.8,2.2v20.1
		c0,4.4,0.3,5,3.7,5.5v2.6h-19v-2.6c4.6-0.5,5-0.8,5-5.8v-37.3c0-4.9-0.3-4.9-4.5-5.4v-2.3c4.2-0.6,9.9-1.7,14.7-2.9v25.1
		c2.7-2.8,6.7-5.2,10.6-5.2c7,0,11,4.5,11,13.3v14.6c0,5.1,0.5,5.1,4.6,5.8v2.6H729.2z"/>
	<path fill="#FFFFFF" d="M796.6,583v-2.6c3.5-0.5,4.2-0.8,4.2-5.8v-13.8c0-6.6-3.1-7.8-5.7-7.8c-1.6,0-3.6,0.5-6.2,2.6
		c0.1,0.9,0.2,2,0.2,3.2V575c0,4.6,0.6,5,4.2,5.4v2.6h-18.5v-2.6c3.8-0.6,4.1-0.7,4.1-5.4v-14.6c0-5.8-2.6-7.5-5.5-7.5
		c-1.9,0-3.9,0.9-6.2,2.6V575c0,4.6,0.6,5,3.6,5.4v2.6H752v-2.6c4.6-0.6,5-0.8,5-5.8v-16.8c0-4.6-0.4-5.4-4.1-5.9v-2.3
		c3.8-0.6,9.1-1.7,14.1-3v6.2c1.8-1.3,3.3-2.4,5-3.4c2.5-1.6,4.6-2.6,7-2.6c4.4,0,7.7,2.6,9.1,6.3c1.9-1.5,3.8-2.7,5.8-4.1
		c1.8-1.2,3.9-2.2,6.3-2.2c7,0,10.7,4.7,10.7,12.9V575c0,4.6,0.3,4.8,4.6,5.4v2.6H796.6z"/>
	<path fill="#FFFFFF" d="M845.5,583.9c-2.2,0-3.8-0.7-4.9-1.7c-1.1-1-1.7-2-2.1-3c-3,2-6.8,4.6-8.3,4.6c-6.8,0-10.8-5.3-10.8-10.2
		c0-4.2,1.9-6.2,6.1-7.7c4.7-1.8,10.9-3.7,12.7-5.3v-2.4c0-5-1.9-7.8-4.9-7.8c-1,0-1.9,0.5-2.6,1.4c-1,1.1-1.7,3-2.3,5.5
		c-0.6,2.1-1.7,2.7-3.4,2.7c-2.1,0-5-1.9-5-4c0-1.4,1-2.5,2.8-3.8c3-2.1,8.7-4.9,13.3-5.7c3.3,0,5.7,0.7,7.8,2.3
		c3.4,2.6,4.2,6.1,4.2,10.6v13.2c0,3.7,1.3,4.7,2.6,4.7c1,0,1.8-0.3,2.7-0.6l0.8,2.6L845.5,583.9z M838.2,563.8
		c-1.4,0.7-2.8,1.6-4.4,2.5c-2.5,1.3-3.8,2.7-3.8,5.4c0,4.5,3,6.2,4.8,6.2c1.1,0,2-0.3,3.4-1.3V563.8z"/>
	<path fill="#FFFFFF" d="M879.2,583v-2.6c3.4-0.6,3.8-0.8,3.8-6.5v-13.6c0-5.8-2.6-7.5-5.5-7.5c-2,0-3.8,0.9-5.9,2.5v19.4
		c0,5,0.5,5.2,3.8,5.8v2.6H856v-2.6c5-0.7,5.4-0.8,5.4-6.2v-16.6c0-4.8-0.4-5.1-4.3-5.8v-2.3c4.6-0.6,9.8-1.7,14.5-3v5.9
		c1.6-1.1,3.2-2.4,5-3.5c2.4-1.5,3.9-2.2,6.2-2.2c6.5,0,10.5,4.8,10.5,12.8v15.1c0,5,0.5,5.2,4.6,5.8v2.6H879.2z"/>
	<path fill="#FFFFFF" d="M252.1,665.4c-0.6,3.4-2.3,11.4-3,13.5h-39v-2.8c7-0.6,7.8-1.1,7.8-7.8v-30.6c0-6.9-0.8-7.4-6.9-7.9V627
		h24.5v2.8c-6.2,0.6-6.9,1-6.9,7.9v31.2c0,3.8,0.3,5.2,2,5.9c1.4,0.6,3.5,0.7,6,0.7c3.4,0,6.2-0.6,8.2-2.7c1.5-1.7,3-4.2,4.5-8.2
		L252.1,665.4z"/>
	<path fill="#FFFFFF" d="M287.8,671c-4.9,7.3-11.1,8.9-14.4,8.9c-10.6,0-16.6-7.9-16.6-17.1c0-6.1,2.6-11.2,5.9-14.5
		c3.5-3.5,7.9-5.7,12.3-5.7c7.4,0,13,6.3,13,12.9c0,1.6-0.5,2.6-2.3,2.9c-1.4,0.2-11.2,1-19,1.3c0.4,8.6,5.1,12.9,10.8,12.9
		c3.1,0,6.1-1,8.9-3.4L287.8,671z M267.1,655.9c3.3-0.1,6.2-0.2,9.5-0.2c1.2-0.1,1.6-0.2,1.7-1.6c0-4.1-1.8-8.2-4.9-8.2
		C270.4,645.8,267.6,649.5,267.1,655.9z"/>
	<path fill="#FFFFFF" d="M318.6,679.9c-2.2,0-3.8-0.7-4.9-1.7c-1.1-1-1.7-2-2.1-3c-3,2-6.8,4.6-8.3,4.6c-6.8,0-10.8-5.3-10.8-10.2
		c0-4.2,1.9-6.2,6.1-7.7c4.7-1.8,10.9-3.7,12.7-5.3v-2.4c0-5-1.9-7.8-4.9-7.8c-1,0-1.9,0.5-2.6,1.4c-1,1.1-1.7,3-2.3,5.5
		c-0.6,2.1-1.7,2.7-3.4,2.7c-2.1,0-5-1.9-5-4c0-1.4,1-2.5,2.8-3.8c3-2.1,8.7-4.9,13.3-5.7c3.3,0,5.7,0.7,7.8,2.3
		c3.4,2.6,4.2,6.1,4.2,10.6v13.2c0,3.7,1.3,4.7,2.6,4.7c1,0,1.8-0.3,2.7-0.6l0.8,2.6L318.6,679.9z M311.3,659.8
		c-1.4,0.7-2.8,1.6-4.4,2.5c-2.5,1.3-3.8,2.7-3.8,5.4c0,4.5,3,6.2,4.8,6.2c1.1,0,2-0.3,3.4-1.3V659.8z"/>
	<path fill="#FFFFFF" d="M370.6,676.9c-1.9,0.3-9.4,1.3-15.8,3.1v-4.6l-4.8,3.1c-2,1.2-3.1,1.4-4.1,1.4c-6.8,0-16.3-5.6-16.3-17.5
		c0-10.9,9.4-19.8,21.9-19.8c0.6,0,1.5,0.2,3.3,0.4v-9.7c0-4.3-0.5-4.7-5.4-5.3v-2.5c5.1-0.6,11.5-1.7,15.6-2.9v46.2
		c0,4.6,0.4,4.9,3.8,5.3l1.8,0.2V676.9z M354.9,650.2c-1.3-2.8-3.4-4.2-5.8-4.2c-1.9,0-8.1,2.1-8.1,14.2c0.1,9.8,5.8,13.6,9.4,13.6
		c1.4,0,2.6-0.2,4.4-1.3V650.2z"/>
	<path fill="#FFFFFF" d="M405,671c-4.9,7.3-11.1,8.9-14.4,8.9c-10.6,0-16.6-7.9-16.6-17.1c0-6.1,2.6-11.2,5.9-14.5
		c3.5-3.5,7.9-5.7,12.3-5.7c7.4,0,13,6.3,13,12.9c0,1.6-0.5,2.6-2.3,2.9c-1.4,0.2-11.2,1-19,1.3c0.4,8.6,5.1,12.9,10.8,12.9
		c3.1,0,6.1-1,8.9-3.4L405,671z M384.2,655.9c3.3-0.1,6.2-0.2,9.5-0.2c1.2-0.1,1.6-0.2,1.7-1.6c0-4.1-1.8-8.2-4.9-8.2
		C387.5,645.8,384.7,649.5,384.2,655.9z"/>
	<path fill="#FFFFFF" d="M424,651c2.9-5,6-8.4,9-8.4c3.2,0,5.4,2.2,5.4,5c0,2.9-1.8,5.1-3.9,5.9c-1.1,0.4-1.9,0.2-2.5-0.3
		c-1.4-1.1-2.3-1.7-3.7-1.7c-1.5,0-3.1,1-4.5,4.2v14.9c0,5,0.5,5.3,6.6,5.8v2.6h-21.9v-2.6c4.3-0.5,5.1-0.9,5.1-5.8v-17.4
		c0-4.1-0.6-4.4-4.3-5.3v-2.2c4.8-0.6,9.5-1.5,14.5-3v8.5H424z"/>
	<path fill="#FFFFFF" d="M463.1,653.9c-2.2-4.9-4.7-8.2-8.5-8.2c-2.1,0-4.1,1.8-4.1,4.3c0,2.5,1.8,4.3,5.9,6.2
		c6.5,2.8,10.8,5.6,10.8,11.8c0,7.9-7.6,11.8-14.3,11.8c-4.2,0-8.5-1.5-10.1-2.7c-0.5-1.3-1.2-6.9-1.3-10.7l2.4-0.2
		c1.8,5,5.4,10.6,10.3,10.6c2.6,0,4.4-1.9,4.4-4.3c0-2.3-1.1-4.3-6.1-6.6c-3.7-1.8-10.2-5-10.2-11.8c0-6.2,5-11.4,13.4-11.4
		c3.7,0,5.8,0.6,7.7,1.4c0.8,1.8,1.8,7.5,1.9,9.1L463.1,653.9z"/>
	<path fill="#FFFFFF" d="M492.6,679v-2.6c3.8-0.6,4.1-1.1,4.1-5.5v-14.1c0-6.2-2.6-8.2-5.8-8.2c-1.9,0-4.1,0.6-5.8,2.2v20.1
		c0,4.4,0.3,5,3.7,5.5v2.6h-19v-2.6c4.6-0.5,5-0.8,5-5.8v-37.3c0-4.9-0.3-4.9-4.5-5.4v-2.3c4.2-0.6,9.9-1.7,14.7-2.9v25.1
		c2.7-2.8,6.7-5.2,10.6-5.2c7,0,11,4.5,11,13.3v14.6c0,5.1,0.5,5.1,4.6,5.8v2.6H492.6z"/>
	<path fill="#FFFFFF" d="M515.2,679v-2.6c4.6-0.6,5.1-0.9,5.1-6.6V654c0-5.3-0.6-5.5-4.4-6.2v-2.3c4.8-0.6,10.1-1.6,14.6-2.9v27.2
		c0,5.5,0.4,5.9,5.2,6.6v2.6H515.2z M519.1,632c0-3.2,2.6-5.6,5.7-5.6c3.2,0,5.7,2.4,5.7,5.6c0,3-2.5,5.6-5.8,5.6
		C521.8,637.6,519.1,635,519.1,632z"/>
	<path fill="#FFFFFF" d="M558.6,644.2c1.6-1,3-1.5,4.4-1.5c9.4,0,14.5,7.8,14.5,15.4c0,11.8-9.2,19.5-19.4,21.8c-2,0-3.8-0.5-5-1
		v10.2c0,4.6,0.4,5.1,6.6,5.7v2.6h-22.2v-2.6c5.1-0.4,5.4-1,5.4-5.6v-35.8c0-4.5-0.7-4.9-4.6-5.4v-2.4c4.3-0.7,9.5-2.2,14.8-3.7v5.8
		L558.6,644.2z M553,672.8c1.5,1.4,4.6,3.1,6.6,3.1c4.4,0,7.4-5.4,7.4-13.8c0-9.8-5-13.4-8.9-13.4c-2.1,0-3.7,0.8-5.1,1.9V672.8z"/>
	<path fill="#FFFFFF" d="M629.3,679v-2.8c4.7-0.7,5.1-1.7,3.8-5.2c-0.8-2.4-2-5.8-3.2-9h-15.4c-0.9,2.5-1.9,5.4-2.9,8.6
		c-1.1,3.8-1,5,4.9,5.7v2.8h-17.9l0.1-2.8c5.3-0.6,6.2-1.5,8.9-8.2l16.4-41.1l4.1-1c5.1,14,10.1,27.9,15.3,41.7
		c2.7,7,3.8,8.1,8.8,8.7v2.8H629.3z M622.5,640.4h-0.2c-2.2,5.8-4.2,11.6-6.3,17.3h12.5L622.5,640.4z"/>
	<path fill="#FFFFFF" d="M704.7,646.2c-3.8,0.6-4.4,1.3-6.1,5.4c-3,7.4-6.3,17-10.2,28.2h-3c-3.1-7.5-6.4-15-9.4-22.3
		c-3,7.4-5.8,14.7-8.9,22.3h-3c-3.2-9.8-6.6-19.7-9.6-28.6c-1.4-3.8-2.1-4.6-5.4-5v-2.6h19.8v2.6c-4.6,0.7-5.1,1.4-4.2,4.2
		c1.6,5.1,3.2,10.6,4.7,15.6h0.2c2.8-7,5.4-14.3,8.3-21.9h3.1c2.9,7.4,5.9,14.6,9,22.1h0.2c1.3-3.8,3.8-11.8,4.5-15.2
		c0.7-3,0.3-4-4.6-4.7v-2.6h14.8V646.2z"/>
	<path fill="#FFFFFF" d="M731.9,679.9c-2.2,0-3.8-0.7-4.9-1.7c-1.1-1-1.7-2-2.1-3c-3,2-6.8,4.6-8.3,4.6c-6.8,0-10.8-5.3-10.8-10.2
		c0-4.2,1.9-6.2,6.1-7.7c4.7-1.8,10.9-3.7,12.7-5.3v-2.4c0-5-1.9-7.8-4.9-7.8c-1,0-1.9,0.5-2.6,1.4c-1,1.1-1.7,3-2.3,5.5
		c-0.6,2.1-1.7,2.7-3.4,2.7c-2.1,0-5-1.9-5-4c0-1.4,1-2.5,2.8-3.8c3-2.1,8.7-4.9,13.3-5.7c3.3,0,5.7,0.7,7.8,2.3
		c3.4,2.6,4.2,6.1,4.2,10.6v13.2c0,3.7,1.3,4.7,2.6,4.7c1,0,1.8-0.3,2.7-0.6l0.8,2.6L731.9,679.9z M724.6,659.8
		c-1.4,0.7-2.8,1.6-4.4,2.5c-2.5,1.3-3.8,2.7-3.8,5.4c0,4.5,3,6.2,4.8,6.2c1.1,0,2-0.3,3.4-1.3V659.8z"/>
	<path fill="#FFFFFF" d="M758.2,651c2.9-5,6-8.4,9-8.4c3.2,0,5.4,2.2,5.4,5c0,2.9-1.8,5.1-3.9,5.9c-1.1,0.4-1.9,0.2-2.5-0.3
		c-1.4-1.1-2.3-1.7-3.7-1.7c-1.5,0-3.1,1-4.5,4.2v14.9c0,5,0.5,5.3,6.6,5.8v2.6h-21.9v-2.6c4.3-0.5,5.1-0.9,5.1-5.8v-17.4
		c0-4.1-0.6-4.4-4.3-5.3v-2.2c4.8-0.6,9.5-1.5,14.5-3v8.5H758.2z"/>
	<path fill="#FFFFFF" d="M815.3,676.9c-1.9,0.3-9.4,1.3-15.8,3.1v-4.6l-4.8,3.1c-2,1.2-3.1,1.4-4.1,1.4c-6.8,0-16.3-5.6-16.3-17.5
		c0-10.9,9.4-19.8,21.9-19.8c0.6,0,1.5,0.2,3.3,0.4v-9.7c0-4.3-0.5-4.7-5.4-5.3v-2.5c5.1-0.6,11.5-1.7,15.6-2.9v46.2
		c0,4.6,0.4,4.9,3.8,5.3l1.8,0.2V676.9z M799.5,650.2c-1.3-2.8-3.4-4.2-5.8-4.2c-1.9,0-8.1,2.1-8.1,14.2c0.1,9.8,5.8,13.6,9.4,13.6
		c1.4,0,2.6-0.2,4.4-1.3V650.2z"/>
</g>
</svg>
