<?xml version="1.0" encoding="utf-8"?>
<!-- Generator: Adobe Illustrator 18.0.0, SVG Export Plug-In . SVG Version: 6.00 Build 0)  -->
<!DOCTYPE svg PUBLIC "-//W3C//DTD SVG 1.1//EN" "http://www.w3.org/Graphics/SVG/1.1/DTD/svg11.dtd">
<svg version="1.1" id="Layer_1" xmlns="http://www.w3.org/2000/svg" xmlns:xlink="http://www.w3.org/1999/xlink" x="0px" y="0px"
	 viewBox="0 0 1024 768" enable-background="new 0 0 1024 768" xml:space="preserve">
<g>
	<g>
		<path fill="#263238" d="M227,585.3c5.4-0.9,12.4-1.3,19.8-1.3c12.3,0,20.3,2.2,26.4,6.9c6.7,5,10.9,13,10.9,24.3
			c0,12.4-4.5,20.8-10.8,26.1c-6.8,5.7-17.2,8.4-29.8,8.4c-7.6,0-13-0.5-16.6-1L227,585.3L227,585.3z M241.7,638
			c1.2,0.3,3.3,0.3,5.1,0.3c13.2,0.1,21.8-7.2,21.8-22.6c0.1-13.4-7.8-20.4-20.4-20.4c-3.3,0-5.4,0.3-6.6,0.6L241.7,638L241.7,638z"
			/>
		<path fill="#263238" d="M308.6,589.1c0,4-3.1,7.3-7.9,7.3c-4.6,0-7.7-3.3-7.6-7.3c-0.1-4.2,3-7.4,7.7-7.4
			C305.5,581.7,308.5,584.9,308.6,589.1z M293.5,648.9v-46.8h14.6v46.8H293.5z"/>
		<path fill="#263238" d="M364.5,602.2c-0.2,3-0.4,6.9-0.4,13.9v26.1c0,9-1.8,16.4-7.1,21c-5.2,4.4-12.2,5.8-19.1,5.8
			c-6.1,0-12.7-1.2-16.9-3.6l2.9-11c3,1.7,8.2,3.6,13.6,3.6c6.9,0,12.2-3.7,12.2-12.4v-3.1h-0.2c-2.8,3.9-7.3,6.1-12.7,6.1
			c-11.6,0-19.9-9.4-19.9-22.8c0-15.1,9.8-24.6,21.2-24.6c6.4,0,10.5,2.8,12.9,6.6h0.2l0.5-5.6H364.5L364.5,602.2z M349.6,621.2
			c0-1-0.1-1.9-0.3-2.7c-1.1-3.8-3.8-6.4-7.9-6.4c-5.3,0-9.6,4.8-9.6,13.3c0,7,3.5,12.5,9.6,12.5c3.7,0,6.7-2.5,7.7-6
			c0.4-1.1,0.5-2.6,0.5-3.8L349.6,621.2L349.6,621.2z"/>
		<path fill="#263238" d="M390.8,589.1c0,4-3.1,7.3-7.9,7.3c-4.6,0-7.7-3.3-7.6-7.3c-0.1-4.2,3-7.4,7.7-7.4
			C387.8,581.8,390.7,584.9,390.8,589.1z M375.8,648.9v-46.8h14.6v46.8H375.8z"/>
		<path fill="#263238" d="M418.3,588.8v13.4h10.5V613h-10.5v17c0,5.7,1.3,8.3,5.8,8.3c1.8,0,3.3-0.2,4.3-0.4l0.1,11
			c-1.9,0.8-5.4,1.2-9.5,1.2c-4.7,0-8.6-1.6-10.9-4c-2.7-2.8-4-7.3-4-13.9V613H398v-10.8h6.2V592L418.3,588.8z"/>
		<path fill="#263238" d="M463.8,648.9l-0.9-4.7h-0.3c-3.1,3.7-7.9,5.8-13.4,5.8c-9.5,0-15.2-6.9-15.2-14.4c0-12.2,10.9-18,27.4-18
			V617c0-2.5-1.3-6-8.5-6c-4.8,0-9.9,1.6-13,3.6l-2.7-9.4c3.3-1.8,9.7-4.1,18.2-4.1c15.6,0,20.5,9.2,20.5,20.3v16.3
			c0,4.5,0.2,8.8,0.7,11.4L463.8,648.9L463.8,648.9z M462,626.9c-7.7-0.1-13.6,1.7-13.6,7.4c0,3.7,2.5,5.6,5.8,5.6
			c3.6,0,6.6-2.4,7.6-5.4c0.2-0.8,0.3-1.6,0.3-2.5L462,626.9L462,626.9z"/>
		<path fill="#263238" d="M487.8,581h14.6v68h-14.6V581z"/>
	</g>
</g>
<g>
	<g>
		<path fill="#263238" d="M572.7,643.6c-3.6,1.3-10.7,3.4-19.1,3.4c-9.4,0-17.2-2.4-23.2-8.2c-5.4-5.2-8.7-13.5-8.7-23.1
			c0.1-18.6,12.8-32,33.6-32c7.2,0,12.8,1.6,15.5,2.9l-1.9,6.6c-3.3-1.5-7.5-2.7-13.8-2.7c-15.1,0-24.9,9.4-24.9,24.9
			c0,15.8,9.5,25,23.9,25c5.3,0,8.9-0.7,10.7-1.7v-18.6h-12.6v-6.5h20.4L572.7,643.6L572.7,643.6z"/>
		<path fill="#263238" d="M584.6,615.7c0-5.3-0.1-9.8-0.4-13.9h7.1l0.3,8.8h0.4c2-6,6.9-9.8,12.4-9.8c0.9,0,1.6,0.1,2.3,0.3v7.7
			c-0.8-0.2-1.7-0.3-2.8-0.3c-5.7,0-9.8,4.3-10.9,10.4c-0.2,1.1-0.4,2.4-0.4,3.8v23.6h-8L584.6,615.7L584.6,615.7z"/>
		<path fill="#263238" d="M639,646.4l-0.6-5.6h-0.3c-2.5,3.5-7.3,6.6-13.7,6.6c-9,0-13.7-6.4-13.7-12.8c0-10.8,9.6-16.7,26.8-16.6
			v-0.9c0-3.7-1-10.3-10.2-10.3c-4.2,0-8.5,1.3-11.6,3.3l-1.8-5.4c3.7-2.4,9-4,14.7-4c13.7,0,17,9.3,17,18.3v16.7
			c0,3.9,0.2,7.7,0.7,10.7H639z M637.8,623.6c-8.9-0.2-18.9,1.4-18.9,10.1c0,5.3,3.5,7.8,7.7,7.8c5.8,0,9.5-3.7,10.8-7.5
			c0.3-0.8,0.5-1.8,0.5-2.6L637.8,623.6L637.8,623.6z"/>
		<path fill="#263238" d="M658.6,616.3c0-5.7-0.2-10.3-0.4-14.6h7.3l0.4,7.7h0.2c3.3-5.4,8.6-8.7,15.9-8.7
			c10.8,0,18.9,9.1,18.9,22.6c0,16.1-9.8,23.9-20.3,23.9c-5.9,0-11.1-2.6-13.8-7h-0.2v24.2h-8L658.6,616.3L658.6,616.3z
			 M666.7,628.2c0,1.2,0.2,2.3,0.4,3.3c1.5,5.6,6.4,9.5,12.2,9.5c8.6,0,13.6-7,13.6-17.3c0-9-4.7-16.6-13.3-16.6
			c-5.5,0-10.7,4-12.3,10.1c-0.3,1-0.6,2.2-0.6,3.3L666.7,628.2L666.7,628.2z"/>
		<path fill="#263238" d="M711.1,580.9h8.1v27.8h0.2c1.3-2.3,3.3-4.3,5.8-5.7c2.4-1.4,5.3-2.3,8.3-2.3c6,0,15.6,3.7,15.6,19.1v26.5
			H741v-25.6c0-7.2-2.7-13.3-10.3-13.3c-5.3,0-9.4,3.7-10.9,8.1c-0.5,1.1-0.6,2.3-0.6,3.9v26.9h-8.1V580.9z"/>
		<path fill="#263238" d="M766,601.8l6.4,9.6c1.7,2.5,3,4.8,4.5,7.3h0.3c1.5-2.7,3-5,4.4-7.4l6.3-9.5h8.8l-15.3,21.5l15.7,23h-9.2
			l-6.6-10.1c-1.8-2.6-3.2-5.1-4.8-7.8h-0.2c-1.5,2.7-3,5.1-4.7,7.8l-6.5,10.1h-9l15.9-22.7l-15.1-21.8L766,601.8L766,601.8z"/>
	</g>
</g>
<g opacity="0">
	<g>
		<path fill="#263238" d="M641.4,324.3h-2.9l-1-3.5v-0.1v-0.1c-0.1-0.5-0.3-0.9-0.5-1.4l-0.2-0.6c-4.4-13.3-10.1-26.3-17-39.2h2.6
			H709h14.5v-14.6V128v-14.6h-14.6H592h-3.6l-3.2,1.7c-24.4,13-47.6,27.2-68.5,42.4l-4.6,3.3c-1.5-1.1-3-2.2-4.5-3.3
			c-21-15.2-44.1-29.4-68.6-42.4l-3.2-1.7h-3.6H315.1h-14.6V128v136.8v14.6h14.6h86.6h2.6c-6.9,12.9-12.6,25.9-17,39.2l-1.9,5.7H256
			h-14.6v14.6v23.6v9.8l9.1,3.7l50,20.4v140.3v14.6h14.6h125.1h3.8l3.3-1.8c21.3-11.8,41.6-24.5,60.3-37.9l4.6-3.3
			c1.5,1.1,3,2.2,4.5,3.3c18.6,13.4,38.8,26.1,60.3,37.9l3.3,1.8h3.8h125.2h14.4v-14.6V396.6l50-20.4l9.1-3.7v-9.8V339v-14.6H768
			L641.4,324.3L641.4,324.3z M592,128h117v136.8h-86.6v-54.9c-10,5.5-20.5,11.9-31.5,19.1c-0.8,0.5-1.7,1.1-2.5,1.7
			c-3.6-4.4-7.3-8.7-11.1-13c-15.2-16.8-32.6-32.9-52.3-48.4C548.6,152.5,571.9,138.7,592,128z M607.8,235.6v23.6
			c-3.5-5.3-7.1-10.6-11-15.8c-0.1-0.2-0.3-0.4-0.4-0.5l0,0l2.4-1.6C601.9,239.4,604.8,237.5,607.8,235.6z M401.6,210v54.9H315V128
			h117c20.1,10.7,43.4,24.4,66.8,41.4c4.4,3.1,8.7,6.4,13.1,9.8c22.3,17.3,44.4,37.4,63.4,60.6c3.3,4.1,6.6,8.2,9.7,12.4
			c15.9,21.4,29.1,45.1,37.7,71.1c0.2,0.6,0.4,1.2,0.6,1.8l2.8,9.5l-1.3,4.4l-1.5,5.1c-0.3,0.9-0.6,1.8-0.9,2.8
			c-4.3,12.7-9.6,24.8-15.8,36.4c-6.4,11.9-13.7,23.1-21.5,33.8c-21.6-15.6-45.5-35.9-63.5-60c4.8-7.2,9.1-14.8,12.8-22.5
			c-3.6-7.8-8-15.3-12.8-22.5c-3-4.6-6.3-9-9.7-13.3c-18.5-23.4-41.6-43.3-63.4-59.1c-4.4-3.2-8.8-6.2-13-9
			c-0.8-0.6-1.7-1.1-2.5-1.7C422.2,221.9,411.5,215.5,401.6,210z M607.9,409.8v23.7c-3-1.9-6-3.8-8.9-5.7l-1.8-1.2l-0.6-0.4l0,0
			l0.4-0.5C600.8,420.4,604.4,415.1,607.9,409.8z M518.1,334.5c-1.8,3.5-3.9,7-6.1,10.5c-2.2-3.5-4.3-7-6.1-10.5
			c1.8-3.5,3.9-7,6.1-10.5C514.2,327.5,516.3,331,518.1,334.5z M427.5,242.8l-0.4,0.5c-3.9,5.2-7.5,10.5-11,15.8v-23.6
			c3,1.9,6,3.8,8.9,5.7C425.9,241.7,426.7,242.2,427.5,242.8L427.5,242.8z M450.7,530.7c-0.3,0.1-0.5,0.3-0.8,0.4
			c-0.7,0.4-1.4,0.8-2.1,1.2c-0.4,0.2-0.8,0.4-1.2,0.7c-0.7,0.4-1.5,0.8-2.2,1.2c-0.3,0.2-0.7,0.4-1,0.6c-1.1,0.6-2.1,1.2-3.1,1.7
			H315.1V386.8l0,0L256,362.7V339h145.3l0.2,120.1c10-5.5,20.5-11.9,31.5-19.1c0.8-0.5,1.7-1.1,2.5-1.7c3.6,4.4,7.3,8.7,11.1,13
			c15.2,16.8,32.6,32.9,52.3,48.4C482.4,511.6,465.9,522,450.7,530.7z M416.1,409.8c3.5,5.3,7.1,10.7,11,15.9
			c0.1,0.2,0.3,0.4,0.4,0.5h-0.1c-0.8,0.5-1.6,1.1-2.4,1.6c-2.9,1.9-5.9,3.8-8.9,5.7V409.8z M768,362.7l-59,24.1v149.8l0,0H583.8
			c-1-0.6-2.1-1.1-3.1-1.7c-0.3-0.2-0.7-0.4-1-0.6c-0.7-0.4-1.4-0.8-2.2-1.2c-0.4-0.2-0.8-0.5-1.2-0.7c-0.7-0.4-1.4-0.8-2.1-1.2
			c-0.3-0.2-0.6-0.3-0.8-0.5c-15.3-8.8-31.7-19.2-48.3-31.1c-1.1-0.8-2.2-1.6-3.3-2.4c-3.3-2.4-6.6-4.9-9.8-7.4
			c-1.4-1.1-2.8-2.2-4.2-3.3c-2.8-2.2-5.6-4.5-8.4-6.8s-5.5-4.6-8.3-7c-2.7-2.4-5.5-4.8-8.2-7.3c-4.1-3.7-8.1-7.5-12-11.5
			c-2.6-2.6-5.2-5.3-7.8-8c-5.1-5.4-10.1-11-14.8-16.8c-3.3-4.1-6.6-8.2-9.7-12.4c-8-10.7-15.3-21.9-21.6-33.8l-0.1-60h-15.8h-0.3
			c8.6-26,21.7-49.7,37.7-71.1c21.6,15.6,45.5,35.9,63.5,60c-4.8,7.2-9.1,14.8-12.8,22.5c3.6,7.8,8,15.3,12.8,22.5
			c3,4.6,6.3,9,9.7,13.3c18.5,23.4,41.6,43.3,63.4,59.1c4.4,3.2,8.8,6.2,13,9c0.8,0.6,1.7,1.1,2.5,1.7c10.9,7.2,21.5,13.5,31.4,19.1
			l0.1-72c0.8-1.6,1.6-3.1,2.4-4.7c1.6-3.2,3-6.3,4.4-9.5c3.5-7.9,6.6-16,9.2-24v-0.1v-0.1l2.8-9.5V339h126.5v23.5h0.6V362.7z"/>
	</g>
</g>
<g>
	<g>
		<g>
			<path fill="#607D8B" d="M641.4,339l-2.8,9.5v0.1v0.1c-2.6,8.1-5.7,16.1-9.2,24c-1.4,3.2-2.9,6.3-4.4,9.5
				c-0.8,1.6-1.6,3.1-2.4,4.7l-0.1,72c-10-5.5-20.5-11.9-31.4-19.1c-0.8-0.5-1.7-1.1-2.5-1.7c-4.2-2.8-8.6-5.8-13-9
				c-21.8-15.8-45-35.6-63.4-59.1c-3.4-4.3-6.6-8.8-9.7-13.3c-4.8-7.2-9.1-14.8-12.8-22.5c3.6-7.8,8-15.3,12.8-22.5
				c-18.1-24-41.9-44.4-63.5-60c-16,21.4-29.1,45.1-37.7,71.1h0.3h15.8l0.1,60c6.4,11.9,13.7,23.1,21.6,33.8
				c3.1,4.2,6.4,8.4,9.7,12.4c4.8,5.8,9.7,11.4,14.8,16.8c2.6,2.7,5.1,5.4,7.8,8c3.9,3.9,7.9,7.8,12,11.5c2.7,2.5,5.4,4.9,8.2,7.3
				c2.7,2.4,5.5,4.7,8.3,7s5.6,4.6,8.4,6.8c1.4,1.1,2.8,2.2,4.2,3.3c3.3,2.5,6.5,5,9.8,7.4c1.1,0.8,2.2,1.6,3.3,2.4
				c16.6,12,33,22.3,48.3,31.1c0.3,0.2,0.6,0.3,0.8,0.5c0.7,0.4,1.4,0.8,2.1,1.2c0.4,0.2,0.8,0.5,1.2,0.7c0.7,0.4,1.4,0.8,2.2,1.2
				c0.3,0.2,0.7,0.4,1,0.6c1,0.6,2.1,1.2,3.1,1.7h125.2l0,0V386.8l59-24.1V339H641.4L641.4,339z"/>
			<path fill="#607D8B" d="M577.3,217.8c3.9,4.3,7.6,8.6,11.1,13c0.8-0.6,1.7-1.1,2.5-1.7c10.9-7.2,21.5-13.5,31.5-19.1v54.9H709
				V128H592c-20.1,10.7-43.4,24.4-66.8,41.4C544.6,184.8,562.2,201,577.3,217.8z"/>
			<path fill="#607D8B" d="M435.6,230.7c4.2,2.8,8.6,5.8,13,9c21.8,15.8,45,35.6,63.4,59.1c3.4,4.3,6.6,8.8,9.7,13.3
				c4.8,7.2,9.1,14.8,12.8,22.5c-3.6,7.8-8,15.3-12.8,22.5c18.1,24,41.9,44.4,63.5,60c8-10.7,15.3-21.9,21.5-33.8
				c6.2-11.6,11.6-23.7,15.8-36.4c0.3-0.9,0.6-1.8,0.9-2.8l1.5-5.1l1.3-4.4l-2.8-9.5c-0.2-0.6-0.4-1.2-0.6-1.8
				c-8.6-26-21.7-49.7-37.7-71.1c-3.1-4.2-6.4-8.4-9.7-12.4c-19.1-23-41.1-43.2-63.4-60.6c-4.4-3.4-8.7-6.6-13.1-9.8
				c-23.5-17-46.8-30.7-66.8-41.4h-117v136.8h86.6v-54.9c10,5.5,20.5,11.9,31.5,19.1C433.9,229.6,434.8,230.2,435.6,230.7z"/>
			<path fill="#607D8B" d="M446.7,451.3c-3.9-4.3-7.6-8.6-11.1-13c-0.8,0.6-1.7,1.1-2.5,1.7c-10.9,7.2-21.5,13.5-31.5,19.1
				L401.4,339H256v23.6l59.1,24.1l0,0v149.8h125.1c1-0.6,2.1-1.2,3.1-1.7c0.3-0.2,0.7-0.4,1-0.6c0.7-0.4,1.5-0.8,2.2-1.2
				c0.4-0.2,0.8-0.4,1.2-0.7c0.7-0.4,1.4-0.8,2.1-1.2c0.3-0.1,0.5-0.3,0.8-0.4c15.3-8.8,31.7-19.2,48.3-31.1
				C479.4,484.3,461.8,468.1,446.7,451.3z"/>
		</g>
	</g>
</g>
<g>
	<g>
		<path fill="#263238" d="M427.5,242.8L427.5,242.8c-0.9-0.6-1.7-1.1-2.5-1.6c-2.9-1.9-5.9-3.8-8.9-5.7v23.6
			c3.5-5.3,7.1-10.6,11-15.8L427.5,242.8z"/>
		<path fill="#263238" d="M607.8,259.2v-23.6c-3,1.9-6,3.8-8.9,5.7l-2.4,1.6l0,0c0.1,0.2,0.3,0.4,0.4,0.5
			C600.8,248.6,604.4,253.8,607.8,259.2z"/>
		<path fill="#263238" d="M505.9,334.5c1.8,3.5,3.9,7,6.1,10.5c2.2-3.5,4.3-7,6.1-10.5c-1.8-3.5-3.9-7-6.1-10.5
			C509.8,327.5,507.7,331,505.9,334.5z"/>
		<path fill="#263238" d="M596.5,426.2L596.5,426.2l0.6,0.4l1.8,1.2c2.9,1.9,5.9,3.8,8.9,5.7v-23.7c-3.5,5.3-7.1,10.7-11,15.9
			L596.5,426.2z"/>
		<path fill="#263238" d="M416.1,409.8v23.7c3-1.9,6-3.8,8.9-5.7c0.8-0.5,1.6-1.1,2.4-1.6h0.1c-0.1-0.2-0.3-0.4-0.4-0.5
			C423.2,420.4,419.6,415.1,416.1,409.8z"/>
		<path fill="#263238" d="M768,309.9H649.1c-1.9-5.4-4-10.7-6.2-16H709h29v-29V128V99h-29H592h-7.2l-6.4,3.4
			c-23.5,12.5-45.8,26.1-66.3,40.7c-20.5-14.5-42.8-28.2-66.3-40.7l-6.4-3.4h-7.2H315.1h-29v29v136.8v29h29h66.1
			c-2.3,5.3-4.4,10.7-6.2,16H256h-29v29v23.6v19.5l18.1,7.4l41,16.8v130.6v29h29h125.1h7.5l6.6-3.6c20.4-11.2,39.8-23.3,57.8-36
			c18,12.7,37.4,24.8,57.8,36l6.6,3.6h7.5h125h29v-29V406.2l41-16.8l18.1-7.4v-19.5V339v-29L768,309.9L768,309.9z M782.5,339v23.6
			v9.8l-9.1,3.7l-50,20.4v140.1v14.6h-14.6h-125H580l-3.3-1.8c-21.3-11.8-41.6-24.5-60.3-37.9c-1.5-1.1-3-2.2-4.5-3.3l-4.6,3.3
			c-18.6,13.4-38.8,26.1-60.3,37.9l-3.3,1.8H440H315.1h-14.6v-14.6v-140l-50-20.4l-9.1-3.7v-9.8V339v-14.6H256h129.4l1.9-5.7
			c4.4-13.3,10.1-26.3,17-39.2h-2.6h-86.6h-14.6V265V128v-14.6h14.6h117h3.6l3.2,1.7c24.4,13,47.6,27.2,68.6,42.4
			c1.5,1.1,3,2.2,4.5,3.3l4.6-3.3c21-15.2,44.1-29.4,68.5-42.4l3.2-1.7h3.6h117h14.6V128v136.8v14.6h-14.6h-86.6h-2.6
			c6.9,12.9,12.6,25.9,17,39.2l0.2,0.6c0.2,0.5,0.3,0.9,0.5,1.4v0.1v0.1l1,3.5h2.9h126.5h14.6L782.5,339L782.5,339z"/>
		<polygon fill="#263238" points="743.1,555.1 746.8,555.1 746.8,565.7 749.7,565.7 749.7,555.1 753.4,555.1 753.4,552.7 
			743.1,552.7 		"/>
		<path fill="#263238" d="M763,560.4c-0.2,0.5-0.4,1.2-0.5,1.9h-0.1c-0.1-0.6-0.3-1.2-0.5-1.9l-2.7-7.7h-4.3v13h2.6v-7.2
			c0-1,0-2.1-0.1-3.4h0.1c0.2,1,0.3,1.6,0.4,1.8l3.1,8.8h2.4l3.1-8.9c0.1-0.4,0.3-0.9,0.4-1.7h0.1c-0.1,1-0.1,1.9-0.1,2.8v7.8h2.9
			v-13h-4.2L763,560.4z"/>
	</g>
</g>
</svg>
