<?xml version="1.0" encoding="utf-8"?>
<!-- Generator: Adobe Illustrator 18.0.0, SVG Export Plug-In . SVG Version: 6.00 Build 0)  -->
<!DOCTYPE svg PUBLIC "-//W3C//DTD SVG 1.1//EN" "http://www.w3.org/Graphics/SVG/1.1/DTD/svg11.dtd">
<svg version="1.1" id="Layer_1" xmlns="http://www.w3.org/2000/svg" xmlns:xlink="http://www.w3.org/1999/xlink" x="0px" y="0px"
	 viewBox="0 0 1024 768" enable-background="new 0 0 1024 768" xml:space="preserve">
<path fill="#673AB7" d="M112,652.6c0,9.5,7.7,17.1,17.1,17.1h765.7c9.5,0,17.1-7.7,17.1-17.1V155.4H112V652.6z"/>
<g opacity="0.1">
	<path fill="#FFFFFF" d="M697.8,421.3c-12.2-9.2-16.8-22.7-14.1-40.3c3.3-3.2,6.8-6.1,10.5-8.8c6-5.3,11.5-9.6,15.1-16.9
		c5.2-10.5,5.4-23.3,1.1-34.2c-9.6-24.4-37.9-35-62.2-29.1c11.2-25.3,15.8-63.6-15.5-71.4c-34.6-8.6-72.8,18.2-104.1-7.5
		c-11.9-9.8-14.9-22.3-32.3-25.2c-36.8-6.1-60.7,27.8-64.1,60.3c-0.6,5.3-0.7,10.7-0.7,16.1c-0.7-1.1-1.6-2-3.1-2.5
		c-32.4-10.8-67.9,2.3-81.9,34.5c-7.7,17.9-3.1,30.4-2.1,48.2c1.5,26.7-27.5,33.5-35.5,56.7c-10.8,31.2,14.9,52.7,43.2,57
		c-28.1,14.3-41.2,48.7-29.1,79c6.7,16.9,20.4,30.9,36.4,39.4c25.9,13.7,50.5,6.3,69.3,32.1c18.7,25.7,51.4,43.2,77.9,13.6
		c6-6.6,9.4-14.5,11.5-22.9c-4.1,33.4,34.1,41.9,60.5,34.4c18.2-5.1,28.4-13.6,35.9-30.6c7.9-17.7,12.3-23.5,33.6-29.3
		c8.3-2.3,16-1.9,24.2-5.7c23.8-10.9,36-37.4,28.1-60.8c1.9,0.1,3.8-0.6,5.2-2.5C727.3,474.8,716.2,448.4,697.8,421.3z M452,221.7
		c16.7-28.9,48.7-27.4,66.6-2.8c11,15.2,19.2,22.3,39,20.4c17.8-1.7,35.1-6.8,53.2-7.3c42.1-1.1,35.9,36.8,21.8,65.2
		c-0.3,0.6-0.4,1.1-0.5,1.6c-12,7.4-21.7,18.5-31.4,28.5c-18.2,18.8-35.6,38.1-52.8,57.8c-5.5-4.7-12.1-8-19.2-9.8
		c2.7-16.8,8.5-30.5,18.8-44.6c2.4-3.4-2.9-7.3-5.7-4.4c-12,12.4-19.3,30.4-19.6,47.9c-3.8-0.4-7.7-0.4-11.6,0.2
		c6-22.4-1.5-47.1-16.8-64.1c-2.5-2.8-7.4,0.9-5.2,4c13.6,19.4,17.7,39.2,16.3,62.3c-6.5-1-12.9,0.1-18.6,2.8
		c-18.5-28.4-34-57.8-40.2-91.6C442.4,266.7,440.9,241.2,452,221.7z M347.8,444.2c-21.1-3.9-28.7-19.3-22.7-46.1
		c5.3-7.5,11.5-14.1,18.8-19.7c8.6-9.2,13.7-13.8,14.3-27c1-21.8-9.5-37.1,4.1-58c14.6-22.5,39.2-26.5,63-20.2
		c3.1,0.8,5.4-0.7,6.5-2.9c2.2,41.1,21.3,83.2,49,112.6c-2.3,1.7-4.3,3.6-6.2,5.8c-13.3-7.6-21-20.2-24.4-35.2
		c-0.8-3.3-5.5-2.4-5.7,0.8c-1.1,17.3,10.9,32.8,26.5,39c-1,1.5-1.9,3.1-2.7,4.7c-19.1-9.6-46.7-7.6-65-0.5
		c-4.2,1.6-2.6,7.8,1.9,6.8c12.6-2.7,25.2-4.9,38.1-3.9c7.6,0.6,15,2.6,22.4,4.1c-0.8,2.7-1.4,5.5-1.7,8.4
		c-0.4,3.9-0.2,7.9,0.3,11.9c-26.7,7.5-51.9,17.4-79.9,20.1C372.8,446,359,447.1,347.8,444.2z M508.3,565.5
		c-0.7,11.4-0.2,24.8-5.2,35.4c-9.1,19.5-35.9,32.2-55,14.1c-8.5-8.1-10.6-21.5-19.4-29.4c-17.8-16-46.6-9.8-66.7-21.8
		c-39.5-23.5-41.4-78.2,1.3-99c2.1-1,2.8-3.1,2.4-5.1c33.6,1.5,72.5-8.3,100.1-27c0.8,2.7,1.7,5.4,2.9,7.9c-3.7,2.6-6.5,7-10.1,10.4
		c-10.4,9.7-22.4,12-35.5,15.9c-4.1,1.2-2.8,6.5,0.9,7c10.3,1.3,20.9-2.9,29.6-8.3c3.9-2.4,7.7-5.4,11-8.6c2-1.9,4.8-6.5,7.6-9.7
		c2.5,4.1,5.6,7.8,9.1,11c-16.4,14-28.8,38.8-26.6,60.1c0.3,3.2,5,4.3,5.9,0.8c2.7-10.9,4.2-21.8,8.6-32.3
		c4.1-9.4,9.8-17.4,15.9-25.5c6.2,4.6,13.5,7.6,21.7,8.2c1.7,0.1,3.4,0,5.1-0.1C509.5,501.4,510.3,533.6,508.3,565.5z M509.1,456.5
		c-41.8-1.4-42.1-70.1-0.9-72.1c1,1.1,2.4,1.8,4.1,1.8c18.7-0.4,36.5,10,37.7,30.5C551.2,437.4,529.6,457.2,509.1,456.5z M648,560.6
		c-14,2.2-24.5-0.2-34.3,12.1c-5.3,6.7-6,15.3-10.1,22.3c-5.2,8.9-18.1,23.5-28.5,26.3c-11.6,3.1-45.8-11.9-47.6-24.2
		c-0.6-4-6.6-4.5-8.6-1.5c2.3-11.7,2.4-24.2,2.8-35.7c1.3-30.4,1.7-61.3-2.5-91.5c2.4-0.5,4.8-1.2,7.1-2c4.2,12.7,6.4,25,8.4,38.6
		c0.6,3.8,6.5,2.7,6.5-0.9c0.2-13.4-3.7-27.6-9.4-40.1c0.9-0.5,1.8-1.1,2.7-1.6c11.3,18.3,31.8,29.9,53.2,31c4,0.2,5-6.5,1-7.1
		c-20-2.8-36.1-12.3-48.2-27.6c6.8-4.9,12.7-11.3,16.7-18.6c23.7,11.5,47.8,22.3,72.2,32.3c12.9,5.3,27.1,9.7,38.7,17.7
		c14.4,10,17.1,15,17,32.8C685.1,547.6,672.8,556.8,648,560.6z M695.8,498.3c-1.3-2.1-2.7-4.2-4.4-6.1c-11.2-13.1-28-19.8-43.4-26.2
		c-28.7-11.9-58-22.5-87.6-32.2c1.6-4.3,2.6-8.7,2.8-13.3c19.7-3.1,36.4-1.1,55.3,8.5c3.9,2,6.8-3.3,3.4-5.8
		c-16.2-12-39.6-15.9-59-9.4c-0.3-2.8-0.9-5.5-1.7-8.1c14.7-6.5,29.4-19.1,33.4-34.4c0.7-2.7-3.1-4.4-4.6-1.9
		c-4.5,7.6-7.6,14.9-14,21.4c-4.7,4.8-10.1,8.7-16,11.8c-1.8-4.7-4.2-8.9-7.4-12.6c22.8-16.4,41.3-37.4,60.9-57.5
		c16.3-16.7,35.9-35.9,61.7-27.6c19.5,6.3,28.5,25.1,20.5,43.4c-5.2,11.9-7.4,11.5-15.9,19.4c-12.2,11.2-17.9,23-10.7,39.2
		c4.3,9.7,12.8,15.8,19.8,23.4C707.3,450.2,709.6,474.7,695.8,498.3z"/>
</g>
<g>
	<path fill="#DBDBDB" d="M894.9,98.3H129.1c-9.5,0-17.1,7.7-17.1,17.1v40h800v-40C912,105.9,904.3,98.3,894.9,98.3z"/>
	<g>
		<circle fill="#AAAAAA" cx="149.3" cy="126.9" r="11.4"/>
		<circle fill="#AAAAAA" cx="183.7" cy="126.9" r="11.4"/>
		<circle fill="#AAAAAA" cx="218.1" cy="126.9" r="11.4"/>
	</g>
</g>
<g>
	<g>
		<path fill="#00E5FF" d="M289.2,279.5c1.1,2.7,2.2,4.4,2.2,5.5c0.5,0.5,0.5,2.2,1.1,3.8c-1.6-1.1-3.3-2.7-4.4-3.3
			c-1.1-1.1-2.2-1.6-3.8-2.7c-1.1-0.5-2.7-1.6-3.8-2.2c-1.6-0.5-3.3-1.1-5.5-1.6c-5.5-0.5-10.4-0.5-15.3,0.5
			c-4.9,1.1-8.7,2.7-12,5.5c-3.3,2.2-5.5,5.5-7.1,8.7c-1.1,3.3-1.1,7.1,0,11.5c1.6,4.4,3.8,8.7,7.1,13.1c3.3,4.4,6.6,8.2,10.9,12
			c3.8,3.8,8.2,7.7,12.6,10.9c4.4,3.3,8.7,6.6,13.1,9.8c4.4,3.3,8.2,6,11.5,8.2c3.3,2.2,6,4.4,8.2,6.6c4.4-2.2,8.2-3.8,12-5.5
			c3.8-1.6,7.7-2.7,11.5-4.4h1.1c0.5,0,0.5,0.5,0,1.1c-1.1,1.1-2.7,2.2-4.4,3.3c-1.6,1.1-3.3,2.7-5.5,3.8c-1.6,1.1-3.3,2.7-5.5,3.8
			c-1.6,1.1-3.3,2.2-4.4,3.3c3.8,3.8,6.6,7.7,7.7,10.9c1.1,3.3,1.1,6.6,0,9.3c-1.1,3.3-3.3,6-6.6,9.3c-3.3,3.3-7.7,6.6-13.1,10.4
			c-3.3,2.2-7.1,4.4-11.5,6.6c-3.8,1.6-7.7,2.7-11.5,3.3c-3.3,0.5-6-0.5-8.2-2.2c-2.2-1.6-2.7-4.9-2.2-9.3c2.2-7.1,6-14.2,12-20.2
			c6-6,12.6-12.6,20.2-19.1c0-0.5-1.1-1.6-3.8-3.3c-2.7-1.6-6-4.4-10.4-7.1c-4.4-2.7-8.7-6.6-13.7-10.4c-4.9-3.8-9.8-8.2-14.2-12.6
			c-4.4-4.4-8.7-8.7-12-13.7c-3.3-4.9-6-9.3-7.1-14.2c-1.6-6-2.2-10.9-1.1-15.3c1.1-4.4,2.2-8.2,4.4-10.9s4.4-5.5,6.6-6.6
			c2.2-2.2,4.4-3.3,6-3.8c3.3-1.1,6-1.6,9.3-2.2c3.3-0.5,6.6-1.1,9.8-0.5c3.3,0.5,6.6,1.1,9.8,2.7
			C282.6,274,285.9,276.2,289.2,279.5z M272.8,408.6c-0.5,1.1,0,1.6,1.1,2.2c1.1,0.5,2.7,1.1,4.9,0.5c2.2,0,4.9-0.5,8.2-2.2
			c3.3-1.1,7.1-3.3,12-6c3.3-2.2,6-4.9,7.7-7.7s2.7-5.5,3.3-8.2c0.5-2.7,0-4.9-1.1-7.1c-1.1-2.2-3.3-3.8-6-5.5
			c-1.1,0.5-3.8,2.2-6.6,4.9c-3.3,2.7-6.6,5.5-9.8,8.7c-3.3,3.3-6.6,6.6-8.7,10.4C273.9,402.5,272.8,405.8,272.8,408.6z"/>
		<path fill="#00E5FF" d="M336.2,257.1c0,0.5,0,2.2,0.5,5.5c0,3.3,0,7.1,0.5,11.5c0,4.9,0,10.4,0,16.4c0,6,0,12,0,18.6
			s0,12.6,0,19.1c0,6,0,12,0,17.5s0,9.8,0,13.1c0,3.8,0,6,0,7.1c1.6-6.6,3.8-12,6.6-16.4s5.5-6.6,7.7-7.1c2.7-0.5,4.9,0,6,1.6
			c1.6,1.6,2.7,3.8,3.3,7.1c1.1,2.7,1.6,6,2.7,9.8s2.2,7.1,3.8,10.4s3.3,6,6,8.7s6,3.8,10.4,4.4c-3.3,2.7-6.6,4.4-9.3,3.8
			c-2.7,0-5.5-1.6-7.7-3.8c-2.2-2.2-3.8-4.9-5.5-8.2c-1.6-3.3-2.7-6.6-3.8-9.8c-1.1-3.3-2.2-6-2.7-8.7c-0.5-2.2-1.1-3.8-1.6-4.4
			c-0.5-1.1-1.6-1.1-2.7,0c-1.1,1.1-2.2,2.2-2.7,4.4c-1.1,2.2-2.2,4.4-2.7,7.1c-1.1,2.7-1.6,4.9-2.2,7.7c-0.5,2.2-1.1,4.4-1.6,6
			c-0.5,1.6-0.5,2.2-0.5,2.2c-0.5,1.6-0.5,3.8-1.1,7.1c-0.5,2.7-0.5,5.5-0.5,8.2s0,5.5,0,7.7c0,2.2,0,3.8,0.5,4.4
			c-1.1,0-2.2-0.5-3.8-1.1c-1.6-0.5-3.3-1.1-3.8-1.1c0-3.8,0-9.3,0-15.9s0-13.7,0-21.9s0-17,0-26.2c0-9.3,0-18.6-0.5-27.9
			c0-9.3-0.5-18.6-0.5-27.9c-0.5-9.3-0.5-18-1.1-26.2c0,0,0.5-0.5,2.2-1.6C332.9,257.1,334.5,257.1,336.2,257.1z"/>
		<path fill="#00E5FF" d="M398,390c3.3,1.6,6.6-1.1,10.9-7.1c3.8-6,7.1-16.4,9.8-30.1c0,0,0.5,0,1.1,0c1.1,0,1.6,0.5,2.7,0.5
			c1.1,0.5,1.6,0.5,2.7,1.1c0.5,0.5,1.1,0.5,1.1,1.1c0,2.2,0,4.4-0.5,7.1s-0.5,6-1.1,9.3c-0.5,3.3-0.5,7.1-0.5,10.9
			c0,3.8,0,7.7,0,11.5c3.8-3.3,7.7-5.5,11.5-7.1c4.4-1.6,8.2-2.7,12-3.3c1.1,0.5,2.2,1.1,2.2,1.1s0,0.5-1.1,1.1
			c-4.9,1.6-9.8,3.3-13.7,6c-3.8,2.7-7.7,5.5-10.9,8.7c0,4.4,0,9.3,0,14.2s0,9.8,0,15.3c0,4.9,0,9.8,0,14.8c0,4.9-0.5,9.3-0.5,13.1
			c-0.5,3.8-1.1,7.1-2.2,9.8c-1.1,2.7-2.2,4.9-3.8,5.5c-1.1,0.5-2.2,1.1-3.8,1.1c-1.6,0-2.7,0-4.4,0s-2.7-0.5-3.8-1.1
			c-1.1-0.5-2.2-1.1-3.3-2.2c-2.7-2.7-4.4-6-5.5-9.8c-1.1-3.8-1.6-8.2-1.6-13.1s0.5-9.8,1.6-14.8c1.1-4.9,2.7-9.8,4.4-14.2
			c1.6-4.4,3.8-8.7,6.6-12.6s5.5-6.6,8.7-8.7c0.5-7.1,0.5-14.8,0.5-21.9c-1.1,3.3-3.3,7.1-6,11.5c-2.7,3.8-6,7.1-9.8,9.8
			c-4.4,1.6-7.7,1.6-10.9-0.5c-2.7-2.2-4.9-6-5.5-10.4c-0.5-5.5-1.1-10.4-1.6-13.7c-0.5-3.8-0.5-7.1-1.1-10.4
			c-0.5-3.3-0.5-6.6-0.5-10.4c0-3.3-0.5-8.2-1.1-13.1c0.5-0.5,1.6-0.5,3.3-0.5c1.1,0,2.2,0.5,3.3,1.1c0.5,0,0.5,1.1,0.5,3.3
			s0,4.9,0.5,8.2c0,3.3,0.5,7.1,0.5,10.9c0,3.8,0.5,7.7,1.1,11.5c0.5,3.8,1.6,6.6,2.2,9.3C395.2,387.2,396.3,388.9,398,390z
			 M419.3,406.9c-0.5,1.1-1.6,1.6-2.7,2.7c-1.1,1.1-1.6,1.6-2.7,2.7c-1.6,2.2-3.3,4.9-4.9,8.7s-3.3,7.7-4.4,12
			c-1.1,4.4-2.2,8.7-2.2,13.1c-0.5,4.4-0.5,8.2,0.5,12c0.5,3.3,1.6,6,3.8,8.2c1.6,2.2,4.4,2.7,8.2,2.2c1.1-0.5,2.2-1.6,3.3-4.9
			c1.1-3.3,1.6-6.6,1.6-10.4c0.5-4.4,0.5-8.7,0.5-13.7c0-4.9,0-9.8,0-14.2s-0.5-8.7-0.5-12C419.3,410.7,419.3,408,419.3,406.9z"/>
		<path fill="#00E5FF" d="M488.8,344c0,0.5-0.5,2.7-1.1,4.9c-0.5,2.7-1.1,5.5-1.6,9.3c-0.5,3.3-1.1,7.1-1.6,10.9
			c-0.5,3.8-0.5,7.7-0.5,10.9s0,6.6,0.5,8.7c0.5,2.2,1.1,3.8,2.2,4.4c3.3,1.6,6.6,1.1,9.8-1.6s7.1-6.6,11.5-11.5
			c0.5,0,0.5,0.5,0,1.6c-0.5,1.1-1.1,2.2-1.6,3.8c-0.5,1.1-1.6,2.7-2.2,3.8c-0.5,1.1-1.1,2.2-1.6,2.7c-1.1,1.1-2.7,2.7-4.9,4.4
			c-2.2,1.6-4.4,3.3-6.6,3.8c-2.2,1.1-4.4,1.6-6.6,1.1c-2.2,0-3.8-1.1-5.5-3.8c-0.5-1.6-1.1-3.8-1.1-6s0-4.9,0-7.1
			c0-2.2,0.5-4.9,0.5-6.6c0-2.2,0.5-3.3,0.5-4.4c-2.7,5.5-6,10.4-9.8,15.3c-3.8,4.9-7.1,8.7-10.9,11.5c-3.3,2.7-6.6,4.4-9.8,4.4
			c-2.7,0-5.5-1.6-7.1-5.5c-1.1-3.3-1.1-7.7,0-12c1.1-4.4,2.2-8.2,4.4-12c2.7-4.9,6-9.3,8.7-13.7c3.3-3.8,6.6-7.7,9.8-10.4
			c3.3-2.7,7.1-4.9,10.9-6C480.6,344,484.4,343.5,488.8,344z M450.5,396c1.1,0.5,3.3-0.5,6.6-3.3c2.7-2.2,6-5.5,9.3-9.8
			c3.3-4.4,6-8.7,8.7-14.2s4.4-11.5,5.5-17.5c-0.5,0-1.1,0-2.2,0c-1.1,0-2.2,0.5-3.8,1.1c-4.9,3.3-9.8,7.1-13.1,12
			c-3.8,4.4-6.6,8.7-8.7,13.1c-2.2,4.4-3.3,8.2-3.8,11.5C448.3,392.7,448.8,394.9,450.5,396z"/>
		<path fill="#00E5FF" d="M513.9,341.8c0,3.8,0,7.7,0,11.5c0,3.8,0,7.7,0,10.9c0,3.3,0,7.1,0,9.8c0,3.3,0,6-0.5,8.2
			c0-0.5,0.5-1.6,1.1-3.8c0.5-2.2,1.6-4.4,2.7-7.1c1.1-2.7,2.2-5.5,3.8-8.7c1.1-3.3,2.7-6,4.4-8.2c1.6-2.2,3.3-4.4,4.4-5.5
			c1.6-1.1,3.3-1.6,4.4-1.1c2.7,1.1,4.9,3.3,6.6,6c1.1,2.7,2.2,5.5,2.7,8.7c0.5,3.3,1.1,7.1,1.6,10.9c0.5,3.8,1.6,8.2,3.8,12.6
			c0.5,2.2,2.2,3.3,3.8,4.4c1.6,1.1,3.3,1.6,4.4,2.2c1.6,0.5,2.7,0.5,3.3,0.5c1.1,0,1.1,0.5,1.1,0.5c-3.3,2.7-6.6,3.3-8.7,2.7
			c-2.2-0.5-4.4-2.7-6-5.5c-1.6-2.7-3.3-6-4.4-9.8s-2.2-7.7-2.7-11.5c-1.1-3.8-1.6-6.6-2.2-9.3c-0.5-2.7-1.6-3.8-2.2-3.8
			c-1.1,0-2.7,1.1-3.8,3.3c-1.6,2.2-2.7,4.9-4.4,8.2c-1.6,3.3-2.7,6.6-4.4,10.9c-1.1,3.8-2.7,7.7-3.8,10.9c-1.1,3.3-2.2,6.6-2.7,8.7
			c-0.5,2.2-1.1,3.8-1.1,4.4c-2.2,0-3.3,0-3.8,0s-1.1-0.5-2.2-2.2c0.5-12,1.1-23.5,0.5-33.9c0-10.9-0.5-19.7-1.1-27.9
			c0-1.1,0.5-1.6,1.1-1.6s1.1,0.5,2.2,0.5c0.5,0.5,1.6,1.1,2.2,1.6C512.8,341.8,513.4,341.8,513.9,341.8z"/>
		<path fill="#00E5FF" d="M568,341.8c0,3.8,0,7.7,0,11.5c0,3.8,0,7.7,0,10.9c0,3.3,0,7.1,0,9.8c0,3.3,0,6-0.5,8.2
			c0-0.5,0.5-1.6,1.1-3.8c0.5-2.2,1.6-4.4,2.7-7.1c1.1-2.7,2.2-5.5,3.8-8.7c1.1-3.3,2.7-6,4.4-8.2c1.6-2.2,3.3-4.4,4.4-5.5
			c1.6-1.1,3.3-1.6,4.4-1.1c2.7,1.1,4.9,3.3,6.6,6c1.1,2.7,2.2,5.5,2.7,8.7c0.5,3.3,1.1,7.1,1.6,10.9c0.5,3.8,1.6,8.2,3.8,12.6
			c0.5,2.2,2.2,3.3,3.8,4.4c1.6,1.1,3.3,1.6,4.4,2.2c0,1.1,1.1,1.1,1.6,1.1c1.1,0,1.1,0.5,1.1,0.5c-3.3,2.7-6.6,3.3-8.7,2.7
			c-2.2-0.5-4.4-2.7-6-5.5s-3.3-6-4.4-9.8s-2.2-7.7-2.7-11.5c-1.1-3.8-1.6-6.6-2.2-9.3s-1.6-3.8-2.2-3.8c-1.1,0-2.7,1.1-3.8,3.3
			c-1.6,2.2-2.7,4.9-4.4,8.2c-1.6,3.3-2.7,6.6-4.4,10.9c-1.1,3.8-2.7,7.7-3.8,10.9c-1.1,3.3-2.2,6.6-2.7,8.7
			c-0.5,2.2-1.1,3.8-1.1,4.4c-2.2,0-3.3,0-3.8,0c-0.5,0-1.1-0.5-2.2-2.2c0.5-12,1.1-23.5,0.5-33.9c0-10.9-0.5-19.7-1.1-27.9
			c0-1.1,0.5-1.6,1.1-1.6c0.5,0,1.1,0.5,2.2,0.5c0.5,0.5,1.6,1.1,2.2,1.6C567,341.8,567.5,341.8,568,341.8z"/>
		<path fill="#00E5FF" d="M630.4,346.2c0.5,0,1.6-0.5,3.3-1.1c1.6-0.5,3.3-0.5,4.9-0.5c3.8,0,7.1,1.1,9.3,3.3s2.2,6.6,0.5,12.6
			c-2.7,7.1-6,12.6-10.4,17.5c-4.4,4.4-9.3,9.3-15.3,13.1c1.1,3.3,3.3,5.5,6,6c2.7,0.5,5.5,0,8.7-1.1c2.7-1.1,6-3.3,8.7-5.5
			c2.7-2.2,4.9-3.8,7.1-5.5c2.7-2.2,4.9-4.4,6.6-6s3.3-3.8,5.5-6c0.5,0,0.5,0,0.5,0c0,0.5,0,1.1,0,1.6c0,0.5-0.5,1.6-0.5,2.7
			c-0.5,1.1-0.5,1.6-1.1,2.7c-0.5,0.5-1.1,1.6-1.6,2.2c-0.5,1.1-1.6,2.2-2.7,3.3c-1.1,1.1-2.7,2.7-4.4,4.9c-2.2,1.6-3.8,3.8-6,5.5
			c-1.6,1.6-3.8,3.3-6,4.9c-2.2,1.1-4.4,2.2-7.1,2.7c-2.7,0.5-5.5,0.5-8.7,0c-2.7-1.1-4.9-2.2-6.6-3.3c-1.6-1.1-2.7-2.2-3.8-3.3
			c-1.1-1.1-1.6-2.2-2.2-3.3c-0.5-1.1-0.5-1.6-0.5-2.2c-0.5-2.7-1.1-6.6-0.5-10.9c0-4.4,1.6-10.4,3.8-18c1.6-3.8,3.8-7.1,5.5-9.8
			C625.5,350,627.7,347.9,630.4,346.2z M621.6,382.3c1.6-1.1,3.8-2.2,6-3.8s4.4-3.8,6.6-6c2.2-2.2,3.8-4.9,5.5-7.7
			c1.6-2.7,2.2-5.5,2.7-8.7c0.5-2.2,0.5-3.3,0-4.4c-0.5-0.5-0.5-0.5-0.5-0.5c-2.2-1.1-4.4-0.5-7.1,1.1c-2.2,1.6-4.4,4.4-6.6,7.7
			c-1.6,3.3-3.3,7.1-4.9,10.9C622.2,375.2,621.6,379,621.6,382.3z"/>
	</g>
	<g>
		<path fill="#FFFFFF" d="M570.7,533.5c-0.5,1.1-1.1,1.6-1.6,2.7c-1.1,1.1-1.6,1.1-2.7,1.6c-1.1,0-2.2,0-2.7-0.5
			c-1.1-0.5-1.6-1.6-2.7-3.8c-3.3-6-6-11.5-8.7-16.4c-2.2-4.9-4.4-10.4-6.6-15.9s-3.8-11.5-6-18c-2.2-6.6-4.4-14.8-7.1-24.1
			c-2.7,7.7-4.9,15.3-7.7,23.5c-2.7,8.2-5.5,16.4-8.2,24.1s-6,15.3-8.7,21.9c-2.7,6.6-6,12-8.7,16.4c-1.6,2.7-3.3,4.4-4.4,4.9
			c-1.1,1.1-2.2,1.1-3.3,1.1c-1.1,0-1.6-1.1-2.2-1.6c-0.5-1.1-1.1-1.6-1.1-2.7c-1.6-14.2-2.7-27.9-3.8-41c-1.1-13.1-2.2-25.2-3.3-35
			s-2.2-19.1-2.7-25.7c-1.1-6.6-2.2-10.9-3.3-12.6c-0.5-2.7,0.5-4.9,3.3-6.6c2.2-1.6,4.9-1.6,7.1-1.1c0.5,0,1.1,2.7,2.2,8.2
			c0.5,5.5,1.1,12,1.6,19.7c0.5,7.7,1.1,16.4,1.6,25.7c0.5,9.3,1.1,17.5,1.6,25.7c0.5,7.7,1.1,14.2,1.6,19.7
			c0.5,4.9,1.1,7.7,1.1,7.7c0.5,1.1,1.6,0.5,3.3-2.2c1.6-2.7,3.3-6,5.5-10.9c2.2-4.9,4.4-10.4,6.6-17.5c2.2-6.6,4.9-13.7,7.1-20.8
			c2.2-7.1,4.4-14.2,6.6-21.3s3.8-13.1,5.5-19.1c1.1-1.6,1.6-3.3,2.2-3.8c0.5-0.5,2.2-0.5,4.4,0c1.1,0.5,2.2,1.6,2.7,3.8
			c0.5,2.2,1.1,4.4,1.6,7.7c0.5,2.7,0.5,6,1.1,9.8s1.1,7.1,2.2,10.9c1.1,3.3,1.6,7.1,3.3,11.5c1.1,4.9,2.7,9.3,4.4,14.2
			c1.6,4.9,3.3,9.8,4.9,14.2c1.6,4.4,3.8,8.2,5.5,10.9c1.1,1.1,2.2-1.1,3.8-4.9c1.6-4.4,2.7-9.8,4.4-17s2.7-15.3,4.4-24.1
			c1.6-8.7,2.7-17.5,3.8-25.7c1.1-8.2,1.6-15.9,2.2-23c0.5-6.6,0.5-12,0-14.8c0-2.2,0-3.3,0.5-4.4c0-1.1,0.5-1.6,0.5-1.6
			c0-0.5,0-0.5,0-1.1c0-0.5,0-1.1-0.5-2.2c-0.5-0.5,0-1.6,0.5-2.2c0.5-1.1,1.1-1.6,2.2-2.2c1.1-0.5,1.6-1.1,2.7-1.1
			c1.1,0,2.2,0,2.7,1.1c0.5,0.5,0.5,2.2,0.5,4.4c0,2.2,0,4.9-0.5,8.7s-0.5,7.7-1.1,12c-0.5,4.4-0.5,9.8-1.1,15.3
			c-1.1,8.2-2.2,17-3.8,25.7c-1.1,8.7-2.7,17.5-3.8,26.2c-1.1,8.7-2.7,17-4.4,25.2C574,519.9,572.4,527,570.7,533.5z"/>
		<path fill="#FFFFFF" d="M640.2,476.1c0,1.1-0.5,3.3-1.1,6c-0.5,3.3-1.1,6.6-1.6,10.9c-0.5,4.4-1.1,8.7-1.6,13.1
			c-0.5,4.4-0.5,8.7-1.1,13.1c0,4.4,0,7.7,0.5,10.4c0.5,2.7,1.6,4.4,2.7,5.5c3.8,1.6,7.7,1.1,11.5-1.6c3.8-3.3,8.7-7.7,13.7-13.7
			c0.5,0,0.5,0.5,0,2.2c-0.5,1.1-1.1,2.7-2.2,4.4s-1.6,3.3-2.7,4.9c-1.1,1.6-1.6,2.7-2.2,3.3c-1.1,1.6-3.3,3.3-5.5,5.5
			c-2.7,2.2-4.9,3.8-7.7,4.9c-2.7,1.1-5.5,1.6-8.2,1.6c-2.7,0-4.4-1.6-6.6-4.4c-1.1-2.2-1.1-4.4-1.6-7.1c0-2.7,0-6,0-8.7
			s0.5-5.5,0.5-8.2c0.5-2.7,0.5-4.4,0.5-5.5c-3.3,6.6-7.7,12.6-12,18c-4.4,6-8.7,10.4-13.1,13.7c-4.4,3.3-8.2,4.9-12,5.5
			c-3.8,0-6.6-1.6-8.2-6.6c-1.1-4.4-1.1-9.3,0-14.2c1.1-5.5,2.7-10.4,4.9-14.2c3.3-6,7.1-11.5,10.9-16.4s7.7-9.3,12-12.6
			c4.4-3.3,8.7-6,13.7-7.7C630.3,475.6,635.2,475.6,640.2,476.1z M594.2,539c1.6,0.5,4.4-1.1,7.7-3.8c3.8-2.7,7.7-6.6,11.5-11.5
			c3.8-4.9,7.7-10.9,10.9-17.5c3.3-6.6,5.5-13.7,6.6-21.3c-0.5,0-1.6,0-2.7,0c-1.1,0-2.7,0.5-4.4,1.6c-6,4.4-11.5,8.7-15.9,14.2
			c-4.4,5.5-7.7,10.9-10.4,15.9c-2.7,4.9-3.8,9.8-4.4,13.7C592,534.6,592.6,537.3,594.2,539z"/>
		<path fill="#FFFFFF" d="M662.6,470.6c0-1.6,0.5-1.6,2.2-1.1c1.6,0.5,3.3,1.6,5.5,2.2c0.5,3.8,1.1,6.6,1.6,8.7
			c0.5,2.2,0.5,4.4,0.5,6.6c0,2.2,0.5,4.4,0.5,6.6c0,2.2,0.5,5.5,0.5,9.3c1.6-3.8,3.3-7.1,5.5-10.4c2.2-3.3,4.9-6,8.2-8.2
			c3.3-2.2,7.7-3.8,12-4.9c4.9-1.1,10.4-1.6,17-1.1c0,1.1-0.5,2.2-1.1,3.3c-1.1,1.1-2.7,1.6-6.6,2.2c-4.9,1.1-8.7,2.2-12.6,4.9
			c-3.3,2.2-6.6,4.9-9.3,8.2c-2.7,3.3-4.4,6.6-6,9.8c-1.6,3.3-2.7,6.6-3.8,9.8c0,1.6-0.5,3.8-0.5,6s-0.5,5.5-0.5,8.7s0,6,0,8.7
			c0,2.7,0,4.9,0.5,6.6c0,1.1,0,1.6-1.1,1.6c-1.1,0.5-2.2,0.5-3.3,1.1c-1.1,0-2.2,0-3.3,0c-1.1-0.5-1.6-1.1-1.6-1.6
			c0.5-17,0-31.7-1.1-43.7C664.2,491.4,663.1,480.5,662.6,470.6z"/>
		<path fill="#FFFFFF" d="M791.1,418.7c-0.5,2.7-1.1,6-1.6,9.3c-0.5,3.3-1.1,6.6-2.2,9.3c-0.5,2.7-1.1,5.5-1.6,7.7
			c-0.5,2.2-1.1,3.3-1.1,3.8c-1.1,2.7-2.2,6.6-3.8,10.9c-1.6,4.4-3.8,9.3-6,13.7c-2.2,4.9-4.9,9.8-7.7,14.8
			c-2.7,4.9-5.5,8.7-8.7,12.6c0,2.7,0.5,6.6,1.1,12.6c0.5,6,1.1,12,2.2,19.1c1.1,6.6,1.6,13.1,2.2,19.7c0.5,6.6,1.1,11.5,1.1,15.3
			c-1.1,1.1-1.6,0.5-2.2-0.5c-0.5-1.1-1.6-3.3-2.7-6c-1.1-4.4-1.6-8.2-2.2-12c-0.5-3.8-1.1-7.1-1.6-10.9s-1.1-7.7-1.6-11.5
			c-0.5-4.4-1.6-8.7-2.7-14.2c-3.3,3.8-7.1,8.2-11.5,13.7c-4.4,4.9-8.7,9.3-13.7,13.1s-9.3,6.6-13.7,8.2c-4.4,1.6-8.2,1.1-11.5-2.2
			c-2.2-2.7-2.7-5.5-2.7-9.3c0-3.3,1.1-7.1,2.7-10.9c1.6-3.8,3.8-7.1,6.6-10.9c2.7-3.8,5.5-7.1,8.2-9.8c2.7-3.3,5.5-6,7.7-8.2
			c2.7-2.2,4.4-3.8,5.5-4.9c2.2-1.6,4.4-2.7,6-3.8c1.6-1.1,2.7-1.6,4.4-2.2c1.1-0.5,2.7-1.1,3.8-1.1c1.1,0,2.7-0.5,4.9,0
			c-0.5-3.8-0.5-8.2-0.5-13.7s0-10.4,0-15.9s0-10.4,0.5-14.8c0-4.4,0.5-8.2,1.1-10.4c0.5-3.8,1.1-7.7,2.2-11.5
			c1.1-3.8,2.7-7.7,4.9-11.5c1.6-3.8,3.8-7.1,6.6-9.8c2.2-2.7,4.9-4.9,7.7-6c2.7-1.1,5.5-1.6,8.2-1.1c2.7,0.5,5.5,2.7,8.7,6
			c2.2,2.7,3.3,6,3.3,10.4C791.1,409.9,791.1,414.3,791.1,418.7z M722.7,507.8c-4.4,4.4-7.7,8.7-9.8,12.6c-2.2,3.8-3.8,7.7-4.9,10.9
			c0,0.5,0,1.1,0,2.2c0,1.1,0,2.2,0.5,3.3c0,1.1,0.5,1.6,1.6,2.7c0.5,0.5,2.2,1.1,3.8,0.5s2.7-1.1,3.8-2.2c1.1-0.5,2.2-1.1,2.7-2.2
			c1.1-0.5,1.6-1.6,2.7-2.2c1.1-1.1,2.2-1.6,3.8-3.3c2.2-2.7,4.9-5.5,8.7-8.2c3.3-3.3,6.6-6.6,8.7-9.8c2.7-3.3,4.4-7.1,4.9-10.4
			c1.1-3.8,0-7.1-3.3-10.4c-1.1,0-2.2,0-3.8,0.5c-1.1,0.5-2.7,1.1-4.4,2.2s-3.8,2.7-6.6,4.9C729.3,500.7,726,504,722.7,507.8z
			 M758.3,484.9c2.7-3.3,5.5-6.6,7.7-10.4c2.2-3.8,4.4-8.2,6.6-13.1c2.2-4.4,3.8-9.8,6-17c1.6-7.1,2.7-13.7,3.8-20.2
			c0.5-6.6,0.5-12.6,0-17.5s-2.2-7.7-4.9-7.7c-2.2-0.5-4.4,0.5-6.6,2.7c-2.2,2.2-3.8,4.4-5.5,7.7s-3.3,6.6-4.4,9.8
			c-1.1,3.3-2.2,6.6-2.7,9.3c-0.5,3.3-1.1,6-1.1,8.7s-0.5,5.5-0.5,8.2s0,6-0.5,9.3c0,3.3-0.5,7.7-1.1,12.6c0,2.7,0,4.9,0.5,7.7
			c0,2.7,0.5,4.4,1.1,6.6c0.5,1.6,0.5,3.3,1.1,3.8C757.7,484.9,758.3,485.4,758.3,484.9z"/>
	</g>
</g>
</svg>
