<?xml version="1.0" encoding="utf-8"?>
<!-- Generator: Adobe Illustrator 18.0.0, SVG Export Plug-In . SVG Version: 6.00 Build 0)  -->
<!DOCTYPE svg PUBLIC "-//W3C//DTD SVG 1.1//EN" "http://www.w3.org/Graphics/SVG/1.1/DTD/svg11.dtd">
<svg version="1.1" id="Layer_1" xmlns="http://www.w3.org/2000/svg" xmlns:xlink="http://www.w3.org/1999/xlink" x="0px" y="0px"
	 viewBox="0 0 1024 768" enable-background="new 0 0 1024 768" xml:space="preserve">
<path fill="#7B1113" d="M112,652.6c0,9.5,7.7,17.1,17.1,17.1h765.7c9.5,0,17.1-7.7,17.1-17.1V155.4H112V652.6z"/>
<g>
	<path fill="#DBDBDB" d="M894.9,98.3H129.1c-9.5,0-17.1,7.7-17.1,17.1v40h800v-40C912,105.9,904.3,98.3,894.9,98.3z"/>
	<g>
		<circle fill="#AAAAAA" cx="149.3" cy="126.9" r="11.4"/>
		<circle fill="#AAAAAA" cx="183.7" cy="126.9" r="11.4"/>
		<circle fill="#AAAAAA" cx="218.1" cy="126.9" r="11.4"/>
	</g>
</g>
<g>
	<path fill="#FFFFFF" d="M793.1,349.6c4.1,7.9,6.4,12.3,10.4,20.3L752,475.5H597.3H385.6H230.9c-4.1-7.9-6.4-12.3-10.4-20.3
		L272,349.6h154.9h211.7H793.1 M802.2,334.9h-9H638.4H426.7H271.9h-9.1l-4,8.2l-51.5,105.6l-3.2,6.6l3.3,6.5l5.3,10.2l5.3,10.2
		l4.1,8h9h154.9h211.7h154.9h9.1l4-8.2L817,376.3l3.2-6.6l-3.3-6.5l-1.5-3l-8.9-17.4L802.2,334.9L802.2,334.9z"/>
	<g>
		<path fill="#FFFFFF" d="M394.5,428.5c3.5,1.8,9.1,3.7,14.9,3.7c6.2,0,9.4-2.5,9.4-6.4c0-3.7-2.9-5.8-9.9-8.3
			c-9.8-3.4-16.2-8.9-16.2-17.5c0-10.1,8.5-17.8,22.4-17.8c6.6,0,11.5,1.4,15.1,3l-3,10.7c-2.4-1.1-6.6-2.9-12.3-2.9
			c-5.8,0-8.6,2.6-8.6,5.7c0,3.8,3.3,5.5,11,8.3c10.4,3.9,15.3,9.3,15.3,17.6c0,9.9-7.7,18.4-23.9,18.4c-6.7,0-13.5-1.7-16.8-3.5
			L394.5,428.5z"/>
		<path fill="#FFFFFF" d="M476.6,417.1h-21.7v14.1h24.3v11h-37.7V383h36.6v11h-23.2v12.3h21.7V417.1z"/>
		<path fill="#FFFFFF" d="M488.3,383.8c4.3-0.7,10.7-1.3,17.8-1.3c8.8,0,15,1.4,19.1,4.7c3.5,2.9,5.5,7,5.5,12.3
			c0,7.5-5.4,12.7-10.4,14.6v0.2c4.1,1.7,6.4,5.6,7.9,11.1c1.8,6.6,3.7,14.4,4.8,16.7h-13.7c-0.9-1.7-2.4-6.5-4.1-13.8
			c-1.6-7.4-4.1-9.4-9.6-9.5h-4v23.3h-13.3L488.3,383.8L488.3,383.8z M501.6,409.3h5.3c6.6,0,10.6-3.3,10.6-8.6
			c0-5.5-3.7-8.1-9.8-8.2c-3.2,0-5.1,0.2-6.1,0.5V409.3z"/>
		<path fill="#FFFFFF" d="M553.8,442.2l-19-59.1h14.6l7.2,25c2.1,7,3.9,13.8,5.3,21.1h0.2c1.5-7.1,3.3-14.2,5.4-20.9l7.5-25.3h14.2
			l-19.9,59.2h-15.5V442.2z"/>
		<path fill="#FFFFFF" d="M609,383.1v59.2h-13.5v-59.2H609z"/>
		<path fill="#FFFFFF" d="M664.1,440.6c-2.5,1.3-8,2.5-15.2,2.5c-20.5,0-31-12.7-31-29.6c0-20.2,14.4-31.4,32.3-31.4
			c7,0,12.2,1.4,14.6,2.6l-2.7,10.6c-2.7-1.1-6.5-2.2-11.2-2.2c-10.6,0-18.9,6.4-18.9,19.5c0,11.9,7,19.3,19,19.3
			c4,0,8.6-0.9,11.2-1.9L664.1,440.6z"/>
		<path fill="#FFFFFF" d="M708.1,417.1h-21.7v14.1h24.3v11H673V383h36.6v11h-23.1v12.3h21.7v10.9H708.1z"/>
		<path fill="#FFFFFF" d="M720.2,428.5c3.5,1.8,9.1,3.7,14.9,3.7c6.2,0,9.4-2.5,9.4-6.4c0-3.7-2.9-5.8-9.9-8.3
			c-9.8-3.4-16.2-8.9-16.2-17.5c0-10.1,8.5-17.8,22.4-17.8c6.6,0,11.5,1.4,15.1,3l-3,10.7c-2.4-1.1-6.6-2.9-12.3-2.9
			c-5.8,0-8.6,2.6-8.6,5.7c0,3.8,3.3,5.5,11,8.3c10.4,3.9,15.3,9.3,15.3,17.6c0,9.9-7.7,18.4-23.9,18.4c-6.7,0-13.5-1.7-16.8-3.5
			L720.2,428.5z"/>
	</g>
	<g>
		<path fill="#FFFFFF" d="M310.5,391.5c-1.3,3.3-2.6,6.6-3.9,9.4l-7.5,16.3h13.7l-1.5-17.1C311,397.9,310.7,395.1,310.5,391.5z
			 M302.5,415.1l6.1-13.1c0.1-0.2,0.2-0.6,0.3-0.8l1.3,13.9H302.5z"/>
		<g>
			<path fill="#FFFFFF" d="M379,410.9h-15.2v-16.3v-4.6h-4.6h-9.3h-4.6v4.6v16.3h-8.2l-5.1-44.2l-0.5-4h-4h-24.9h-2.9l-1.3,2.5
				l-44.2,91l-3.2,6.5h7.2H279h2.9l1.3-2.6l9.6-21h19.1l1.6,19.4l0.3,4.1h4.1h20.5h5l-0.6-5l-3.4-28.9h6.2v16.6v4.6h4.6h9.3h4.6
				v-4.6v-16.6h15.2h4.6V424v-8.8v-4.6H379V410.9z M340.5,457.8l0.3,2.5h-2.5h-20.3h-2.1l-0.1-2.1l-1.7-21.5h-22.6l-10.2,22.3
				l-0.6,1.4h-1.5h-20.7h-3.7l1.6-3.2l44.2-91l0.6-1.3h1.4h24.9h2.1l0.2,1.9l5.1,44h-2.3l-5.1-43.8h-24.9l0,0l-44.2,91h20.7
				l7.4-16.2l3.4-7.4h26.2l1.9,23.7h20.2l-3.4-29.4h2.3L340.5,457.8z M312.8,392.5c0.1,0.8,0.1,1.6,0.2,2.3c0,0.3,0.1,0.8,0.1,1.1
				c0.1,1.5,0.2,2.9,0.3,4.1l1.7,19.5h-19.7l9-19.5c0.8-1.6,1.5-3.4,2.3-5.4c1.7-4.1,3.4-8.7,5-12.5h0.2c0.1,1.7,0.2,3.7,0.5,5.6
				c0.1,0.8,0.1,1.6,0.2,2.4C312.7,391,312.8,391.7,312.8,392.5z M381.3,415.3v8.8v2.3H379h-17.5v18.9v2.3h-2.3h-9.3h-2.3v-2.3
				v-18.9h-17.4H328v-2.3v-8.8V413h2.3h17.5v-18.6v-2.3h2.3h9.3h2.3v2.3V413h17.5h2.3v2.3H381.3z"/>
			<polygon fill="#FFFFFF" points="359.3,394.5 350.1,394.5 350.1,415.3 350.1,415.3 330.3,415.3 330.3,424.1 350.1,424.1 
				350.1,424.1 350.1,445.3 359.3,445.3 359.3,424.1 379,424.1 379,415.3 359.3,415.3 			"/>
		</g>
	</g>
</g>
</svg>
