<?xml version="1.0" encoding="utf-8"?>
<!-- Generator: Adobe Illustrator 18.0.0, SVG Export Plug-In . SVG Version: 6.00 Build 0)  -->
<!DOCTYPE svg PUBLIC "-//W3C//DTD SVG 1.1//EN" "http://www.w3.org/Graphics/SVG/1.1/DTD/svg11.dtd">
<svg version="1.1" id="Layer_1" xmlns="http://www.w3.org/2000/svg" xmlns:xlink="http://www.w3.org/1999/xlink" x="0px" y="0px"
	 viewBox="0 0 1024 768" enable-background="new 0 0 1024 768" xml:space="preserve">
<path fill="#212121" d="M112,652.6c0,9.5,7.7,17.1,17.1,17.1h765.7c9.5,0,17.1-7.7,17.1-17.1V155.4H112V652.6z"/>
<g>
	<g>
		<g>
			<path fill="#0091EA" d="M314.2,517.8c3.7-0.6,8.6-1,13.7-1c8.5,0,14,1.6,18.4,4.8c4.7,3.4,7.6,8.9,7.6,16.8
				c0,8.6-3.1,14.4-7.5,18.1c-4.7,4-11.9,5.8-20.7,5.8c-5.2,0-8.9-0.3-11.5-0.7v-43.9l0,0V517.8z M324.2,554.5
				c0.8,0.1,2.3,0.1,3.5,0.1c9.2,0,15.1-5,15.1-15.7c0-9.3-5.4-14.3-14.1-14.3c-2.3,0-3.7,0.1-4.5,0.4V554.5z"/>
			<path fill="#0091EA" d="M370.8,520.5c0,2.8-2.1,5.1-5.5,5.1c-3.3,0-5.4-2.3-5.2-5.1c0-3,2.1-5.1,5.4-5.1
				C368.6,515.4,370.6,517.5,370.8,520.5z M360.3,562.1v-32.5h10v32.5H360.3z"/>
			<path fill="#0091EA" d="M409.5,529.6c-0.1,2.1-0.3,4.8-0.3,9.6v18.1c0,6.2-1.3,11.3-5,14.6c-3.5,3.1-8.5,4-13.3,4
				c-4.2,0-8.8-0.8-11.7-2.5l2-7.6c2.1,1.1,5.7,2.4,9.5,2.4c4.8,0,8.5-2.5,8.5-8.6v-2.1h-0.1c-2,2.7-5.1,4.2-8.8,4.2
				c-8.1,0-13.7-6.5-13.7-15.8c0-10.5,6.8-17.1,14.7-17.1c4.4,0,7.2,2,8.9,4.5h0.1l0.3-3.8L409.5,529.6L409.5,529.6z M399.2,542.7
				c0-0.7,0-1.3-0.1-1.8c-0.7-2.7-2.7-4.4-5.5-4.4c-3.7,0-6.6,3.3-6.6,9.2c0,4.8,2.4,8.6,6.6,8.6c2.5,0,4.7-1.7,5.4-4.1
				c0.3-0.7,0.3-1.8,0.3-2.7L399.2,542.7L399.2,542.7z"/>
			<path fill="#0091EA" d="M427.8,520.5c0,2.8-2.1,5.1-5.5,5.1c-3.3,0-5.4-2.3-5.2-5.1c0-3,2.1-5.1,5.4-5.1
				C425.7,515.4,427.8,517.5,427.8,520.5z M417.5,562.1v-32.5h10v32.5H417.5z"/>
			<path fill="#0091EA" d="M446.9,520.2v9.3h7.2v7.5h-7.2v11.7c0,4,1,5.7,4,5.7c1.3,0,2.3-0.1,3-0.3v7.6c-1.3,0.6-3.7,0.8-6.6,0.8
				c-3.3,0-5.9-1.1-7.6-2.8c-1.8-2-2.8-5.1-2.8-9.6v-13.3h-4v-7.5h4.4v-7.1L446.9,520.2z"/>
			<path fill="#0091EA" d="M478.4,562.1l-0.6-3.3h-0.1c-2.1,2.5-5.5,4-9.3,4c-6.6,0-10.5-4.8-10.5-9.9c0-8.5,7.6-12.4,19.1-12.4V540
				c0-1.7-1-4.2-5.9-4.2c-3.3,0-6.8,1.1-8.9,2.4l-1.8-6.5c2.3-1.3,6.6-2.8,12.6-2.8c10.9,0,14.3,6.4,14.3,14v11.3
				c0,3.1,0.1,6.1,0.4,7.9L478.4,562.1L478.4,562.1z M477.3,546.7c-5.4,0-9.5,1.1-9.5,5.1c0,2.5,1.7,3.8,4,3.8
				c2.5,0,4.5-1.7,5.2-3.7c0.1-0.6,0.1-1.1,0.1-1.7v-3.5L477.3,546.7L477.3,546.7z"/>
			<path fill="#0091EA" d="M495.1,514.9h10v47.3h-10V514.9z"/>
		</g>
	</g>
	<g>
		<g>
			<path fill="#0091EA" d="M554.1,558.3c-2.5,0.8-7.4,2.4-13.3,2.4c-6.5,0-11.9-1.7-16.1-5.7c-3.7-3.5-5.9-9.3-5.9-16
				c0-12.9,8.9-22.2,23.3-22.2c5,0,8.9,1.1,10.8,2l-1.3,4.5c-2.3-1-5.2-1.8-9.5-1.8c-10.5,0-17.3,6.5-17.3,17.3
				c0,10.9,6.6,17.4,16.7,17.4c3.7,0,6.1-0.6,7.4-1.1v-12.9h-8.8v-4.5h14.1v20.7h-0.1V558.3z"/>
			<path fill="#0091EA" d="M562.3,538.9c0-3.7,0-6.8-0.3-9.6h5l0.1,6.1h0.3c1.4-4.1,4.8-6.8,8.6-6.8c0.7,0,1.1,0,1.6,0.1v5.4
				c-0.6-0.1-1.1-0.1-2-0.1c-4,0-6.8,3-7.5,7.2c-0.1,0.7-0.3,1.7-0.3,2.7v16.6h-5.5L562.3,538.9L562.3,538.9z"/>
			<path fill="#0091EA" d="M600.1,560.3l-0.4-4h-0.1c-1.7,2.4-5.1,4.7-9.5,4.7c-6.2,0-9.5-4.4-9.5-8.9c0-7.5,6.6-11.6,18.7-11.5
				v-0.7c0-2.5-0.7-7.2-7.1-7.2c-2.8,0-5.9,0.8-8.1,2.3l-1.3-3.7c2.5-1.7,6.2-2.7,10.2-2.7c9.5,0,11.7,6.5,11.7,12.6v11.6
				c0,2.7,0.1,5.4,0.6,7.4h-5.2L600.1,560.3L600.1,560.3z M599.2,544.4c-6.1-0.1-13.2,1-13.2,6.9c0,3.7,2.4,5.4,5.4,5.4
				c4,0,6.6-2.5,7.5-5.2c0.1-0.6,0.3-1.3,0.3-1.8V544.4z"/>
			<path fill="#0091EA" d="M613.8,539.3c0-4-0.1-7.2-0.3-10h5.1l0.3,5.4h0.1c2.3-3.8,5.9-5.9,11-5.9c7.5,0,13.2,6.4,13.2,15.7
				c0,11.2-6.8,16.7-14,16.7c-4.1,0-7.6-1.8-9.5-4.8h-0.1v16.8h-5.8V539.3z M619.3,547.7c0,0.8,0.1,1.6,0.3,2.3c1,4,4.4,6.6,8.5,6.6
				c5.9,0,9.3-4.8,9.3-12c0-6.2-3.3-11.5-9.2-11.5c-3.8,0-7.4,2.7-8.5,6.9c-0.1,0.7-0.4,1.6-0.4,2.3L619.3,547.7L619.3,547.7z"/>
			<path fill="#0091EA" d="M650.2,514.9h5.7v19.2h0.1c0.8-1.6,2.3-3,4-4s3.7-1.6,5.8-1.6c4.1,0,10.8,2.5,10.8,13.3v18.4h-5.7v-17.8
				c0-5-1.8-9.2-7.2-9.2c-3.7,0-6.5,2.5-7.5,5.7c-0.3,0.7-0.4,1.6-0.4,2.7v18.7H650v-45.4L650.2,514.9L650.2,514.9z"/>
			<path fill="#0091EA" d="M688.2,529.3l4.4,6.6c1.1,1.7,2.1,3.3,3.1,5.1h0.1c1-1.8,2-3.4,3.1-5.1l4.4-6.6h6.1l-10.6,15l10.9,16
				h-6.4l-4.5-6.9c-1.3-1.8-2.3-3.5-3.4-5.4h-0.1c-1,1.8-2.1,3.5-3.3,5.4l-4.5,6.9h-6.2l11-15.8l-10.5-15.1h6.4V529.3z"/>
		</g>
	</g>
	<g>
		<g>
			<path fill="#0091EA" d="M601.8,346.9l-2,6.5v0.1v0.1c-1.8,5.7-4,11.2-6.4,16.7c-1,2.3-2,4.4-3.1,6.5c-0.6,1.1-1.1,2.1-1.7,3.3
				v50.1c-6.9-3.8-14.3-8.2-21.8-13.2c-0.6-0.4-1.1-0.7-1.7-1.1c-3-2-5.9-4.1-9.1-6.2c-15.1-10.9-31.3-24.8-44-41
				c-2.4-3-4.5-6.1-6.6-9.2c-3.4-5-6.4-10.2-8.9-15.6c2.5-5.4,5.5-10.6,8.9-15.6c-12.6-16.7-29.1-30.8-44.1-41.6
				c-11,14.9-20.2,31.3-26.2,49.4h0.3h10.9v41.6c4.4,8.2,9.5,16,15,23.5c2.1,3,4.4,5.8,6.8,8.6c3.3,4,6.8,7.9,10.3,11.6
				c1.7,1.8,3.5,3.7,5.4,5.5c2.7,2.7,5.5,5.4,8.3,7.9c1.8,1.7,3.8,3.4,5.7,5.1c1.8,1.7,3.8,3.3,5.8,4.8s3.8,3.1,5.8,4.7
				c1,0.7,2,1.6,3,2.3c2.3,1.7,4.5,3.4,6.8,5.1c0.7,0.6,1.6,1.1,2.3,1.7c11.5,8.3,22.9,15.4,33.5,21.6c0.1,0.1,0.4,0.3,0.6,0.3
				c0.4,0.3,1,0.6,1.4,0.8c0.3,0.1,0.6,0.3,0.8,0.4c0.6,0.3,1,0.6,1.6,0.8c0.3,0.1,0.4,0.3,0.7,0.4c0.7,0.4,1.4,0.8,2.1,1.1H649l0,0
				v-104l41-16.8v-16.4L601.8,346.9L601.8,346.9z"/>
			<path fill="#0091EA" d="M557.2,262.8c2.7,3,5.2,5.9,7.8,8.9c0.6-0.4,1.1-0.7,1.7-1.1c7.5-5,15-9.3,21.8-13.2v38.1h60.1v-94.9
				h-81.2c-13.9,7.4-30.1,17-46.4,28.7C534.6,239.8,546.8,251,557.2,262.8z"/>
			<path fill="#0091EA" d="M458.9,271.7c3,2,5.9,4.1,9.1,6.2c15.1,10.9,31.3,24.8,44,41c2.4,3,4.5,6.1,6.6,9.2
				c3.4,5,6.4,10.2,8.9,15.6c-2.5,5.4-5.5,10.6-8.9,15.6c12.6,16.7,29.1,30.8,44.1,41.6c5.5-7.4,10.6-15.3,15-23.5
				c4.2-8.1,8.1-16.4,10.9-25.3c0.3-0.7,0.4-1.3,0.7-2l1-3.5l1-3.1l-2-6.5c-0.1-0.4-0.3-0.8-0.4-1.3c-5.9-18.1-15.1-34.5-26.2-49.4
				c-2.1-3-4.4-5.8-6.8-8.6c-13.2-16-28.6-30-44-42c-3-2.3-6.1-4.5-9.1-6.8c-16.3-11.7-32.5-21.4-46.4-28.7h-81.2V295h60.1v-38
				c6.9,3.8,14.3,8.2,21.8,13.2C457.8,271,458.3,271.2,458.9,271.7z"/>
			<path fill="#0091EA" d="M466.7,424.9c-2.7-3-5.2-5.9-7.8-8.9c-0.6,0.4-1.1,0.7-1.7,1.1c-7.5,5-15,9.3-21.8,13.2l-0.1-83.3H334.4
				v16.4l41,16.8l0,0v104h86.9c0.7-0.4,1.4-0.8,2.1-1.3c0.3-0.1,0.4-0.3,0.7-0.4c0.6-0.3,1-0.6,1.6-0.8c0.3-0.1,0.6-0.3,0.8-0.4
				c0.4-0.3,1-0.6,1.6-0.8c0.1-0.1,0.3-0.1,0.6-0.3c10.6-6.1,22.1-13.3,33.5-21.6C489.3,447.7,477.2,436.5,466.7,424.9z"/>
		</g>
	</g>
</g>
<g>
	<path fill="#DBDBDB" d="M894.9,98.3H129.1c-9.5,0-17.1,7.7-17.1,17.1v40h800v-40C912,106,904.3,98.3,894.9,98.3z"/>
	<g>
		<circle fill="#AAAAAA" cx="149.2" cy="126.9" r="11.4"/>
		<circle fill="#AAAAAA" cx="183.6" cy="126.9" r="11.4"/>
		<circle fill="#AAAAAA" cx="218.1" cy="126.9" r="11.4"/>
	</g>
</g>
<g>
	<path fill="#E0E0E0" d="M453.2,280.2L453.2,280.2c-0.6-0.4-1.1-0.7-1.7-1.1c-2-1.3-4.1-2.7-6.2-4v16.4c2.4-3.7,5-7.4,7.6-10.9
		L453.2,280.2z"/>
	<path fill="#E0E0E0" d="M578.5,291.5v-16.4c-2.1,1.3-4.1,2.7-6.1,4l-1.7,1.1l0,0c0.1,0.1,0.1,0.3,0.3,0.4
		C573.5,284.1,576,287.8,578.5,291.5z"/>
	<path fill="#E0E0E0" d="M507.7,343.8c1.3,2.4,2.7,4.8,4.2,7.2c1.6-2.4,3-4.8,4.2-7.2c-1.3-2.4-2.7-4.8-4.2-7.2
		C510.4,338.9,509,341.4,507.7,343.8z"/>
	<path fill="#E0E0E0" d="M570.7,407.3L570.7,407.3l0.4,0.3l1.3,0.8c2,1.3,4.1,2.7,6.2,4V396c-2.4,3.7-5,7.4-7.6,11L570.7,407.3z"/>
	<path fill="#E0E0E0" d="M445.5,396v16.4c2.1-1.3,4.1-2.7,6.2-4c0.6-0.4,1.1-0.7,1.7-1.1l0,0c-0.1-0.1-0.1-0.3-0.3-0.4
		C450.4,403.4,447.9,399.7,445.5,396z"/>
	<path fill="#E0E0E0" d="M689.6,326.7H607c-1.3-3.7-2.7-7.5-4.4-11.2h46h20.2v-20.2v-94.9v-20.2h-20.2h-81.2h-5l-4.4,2.4
		c-16.3,8.6-31.8,18.1-46.1,28.3c-14.3-10-29.7-19.5-46.1-28.3l-4.4-2.4h-5h-81.2H355v20.2v94.9v20.2h20.2h46
		c-1.6,3.7-3,7.4-4.4,11.2h-82.6H314v20.2v16.4v13.6l12.6,5.1l28.4,11.6V484v20.2h20.2h86.9h5.2l4.5-2.5c14.1-7.8,27.6-16.1,40.2-25
		c12.4,8.8,25.9,17.3,40.2,25l4.5,2.5h5.2h86.9H669V484v-90.4l28.4-11.6l12.6-5.1v-13.6v-16.4v-20.2L689.6,326.7L689.6,326.7z
		 M699.7,346.8v16.4v6.8l-6.2,2.5l-34.7,14.1v97.2V494h-10.2h-86.9h-2.5l-2.3-1.3c-14.9-8.2-28.9-17-41.7-26.3
		c-1-0.7-2.1-1.6-3.1-2.3l-3.1,2.3c-12.9,9.3-27,18.1-41.7,26.3L465,494h-2.5h-86.9h-10.2v-10.2v-97.2l-34.7-14.1l-6.2-2.5v-6.8
		v-16.4v-10.2h10.2h89.8l1.3-4c3.1-9.2,6.9-18.3,11.7-27.2h-1.8h-60.1h-10.2v-10.2v-94.9v-10.2h10.2h81.2h2.5l2.3,1.1
		c17,9.1,33,19,47.7,29.4c1,0.7,2.1,1.6,3.1,2.3l3.1-2.3c14.6-10.5,30.6-20.4,47.7-29.4l2.3-1.1h2.5h81.2h10.2v10.2v94.9v10.2h-10.2
		h-60.1h-1.8c4.8,8.9,8.8,18,11.7,27.2l0.1,0.4c0.1,0.3,0.3,0.6,0.3,1v0.1v0.1l0.7,2.4h2H690h10.2v10h-0.5V346.8z"/>
	<polygon fill="#E0E0E0" points="672.4,496.9 674.9,496.9 674.9,504.2 676.9,504.2 676.9,496.9 679.6,496.9 679.6,495.2 
		672.4,495.2 	"/>
	<path fill="#E0E0E0" d="M686.1,500.6c-0.1,0.4-0.3,0.8-0.4,1.3l0,0c0-0.4-0.1-0.8-0.3-1.3l-1.8-5.4h-3v9.1h1.8v-5
		c0-0.7,0-1.4-0.1-2.4l0,0c0.1,0.7,0.3,1.1,0.3,1.3l2.1,6.1h1.7l2.1-6.1c0.1-0.3,0.1-0.7,0.3-1.1l0,0c0,0.7-0.1,1.4-0.1,2v5.4h2
		v-9.1h-3L686.1,500.6z"/>
</g>
<g>
	<g>
		<path fill="#9E9E9E" d="M415,631.2c3.3,2,8,3.5,13.1,3.5c4.6,0,8.8-2.1,8.8-6.5c0-3.1-2.4-5.2-7.5-7.8
			c-5.9-3.2-11.5-7.5-11.5-14.7c0-11.2,9.8-18,21.9-18c6.7,0,10.7,1.5,13.1,2.8l-3.7,9.9c-1.8-1-5.8-2.6-10.4-2.5
			c-5.5,0-8.4,2.8-8.4,5.8c0,3.2,3.4,5.2,8.1,7.8c6.7,3.5,11,8.1,11,14.6c0,12.3-10.2,18.7-22.5,18.7c-7.7,0-13.2-2-15.9-3.9
			L415,631.2z"/>
		<path fill="#9E9E9E" d="M477,588.5l-4.1,21.6H493l4.1-21.6H509L498.5,644h-11.9l4.4-23.3h-20.1l-4.4,23.3h-11.8l10.5-55.5H477z"/>
		<path fill="#9E9E9E" d="M564.6,610.8c0,10.1-3.5,19.9-9.9,26.2c-5.2,5-12.2,8-20.5,8c-14.4,0-22.5-10.2-22.5-23.1
			c0-10,3.7-20,10.2-26.3c5.2-4.9,12.3-7.9,20.2-7.9C556.9,587.6,564.6,597.5,564.6,610.8z M531.3,601.7c-4.4,4.4-6.9,13-6.9,19.7
			c0,7.8,3.5,13.7,11.6,13.7c3.5,0,6.7-1.6,9.3-4c4.4-4.4,6.7-13.5,6.7-19.9c0-6.9-2.5-13.6-11.2-13.6
			C537.1,597.5,533.8,599.1,531.3,601.7z"/>
		<path fill="#9E9E9E" d="M577.7,589.6c3.5-0.9,9.1-1.5,14.5-1.5c4.9,0,10.7,0.8,14.7,3.7c3.7,2.6,6,6.4,6,11.8
			c0,7-3.2,12.3-7.6,15.6c-4.5,3.5-10.9,5.1-17.7,5.1c-2,0-3.6-0.2-4.9-0.3l-3.8,20h-11.6L577.7,589.6z M584.6,614.4
			c1.2,0.2,2.6,0.4,4.5,0.4c7.2,0,11.9-4.6,11.9-10.1c0-5.3-3.9-7.1-8.5-7.1c-2.2,0-3.8,0.2-4.8,0.4L584.6,614.4z"/>
	</g>
</g>
</svg>
