<?xml version="1.0" encoding="utf-8"?>
<!-- Generator: Adobe Illustrator 18.0.0, SVG Export Plug-In . SVG Version: 6.00 Build 0)  -->
<!DOCTYPE svg PUBLIC "-//W3C//DTD SVG 1.1//EN" "http://www.w3.org/Graphics/SVG/1.1/DTD/svg11.dtd">
<svg version="1.1" id="Layer_1" xmlns="http://www.w3.org/2000/svg" xmlns:xlink="http://www.w3.org/1999/xlink" x="0px" y="0px"
	 viewBox="0 0 1024 768" enable-background="new 0 0 1024 768" xml:space="preserve">
<g>
	<rect x="161.3" y="145.5" fill="#FFFFFF" stroke="#231F20" stroke-miterlimit="10" width="701.5" height="477"/>
	<g>
		<polygon fill="#E90D8B" points="350.2,145.5 313.6,622.5 712.9,622.5 679.3,145.5 		"/>
		<polygon points="753.8,622.5 794.1,145.5 698.6,145.5 732.1,622.5 		"/>
		<polygon points="229.9,145.5 273.8,622.5 294.4,622.5 330.9,145.5 		"/>
	</g>
	<g>
		<path d="M369.1,281.9L369.1,281.9l0.8,0.6v0.2l-0.6,6.4l0.3,3.3l-0.5,0.2c-0.9-0.3-1.4-1.1-1.4-2.6v-1.4
			C368,284.1,368.4,281.9,369.1,281.9z M369.7,276h0.3c0.6,0,1.1,0.5,1.7,1.4v0.8c0,0.6-0.3,1.1-1.1,1.6h-0.5
			c-0.9-0.2-1.6-0.6-1.6-1.4v-0.6C368.7,277.1,369.1,276.4,369.7,276z"/>
		<path d="M373,279.4h0.5c0.3,0.2,0.5,0.5,0.5,0.9v0.8l-0.6,7.3v0.2h0.2c0.9-4.2,1.9-6.2,2.6-6.2h0.2c1.2,0,1.9,2,1.9,5.9
			c0.8,4.4,1.7,6.5,2.8,6.5c0.3,0,0.9-0.3,1.7-1.1v0.2c-0.8,1.2-1.6,1.9-2.3,1.9H380c-1.9,0-3.1-3.6-3.7-10.6h-0.2
			c-1.4,5.3-2.3,8.3-2.6,9l-0.5,0.3h-0.5c-0.6-0.3-0.9-0.9-0.9-2C372,283.8,372.5,279.4,373,279.4z"/>
		<path d="M381.4,279.4h0.5c0.3,0.2,0.5,0.5,0.5,0.9v0.8l-0.6,7.3v0.2h0.2c0.9-4.2,1.9-6.2,2.6-6.2h0.2c1.2,0,1.9,2,1.9,5.9
			c0.8,4.4,1.7,6.5,2.8,6.5c0.3,0,0.9-0.3,1.7-1.1v0.2c-0.8,1.2-1.6,1.9-2.3,1.9h-0.3c-1.9,0-3.1-3.6-3.7-10.6h-0.2
			c-1.4,5.3-2.3,8.3-2.6,9l-0.5,0.3h-0.5c-0.6-0.3-0.9-0.9-0.9-2C380.4,283.8,380.9,279.4,381.4,279.4z"/>
		<path d="M394.3,282.4h0.8c0.9,0.2,1.6,0.8,1.6,1.6v0.5c0,1.9-1.7,3.4-5,5l-0.9,0.2h-1.1c0,0.8,0.5,1.1,1.4,1.1h0.9
			c1.6,0,4.4-0.6,8.7-1.7c-3.1,2.2-6.2,3.3-9,3.3c-2.3,0-3.4-0.8-3.4-2.2v-0.6c0-1.6,1.2-3.6,3.9-6.2
			C392.9,282.7,393.7,282.4,394.3,282.4z M390.6,288c1.7-0.5,3.3-1.6,4.5-3.3v-0.5l-0.3-0.3C393.2,283.9,391.8,285.2,390.6,288
			L390.6,288z"/>
		<path d="M406,281.6c1.2,0,1.9,0.5,1.9,1.2c0,0.9-0.8,0.9-2.2,0.2c-2.6,0.9-4.1,2.2-4.1,3.7l-0.2,4.2v0.2l0.3,0.5v1.2l-0.6,0.6
			c-0.9,0-1.4-1.1-1.4-3.1l0.3-3.3c-0.3,0-0.5-0.2-0.5-0.3v-0.3c0.5-1.2,0.9-2.8,1.2-4.8l0.2-0.2h0.3c0.3,0,0.5,0.8,0.5,2.2
			C403.2,282.2,404.6,281.6,406,281.6z"/>
		<path d="M422.7,269.7c1.1,0,1.9,4.7,2.3,14.2v0.2h0.2c0.6-1.2,1.6-2,2.6-2h0.9c2.5,0.9,3.7,2.5,3.7,5c-0.5,3.6-1.9,5.5-4.2,5.5
			h-1.1c-2.3,0-4.1-1.4-5-4.1v-0.9c0-0.9,0.5-1.6,1.2-2.2c0-2.5-0.3-7.8-1.1-15.6H422.7L422.7,269.7z M423,286.9l0.5,1.4h0.2v-0.5
			l-0.2-2C423.3,286,423.1,286.3,423,286.9z M425.6,290v0.6c0.8,0.3,1.6,0.5,2.2,0.5h0.2c1.9,0,2.8-1.2,3.1-3.9
			c-0.5-2.3-1.4-3.4-2.6-3.4h-0.2C426.4,283.6,425.6,285.8,425.6,290z"/>
		<path d="M440.5,283.1h0.5c0.2,0,0.5,0.3,0.6,0.9c-0.2,0.5-0.3,1.1-0.3,2v0.3c0,2,1.2,3,3.7,3h0.9c0.6,0,1.4-0.2,2.6-0.6h0.2
			c-1.7,1.2-3.4,2-5,2h-0.5c-1.4,0-2.5-0.8-3.1-2.5c-1.6,2.2-2.8,3.1-4.1,3.1h-0.8c-1.1-0.2-1.7-0.8-1.7-1.7v-0.8
			c0.6-2.6,1.9-4.1,4.1-4.1l0.2-0.2l1.9,0.5V285C439.5,284.1,439.8,283.5,440.5,283.1z M435,289.2L435,289.2l0.5,0.6h0.2
			c1.2,0,2.5-1.2,3.4-3.7h-0.2c-2,0-3.3,0.8-3.7,2.3L435,289.2z"/>
		<path d="M447.9,267.9c0.2,0,0.5,0.5,0.6,1.2c-1.4,9.5-2.2,15.9-2.2,19.5c0.3,3.4,1.1,5.1,2.3,5.1l0.2,0.2v0.2l-1.2,0.3
			c-1.4,0-2.3-1.6-2.8-4.7v-1.1c0-5.1,0.8-12,2.5-20.6l0.2-0.2L447.9,267.9L447.9,267.9z"/>
		<path d="M456,283.1h0.5c0.2,0,0.5,0.3,0.6,0.9c-0.2,0.5-0.3,1.1-0.3,2v0.3c0,2,1.2,3,3.7,3h0.9c0.6,0,1.4-0.2,2.6-0.6h0.2
			c-1.7,1.2-3.4,2-5,2h-0.5c-1.4,0-2.5-0.8-3.1-2.5c-1.6,2.2-2.8,3.1-4.1,3.1h-0.8c-1.1-0.2-1.7-0.8-1.7-1.7v-0.8
			c0.6-2.6,1.9-4.1,4.1-4.1l0.2-0.2l1.9,0.5V285C455.1,284.1,455.4,283.5,456,283.1z M450.6,289.2L450.6,289.2l0.5,0.6h0.2
			c1.2,0,2.5-1.2,3.4-3.7h-0.2c-2,0-3.3,0.8-3.7,2.3L450.6,289.2z"/>
		<path d="M461.5,279.4h0.5c0.3,0.2,0.5,0.5,0.5,0.9v0.8l-0.6,7.3v0.2h0.2c0.9-4.2,1.9-6.2,2.6-6.2h0.2c1.2,0,1.9,2,1.9,5.9
			c0.8,4.4,1.7,6.5,2.8,6.5c0.3,0,0.9-0.3,1.7-1.1v0.2c-0.8,1.2-1.6,1.9-2.3,1.9h-0.3c-1.9,0-3.1-3.6-3.7-10.6h-0.2
			c-1.4,5.3-2.3,8.3-2.6,9l-0.5,0.3H461c-0.6-0.3-0.9-0.9-0.9-2C460.6,283.8,461,279.4,461.5,279.4z"/>
		<path d="M473.5,282.7h0.5c1.2,0.2,2,0.8,2,1.7v0.2l-0.3,0.3h-0.3c0-0.5-0.3-0.6-1.1-0.6h-0.5c-1.7,0-2.8,1.6-3.6,4.8v0.2
			c0,0.9,0.8,1.6,2.6,1.6h0.2c1.6,0,3.1-0.3,5-1.1v0.3c-2.2,1.6-3.6,2.3-4.2,2.3h-1.4c-2,0-3.3-0.9-3.6-2.6v-0.8
			c0-1.7,0.9-3.4,2.6-5.3C472.3,283,473,282.7,473.5,282.7z"/>
		<path d="M483.9,282.4h0.8c0.9,0.2,1.6,0.8,1.6,1.6v0.5c0,1.9-1.7,3.4-5,5l-0.9,0.2h-1.1c0,0.8,0.5,1.1,1.4,1.1h0.9
			c1.6,0,4.4-0.6,8.7-1.7c-3.1,2.2-6.2,3.3-9,3.3c-2.3,0-3.4-0.8-3.4-2.2v-0.6c0-1.6,1.2-3.6,3.9-6.2
			C482.5,282.7,483.3,282.4,483.9,282.4z M480,288c1.7-0.5,3.3-1.6,4.5-3.3v-0.5l-0.3-0.3C482.7,283.9,481.3,285.2,480,288L480,288z
			"/>
		<path d="M512,286.1c0.5,0.2,0.8,0.5,0.8,0.8v0.3c-2.7,0.8-5.8,1.1-9.5,1.2l-0.2-0.5v-0.5c0-0.5,1.9-0.8,5.6-0.9
			C509.7,286.1,510.8,286,512,286.1z"/>
		<path d="M534.3,282.7c1.1,0,1.7,0.5,1.7,1.4l-0.6,0.5l-0.2-0.2h-0.2v0.2c0.9,1.1,1.4,1.9,1.4,2.5v1.1c-1.1,2.6-2.8,4.1-5.3,4.1
			h-0.9c-1.4-0.3-2.2-1.1-2.2-2.2v-0.5c0-1.9,1.6-4.1,4.7-6.4L534.3,282.7z M532.6,285l-1.4,1.6v1.2h-0.3V287
			c-0.3,0-0.8,0.9-1.4,2.6c0,0.6,0.3,0.9,1.1,0.9h0.6c2.5-0.8,3.6-1.9,3.6-3v-0.3C534.4,285.8,533.7,285,532.6,285z"/>
		<path d="M539.3,282.7h0.3l0.3,0.3v0.3c-0.9,3.1-1.6,5.3-1.6,6.2v1.6l0.3,0.3c1.7-1.6,3.4-3.7,5-6.4l0.6-0.2h0.2l0.6,0.8l-0.5,3.1
			c0,0.6,0.3,1.1,1.1,1.7h2l3.6-0.3v0.3l-4.5,1.6h-0.9c-1.6,0-2.5-0.9-2.7-3c-2,2.6-3.4,3.9-4.4,3.9H538c-0.8-0.5-1.2-1.4-1.2-2.6
			c0-1.9,0.6-4.1,1.7-6.9L539.3,282.7z"/>
		<path d="M549.6,271.1h0.5c0.5,0,0.8,1.2,0.8,3.9v1.1h0.2l4.2-0.9h1.7c1.2,0,2.3,0.8,3.3,2.3v0.3H560c-0.9-0.8-1.9-1.2-2.8-1.2
			c-4.5,0.5-6.7,1.1-6.7,2c-0.9,7.2-1.4,11.8-1.4,14v0.6h0.2v-0.5h0.3v1.1c0,0.8-0.3,1.1-0.9,1.1c-0.8-0.3-1.1-0.8-1.1-1.6V292
			c0-2.5,0.5-7,1.4-13.4h-0.2l-4.1,0.8h-0.9l-0.6-0.6c0-0.5,2-1.1,5.9-2v-3.1l-0.2-1.4C549.3,271.6,549.4,271.1,549.6,271.1z"/>
		<path d="M557.7,282.4h0.8c0.9,0.2,1.6,0.8,1.6,1.6v0.5c0,1.9-1.7,3.4-5,5l-0.9,0.2H553c0,0.8,0.5,1.1,1.4,1.1h0.9
			c1.6,0,4.4-0.6,8.7-1.7c-3.1,2.2-6.2,3.3-9,3.3c-2.3,0-3.4-0.8-3.4-2.2v-0.6c0-1.6,1.2-3.6,3.9-6.2
			C556.4,282.7,557,282.4,557.7,282.4z M553.9,288c1.7-0.5,3.3-1.6,4.5-3.3v-0.5l-0.3-0.3C556.6,283.9,555.2,285.2,553.9,288
			L553.9,288z"/>
		<path d="M569.4,281.6c1.2,0,1.9,0.5,1.9,1.2c0,0.9-0.8,0.9-2.2,0.2c-2.7,0.9-4.1,2.2-4.1,3.7l-0.2,4.2v0.2l0.3,0.5v1.2l-0.6,0.6
			c-0.9,0-1.4-1.1-1.4-3.1l0.3-3.3c-0.3,0-0.5-0.2-0.5-0.3v-0.3c0.5-1.2,0.9-2.8,1.2-4.8l0.2-0.2h0.3c0.3,0,0.5,0.8,0.5,2.2
			C566.6,282.2,568,281.6,569.4,281.6z"/>
		<path d="M586.2,269.7c1.1,0,1.9,4.7,2.3,14.2v0.2h0.2c0.6-1.2,1.6-2,2.7-2h0.9c2.5,0.9,3.7,2.5,3.7,5c-0.5,3.6-1.9,5.5-4.2,5.5
			h-1.1c-2.3,0-4.1-1.4-5-4.1v-0.9c0-0.9,0.5-1.6,1.2-2.2c0-2.5-0.3-7.8-1.1-15.6H586.2L586.2,269.7z M586.5,286.9l0.5,1.4h0.2v-0.5
			l-0.2-2C586.7,286,586.5,286.3,586.5,286.9z M589,290v0.6c0.8,0.3,1.6,0.5,2.2,0.5h0.2c1.9,0,2.8-1.2,3.1-3.9
			c-0.5-2.3-1.4-3.4-2.7-3.4h-0.2C589.9,283.6,589,285.8,589,290z"/>
		<path d="M602.4,282.4h0.8c0.9,0.2,1.6,0.8,1.6,1.6v0.5c0,1.9-1.7,3.4-5,5l-0.9,0.2h-1.1c0,0.8,0.5,1.1,1.4,1.1h0.9
			c1.6,0,4.4-0.6,8.7-1.7c-3.1,2.2-6.2,3.3-9,3.3c-2.3,0-3.4-0.8-3.4-2.2v-0.6c0-1.6,1.2-3.6,3.9-6.2
			C601,282.7,601.8,282.4,602.4,282.4z M598.5,288c1.7-0.5,3.3-1.6,4.5-3.3v-0.5l-0.3-0.3C601.2,283.9,599.8,285.2,598.5,288
			L598.5,288z"/>
		<path d="M614.7,283.1h0.5c0.2,0,0.5,0.3,0.6,0.9c-0.2,0.5-0.3,1.1-0.3,2v0.3c0,2,1.2,3,3.7,3h0.9c0.6,0,1.4-0.2,2.7-0.6h0.2
			c-1.7,1.2-3.4,2-5,2h-0.5c-1.4,0-2.5-0.8-3.1-2.5c-1.6,2.2-2.8,3.1-4.1,3.1h-0.8c-1.1-0.2-1.7-0.8-1.7-1.7v-0.8
			c0.6-2.6,1.9-4.1,4.1-4.1l0.2-0.2l1.9,0.5V285C613.8,284.1,614.1,283.5,614.7,283.1z M609.3,289.2L609.3,289.2l0.5,0.6h0.2
			c1.2,0,2.5-1.2,3.4-3.7h-0.2c-2,0-3.3,0.8-3.7,2.3L609.3,289.2z"/>
		<path d="M621.1,282.7h0.3l0.3,0.3v0.3c-0.9,3.1-1.6,5.3-1.6,6.2v1.6l0.3,0.3c1.7-1.6,3.4-3.7,5-6.4l0.6-0.2h0.2l0.6,0.8l-0.5,3.1
			c0,0.6,0.3,1.1,1.1,1.7h2l3.6-0.3v0.3l-4.5,1.6h-0.9c-1.6,0-2.5-0.9-2.7-3c-2,2.6-3.4,3.9-4.4,3.9h-0.8c-0.8-0.5-1.2-1.4-1.2-2.6
			c0-1.9,0.6-4.1,1.7-6.9L621.1,282.7z"/>
		<path d="M631.4,271.1h0.5c0.5,0,0.8,1.2,0.8,3.9v1.1h0.2l4.2-0.9h1.7c1.2,0,2.3,0.8,3.3,2.3v0.3h-0.2c-0.9-0.8-1.9-1.2-2.8-1.2
			c-4.5,0.5-6.7,1.1-6.7,2c-0.9,7.2-1.4,11.8-1.4,14v0.6h0.2v-0.5h0.3v1.1c0,0.8-0.3,1.1-0.9,1.1c-0.8-0.3-1.1-0.8-1.1-1.6V292
			c0-2.5,0.5-7,1.4-13.4h-0.2l-4.1,0.8h-0.9l-0.6-0.6c0-0.5,2-1.1,5.9-2v-3.1l-0.2-1.4C630.9,271.6,631.3,271.1,631.4,271.1z"/>
		<path d="M641.4,280.8c0.5,0,0.8,0.3,0.8,1.1h0.2c-1.1,3.9-1.7,6.9-1.7,9l-0.2,7.6v4.2c8-1.1,12.8-2.3,14.2-3.3l1.4-1.2v0.3
			c0,0.8-2,2-6.1,3.6c-5.1,1.4-8.3,2.2-9.5,2.2c0,3.7,0.5,8.1,1.4,13.4v0.5c-0.2,0.5-0.5,0.6-1.1,0.6l-8.7-6.7
			c-5-3.6-7.5-6.2-7.5-8.1v-0.3c0.2-0.9,0.6-1.6,1.6-1.6h0.2l6.7,0.6h5.9v-0.5l0.3-12.3v-0.2H639c-0.8,2.2-1.7,3.3-2.8,3.3h-0.2
			c-1.2,0-1.9-1.1-1.9-3.1v-0.6c0-4.2,0.5-6.2,1.4-6.2h0.2c0.2,0,0.3,0.3,0.5,0.8c-0.3,2-0.5,4.1-0.5,6.2c0,0.9,0.2,1.4,0.5,1.4
			c1.6-1.9,2.8-4.1,3.6-6.4C639.8,282.4,640.4,280.8,641.4,280.8z M626.1,303.9L626.1,303.9l-0.2,0.3c0.6,1.9,3.6,4.7,8.6,8.1
			l5.3,4.1v-0.2c-0.8-5.3-1.2-9.2-1.2-11.8l-4.1,0.2L626.1,303.9z M656,297h0.3v0.6H656V297z"/>
	</g>
	<g>
		<path fill="#FFFFFF" d="M621.9,236.7v-14c0-6.2-3.1-9.4-9.8-9.4c-5,0-8.6,2.2-10.9,6.7l1.9,1.4c1.9-3.7,5.1-5.8,9.2-5.8
			c4.7,0,7.3,2,7.3,5.6c0,0.2,0,1.7,0,2.6c-2,0.2-10,0.8-13.4,2.3c-3.7,1.6-5.8,4.4-5.8,8.4c0,5.1,3.7,8.7,9.4,8.7
			c3.6,0,6.7-1.7,9.8-4.8c0.2,3.3,1.7,4.8,4.2,4.8c0.5,0,0.9-0.2,1.6-0.3v-2h-0.5C622.2,241.1,621.9,239.8,621.9,236.7z
			 M619.4,232.5c0,5-4.1,8.6-9.8,8.6c-4.2,0-6.7-2.3-6.7-6.4c0-3,1.1-4.5,3.4-5.9c2.5-1.6,10.9-2.5,13.3-2.8v6.5H619.4z"/>
		<path fill="#FFFFFF" d="M572.6,236.7v-14c0-6.2-3.1-9.4-9.8-9.4c-5,0-8.6,2.2-10.9,6.7l1.9,1.4c1.9-3.7,5.1-5.8,9.2-5.8
			c4.7,0,7.3,2,7.3,5.6c0,0.2,0,1.7,0,2.6c-2,0.2-10,0.8-13.4,2.3c-3.7,1.6-5.8,4.4-5.8,8.4c0,5.1,3.7,8.7,9.4,8.7
			c3.6,0,6.7-1.7,9.8-4.8c0.2,3.3,1.7,4.8,4.2,4.8c0.5,0,0.9-0.2,1.6-0.3v-2h-0.5C573,241.1,572.6,239.8,572.6,236.7z M570.1,232.5
			c0,5-4.1,8.6-9.8,8.6c-4.2,0-6.7-2.3-6.7-6.4c0-3,1.1-4.5,3.4-5.9c2.5-1.6,10.9-2.5,13.3-2.8v6.5H570.1z"/>
		<path fill="#FFFFFF" d="M534.6,213.3c-3.3,0-8.4,0.9-12,2v37.4h2.5V237c2.2,4.2,5.3,6.2,9.4,6.2c7,0,11.4-5.5,11.4-15
			C546,218.8,541.6,213.3,534.6,213.3z M534.3,241.1c-5.6,0-9-6.4-9-14.8v-6.5v-2.5c3-0.8,6.7-1.4,9-1.4c5.6,0,9.2,4.5,9.2,12.6
			C543.3,236.5,539.7,241.1,534.3,241.1z"/>
		<path fill="#FFFFFF" d="M642.2,173.9c0,0-17.8,16.2-17.8,26c0,9.8,8,17.8,17.8,17.8c9.8,0,17.8-8,17.8-17.8
			C659.8,189.9,642.2,173.9,642.2,173.9z M642.2,209.3c-4.5,0-8.1-3.6-8.1-8.1s3.6-8.1,8.1-8.1s8.1,3.7,8.1,8.1
			C650.3,205.7,646.7,209.3,642.2,209.3z"/>
		<path fill="#FFFFFF" d="M413.6,213.3c-4.4,0-7.6,2.2-10,6.7v-5.9h-2.5v28.5h2.5v-15.7c0-6.9,4.1-11.2,9.7-11.2
			c5.3,0,7.2,3,7.2,9.5v17.5h2.6v-18.1C423.1,216.9,420.2,213.3,413.6,213.3z"/>
		<path fill="#FFFFFF" d="M514,236.7v-14c0-6.2-3.1-9.4-9.8-9.4c-5,0-8.6,2.2-10.9,6.7l1.9,1.4c1.9-3.7,5.1-5.8,9.2-5.8
			c4.7,0,7.3,2,7.3,5.6c0,0.2,0,1.7,0,2.6c-2,0.2-10,0.8-13.4,2.3c-3.7,1.6-5.8,4.4-5.8,8.4c0,5.1,3.7,8.7,9.4,8.7
			c3.6,0,6.7-1.7,9.8-4.8c0.2,3.3,1.7,4.8,4.2,4.8c0.5,0,0.9-0.2,1.6-0.3v-2h-0.8C514.2,241.1,514,239.8,514,236.7z M511.5,232.5
			c0,5-4.1,8.6-9.8,8.6c-4.2,0-6.7-2.3-6.7-6.4c0-3,1.1-4.5,3.4-5.9c2.5-1.6,10.9-2.5,13.3-2.8v6.5H511.5z"/>
		<path fill="#FFFFFF" d="M588.7,239.7l-9.7-25.6h-2.5l11.1,29c-2.5,7.6-5.5,11.8-11.1,15l1.7,1.7c1.9-1.1,7.2-3.6,11.2-14.5
			l10-31.2H597L588.7,239.7z"/>
		<polygon fill="#FFFFFF" points="446.4,213.3 433.1,226.6 432.2,227.5 432.2,201.5 429.5,201.5 429.5,242.6 432.2,242.6 
			432.2,229.2 446.2,243.4 450,243.4 435,228.4 450.1,213.3 		"/>
		<path fill="#FFFFFF" d="M477.4,213.3c-3.3,0-8.4,0.9-12,2v37.4h2.5V237c2.2,4.2,5.3,6.2,9.4,6.2c7,0,11.4-5.5,11.4-15
			C488.9,218.8,484.4,213.3,477.4,213.3z M477.1,241.1c-5.6,0-9-6.4-9-14.8v-6.5v-2.5c3-0.8,6.7-1.4,9-1.4c5.6,0,9.2,4.5,9.2,12.6
			C486.3,236.5,482.7,241.1,477.1,241.1z"/>
		<path fill="#FFFFFF" d="M376.2,213.3c-3.3,0-8.4,0.9-12,2v37.4h2.5V237c2.2,4.2,5.3,6.2,9.4,6.2c7,0,11.4-5.5,11.4-15
			C387.6,218.8,383.2,213.3,376.2,213.3z M375.8,241.1c-5.6,0-9-6.4-9-14.8v-6.5v-2.5c3-0.8,6.7-1.4,9-1.4c5.6,0,9.2,4.5,9.2,12.6
			C385,236.5,381.4,241.1,375.8,241.1z"/>
		<rect x="392" y="214.1" fill="#FFFFFF" width="2.6" height="28.5"/>
		<path fill="#FFFFFF" d="M393.4,206.9c-1.1,0-2,0.9-2,2s0.9,2,2,2c1.1,0,2-0.9,2-2S394.5,206.9,393.4,206.9z"/>
	</g>
	<g>
		<path d="M440.8,467.9c-1.1-0.8-2.6-2.8-4.7-3.7c-7-3.3-10.4-9.2-12.6-16.1c-3-9.2-5.8-18.5-8.7-27.7c-0.3-1.1-1.1-2.2-1.7-3.3
			c-0.6,0.2-1.2,0.2-1.9,0.3c0.5,6.2,0.3,12.5,1.4,18.5c1.4,7.6,0.9,9.4-5.9,12.8c-3,1.4-5.9,3-9.8,5c0-2.8-0.2-5,0-7
			c0.9-11.2,2.8-22.3,2.5-33.5c-0.3-10.4-2.2-20.9-4.4-31.2c-2.6-12.8,1.6-27,11.2-30.7c8.1-3.1,17.1-3.1,25.3,1.2
			c5.5,3,6.7,9,4.4,14.3c-0.5,1.1,0.2,2.8,0.3,4.2c0.5,2.5,1.4,4.8,1.4,7.3c0,5.9-1.6,7.2-7.5,7.3c-0.9,0-2.2-0.3-3,0
			c-1.7,0.6-3.3,1.6-4.8,2.5c1.2,1.9,2,4.8,3.6,5.3c4.7,1.2,9.5,3,14.7,0.6c2.3-1.1,5.8-0.2,8.6,0.2c2.5,0.2,5,1.4,7.3,1.1
			c9.4-0.6,9.7-1.2,11.1-10.6c0.8-5.9,2-11.8,3-17.8c0.2-1.4,0.2-3,0-4.5c-1.9-8.7-1.9-8.7,6.1-12.3c2.3,4.7,3.7,5,8.4,2.5
			c1.4-0.8,3.3-0.9,5.3-0.8c-1.7,4.2-5,6.2-9,7.5c-9.4,2.6-9.4,2.6-9.4,12.5c0,6.5,0,13.1,0,19.6c0,3.4,1.4,4.7,4.7,3
			c4.1-2,8-4.7,12.5-0.8c0.3,0.3,2.8-0.9,3.3-2c3.6-7.3,12.5-6.7,16.4-0.8c3,4.7,6.9,3.9,10.6-1.4c6.2-8.9,12.5-17.9,18.7-26.8
			c4.4-6.4,5.8-7.3,12.3-3.9c10.9,5.8,20,3.9,29.3-3.6c8.9-6.9,18.9-12.2,28.1-18.7c5.1-3.7,9.7-8.6,14.5-12.8
			c-0.6,2.2-1.6,4.8-2.3,7.6c-0.9,3.4-1.9,6.7-2.3,10.1c-0.3,2.6-1.4,4.4-4.1,3.7c-10.9-2.5-17.5,3.1-22.9,11.4
			c-1.7,2.6-3.7,5.1-5.8,7.6c-2.7,3-1.7,5.1,1.7,5.9c14,3,27.6,10,43,7.8c-1.7,0.9-3.6,1.7-5.3,2.7c-3,1.6-6.2,2.7-8.7,4.8
			c-3.3,2.8-5.5,2.3-7.2-0.9c-4.2-7.8-10.3-9.7-19-8.1c-6.7,1.1-14,0-20.9-0.8c-6.2-0.8-10.4,1.1-12.6,7.2c-0.9,2.8-1.9,5.9-1.7,8.9
			c0,1.4,2.3,3.9,3.7,3.9c3.1,0,6.1-1.2,9.2-1.9c1.4-0.3,3-1.4,4.4-1.1c5.6,1.1,11.2,2.6,16.4,3.7c-3.4,8.6-7.2,17.3-10.3,26.3
			c-2.5,7.5-4.1,15.1-6.2,22.8c-2.5,8.7-6.7,15.9-16.1,19.2c-1.9,0.6-3,3.1-5,5.1c-5.8-5.1-13.6-4.1-21-4.1c-24,0-48-0.2-72.2,0.2
			C451.8,465.7,446.8,467.1,440.8,467.9z M539.4,384.5c0.5,0.3,1.1,0.6,1.6,0.9c0.9-0.6,2.2-1.2,3-2c2.8-3.4,5.5-6.9,8-10.3
			c1.4-1.9,3.4-4.4,0.3-5.8c-1.9-0.8-6.1,0-6.7,1.2C543,373.7,541.5,379.2,539.4,384.5z"/>
		<path d="M496.4,331.2c0,6.5-3.9,10.4-10.8,10.4c-6.5,0-11.1-4.2-11.1-10.3c0-6.4,5-11.4,11.1-11.2
			C491.6,320.1,496.4,325.2,496.4,331.2z"/>
		<path d="M454.6,358.1c-3.4,0-6.7-3.1-6.4-6.4c0.5-3.6,2.6-5.6,6.5-5.5c3.9,0.2,5.9,2.2,6.1,5.9C461,355.3,457.8,358.1,454.6,358.1
			z"/>
	</g>
	<g>
		<path fill="#FFFFFF" d="M445.4,477.2c3.7,0,7.2,1.7,10,5.1l-0.2,0.2h-0.2c-2.3-2.2-5.5-3.1-9.5-3.1c-5.9,0-10.9,3-15.1,8.9
			c-0.8,1.2-1.1,2.5-1.1,3.7c0,3.3,3.7,6.4,11.4,9.8c12.6,6.2,18.9,12,18.9,17.5v1.2c0,4.4-3.7,8.7-11.1,13.4c-5,2-8.3,3-10.1,3
			h-2.5c-6.5-0.3-10.6-2.3-12.2-5.9l-0.2-1.7c0-5.3,5.1-9,15.4-11.4l4.5-0.2c3.9,0,6.5,0.6,8.1,1.7h-0.2l-2.5-0.6h-1.6
			c-7,0-13.4,2-19.3,6.1c-1.2,1.2-2,2.6-2.3,4.5c0,2.7,3.3,4.5,9.8,5.5h1.6c4.7,0,9.5-1.7,14.3-5.3c3.7-3.4,5.8-5.9,5.8-7.5
			l-0.2-0.2v-0.2c0.5,0,0.6-0.3,0.6-1.1v-0.6c0-5.5-7-11.4-21.2-17.6c-4.8-2.3-7.8-5.3-8.9-8.4l-0.2-1.2v-1.7c0-2.8,2.3-6.1,6.9-9.5
			C437.2,478.6,440.9,477.2,445.4,477.2z M451.8,519.2h0.5l0.5,0.5h-0.5L451.8,519.2z M454.3,520.2h0.5l0.5,0.5h-0.5L454.3,520.2z"
			/>
		<path fill="#FFFFFF" d="M466.2,507.5h2.2c3.9,0.5,5.9,2,5.9,4.8v1.2c0,3.1-2.3,5.9-7.2,8.3l-0.6,0.6v7c0.2,4.1,0.5,6.1,1.1,6.1
			l0.2-1.1l-0.8-1.7v-0.2h0.2c1.4,1.2,2.2,2.5,2.2,3.7c-0.3,0.9-0.8,1.6-1.7,1.6h-0.8c-1.6-0.6-2.3-3.3-2.3-8.1l-0.2-3.6l0.2-3.6
			h-1.2c-2.3-0.3-3.4-1.2-3.4-2.8v-0.2c0-0.8,0.3-1.2,0.8-1.6h0.2l-0.2,1.1c0.3,0.9,1.6,1.6,3.6,1.6l0.2-0.2V516l-0.2-5.8h-0.5
			l-3.1,1.1l-0.8-0.6v-0.6C461.3,508.4,463.5,507.5,466.2,507.5z M466,509.6c0.5,2.3,0.6,5.8,0.6,10.1c3.7-2,5.5-4.4,5.5-6.9
			c0-2.3-1.6-3.4-4.8-3.4H466V509.6z"/>
		<path fill="#FFFFFF" d="M485.7,509.6h0.6c0.3,0,0.6,0.5,0.8,1.2c-0.3,0.6-0.5,1.6-0.5,2.8v0.5c0,2.8,1.7,4.2,5.3,4.2h1.2
			c0.8,0,2-0.3,3.6-0.8h0.2c-2.5,1.9-4.8,2.8-7,2.8h-0.6c-2,0-3.4-1.1-4.5-3.4c-2,3-4.1,4.5-5.8,4.5h-1.1c-1.6-0.3-2.3-1.1-2.3-2.3
			v-1.2c0.8-3.7,2.7-5.8,5.8-5.8l0.2-0.2l2.5,0.6v-0.2C484.3,510.9,484.7,510.1,485.7,509.6z M478,518.2v0.2l0.6,0.6h0.2
			c1.9,0,3.4-1.7,4.8-5.3h-0.2c-2.8,0-4.7,1.1-5.3,3.1L478,518.2z"/>
		<path fill="#FFFFFF" d="M517.5,482c9.4,0,18.2,1.6,26.7,4.7c4.5,2.2,6.9,4.7,6.9,7.6v0.5c0,4.7-7,9.5-21.2,14.8l0.5,19.6l-0.6,0.5
			H529c-0.8,0-1.2-1.9-1.6-5.8c-2.2-7.2-3.4-11.4-4.1-12.5c-4.4,1.4-8.4,2.2-12.3,2.2h-1.6c-6.2,0-10-0.8-11.2-2.5h0.2
			c1.2,0.9,4.2,1.6,8.9,1.6c6.7-0.9,11.7-2,15.1-3.1c-1.7-4.5-6.4-10.1-13.7-17c-5-4.1-7.5-6.4-7.5-7.2v-0.6c0-1.4,5.1-2.3,15.4-2.5
			h0.8V482z M503.9,485.2c7.5,6.2,13.1,11.7,16.7,16.5l4.2,7l2.5-0.6c-0.6-7.2-1.6-12.5-2.8-15.9l-1.6-3l0.2-0.2h0.2
			c1.9,2,3.7,6.4,5.3,12.9l0.6,5.5c12.9-5,19.3-9.5,19.3-13.4c0-3.3-5.5-6.1-16.5-8.4c-4.5-0.8-9.4-1.2-14.2-1.2
			C511.7,484.2,506.9,484.5,503.9,485.2z M525.7,510.9l1.7,5.8h0.2v-5.8l-0.5-0.5L525.7,510.9z"/>
		<path fill="#FFFFFF" d="M544.7,509.6h0.6c0.3,0,0.6,0.5,0.8,1.2c-0.3,0.6-0.5,1.6-0.5,2.8v0.5c0,2.8,1.7,4.2,5.3,4.2h1.2
			c0.8,0,2-0.3,3.6-0.8h0.2c-2.5,1.9-4.8,2.8-7,2.8h-0.6c-2,0-3.4-1.1-4.5-3.4c-2,3-4.1,4.5-5.8,4.5h-1.1c-1.6-0.3-2.3-1.1-2.3-2.3
			v-1.2c0.8-3.7,2.7-5.8,5.8-5.8l0.2-0.2l2.5,0.6v-0.2C543.5,510.9,543.8,510.1,544.7,509.6z M537.1,518.2v0.2l0.6,0.6h0.2
			c1.9,0,3.4-1.7,4.8-5.3h-0.2c-2.8,0-4.7,1.1-5.3,3.1L537.1,518.2z"/>
		<path fill="#FFFFFF" d="M559.9,507.5c1.9,0,2.7,0.6,2.7,1.9c0,1.2-1.1,1.2-3.1,0.3c-3.7,1.2-5.6,3-5.6,5.1l-0.2,5.8v0.2l0.5,0.6
			v1.7l-0.8,0.8c-1.2,0-1.9-1.6-1.9-4.5l0.5-4.5c-0.5,0-0.6-0.2-0.6-0.5v-0.5c0.8-1.7,1.2-4.1,1.7-6.9l0.2-0.2h0.5
			c0.5,0,0.6,0.9,0.6,3C556,508.4,557.8,507.5,559.9,507.5z"/>
		<path fill="#FFFFFF" d="M565.6,493h0.6c0.8,0,1.1,1.9,1.1,5.5v1.6h0.2l5.9-1.2h2.3c1.7,0,3.3,1.1,4.7,3.1v0.5h-0.2
			c-1.4-1.1-2.7-1.7-4.1-1.7c-6.2,0.6-9.4,1.6-9.4,2.8c-1.2,10-1.9,16.7-1.9,19.6v0.8h0.2v-0.6h0.5v1.6c0,0.9-0.5,1.6-1.2,1.6
			c-0.9-0.5-1.6-1.1-1.6-2.2v-1.9c0-3.6,0.6-9.8,1.9-18.9h-0.2l-5.8,1.1h-1.2l-0.8-0.8c0-0.6,2.8-1.6,8.3-2.8v-4.5l-0.2-1.9
			C565,493.4,565.3,493,565.6,493z"/>
		<path fill="#FFFFFF" d="M579.5,506.5c0.8,0,1.1,0.5,1.1,1.6h0.2c-1.6,5.5-2.5,9.7-2.5,12.8l-0.2,10.6v5.9
			c11.2-1.6,17.8-3.1,20-4.7l1.9-1.7v0.5c0,1.1-2.8,2.8-8.4,5.1c-7.2,2-11.5,3-13.4,3c0,5.1,0.6,11.4,1.9,18.9v0.6
			c-0.2,0.6-0.8,0.8-1.6,0.8l-12.3-9.4c-6.9-5-10.4-8.7-10.4-11.2v-0.5c0.2-1.4,0.9-2.2,2.2-2.2h0.2l9.4,0.8h8.3v-0.6l0.5-17.1v-0.2
			h-0.2c-1.1,3.1-2.5,4.7-4.1,4.7h-0.2c-1.7,0-2.5-1.6-2.5-4.5v-0.8c0-5.8,0.8-8.7,2-8.7h0.2c0.3,0,0.5,0.3,0.6,1.1
			c-0.5,2.8-0.8,5.8-0.8,8.7c0.2,1.2,0.3,1.9,0.6,1.9c2.3-2.7,3.9-5.6,5-8.9C577.5,508.5,578.3,506.5,579.5,506.5z M558.1,538.6
			l-0.2,0.2v0.2c0.9,2.7,5,6.4,12.2,11.4l7.5,5.8v-0.2c-1.1-7.5-1.7-12.9-1.7-16.5l-5.8,0.2L558.1,538.6z M599.9,529.1h0.5v0.8h-0.5
			V529.1z"/>
	</g>
	<g>
		<path d="M449.2,583.4v-6.7l-5-9h2.3l2.2,4.4c0.6,1.2,1.1,2.2,1.6,3.3l0,0c0.5-1.1,0.9-2,1.6-3.3l2.3-4.4h2.3l-5.3,9v6.7H449.2z"/>
		<path d="M466.6,577.6c0,4.2-3,6.1-5.6,6.1c-3.1,0-5.5-2.2-5.5-5.8c0-3.7,2.5-6.1,5.6-6.1C464.5,571.8,466.6,574.2,466.6,577.6z
			 M457.8,577.8c0,2.5,1.4,4.4,3.4,4.4s3.4-1.9,3.4-4.4c0-1.9-0.9-4.4-3.4-4.4S457.8,575.6,457.8,577.8z"/>
		<path d="M478.8,580.3c0,1.2,0,2.2,0.2,3.1h-1.9l-0.2-1.9l0,0c-0.5,0.9-1.7,2.2-3.7,2.2c-1.7,0-3.9-0.9-3.9-5v-6.5h2v6.2
			c0,2.2,0.6,3.6,2.5,3.6c1.4,0,2.3-0.9,2.6-1.9c0.2-0.3,0.2-0.6,0.2-1.1v-7h2v8.3H478.8z"/>
		<path d="M484.3,567.3c-0.5,2-1.6,4.5-2.2,5.6l-1.2,0.2c0.5-1.4,1.1-3.7,1.4-5.5L484.3,567.3z"/>
		<path d="M485.7,575.6c0-1.4,0-2.5-0.2-3.6h1.9v2.2h0.2c0.5-1.6,1.7-2.5,3.1-2.5c0.3,0,0.5,0,0.6,0v1.9c-0.2,0-0.5,0-0.8,0
			c-1.4,0-2.5,1.1-2.8,2.6c0,0.3-0.2,0.6-0.2,0.9v6.1h-2v-7.6H485.7z"/>
		<path d="M494.2,578.1c0,2.8,1.9,3.9,3.9,3.9c1.4,0,2.3-0.3,3.1-0.6l0.3,1.4c-0.8,0.3-2,0.8-3.7,0.8c-3.4,0-5.6-2.3-5.6-5.8
			c0-3.4,2-6.1,5.3-6.1c3.7,0,4.7,3.3,4.7,5.3c0,0.5,0,0.8,0,0.9h-8V578.1z M500.2,576.7c0-1.2-0.5-3.3-2.8-3.3c-2,0-3,1.9-3.1,3.3
			H500.2z"/>
		<path d="M511.8,567.6v15.7h-2v-15.7H511.8z"/>
		<path d="M515.6,575.1c0-1.2,0-2.2-0.2-3.1h1.9l0.2,1.9l0,0c0.6-1.1,1.9-2.2,3.7-2.2c1.6,0,4.1,0.9,4.1,4.8v6.7h-2v-6.5
			c0-1.9-0.6-3.3-2.7-3.3c-1.4,0-2.3,0.9-2.8,2.2c-0.2,0.3-0.2,0.6-0.2,0.9v6.9h-2L515.6,575.1L515.6,575.1z"/>
		<path d="M529,572l2.2,6.4c0.3,1.1,0.6,2,0.9,3l0,0c0.3-0.9,0.6-1.9,0.9-3l2.2-6.4h2.2l-4.5,11.4h-2l-4.4-11.4H529z"/>
		<path d="M541.8,568.9c0,0.8-0.5,1.2-1.2,1.2s-1.2-0.6-1.2-1.2c0-0.8,0.5-1.2,1.2-1.2C541.3,567.6,541.8,568.1,541.8,568.9z
			 M539.4,583.4V572h2v11.4H539.4z"/>
		<path d="M547.4,568.9v3.3h3v1.6h-3v6.1c0,1.4,0.5,2.2,1.6,2.2c0.5,0,0.9,0,1.2-0.2l0.2,1.6c-0.5,0.2-1.1,0.3-1.9,0.3
			c-0.9,0-1.7-0.3-2.2-0.9c-0.6-0.6-0.8-1.6-0.8-3v-6.2h-1.7V572h1.7v-2.7L547.4,568.9z"/>
		<path d="M553.8,578.1c0,2.8,1.9,3.9,3.9,3.9c1.4,0,2.3-0.3,3.1-0.6l0.3,1.4c-0.8,0.3-2,0.8-3.7,0.8c-3.4,0-5.6-2.3-5.6-5.8
			c0-3.4,2-6.1,5.3-6.1c3.7,0,4.7,3.3,4.7,5.3c0,0.5,0,0.8,0,0.9h-8V578.1z M559.7,576.7c0-1.2-0.5-3.3-2.8-3.3c-2,0-3,1.9-3.1,3.3
			H559.7z"/>
		<path d="M574,566.7v13.7c0,0.9,0,2.2,0.2,3h-1.9l-0.2-2l0,0c-0.6,1.2-2,2.2-3.9,2.2c-2.8,0-4.8-2.3-4.8-5.8c0-3.7,2.3-6.1,5.1-6.1
			c1.7,0,3,0.8,3.4,1.7l0,0v-6.7H574z M572,576.7c0-0.3,0-0.6-0.2-0.9c-0.3-1.2-1.4-2.3-3-2.3c-2.2,0-3.4,1.9-3.4,4.4
			c0,2.3,1.1,4.2,3.3,4.2c1.4,0,2.7-0.9,3-2.5c0-0.3,0.2-0.6,0.2-0.9v-1.9H572z"/>
		<path d="M577.2,582.1c0-0.8,0.6-1.4,1.4-1.4c0.8,0,1.4,0.6,1.4,1.4s-0.5,1.4-1.4,1.4C577.6,583.7,577.2,583.1,577.2,582.1z
			 M577.6,578.9l-0.3-11.2h2.2l-0.3,11.2H577.6z"/>
	</g>
</g>
</svg>
