<?xml version="1.0" encoding="utf-8"?>
<!-- Generator: Adobe Illustrator 18.0.0, SVG Export Plug-In . SVG Version: 6.00 Build 0)  -->
<!DOCTYPE svg PUBLIC "-//W3C//DTD SVG 1.1//EN" "http://www.w3.org/Graphics/SVG/1.1/DTD/svg11.dtd">
<svg version="1.1" id="Layer_1" xmlns="http://www.w3.org/2000/svg" xmlns:xlink="http://www.w3.org/1999/xlink" x="0px" y="0px"
	 viewBox="0 0 1024 768" enable-background="new 0 0 1024 768" xml:space="preserve">
<g>
	<path fill="#080B44" d="M511.6,651.9c-5.1-6.2-9.3-12.8-14.8-18.3c-10.5-10.9-22.5-20.2-36.1-28c-15.5-8.5-31.1-16.7-46.6-25.6
		c-19-10.9-35.4-25.6-49-42.7c-12-15.2-21.8-31.5-26.8-50.1c-3.1-10.9-4.7-22.2-6.6-33c-1.9-14-1.6-28-0.8-42
		c0.8-11.3,2.7-22.5,3.9-33.8c0.8-8.5,1.9-17.1,2.7-25.3c0.4-5.8,0.8-12,1.2-18.3c0.8-13.2-2.7-25.6-7.4-38.1
		c-3.5-9.3-8.9-17.1-15.5-24.1c-0.8-0.8-1.2-1.9-0.8-2.7c2.7-6.2,5.4-12.8,8.5-19c7.8-15.2,15.2-30.3,24.1-45.1
		c5.8-9.3,13.2-17.9,20.6-26.4c10.5-12,22.9-22.2,36.5-30.7c2.7-1.6,5.4-3.1,7.8-4.7c2.3-1.6,5.1-2.7,6.2-5.8
		c0.4-0.8,1.6-1.6,1.9-1.6c5.1,1.2,8.9-1.9,12.8-3.9c15.2-6.6,30.7-11.3,47-14c15.2-2.7,29.9-3.1,45.1-2.3c19,1.2,37.3,5.1,54.8,12
		c3.1,1.2,6.6,2.7,9.7,3.9c2.7,1.2,4.7,0,7-1.6c1.9-1.6,3.9-2.7,6.2-3.9c3.1-1.2,5.8,0.4,6.2,3.9c0,1.6,0.4,3.5,0,5.1
		c-0.8,4.7,1.6,7,5.1,9.3c5.8,3.9,11.7,7.8,17.1,12c13.6,10.1,25.3,22.2,35.4,35.4c9.7,12.4,17.5,26,24.1,40.4
		c4.7,10.1,10.5,19.4,15.9,29.1c2.7,4.7,3.1,7.8-0.8,12.4c-15.5,17.5-20.6,38.5-20.2,61c0.4,13.2,1.9,26.8,3.1,40
		c1.6,14.8,3.9,29.5,4.7,44.3c0.4,10.5-0.8,21-1.6,31.5c-0.8,11.7-3.1,23.3-6.2,34.6c-3.5,12-8.9,23.3-15.5,33.8
		c-6.6,10.9-14.4,20.6-23.3,29.9c-6.2,6.2-13.2,12-20.2,17.5c-5.1,3.9-10.1,7.4-15.5,10.9c-7,4.3-14.8,7.8-21.8,11.7
		c-8.5,4.7-17.1,9.3-25.6,13.6c-15.5,7.8-28.8,19-40.8,31.5c-4.3,4.3-7.4,10.1-11.3,15.2C512.4,650.8,512,651.6,511.6,651.9z
		 M384.9,233.8c-0.8,0.8-1.2,0.8-1.2,0.8c-14-0.4-27.6-0.4-41.6-0.8c-2.3,0-3.9,0.4-5.1,2.7c-5.1,10.1-10.5,19.8-15.5,29.9
		c-0.4,1.2,0,3.5,0.8,4.7c10.5,10.5,15.5,23.7,19,37.7c4.7,17.5,3.1,35,1.6,52.5c-1.6,15.5-3.9,31.5-5.4,47
		c-1.9,18.7-1.2,37.7,1.6,56.4c3.9,28,16.3,52.9,34.2,74.6c15.9,19.4,36.1,33.8,58.3,45.1c15.9,8.2,31.5,16.7,46.2,26.8
		c12,8.2,21.8,17.9,29.5,29.9c1.9,3.1,2.7,3.1,5.1,0.4c3.9-5.4,7.8-10.9,12.4-15.5c5.4-5.4,11.3-10.1,17.5-14.4
		c12.8-8.2,26.4-15.5,39.6-23.3c8.9-5.1,18.3-9.7,27.2-15.2c17.5-10.9,32.3-24.9,44.7-41.2c12-15.5,20.6-33,26-52.1
		c5.1-17.1,5.8-34.6,6.2-52.1c0.4-16.3-1.9-32.6-3.9-48.6c-1.9-17.5-3.5-35-2.7-52.9c1.2-20.6,7.4-39.3,21-55.2
		c1.6-1.9,1.6-3.5,0.4-5.4c-5.1-8.9-10.1-18.3-15.2-27.6c-1.2-1.9-2.7-3.1-5.1-3.1c-9.3,0-18.3,0-27.6-0.4c-4.7,0-9.3,0-14.4,0
		c0.4-0.4,0.4-0.8,0.8-1.2c5.8-3.9,11.7-8.2,17.9-12c4.3-3.1,8.2-5.8,12.4-8.9c2.7-1.9,1.6-3.9,0-5.8c-1.6-1.9-2.7-1.9-4.7-0.4
		c-10.1,7.4-20.2,14.4-29.9,22.5c-6.2,5.1-12.4,6.6-19.8,5.4c0-0.4,0-0.4,0.4-0.8c10.1-8.9,20.6-17.9,30.7-26.4
		c3.9-3.5,7.8-6.6,11.7-10.1c1.6-1.2,3.1-2.7,1.6-5.1c-2.3-3.1-3.5-3.1-6.6-0.8c-15.5,13.6-30.7,27.2-46.2,41.2
		c-3.1,2.7-6.6,2.3-10.5,1.6c1.2-1.6,2.3-2.3,3.5-3.5c9.7-10.9,19.4-21.4,29.5-32.3c5.4-5.8,10.5-11.7,15.9-17.5
		c2.3-2.3,0.4-3.9-1.2-5.4c-1.6-1.6-3.5-1.2-4.7,0.4c-8.9,10.1-17.9,20.6-27.2,30.7c-6.6,7.4-13.2,15.2-20.2,22.5
		c-0.8,0.8-2.7,1.9-3.5,1.6c-4.3-1.2-4.7-2.7-1.9-6.2c0-0.4,0.4-0.4,0.4-0.8c14-18.7,28.4-37.7,42.7-56.4c1.6-1.9,1.2-3.5-0.8-5.1
		s-3.5-1.9-5.4,0.4c-1.2,1.9-2.7,3.5-3.9,5.4c-10.9,14.8-21.4,29.1-32.3,43.9c-2.3,3.5-5.1,6.6-7.4,10.1c-1.9,2.7-3.9,1.2-5.4,0.4
		c-2.3-1.2,0-2.3,0.4-3.5c1.9-3.5,3.9-7,6.2-10.5c10.5-17.5,21-35.4,31.5-52.9c1.6-2.7,1.2-3.9-1.6-5.4c-2.3-1.6-3.9-0.8-5.1,1.6
		c-2.3,4.3-4.7,8.2-7,12.4c-9.7,17.1-19.4,33.8-29.5,50.9c-2.3,3.9-2.7,3.9-6.6,1.9c0.4-1.2,0.8-2.3,1.2-3.5c3.1-7,6.6-14,9.3-21
		c2.7-7,6.2-12.8,12-17.5c1.9-1.6,3.9-3.1,5.8-5.1c0.8-0.8,0.8-1.9,1.2-2.7c-0.8-0.4-1.9-0.8-2.7-0.4c-1.6,0-3.1,0.8-5.1,1.2
		c1.9-3.9,3.1-7,4.7-9.7c0.8-1.6,2.3-3.1,3.9-4.3c3.5-3.1,7.4-5.8,10.9-8.5c0.8-0.4,0.4-1.9,0.8-3.1c-0.8,0-1.9,0.4-2.7,0.4
		c-1.2,0.4-1.9,1.2-3.5,1.6c2.3-3.5,4.7-6.6,6.6-9.7c0.4-0.8,0-2.3,0-3.5c-1.2,0.4-2.7,0.4-3.5,1.2c-7.8,8.5-18.3,12.4-29.1,14.8
		c-0.4,0-0.4-0.4-0.8-0.4c1.2-3.1,1.9-6.2,3.1-9.3c1.2-2.7,0-4.3-2.3-5.1c-2.7-1.2-4.3-0.4-5.4,2.3c-1.2,3.5-1.9,7-3.1,10.5
		c-0.4,1.2-1.2,2.7-1.9,2.7c-3.1,0.4-6.2,0-9.7,0c1.2-5.8,2.3-11.3,3.5-16.3c0.8-2.7,0-3.9-2.7-4.7c-3.1-0.8-4.3,0-5.1,2.7
		c-0.8,3.9-1.6,7.8-2.3,11.7c-1.6,7-1.6,7-8.9,7c-1.9,0-2.7-0.4-2.3-2.3c0.8-5.8,1.6-11.7,2.3-17.5c0.4-2.3,0-4.3-2.7-4.7
		c-3.9-0.4-5.1,0-5.4,3.5c-0.8,5.8-1.2,12-1.6,18.3c0,1.6-0.8,3.9-1.9,4.7c-2.7,1.6-5.8,2.3-8.9,3.9c0-0.8,0-1.6,0-1.9
		c0-8.6,0-16.7,0-25.3c0-2.7-1.2-3.9-3.9-3.9c-3.1,0-4.7,1.2-4.7,3.9c0,10.1,0,20.6,0.4,30.7c0,2.7-0.8,4.7-2.7,6.2
		c-0.4,0.4-1.6,0.4-1.9,0.4c-2.3-2.7-5.8-4.3-5.8-8.9c-0.4-8.9-1.9-17.9-2.7-26.8c-0.4-3.5-1.2-4.3-4.3-3.9s-3.9,1.6-3.5,4.7
		c0.8,5.4,1.6,10.5,1.9,15.9c0.4,3.1,0.8,6.2,1.2,9.7c-3.5-0.8-6.2-1.6-8.9-2.3c-0.8-0.4-1.2-1.2-1.6-1.9
		c-1.6-6.2-2.7-12.8-3.9-19.4c-0.8-3.5-1.6-3.9-4.3-3.5c-3.5,0.8-4.3,1.9-3.5,5.4c1.2,5.4,2.7,10.5,3.9,15.9c0,0.8,0,1.6,0.4,2.7
		c-3.5-0.4-6.2-0.4-9.3-1.2c-0.8,0-1.9-1.6-2.3-2.3c-1.6-3.9-2.7-8.2-4.3-12.4c-0.8-2.3-1.9-3.9-4.7-3.1c-3.1,0.8-4.3,2.3-3.1,5.4
		c0.8,2.7,1.9,5.4,3.1,8.2c0.4,1.2,0.8,1.9,1.2,3.5c-3.1-0.8-5.8-1.2-8.5-1.6c-3.1-0.4-5.1-1.6-6.2-4.7c-1.6-4.7-3.5-5.1-7.4-2.3
		c-1.6,1.2-2.7,0.8-4.3,0c-1.2-0.4-2.3-0.4-3.5-0.4c0,1.2,0,2.7,0.8,3.5c0.8,1.9,2.3,3.1,2.7,5.1c0.8,4.3,3.1,7,6.6,9.3
		c2.7,1.9,5.1,3.5,6.2,7c7,16.3,14,32.3,21.4,48.6c1.2,2.7,0.4,3.9-1.9,3.9c-1.2,0-2.7-1.2-3.1-1.9c-6.6-10.9-13.2-22.2-19.8-33
		c-6.2-10.5-12.4-20.6-18.7-30.7c-1.6-2.3-3.1-2.7-5.1-1.2c-1.9,1.6-3.5,2.7-1.9,5.4c12,19,23.7,38.1,35.4,56.7
		c1.6,2.7,3.5,5.4,5.1,8.5c-1.2,0.4-1.9,0.8-2.3,1.2c-2.3,1.9-3.9,0.8-5.4-1.6c-7-9.3-14-19-21.4-28.4c-7.4-9.7-14.8-19.4-22.2-29.1
		c-1.6-2.3-3.5-2.3-5.4-0.4c-2.3,1.9-2.7,3.1-0.4,5.8c10.1,13.2,20.6,26.4,30.7,39.6c5.1,6.2,9.7,12.4,14.8,18.7
		c-4.3,3.1-4.7,3.5-7,0.8c-6.6-7-13.6-14-20.2-21c-9.3-10.1-19-19.8-28.4-29.9c-1.6-1.6-3.1-1.9-5.1-0.4c-2.3,1.9-2.7,4.3-0.8,6.2
		c3.9,4.3,7.8,8.5,11.7,12.4c12.4,12.8,25.3,25.3,37.7,38.1c0.4,0.4,0.4,1.2,0.4,1.6c-5.1,0-8.9-0.4-12.8-3.9
		c-14.8-13.2-29.9-26-45.1-39.3c-2.3-2.3-3.9-1.9-5.8,0.8c-1.6,2.3-0.4,3.9,1.2,5.4c3.9,3.1,7.8,6.6,11.7,9.7
		c10.1,8.5,20.2,16.7,30.3,25.3c0.4,0.4,0.8,1.2,1.6,1.9c-3.5,0-6.2-0.4-8.9-0.4c-1.2,0-2.3-0.4-3.5-1.2c-3.1-1.9-6.6-4.3-9.7-6.6
		c-9.3-6.6-19-13.2-28.4-19.8c-1.9-1.6-3.9-1.2-5.1,0.8c-1.9,2.7-1.6,4.3,1.6,6.6c9.7,6.2,19.4,12.8,29.1,19
		C383.8,233.4,384.1,233.4,384.9,233.8z"/>
	<path fill="#FFFFFF" d="M384.9,233.8c-0.8-0.4-1.2-0.4-1.9-0.8c-9.7-6.2-19.4-12.8-29.1-19c-3.5-2.3-3.5-3.5-1.6-6.6
		c1.6-2.3,3.1-2.3,5.1-0.8c9.3,6.6,19,13.2,28.4,19.8c3.1,2.3,6.2,4.7,9.7,6.6c1.2,0.8,2.3,0.8,3.5,1.2c2.7,0.4,5.8,0.4,8.9,0.4
		c-0.4-0.8-0.8-1.6-1.6-1.9c-10.1-8.5-20.2-16.7-30.3-25.3c-3.9-3.1-7.8-6.6-11.7-9.7c-1.9-1.6-3.1-3.1-1.2-5.4
		c1.9-2.7,3.1-3.1,5.8-0.8c15.2,12.8,30.3,26,45.1,39.3c3.9,3.5,8.2,3.9,12.8,3.9c0-0.8-0.4-1.2-0.4-1.6
		c-12.4-12.8-25.3-25.3-37.7-38.1c-3.9-4.3-7.8-8.2-11.7-12.4c-1.6-1.9-1.6-3.9,0.8-6.2c1.9-1.6,3.5-1.2,5.1,0.4
		c9.3,10.1,19,19.8,28.4,29.9c6.6,7,13.6,14,20.2,21c2.7,2.7,3.1,2.7,7-0.8c-5.1-6.2-9.7-12.4-14.8-18.7
		c-10.1-13.2-20.6-26.4-30.7-39.6c-2.3-2.7-1.9-3.9,0.4-5.8c1.9-1.9,3.9-1.9,5.4,0.4c7.4,9.7,14.8,19.4,22.2,29.1
		c7,9.3,14.4,18.7,21.4,28.4c1.6,2.3,2.7,3.5,5.4,1.6c0.4-0.4,1.2-0.4,2.3-1.2c-1.9-2.7-3.5-5.8-5.1-8.6
		c-11.7-19-23.7-38.1-35.4-56.7c-1.6-2.7,0-4.3,1.9-5.4c1.9-1.6,3.9-1.2,5.1,1.2c6.2,10.5,12.4,20.6,18.7,30.7
		c6.6,10.9,13.2,22.2,19.8,33c0.8,1.2,1.9,1.9,3.1,1.9c2.3,0,3.1-1.2,1.9-3.9c-7.4-15.9-14.4-32.3-21.4-48.6c-1.2-3.1-3.9-5.1-6.2-7
		c-3.5-2.3-5.8-5.1-6.6-9.3c-0.4-1.9-1.9-3.1-2.7-5.1c-0.4-1.2-0.4-2.3-0.8-3.5c1.2,0,2.7,0,3.5,0.4c1.6,0.8,2.7,1.2,4.3,0
		c4.3-2.7,5.8-2.3,7.4,2.3c1.2,3.1,3.1,4.3,6.2,4.7c2.7,0.4,5.1,0.8,8.5,1.6c-0.4-1.6-0.8-2.3-1.2-3.5c-0.8-2.7-1.9-5.4-3.1-8.2
		c-0.8-3.1,0-4.7,3.1-5.4c2.7-0.8,3.9,0.4,4.7,3.1c1.2,4.3,2.7,8.2,4.3,12.4c0.4,1.2,1.2,2.3,2.3,2.3c2.7,0.4,5.8,0.8,9.3,1.2
		c0-1.2,0-1.9-0.4-2.7c-1.2-5.4-2.7-10.5-3.9-15.9c-0.8-3.5,0-4.7,3.5-5.4c3.1-0.8,3.9,0,4.3,3.5c1.2,6.6,2.7,12.8,3.9,19.4
		c0,0.8,0.8,1.9,1.6,1.9c2.7,0.8,5.8,1.6,8.9,2.3c-0.4-3.5-0.8-6.6-1.2-9.7c-0.8-5.4-1.6-10.5-1.9-15.9c-0.4-3.5,0.4-4.3,3.5-4.7
		c3.1-0.4,3.9,0.4,4.3,3.9c1.2,8.9,2.3,17.9,2.7,26.8c0.4,4.7,3.9,6.2,5.8,8.9c0.4,0.4,1.6,0,1.9-0.4c1.9-1.6,2.7-3.5,2.7-6.2
		c-0.4-10.1-0.4-20.6-0.4-30.7c0-2.7,1.6-3.9,4.7-3.9c2.7,0,3.9,1.2,3.9,3.9c0,8.5,0,16.7,0,25.3c0,0.8,0,1.2,0,1.9
		c3.1-1.2,6.2-1.9,8.9-3.9c1.2-0.8,1.6-3.1,1.9-4.7c0.8-5.8,1.2-12,1.6-18.3c0.4-3.1,1.6-3.9,5.4-3.5c2.7,0.4,3.1,2.3,2.7,4.7
		c-0.8,5.8-1.6,11.7-2.3,17.5c-0.4,1.9,0.4,2.3,2.3,2.3c7.4,0,7.4,0,8.9-7c0.8-3.9,1.6-7.8,2.3-11.7c0.8-2.7,1.9-3.5,5.1-2.7
		c2.7,0.8,3.5,1.9,2.7,4.7c-1.6,5.4-2.3,10.9-3.5,16.3c3.5,0,6.6,0,9.7,0c0.8,0,1.9-1.6,1.9-2.7c1.2-3.5,1.9-7,3.1-10.5
		c0.8-2.7,2.3-3.5,5.4-2.3c2.3,0.8,3.1,2.3,2.3,5.1c-1.2,3.1-2.3,6.2-3.1,9.3c0.4,0.4,0.8,0.4,0.8,0.4c10.9-2.3,21.4-6.2,29.1-14.8
		c0.8-0.8,2.3-0.8,3.5-1.2c0,1.2,0.4,2.7,0,3.5c-1.9,3.1-4.3,6.2-6.6,9.7c1.2-0.8,2.3-1.2,3.5-1.6c0.8-0.4,1.9-0.4,2.7-0.4
		c-0.4,1.2,0,2.3-0.8,3.1c-3.5,3.1-7.4,5.8-10.9,8.5c-1.6,1.2-3.1,2.7-3.9,4.3c-1.6,2.7-3.1,6.2-4.7,9.7c2.3-0.4,3.5-1.2,5.1-1.2
		c0.8,0,1.9,0.4,2.7,0.4c-0.4,1.2-0.4,2.3-1.2,2.7c-1.9,1.9-3.9,3.5-5.8,5.1c-5.8,4.7-9.3,10.5-12,17.5c-2.7,7-6.2,14-9.3,21
		c-0.4,1.2-0.8,2.3-1.2,3.5c3.9,2.3,4.3,1.9,6.6-1.9c9.7-17.1,19.8-33.8,29.5-50.9c2.3-3.9,4.7-8.2,7-12.4c1.6-2.7,2.7-3.1,5.1-1.6
		c2.7,1.6,3.1,2.7,1.6,5.4c-10.5,17.5-21,35.4-31.5,52.9c-1.9,3.5-4.3,7-6.2,10.5c-0.4,1.2-2.7,2.3-0.4,3.5c1.6,0.8,3.5,2.7,5.4-0.4
		c2.3-3.5,5.1-6.6,7.4-10.1c10.9-14.8,21.4-29.1,32.3-43.9c1.2-1.9,2.7-3.5,3.9-5.4c1.6-2.3,3.5-1.9,5.4-0.4
		c1.9,1.6,2.3,3.1,0.8,5.1c-14.4,18.7-28.4,37.7-42.7,56.4c0,0.4-0.4,0.4-0.4,0.8c-2.7,3.5-2.3,5.1,1.9,6.2c0.8,0.4,2.7-0.8,3.5-1.6
		c7-7.4,13.6-14.8,20.2-22.5c8.9-10.1,17.9-20.2,27.2-30.7c1.6-1.6,3.1-1.9,4.7-0.4c1.6,1.6,3.5,3.1,1.2,5.4
		c-5.4,5.8-10.5,11.7-15.9,17.5c-9.7,10.9-19.4,21.8-29.5,32.3c-1.2,1.2-2.3,1.9-3.5,3.5c3.9,0.4,7.4,1.2,10.5-1.6
		c15.2-13.6,30.7-27.6,46.2-41.2c2.7-2.3,4.3-2.3,6.6,0.8c1.9,2.3,0,3.9-1.6,5.1c-3.9,3.5-7.8,6.6-11.7,10.1
		c-10.1,8.9-20.6,17.9-30.7,26.4c0,0,0,0.4-0.4,0.8c7.4,1.2,14-0.8,19.8-5.4c9.7-7.8,20.2-14.8,29.9-22.5c1.9-1.2,3.5-1.6,4.7,0.4
		c1.6,1.9,2.7,3.9,0,5.8c-4.3,3.1-8.2,5.8-12.4,8.9c-5.8,4.3-11.7,8.2-17.9,12c-0.4,0.4-0.4,0.4-0.8,1.2c5.1,0,9.7,0,14.4,0
		c9.3,0,18.3,0.4,27.6,0.4c2.3,0,3.9,0.8,5.1,3.1c5.1,9.3,10.1,18.3,15.2,27.6c1.2,1.9,1.2,3.5-0.4,5.4
		c-13.6,15.9-19.8,34.6-21,55.2c-0.8,17.9,0.8,35.4,2.7,52.9c1.9,16.3,4.3,32.3,3.9,48.6c-0.4,17.5-1.2,35-6.2,52.1
		c-5.4,19-14,36.1-26,52.1c-12.4,16.3-27.2,30.3-44.7,41.2c-8.9,5.4-18.3,10.1-27.2,15.2c-13.2,7.8-26.8,15.2-39.6,23.3
		c-6.2,3.9-12,8.9-17.5,14.4c-4.7,4.7-8.5,10.1-12.4,15.5c-2.3,2.7-3.1,2.7-5.1-0.4c-7.8-12-17.5-22.2-29.5-29.9
		c-14.8-10.1-30.3-18.7-46.2-26.8c-22.5-11.3-42.4-26-58.3-45.1c-17.9-21.8-29.9-46.6-34.2-74.6c-2.7-18.7-3.1-37.3-1.6-56.4
		c1.6-15.5,3.9-31.5,5.4-47c1.6-17.5,3.1-35-1.6-52.5c-3.9-14-8.9-27.2-19-37.7c-0.8-0.8-1.2-3.5-0.8-4.7
		c5.1-10.1,10.1-19.8,15.5-29.9c1.2-2.3,2.7-2.7,5.1-2.7c14,0.4,27.6,0.4,41.6,0.8C383.8,234.6,384.1,234.6,384.9,233.8z M559,226.4
		c-0.8,0-1.9-0.4-3.1-0.8c-19.4-7.4-39.6-9.7-60.2-7c-22.5,2.7-42.7,10.5-60.6,24.9c-1.2,0.8-1.9,2.7-1.9,3.9
		c0,17.1,0.4,34.2,0.4,51.3c0,43.1-0.4,86.3-0.4,129.4c0,29.1,0,58.7-0.4,87.8c0,17.9-0.4,35.8-0.4,54c0,1.2,0.8,2.3,1.9,3.1
		c11.3,5.8,22.5,11.7,33.4,17.5c13.6,7.8,26.8,16.3,36.9,28.4c2.3,2.7,3.9,5.4,6.2,8.2c0.8-1.2,1.2-1.9,1.9-2.7
		c4.3-4.7,8.2-9.7,12.8-14c17.1-14.8,36.9-24.9,57.1-34.6c7-3.5,6.6-1.6,6.2-9.3c0-0.8,0-1.9,0-2.7c0.4-14.8,0.4-29.9,0.8-44.7
		c0.4-29.5,0.8-58.7,1.2-88.2c0-19.4,0-38.9,0-58.7c0-11.7,0.4-23.7,0-35.4c0-22.5-0.4-45.1-0.8-67.6c0-7,0-14.4,0-21.4
		c0-1.2-0.4-2.7-1.2-3.5c-7.4-6.2-15.5-10.9-23.3-14.8c-1.9,1.9-3.5,3.5-5.4,4.3c-0.4,0.4-2.7-1.2-2.7-1.9
		C557.5,230.3,558.3,228.3,559,226.4z M599.4,566.8c1.2-0.4,1.6-0.8,2.3-1.2c12.8-7.8,24.5-17.1,35-28c12-13.2,21.8-27.6,28-44.3
		c6.6-17.5,9.7-35.4,11.7-53.6c1.9-20.6-1.2-40.4-3.9-60.6c-2.7-20.2-4.3-40.8-1.9-61.4c1.9-17.5,8.5-33.4,18.7-47.4
		c0.4-0.8,0.8-2.3,0.4-3.1c-3.1-6.2-6.6-12-10.1-18.3c-1.2-1.9-2.3-2.3-4.7-2.3c-10.1,0-20.2,0-30.3,0c-3.1,0-6.2,0-8.2,0
		c-2.7,5.4-3.9,10.5-4.3,15.9c1.6-0.4,3.5-1.9,4.3,0.8c0.4,1.6-2.3,4.7-5.1,5.1c-2.3,0.4-3.9-0.8-3.9-2.7c-0.4-4.7,0-9.3,2.3-12.4
		c0-2.7,0.4-4.7,0.4-6.6c-9.3,0-18.3,0-27.6,0c-1.9,0-2.7,0.8-2.7,2.7c0,27.6,0.4,55.2,0.4,82.8c0,42.4-0.4,84.7-0.8,127.1
		c-0.4,35.4-0.4,70.3-0.8,105.7C599.4,564.9,599.4,565.7,599.4,566.8z M419.1,261c2.7,0.4,3.9,0,3.9-2.7c0-3.1,0-6.2,0-9.3
		c0.4-3.1-0.4-3.9-3.5-3.9c-24.1,0-47.8,0-71.9,0c-1.2,0-2.7,1.2-3.5,2.3c-3.5,5.8-7,12-10.1,17.9c-0.4,0.8,0,2.3,0.8,3.1
		c10.9,15.2,17.9,32.3,20.2,50.5c2.3,18.7,0.4,37.3-2.3,56c-1.2,10.1-3.1,19.8-4.3,29.9c-2.3,19.4-1.2,38.9,2.3,57.9
		c4.3,23.7,13.2,45.5,28.4,64.9c12,15.2,26,27.2,43.1,38.1c0.8-100.7,1.2-200.5,0.8-300.8c-1.9,2.3-3.9,2.3-6.6,1.6
		c-0.8-0.4-2.3,0-3.1,0.4c-3.5,0.8-6.6-1.2-6.6-4.7c0-1.9,0-3.5,0.4-5.4c-3.5-0.8-4.7,1.2-4.7,3.9c0,0.8,0,1.6-0.4,1.9
		c-0.8,3.1-2.3,4.7-4.3,3.9c-2.7-1.2-1.9-3.5-1.2-5.4c0.4-0.8,0.8-1.9,1.2-2.7c0.4-0.4,0.4-1.2,0.4-2.3c-0.8,0.4-1.2,0.4-1.6,0.4
		c-1.2,0-1.9,0.4-3.1,0.4c0-1.2,0-2.7,0.4-3.9c2.3-3.5,11.3-3.5,14.8,0.4c2.3-3.5,5.8-2.3,8.9-1.9c3.5,0.4,4.3,1.2,3.1,4.7
		C420.3,257.9,419.9,259.4,419.1,261z M575.7,175.1c-10.1,4.3-19.8,2.3-29.1,2.3c-6.2,0-12,0.4-18.3,0.8c-1.2,0-2.3,0.4-3.5,0.4
		c-0.8,0-1.6-0.8-2.7-1.2c0.4-0.8,0.8-1.9,1.6-2.3c0.8-0.8,1.9-0.8,3.1-1.2c8.2-0.8,16.3-1.6,24.5-2.3c0.8,0,1.6,0,3.1-0.4
		c-2.3-0.8-3.9-1.6-5.4-1.9c0-0.4,0-0.8,0-1.2c7.8-1.6,15.9-1.6,23.7-4.3c-0.8-0.4-1.9-0.4-2.7-0.4c-6.2,0-12.4,0.4-18.7,0.4
		c-1.2,0-2.7-0.8-3.9-1.6c1.2-0.8,2.3-1.6,3.9-1.9c0.8-0.4,1.6-0.4,2.3-0.4c5.4-0.8,10.5-1.6,15.9-2.7c2.7-0.4,5.1-1.6,7.8-2.3
		c-0.4-0.8-0.8-0.8-1.2-0.8c-10.5,2.3-21,2.3-31.9,1.9c-9.7-0.4-19,0-27.2,5.4c-3.9,2.7-7.4,5.8-10.9,8.9c-3.1,2.3-5.8,5.1-10.1,5.8
		c0-1.2,0-1.9-0.4-2.7c-3.1-0.4-5.8-0.8-8.5-0.8c-3.5-0.4-7.4-1.2-10.9-0.8c-4.7,0.4-7.4,4.3-6.2,8.9c0.4,1.6,0.4,3.1,0.4,4.3
		c1.2,0,2.7,0,3.9,0.8c3.9,2.7,8.2,1.9,12,0.4c2.7-1.2,5.4-1.6,8.2-0.4c3.9,1.6,7.4,2.7,11.3,3.9c5.1,1.9,10.1,2.3,15.5,0.8
		c5.4-1.9,10.9-3.9,16.3-6.2c9.3-3.5,19-5.1,29.1-3.9C570.7,180.9,573,179.8,575.7,175.1z M447.5,163c-0.4,0.4-0.4,0.8-0.8,0.8
		c0,0.4,0.4,1.2,0.4,1.6c2.3,5.1,4.7,10.1,6.6,15.2c4.3,10.1,8.5,20.6,12.8,30.7c0.4,0.8,1.6,1.6,2.3,1.6c1.6,0,2.7-0.8,4.7-1.2
		c-1.9-5.8-3.9-11.3-5.8-16.7c-0.8-2.3-1.6-3.9-4.3-3.5c-2.3,0.4-3.5-1.6-1.9-3.1c3.5-3.1,2.7-6.2,0.8-9.3c-0.4-0.8-0.4-1.6-0.8-2.7
		c-1.2-3.9-2.3-8.5-7.4-9.7c-0.8,0-1.2-0.8-1.9-1.2C451,164.6,449,163.8,447.5,163z M568.7,186c-2.3-0.4-3.9-0.8-5.4-1.2
		c-2.3-0.8-3.5,0.4-4.3,2.7c-1.2,4.3-2.3,8.2-3.9,12.4c-1.2,4.3-2.7,8.5-4.3,12.8c5.1,2.3,5.4,2.3,7.4-2.7c1.9-4.3,3.5-8.5,5.4-12.8
		C565.2,193.7,566.8,189.9,568.7,186z M459.1,162.7c0,0.4,0,0.8,0,1.2c1.2,0,2.3,0.4,3.5,0.4c3.9,0,8.2-0.4,12-0.4
		c7.8-0.4,15.2-0.4,22.2,3.9c1.2,0.8,3.1,0.4,4.7,0.8c0-0.4,0-0.8,0-1.2c-10.9-9.3-24.5-8.5-37.7-8.5c1.9,0.8,3.9,1.6,5.4,2.3
		c0,0.4,0,0.8,0,1.6C466.1,162.3,462.6,162.3,459.1,162.7z M552.4,184c-1.9,0.4-3.5,1.2-5.1,1.2c-2.3,0.4-3.5,1.6-3.9,3.9
		c-1.2,5.8-2.3,11.7-3.5,17.1c-0.4,1.6-1.2,3.1,1.6,3.9c2.3,0.8,3.5-0.4,3.9-2.3c0.4-1.9,1.2-3.9,1.6-5.4
		C548.9,196.5,550.5,190.6,552.4,184z M489.9,190.6c-0.4,0.4-1.2,1.6-1.2,2.3c0.8,4.7,1.9,8.9,2.7,13.6c0.4,2.3,2.3,1.6,3.5,1.6
		c1.6,0,2.3-0.8,1.9-2.3c-0.4-3.5-1.2-7.4-1.6-10.9C495.7,191.4,493.7,190.2,489.9,190.6z M536.5,190.6c-4.3,2.7-8.9,4.3-8.2,10.1
		c0.4,1.6-0.4,3.1-0.8,4.7c0,0.8,0,1.6,0.4,1.9c1.6,1.6,4.7,0.4,5.1-1.6c0.4-1.6,0.8-3.1,1.2-4.7
		C534.9,197.6,535.7,194.5,536.5,190.6z M475.1,191.8c1.9,5.8,3.5,11.3,5.4,16.7c0.4,0.8,1.9,0.8,3.1,0.8c0.4,0,1.2-1.6,1.2-1.9
		c-0.8-4.3-1.9-8.2-3.1-12c-0.4-0.8-1.6-1.9-2.3-2.3C478.6,192.2,477,192.2,475.1,191.8z M503.1,194.5c0.4,4.3,0.8,7.4,1.2,10.5
		c0,0.8,1.2,1.6,1.9,1.6s2.3-0.4,2.3-0.8c0.4-2.7,0.8-5.4,0-8.2C507.7,196.5,505,195.7,503.1,194.5z M516.7,202.3c0,0.8,0,1.2,0,1.9
		c0,1.6-0.4,2.7,1.9,3.1c1.9,0,3.1-0.8,3.1-2.7c0-0.8,0-1.9,0-2.7c0.4-3.5,0-3.5-3.1-3.1C515.1,198.8,517.1,201.1,516.7,202.3z
		 M576.5,166.9c-3.5,1.2-6.2,2.3-8.9,3.1C571.9,171.6,575.3,170.4,576.5,166.9z M415.2,256.7c-0.4,0-1.2-0.4-1.6-0.4
		c-0.8,1.2-1.2,2.7-1.9,3.9c0,0.4,0.4,1.2,0.8,1.6c0,0,0.8,0,1.2-0.4C414.1,259.8,414.5,258.3,415.2,256.7z"/>
	<path fill="#080B44" d="M559,226.4c-0.8,1.9-1.6,3.9-1.6,5.4c0,0.8,2.3,2.3,2.7,1.9c1.9-0.8,3.1-2.3,5.4-4.3
		c7.8,3.5,15.9,8.5,23.3,14.8c0.8,0.8,1.2,2.3,1.2,3.5c0,7-0.4,14.4,0,21.4c0.4,22.5,0.8,45.1,0.8,67.6c0,11.7,0,23.7,0,35.4
		c0,19.4,0,38.9,0,58.7c-0.4,29.5-0.8,58.7-1.2,88.2c-0.4,14.8-0.4,29.9-0.8,44.7c0,0.8,0,1.9,0,2.7c0.4,7.8,1.2,5.8-6.2,9.3
		c-20.2,9.7-40,19.8-57.1,34.6c-4.7,4.3-8.5,9.3-12.8,14c-0.8,0.8-1.2,1.6-1.9,2.7c-2.3-3.1-3.9-5.8-6.2-8.2
		c-10.1-12-23.3-20.6-36.9-28.4c-10.9-6.2-22.2-11.7-33.4-17.5c-0.8-0.4-1.9-1.9-1.9-3.1c0-17.9,0-35.8,0.4-54
		c0-29.1,0-58.7,0.4-87.8c0-43.1,0.4-86.3,0.4-129.4c0-17.1-0.4-34.2-0.4-51.3c0-1.6,0.8-3.1,1.9-3.9c17.9-14,38.5-22.2,60.6-24.9
		c20.6-2.3,40.8-0.4,60.2,7C557.1,226,558.6,226,559,226.4z M584.7,547c2.7,0.4,3.5-1.2,2.3-3.5c-3.1-6.6-6.6-13.2-9.3-19.8
		c-5.4-11.7-11.3-22.9-13.6-35.8c-0.8-3.1-2.7-2.7-4.7-1.9c-14.4,3.5-28,9.3-40.4,16.7c-3.1,1.6-5.4,1.9-8.5,0
		c-12.8-7.4-26.8-12-41.6-14.8c-7-1.2-7.8-1.2-9.3,5.4c0,0.4,0,0.8-0.4,0.8c-5.1,16.3-12.4,32.3-19.4,47.8c-0.4,0.8-0.8,1.9-0.4,2.7
		c0,0.4,1.6,0.8,2.3,0.4c8.9-1.9,17.5,0,25.6,3.5c11.3,4.7,22.2,10.1,33,15.2c1.6,0.8,3.5,2.3,4.3,3.9c2.3,3.9,5.8,4.3,9.7,3.9
		c3.5-0.4,7-0.8,8.9-5.1c0.4-1.2,1.6-2.3,2.7-2.7C543.9,554.4,563.3,547,584.7,547z M498.4,457.2L498.4,457.2c0,0.8,0,1.9,0,2.7
		c-0.4,3.1,0.8,4.3,3.9,4.3c2.3,0,4.7,0,7,0c2.3,0,3.5-0.8,3.5-3.1c0-2.3,0.4-4.7,0-6.6c-0.4-2.3,0.4-3.5,2.7-4.3
		c8.5-3.1,13.6-9.7,17.1-17.5c4.7-10.9,5.8-22.2,3.5-33.8c-2.3-10.5-6.2-20.6-16.7-25.6c-5.1-2.3-6.6-5.1-5.8-10.1
		c0.4-2.3-1.2-3.5-3.1-3.5c-2.3,0-4.3,0-6.6,0c-4.3,0-5.1,0.8-5.1,5.1c0,1.2,0.4,2.7,0,3.9c-0.4,1.2-1.2,2.3-1.9,2.7
		c-9.7,3.9-15.9,11.7-19,21.4c-4.7,13.6-3.9,27.2,1.6,40.8c3.1,7.4,7.4,13.6,14.8,16.7c3.5,1.6,5.1,3.1,4.3,6.6
		C498.4,456.9,498.4,457.2,498.4,457.2z M580.8,410.2c0.4-0.4,0.4-0.8,0.8-0.8c7-5.4,9.3-14,7-22.5c-2.3-8.2-10.5-13.2-18.3-13.6
		c-7.8-0.4-15.5,0-22.9,0c-2.7,0-4.3,1.2-4.3,4.3c0,22.9-0.4,46.2-0.4,69.2c0,3.9,0.8,4.7,4.7,4.7c6.6,0,12.8,0.4,19.4-0.4
		c3.9-0.4,7.8-1.2,11.7-2.7C592.4,442.5,593.2,417.6,580.8,410.2z M457.6,434.3c0.4-1.6,0.8-2.7,1.2-3.9c6.6-17.9,13.6-36.1,20.2-54
		c0.8-1.9,0-3.1-1.9-3.5c-1.9,0-3.5-0.4-5.4-0.4c-10.5,0-21.4,0-31.9,0c-2.7,0-3.9,1.6-3.9,4.3s0.4,5.8,0,8.5c0,2.7,1.2,3.9,3.9,3.9
		c3.5,0,7,0,10.5,0.4c1.9,0,4.3,0,6.6,0c-0.8,1.9-1.6,3.5-1.9,4.7c-6.2,17.5-12.4,35-18.7,52.5c-1.2,2.7,0,4.3,3.1,4.3
		c11.7,0,22.9,0,34.6,0c2.3,0,3.5-1.2,3.5-3.5c0-2.7,0-5.1,0-7.8c0-4.7-0.4-5.4-5.1-5.4C467.3,434.3,462.6,434.3,457.6,434.3z
		 M498.4,313.8c-2.3,0-4.3,0-6.6,0c-1.2,0-1.9,0.8-3.1,1.6c0.8,1.2,1.2,2.3,1.9,3.1c3.1,2.3,6.6,4.7,9.7,7c0.8,0.8,1.2,2.3,1.2,3.1
		c-0.8,3.5-2.3,7.4-3.5,10.9c-0.4,1.2,0,1.9,0,3.1c1.2-0.4,2.7,0,3.5-0.8c2.7-1.9,5.4-3.9,8.2-5.8c1.9-1.6,3.1-1.6,5.1,0
		c3.1,2.3,6.2,4.3,9.3,6.6c0.8,0.4,1.9,0.8,2.7,0c0.4-0.4,0.8-1.9,0.4-2.7c-1.2-3.9-2.7-7.8-3.9-11.7c-0.4-0.8,0.4-2.7,1.2-3.1
		c3.1-2.3,6.2-4.3,8.9-7c0.8-0.8,1.2-1.9,1.6-3.1c-1.2-0.4-1.9-1.2-3.1-1.2c-3.9,0-7.8,0-11.3-0.4c-1.2,0-2.3-1.2-2.7-1.9
		c-1.6-3.9-2.7-7.8-3.9-11.7c-0.4-0.8-1.2-1.6-1.6-2.3c-0.8,0.8-1.6,1.6-1.9,2.3c-0.8,1.9-1.2,4.3-1.9,6.6
		C506.2,313.8,506.2,313.8,498.4,313.8z M458,269.1c-2.3,0-4.7,0-6.6,0c-1.2,0-1.9,1.2-3.1,1.6c0.8,0.8,1.2,1.9,1.9,2.7
		c3.5,2.3,7,5.1,10.5,7c1.6,0.8,1.6,1.6,1.2,3.1c-1.2,3.5-2.3,7-3.1,10.5c-0.4,1.2,0,2.3,0.4,3.5c1.2-0.4,2.3,0,3.5-0.8
		c2.7-1.9,5.4-3.5,8.2-5.8c1.9-1.6,3.5-1.6,5.1,0c3.1,2.3,5.8,4.3,8.9,6.2c0.8,0.4,2.3,0.4,3.5,0.4c0-1.2,0.4-2.3,0-3.1
		c-1.2-3.9-2.7-7.4-4.3-10.9c-0.8-1.6-0.4-2.3,1.2-3.1c3.1-1.9,6.2-4.3,9.3-6.6c0.8-0.8,1.2-1.9,1.9-3.1c-1.2-0.4-2.3-1.2-3.1-1.2
		c-3.9-0.4-7.8-0.4-11.3-0.4c-1.9,0-2.7-0.8-3.5-2.3c-1.2-3.9-2.3-7.4-3.9-10.9c-0.4-0.8-1.2-1.2-1.6-1.9c-0.8,0.8-1.9,1.2-1.9,1.9
		c-0.8,1.6-1.6,3.5-1.9,5.1C465.8,268.8,465.8,268.8,458,269.1z M540.8,269.5c-2.3,0-4.7,0-6.6,0.4c-1.2,0-1.9,0.8-2.7,1.6
		c0.8,0.8,1.2,2.3,1.9,2.7c3.1,2.3,6.6,4.7,9.7,6.6c1.6,0.8,1.9,1.9,1.2,3.5c-1.2,3.5-2.3,7-3.1,10.5c-0.4,1.2,0,2.3,0,3.5
		c1.2-0.4,2.7-0.4,3.5-1.2c2.7-1.9,5.4-3.9,8.2-6.2c1.6-1.6,3.1-1.6,4.7,0c2.7,2.3,5.8,4.3,8.9,6.2c0.8,0.4,1.9,0.4,2.7,0.4
		c0-1.2,0.8-2.3,0.4-3.1c-1.2-3.9-2.3-7.4-3.9-10.9c-0.8-1.9-0.4-2.7,1.2-3.9c2.7-1.9,5.8-3.9,8.2-6.2c0.8-0.8,1.2-1.9,1.9-2.7
		c-1.2-0.4-2.3-1.2-3.5-1.6c-3.5,0-7,0-10.5,0c-1.9,0-3.1-0.8-3.5-2.7c-1.2-3.5-2.3-7.4-3.9-10.9c-0.4-0.8-1.2-1.9-1.9-1.9
		c-0.8,0-1.6,1.2-1.9,1.9c-0.8,1.9-1.6,3.9-1.9,5.8C548.5,269.9,548.5,269.9,540.8,269.5z M576.1,254c0.4-0.4,0.8-1.2,1.6-1.6
		c5.1-4.3,4.7-3.9,0.4-8.5c-5.1-5.1-11.3-1.6-13.2,4.3c-1.2,3.5,0.4,6.6,3.9,7.8c1.2,0.4,1.9,1.6,3.1,1.9c1.2,0.8,2.7,1.6,3.9,1.6
		s2.3-1.6,2.7-2.3C578.5,256.3,576.9,255.2,576.1,254z M520.6,233.8c-0.4,0-0.8,0-1.2,0.4c0.4-1.6,1.2-3.1,1.2-4.7
		c0-1.2,0-2.7-0.8-3.5c-1.6-1.6-8.9-1.2-10.5,0.4c-2.7,2.3-3.9,8.2-2.3,11.3c1.2,2.3,3.1,3.5,5.8,2.7c1.9-0.4,3.1-0.8,5.1,0
		c2.3,0.8,5.4-1.2,5.1-3.1C523.3,235.7,521.7,234.9,520.6,233.8z M469.6,248.2c6.2-2.3,7.8-5.8,6.2-11.3c-1.2-3.9-3.9-5.8-7.4-5.1
		c-3.1,0.4-5.4,3.1-5.1,7c0.4,4.7,1.2,8.9,1.9,13.2c0.4,1.2,1.6,1.6,2.7,2.7c0.8-1.2,1.9-2.3,2.3-3.5
		C470.8,250.5,470,249.3,469.6,248.2z M543.5,234.9c0.8,0,1.6,0.4,1.9,0c1.2-0.8,1.9-1.9,3.1-2.7c-0.8-0.8-1.6-1.9-2.7-2.3
		c-2.3-0.8-4.7-1.2-7.4-1.2c-5.8-0.4-9.7,4.3-9.3,10.1c0.4,4.3,4.7,6.6,8.9,5.1C541.9,241.5,543.1,238.4,543.5,234.9z M492.6,231.4
		c-0.8-1.2-1.2-1.9-1.6-2.7c-1.2-2.3-3.5-3.5-6.2-3.1c-2.7,0.4-5.4,3.1-5.4,5.4c0,0.8,0.4,2.3,1.2,2.3c0.8,0.4,1.9-0.4,2.7-0.4
		c1.2-0.4,3.1-1.6,3.9-1.2c1.2,0.8,2.3,2.3,2.7,3.9c0.4,1.9,0,3.9-0.4,6.2c0,1.9-0.4,3.9,2.3,4.3c2.3,0,2.7-1.9,2.7-3.9
		c0.4-3.1,1.2-6.2,1.9-9.3c0.4-1.6,1.6-2.7,1.9-4.3c0.4-0.8-0.4-1.9-0.8-3.1c-1.2,0.4-2.3,0.8-3.1,1.6S493.3,229.5,492.6,231.4z
		 M451.8,245.4c0,0,0.4-0.4,0.4-0.8c0.4-1.2,1.2-1.9,1.6-3.1c-1.2,0-2.7-0.8-3.5,0c-3.5,1.6-5.1,4.7-5.1,8.2c0,3.9,2.3,7.4,5.4,8.2
		c2.3,0.8,6.6-0.8,7.8-2.7c0.4-0.8,0.4-2.3,0.4-3.5c-1.2,0-2.3-0.4-3.1,0c-1.2,0-1.9,0.8-3.1,1.2c1.2-2.7,5.4-2.3,3.9-5.8
		C456,245.8,453.7,245.8,451.8,245.4z M554.8,243.5c1.2-1.6,3.1-3.1,4.3-5.1c0.4-0.8,0-2.7-0.4-3.1c-0.8-0.4-3.1-0.8-3.5,0
		c-1.9,1.9-3.5,4.7-5.1,7c-1.2,1.9-1.9,4.3,0,5.4c1.2,1.2,3.5,1.2,5.4,1.2c1.6,0,3.9-0.8,3.1-3.1
		C558.3,244.7,556.3,244.3,554.8,243.5z M451.4,238.4c1.2-0.8,3.1-1.2,4.7-2.3c0.8-0.8,1.2-2.3,1.6-3.1c-1.2-0.4-2.7-1.6-3.5-1.2
		c-1.9,0.8-3.5,2.3-4.7,3.9C448.3,236.9,449.4,238.1,451.4,238.4z"/>
	<path fill="#080B44" d="M599.4,566.8c0-1.2-0.4-1.9-0.4-2.7c0.4-35.4,0.4-70.3,0.8-105.7c0.4-42.4,0.8-84.7,0.8-127.1
		c0-27.6,0-55.2-0.4-82.8c0-1.9,0.4-2.7,2.7-2.7c9.3,0,18.3,0,27.6,0c0,1.9-0.4,3.9-0.4,6.6c-2.3,3.5-2.3,8.2-2.3,12.4
		c0,1.9,1.6,3.1,3.9,2.7c2.7-0.4,5.4-3.5,5.1-5.1c-0.8-2.7-2.7-1.2-4.3-0.8c0-5.4,1.6-10.5,4.3-15.9c2.3,0,5.1,0,8.2,0
		c10.1,0,20.2,0,30.3,0c1.9,0,3.5,0.4,4.7,2.3c3.1,6.2,6.6,12,10.1,18.3c0.4,0.8,0.4,2.3-0.4,3.1c-10.1,14.4-16.7,29.9-18.7,47.4
		c-2.3,20.6-0.8,40.8,1.9,61.4c2.7,20.2,5.4,40.4,3.9,60.6c-1.6,18.3-4.7,36.1-11.7,53.6c-6.6,16.7-15.9,31.5-28,44.3
		c-10.1,10.9-22.2,20.2-35,28C601.4,566.1,600.6,566.1,599.4,566.8z M643,336.8c-0.4,0-1.2-0.4-1.6-0.4c-0.4-3.5-1.2-7.4-1.6-10.9
		c0-0.8-0.4-1.9-0.8-2.3c-0.8-0.4-1.9,0-2.3,0.4c-5.1,3.1-8.2,7.4-8.5,13.2c0,0.8-0.4,1.9-0.8,3.5c-2.3-3.5-3.9-6.6-5.8-9.3
		c-0.4-0.8-1.9-1.2-2.7-1.6c-0.4,0.8-1.2,1.6-1.2,2.7c-0.4,5.1-0.8,10.1-0.8,15.5c0,8.5-1.2,17.1,5.4,23.7c0,0,0,0.4,0,0.8
		c-0.4,0-0.8,0-1.6,0c-3.9,0-7.4,2.7-7.8,7c-0.4,3.9,1.9,7.4,5.8,8.2c2.3,0.4,2.7,1.9,2.7,3.5c0.4,15.9,0.8,31.5,1.2,47.4
		c0.4,19,0.8,38.1,1.6,56.7c0,3.1-0.8,5.4-2.7,7.8c-6.2,6.2-3.5,17.5,4.3,20.6c5.4,1.9,11.3,0.4,15.2-4.7c3.1-4.3,2.7-11.3-0.8-15.5
		c-0.8-1.2-1.6-2.3-1.6-3.9c0-2.3,0.4-5.1,0.4-7.4c2.3-33.8,4.3-67.2,6.6-101c0-1.9,0.4-3.1,2.7-3.9c4.3-1.2,6.2-5.1,5.1-9.3
		c-0.8-3.1-2.7-5.4-6.6-5.8c1.2-1.9,2.7-3.1,3.1-5.1c1.2-4.3,1.9-8.2,2.3-12.4c0.8-7.8,1.2-15.5,1.6-23.7c0-0.8-0.4-1.9-0.8-2.7
		c-0.8,0.4-1.9,0.4-2.7,1.2C647.6,331.7,645.3,334,643,336.8z M623.9,292.5c-2.3,0-4.3,0-6.6,0c-0.8,0-1.9,0.8-2.3,1.6
		c-0.4,0.4,0.8,1.9,1.2,2.3c3.1,2.3,6.6,5.1,10.1,7.4c1.6,1.2,1.6,1.9,1.2,3.5c-1.2,3.5-2.3,7-3.1,10.1c-0.4,1.2,0,2.3,0,3.5
		c1.2-0.4,2.3,0,3.5-0.8c3.1-1.9,5.8-4.3,8.5-6.2c1.6-1.2,2.7-1.2,4.3,0c3.1,2.3,5.8,4.3,8.9,6.2c0.8,0.4,1.9,0.4,3.1,0.4
		c0-0.8,0.4-1.9,0-2.7c-1.2-3.5-2.7-7-3.5-10.9c-0.4-0.8,0-2.3,0.8-2.7c3.1-2.7,6.2-4.7,9.7-7.4c0.8-0.8,1.2-1.9,1.6-2.7
		c-0.8-0.4-1.9-1.2-2.7-1.2c-3.5,0-7,0-10.5,0c-2.7,0-3.9-0.8-4.7-3.1c-0.8-3.5-2.3-7-3.5-10.1c-0.4-0.8-1.2-1.6-1.6-1.6
		c-0.8,0-1.6,0.8-1.9,1.6c-0.8,1.9-1.2,3.9-1.9,5.8C631.3,294.4,633.6,292.8,623.9,292.5z M674.1,261c0.4-1.9,1.2-3.5,1.6-5.8
		c0-1.2-0.8-3.1-1.2-3.1c-3.1-0.4-6.6-1.9-9.3,0.4c-3.1,2.3-3.5,6.2-3.1,9.7c0.4,3.1,3.5,5.1,6.2,3.9c1.6-0.8,2.7-0.8,4.7,0
		c1.2,0.4,3.1,0,4.3-0.8c0.8-0.4,1.2-2.3,0.8-3.1C677.2,261.4,675.6,261.4,674.1,261z M608.8,261.8c-0.4,0-0.8,0.4-1.2,0.4
		c1.2,1.6,1.9,3.9,3.5,4.7c1.6,0.8,4.3,0.4,5.4-0.8c3.9-2.7,5.1-7,5.4-11.3c0-1.6-0.8-3.1-2.7-3.1c-2.3,0-1.9,1.6-1.9,3.5
		c0,1.9-0.4,3.9-1.2,5.4c-0.4,0.8-1.6,0.8-2.3,1.2c0-0.8-0.4-1.6,0-2.3c0.4-1.9,1.2-3.9,0.8-5.4c-0.4-1.2-1.9-2.3-3.5-3.1
		c-0.4-0.4-2.3,1.2-2.3,1.9C608,255.9,608.4,259,608.8,261.8z M647.2,262.5c0.4,0,0.4,0,0.8,0c0,0.8,0,1.6,0.4,2.3
		c0.8,1.2,1.9,2.7,3.1,3.1c1.2,0.4,2.7-1.2,3.9-1.9c0,0-0.4-1.9-1.2-2.3c-4.3-3.1-3.9-3.9,0.4-7c0.8-0.4,1.6-1.6,1.9-2.7
		c0-0.4-0.8-1.6-1.2-1.6c-1.2,0-2.3,0.4-3.1,1.2c-0.8,0.8-1.6,1.9-1.9,2.7c-0.8-1.2-1.6-2.3-1.9-3.5c-1.2,0.8-2.7,1.2-3.1,1.9
		c-1.2,3.1-1.9,6.2-2.7,9.3c0,0.8,0.8,2.3,1.6,2.3c0.8,0,1.9-0.8,2.7-1.2C646.9,264.5,647.2,263.3,647.2,262.5z"/>
	<path fill="#080B44" d="M419.1,261c0.4-1.9,1.2-3.5,1.6-5.1c0.8-3.5,0.4-4.3-3.1-4.7c-3.1-0.4-6.6-1.6-8.9,1.9
		c-3.5-3.9-12.4-3.9-14.8-0.4c-0.8,1.2-0.4,2.7-0.4,3.9c1.2,0,2.3-0.4,3.1-0.4c0.4,0,0.8,0,1.6-0.4c-0.4,0.8-0.4,1.6-0.4,2.3
		c-0.4,0.8-1.2,1.9-1.2,2.7c-0.8,1.9-1.6,4.3,1.2,5.4c1.9,0.8,3.9-0.8,4.3-3.9c0-0.8,0.4-1.6,0.4-1.9c0-3.1,1.2-4.7,4.7-3.9
		c0,1.6-0.4,3.5-0.4,5.4c0.4,3.5,3.1,5.4,6.6,4.7c1.2-0.4,2.3-0.8,3.1-0.4c2.3,1.2,4.7,0.8,6.6-1.6c0.4,100.3,0,200.1-0.8,300.8
		c-17.1-10.5-31.1-22.9-43.1-38.1c-15.2-19-23.7-40.8-28.4-64.9c-3.5-19-4.7-38.5-2.3-57.9c1.2-10.1,2.7-19.8,4.3-29.9
		c2.3-18.7,4.3-37.3,2.3-56c-2.3-18.7-8.9-35.4-20.2-50.5c-0.4-0.8-1.2-2.3-0.8-3.1c3.1-6.2,6.6-12,10.1-17.9
		c0.8-1.2,2.3-2.3,3.5-2.3c24.1,0,47.8,0,71.9,0c3.1,0,3.9,1.2,3.5,3.9c-0.4,3.1-0.4,6.2,0,9.3C423,261,421.8,261.8,419.1,261z
		 M376.4,370.2c-4.7,2.7-6.6,5.8-5.8,9.7c0.8,4.3,3.5,6.6,7.8,7.8c0.8,0,1.6,1.6,1.6,2.3c0.4,8.2,1.2,16.3,1.6,24.9
		c0.4,8.5,1.2,16.7,1.6,25.3c0.8,18.7,1.6,37.7,2.7,56.4c0,3.1-0.4,5.4-2.3,8.2c-4.3,5.1-3.1,13.6,2.3,17.5
		c5.8,4.3,13.6,3.5,17.9-1.9c4.7-5.8,3.9-13.6-1.6-18.3c-0.8-0.8-1.6-2.3-1.6-3.5c0.4-13.6,1.2-27.2,1.6-40.8
		c0.8-21.4,1.9-42.4,2.7-63.7c0.4-5.1,0.4-5.1,5.1-6.2c3.9-0.8,6.2-5.1,5.8-8.9c-0.4-5.1-3.1-7.8-7.4-7.8c-1.6,0-2.7,0-3.5,0
		c1.2-3.9,2.7-7.4,3.1-11.3c0.4-4.7,0-9.3,0-14s0-9.3,0-14c0-1.2-0.4-1.9-0.4-3.1c-1.2,0.4-2.3,0.4-3.1,1.2c-2.3,1.9-4.3,4.7-6.6,7
		c-0.4-0.4-0.4-0.8-0.4-1.2c-1.6-5.8-5.4-10.1-9.7-14.4c-0.8-0.8-2.7-0.8-3.9-1.2c0,1.2-0.4,2.7,0,3.5c1.6,4.7,0.4,8.5-2.3,12.8
		c-1.9-2.7-3.5-5.1-5.4-7.4c-0.8-0.8-1.9-1.2-2.7-1.9c-0.4,0.8-1.2,1.9-1.2,2.7c0,7.8-0.4,15.2-0.4,22.9
		C370.9,358.9,370.5,365.5,376.4,370.2z M370.5,290.9c-2.3,0-4.7,0-7,0c-0.8,0-1.9,0.8-2.3,1.6c-0.4,0.4,0.4,1.9,1.2,2.3
		c3.5,2.3,6.6,5.1,10.1,7.4c1.6,0.8,1.9,1.6,1.2,3.5c-1.2,3.9-2.3,7.8-3.5,11.3c-0.4,0.8,0.4,1.9,0.4,3.1c1.2-0.4,2.3-0.4,3.1-0.8
		c3.1-2.3,6.2-4.7,9.7-7c0.8-0.4,2.7-0.4,3.5,0c3.5,1.9,6.2,4.3,9.7,6.6c0.8,0.4,2.3,0.4,3.5,0.4c0-1.2,0.4-2.3,0-3.1
		c-1.2-3.5-2.3-7-3.9-10.5c-0.8-1.6-0.4-2.3,1.2-3.5c3.1-1.9,6.2-4.3,8.9-7c0.8-0.4,1.6-1.9,1.2-2.3c-0.4-0.8-1.6-1.6-2.7-1.6
		c-3.5-0.4-7.4-0.4-10.9-0.4c-1.9,0-3.1-0.4-3.5-2.3c-1.2-3.9-2.3-7.4-3.9-10.9c-0.4-0.8-1.2-1.2-1.9-1.9c-0.8,0.8-1.6,1.2-1.9,1.9
		c-0.8,1.9-1.2,3.9-1.9,5.8C378.7,290.9,378.7,290.9,370.5,290.9z M372.5,260.6c0-0.8,0-1.2,0-1.6c1.2-3.9-0.4-6.6-3.5-8.2
		c-3.9-1.6-7,0-8.5,3.9c-0.8,1.9-1.2,3.9-1.6,5.8c-0.4,3.9,2.3,6.2,6.2,5.8c1.9,0,3.9,0,5.4,0c2.7,0.4,5.1-1.2,5.1-3.5
		C376.4,260.6,374.4,260.2,372.5,260.6z M348.4,264.5c1.9,0.8,3.5,1.9,4.7,1.9c2.3-0.4,1.9-2.7,1.6-4.7c0-0.4-0.4-1.2-0.4-1.6
		c-0.4-1.9,0-3.1,2.3-3.5c1.2-0.4,1.9-1.9,2.3-3.5c0-0.8-1.6-1.9-2.7-2.3c-3.1-0.4-6.2-0.4-9.3-0.4c-2.7,0-4.7,1.2-5.8,3.5
		c-0.4,0.8-0.4,1.6,0,2.3c0.4,0.4,1.6,0.4,2.3,0c0.8,0,1.6-0.8,2.7-1.2c-0.4,2.3-1.6,3.9-2.3,5.4c-0.8,1.6-1.6,3.9,0.8,4.7
		C346.4,267.2,348,266,348.4,264.5z M383.4,261.8c0-1.2,0.4-1.9,0.4-3.1c0.4-1.6,0.8-3.5,0.8-5.1c0-2.3-2.3-3.9-4.7-3.5
		c-1.6,0.4-3.1,1.6-2.3,3.1c1.2,1.9,0.8,3.9,0.4,5.8c0,2.7-0.8,5.8,2.3,7.4c2.7,1.2,6.2,0.4,8.2-2.7c1.6-2.7,2.7-5.8,3.5-8.9
		c0.4-1.2-0.8-2.7-1.6-3.5c-0.4-0.4-2.3,0-2.7,0.4c-0.4,1.2-0.8,2.3-0.4,3.5C388,257.9,386.9,260.2,383.4,261.8z"/>
	<path fill="#080B44" d="M575.7,175.1c-2.7,5.1-5.1,5.8-9.3,5.4c-10.1-1.6-19.4,0.4-29.1,3.9c-5.4,1.9-10.9,4.3-16.3,6.2
		c-5.1,1.6-10.5,1.2-15.5-0.8c-3.9-1.6-7.4-2.7-11.3-3.9c-2.7-1.2-5.4-0.8-8.2,0.4c-3.9,1.9-8.2,2.3-12-0.4
		c-1.2-0.8-2.7-0.4-3.9-0.8c0-1.2,0-3.1-0.4-4.3c-1.2-4.7,1.6-8.9,6.2-8.9c3.5-0.4,7.4,0.4,10.9,0.8c2.7,0.4,5.8,0.4,8.5,0.8
		c0,0.8,0,1.6,0.4,2.7c4.3-0.8,7.4-3.5,10.1-5.8c3.5-3.1,7-6.2,10.9-8.9c8.2-5.4,17.9-5.8,27.2-5.4c10.5,0.4,21.4,0.8,31.9-1.9
		c0.4,0,0.8,0,1.2,0.8c-2.7,0.8-5.1,1.9-7.8,2.3c-5.1,1.2-10.5,1.9-15.9,2.7c-0.8,0-1.6,0-2.3,0.4c-1.2,0.8-2.3,1.6-3.9,1.9
		c1.2,0.4,2.7,1.6,3.9,1.6c6.2,0,12.4-0.4,18.7-0.4c0.8,0,1.6,0,2.7,0.4c-7.8,2.7-15.9,2.7-23.7,4.3c0,0.4,0,0.8,0,1.2
		c1.6,0.8,3.1,1.2,5.4,1.9c-1.6,0-2.3,0.4-3.1,0.4c-8.2,0.8-16.3,1.6-24.5,2.3c-1.2,0-2.3,0.4-3.1,1.2c-0.8,0.4-1.2,1.6-1.6,2.3
		c0.8,0.4,1.6,1.2,2.7,1.2c1.2,0,2.3-0.4,3.5-0.4c6.2-0.4,12-0.4,18.3-0.8C556.3,177.4,566,179.4,575.7,175.1z M477.8,173.5
		c-1.6,1.6-3.1,2.7-4.7,4.3c-0.4,0.4,0,1.9,0.4,2.3c0.4,0.4,1.6,0.4,2.3,0.4c1.9-0.4,3.5-0.8,5.1-1.6c1.9-0.4,2.3-1.9,0.8-3.5
		C480.5,175.1,479.4,174.7,477.8,173.5z"/>
	<path fill="#080B44" d="M447.5,163c1.6,0.8,3.5,1.6,5.1,2.3c0.8,0.4,1.2,1.2,1.9,1.2c5.1,1.2,6.2,5.4,7.4,9.7
		c0.4,0.8,0.4,1.9,0.8,2.7c1.9,3.5,2.7,6.2-0.8,9.3c-1.6,1.6-0.4,3.5,1.9,3.1c2.7-0.4,3.5,1.2,4.3,3.5c1.6,5.4,3.9,10.9,5.8,16.7
		c-1.6,0.4-3.1,1.2-4.7,1.2c-0.8,0-1.9-0.8-2.3-1.6c-4.3-10.1-8.5-20.2-12.8-30.7c-2.3-5.1-4.7-10.1-6.6-15.2
		c-0.4-0.4-0.4-1.2-0.4-1.6C447.1,163.8,447.5,163.4,447.5,163z"/>
	<path fill="#080B44" d="M568.7,186c-1.6,3.9-3.1,7.8-5.1,11.3c-1.9,4.3-3.5,8.5-5.4,12.8c-1.9,4.7-2.3,5.1-7.4,2.7
		c1.2-4.3,2.7-8.6,4.3-12.8c1.2-4.3,2.7-8.2,3.9-12.4c0.8-2.3,1.9-3.1,4.3-2.7C564.9,185.2,566.4,185.6,568.7,186z"/>
	<path fill="#080B44" d="M459.1,162.7c3.5,0,6.6-0.4,10.1-0.4c0-0.4,0-0.8,0-1.6c-1.9-0.8-3.9-1.6-5.4-2.3c13.2,0,26.4-0.8,37.7,8.5
		c0,0.4,0,0.8,0,1.2c-1.6,0-3.5,0-4.7-0.8c-7-3.9-14.4-4.3-22.2-3.9c-3.9,0.4-8.2,0.4-12,0.4c-1.2,0-2.3-0.4-3.5-0.4
		C459.1,163.4,459.1,163,459.1,162.7z"/>
	<path fill="#080B44" d="M552.4,184c-1.9,6.6-3.5,12-5.4,17.9c-0.4,1.9-1.2,3.9-1.6,5.4c-0.8,1.9-1.6,3.1-3.9,2.3
		c-2.7-0.8-1.6-2.3-1.6-3.9c1.2-5.8,2.3-11.3,3.5-17.1c0.4-2.3,1.6-3.5,3.9-3.9C548.9,185.2,550.1,184.8,552.4,184z"/>
	<path fill="#080B44" d="M489.9,190.6c3.9,0,5.4,0.8,5.8,3.9c0.4,3.5,0.8,7.4,1.6,10.9c0.4,1.6-0.4,2.3-1.9,2.3s-3.1,1.2-3.5-1.6
		c-0.8-4.7-1.9-8.9-2.7-13.6C488.7,191.8,489.9,191,489.9,190.6z"/>
	<path fill="#080B44" d="M536.5,190.6c-0.8,3.9-1.6,7.4-1.9,10.5c-0.4,1.6-0.8,3.1-1.2,4.7c-0.4,1.9-3.9,3.1-5.1,1.6
		c-0.4-0.4-0.4-1.2-0.4-1.9c0-1.6,0.8-3.1,0.8-4.7C527.5,194.9,531.8,193.4,536.5,190.6z"/>
	<path fill="#080B44" d="M475.1,191.8c1.9,0.4,3.1,0.4,4.7,1.2c0.8,0.4,1.9,1.2,2.3,2.3c1.2,3.9,1.9,8.2,3.1,12
		c0,0.8-0.8,1.9-1.2,1.9c-1.2,0-3.1-0.4-3.1-0.8C478.6,203.1,477,197.6,475.1,191.8z"/>
	<path fill="#080B44" d="M503.1,194.5c2.3,1.2,5.1,1.9,5.4,3.1c0.8,2.7,0.4,5.4,0,8.2c0,0.4-1.6,0.8-2.3,0.8c-0.8,0-1.6-0.8-1.9-1.6
		C503.5,201.9,503.5,198.8,503.1,194.5z"/>
	<path fill="#080B44" d="M516.7,202.3c0.4-1.2-1.6-3.5,1.6-3.9c3.1-0.4,3.5-0.4,3.1,3.1c0,0.8,0,1.9,0,2.7c0,1.9-0.8,3.1-3.1,2.7
		c-2.3,0-1.9-1.6-1.9-3.1C516.3,203.5,516.3,203.1,516.7,202.3z"/>
	<path fill="#080B44" d="M576.5,166.9c-1.2,3.1-4.7,4.7-8.9,3.1C570.3,169.3,573,168.5,576.5,166.9z"/>
	<path fill="#080B44" d="M415.2,256.7c-0.4,1.6-1.2,3.1-1.6,4.7c0,0.4-0.8,0.4-1.2,0.4c-0.4-0.4-0.8-1.2-0.8-1.6
		c0.4-1.2,1.2-2.7,1.9-3.9C414.1,256.3,414.5,256.7,415.2,256.7z"/>
	<path fill="#FFFFFF" d="M584.7,547c-21.4,0-40.8,7.4-59.5,17.5c-1.2,0.8-1.9,1.6-2.7,2.7c-1.6,4.3-5.1,4.7-8.9,5.1
		c-3.9,0.4-7.4,0-9.7-3.9c-1.2-1.6-2.7-3.1-4.3-3.9c-10.9-5.1-21.8-10.5-33-15.2c-8.2-3.5-16.7-5.4-25.6-3.5c-0.8,0-2.3,0-2.3-0.4
		c-0.4-0.8,0-1.9,0.4-2.7c7-15.5,14.4-31.5,19.4-47.8c0-0.4,0.4-0.8,0.4-0.8c1.6-6.6,1.9-7,9.3-5.4c14.8,2.7,28.8,7,41.6,14.8
		c3.1,1.9,5.4,1.6,8.5,0c12.8-7.4,26.4-12.8,40.4-16.7c1.9-0.4,4.3-0.8,4.7,1.9c2.3,12.8,8.2,24.1,13.6,35.8
		c3.1,6.6,6.2,13.2,9.3,19.8C588.2,545.8,587.4,547.4,584.7,547z M480.9,542.4L480.9,542.4c10.5,4.3,20.2,10.1,29.1,18.7
		c0-3.9,0-6.6,0-9.7c0-12.8,0-25.6,0.4-38.5c0-1.9-0.8-2.7-2.3-3.9c-6.6-4.3-14.4-7-22.2-9.3c-5.8-1.6-12-3.1-17.9-4.3
		c-1.9-0.4-2.7,0.4-3.5,1.9c-3.5,9.3-6.6,19-10.1,28.4c-1.2,2.7-2.3,5.8-3.1,8.5C461.9,535.4,472,536.9,480.9,542.4z M571.9,535
		c-2.7-6.2-5.8-12.8-8.9-19.8c0.4,3.9,1.2,7.4,1.2,10.9c0,8.2-8.9,14-16.3,10.5c-5.1-2.3-7.4-7-8.9-12c-0.4-1.2-0.8-2.3-1.2-3.9
		c0,6.6-5.4,10.5-8.2,15.5c1.9-0.8,3.5-1.9,5.1-2.7c1.6-1.2,3.1-1.9,4.7,0.4c2.3,3.5,2.3,6.6,0,7.8c-5.1,3.1-10.5,5.8-15.5,8.5
		c-2.3,1.2-3.9,0.4-4.3-1.9c-1.9-5.8-1.2-11.3,2.3-15.9c1.9-3.1,3.9-5.8,5.8-8.9c0.8-1.2,0.4-2.3,0.4-3.9c0-0.4-1.9-0.8-1.9-0.8
		c-0.8,0.8-1.6,2.3-2.3,3.1c-0.8,1.2-1.6,2.7-2.7,3.5c-1.6,0.8-3.5,0.8-5.4,1.6c0,10.5,0,21,0,31.9
		C532.6,545.1,550.9,536.9,571.9,535z M536.9,515.9c-0.8-7.4,0.8-13.2,7.4-15.9c7-2.7,11.3,1.9,14.8,7.4c-1.2-3.9-2.7-7.4-3.9-11.3
		c-0.8-1.9-1.6-1.9-3.1-1.6c-5.8,2.3-12,4.7-17.9,7c-5.4,2.3-10.9,5.4-15.9,8.2c-1.2,0.4-1.6,1.6-2.7,2.7c0.4,0,0.4,0.4,0.8,0.4
		C525.6,505,532.6,506.2,536.9,515.9z M555.9,524.5c-0.8-5.4-1.9-9.7-5.1-13.6c-0.8-0.8-2.3-1.9-3.1-1.6c-1.2,0.4-1.9,1.9-2.3,3.1
		c-0.4,5.1,1.2,9.7,4.7,13.2c0.8,0.8,2.7,1.6,3.9,1.6C554.8,527.2,555.5,525.3,555.9,524.5z"/>
	<path fill="#FFFFFF" d="M498.4,457.2c0-0.4,0-0.8,0-0.8c0.8-3.5-0.8-5.4-4.3-6.6c-7.4-3.1-12-9.7-14.8-16.7
		c-5.4-13.2-6.2-27.2-1.6-40.8c3.1-9.7,9.3-17.5,19-21.4c0.8-0.4,1.6-1.6,1.9-2.7c0.4-1.2,0-2.7,0-3.9c0-4.3,0.4-5.1,5.1-5.1
		c2.3,0,4.3,0,6.6,0c2.3,0,3.9,1.2,3.1,3.5c-1.2,5.1,0.8,7.8,5.8,10.1c10.5,5.1,14.4,15.2,16.7,25.6c2.3,11.7,1.6,22.9-3.5,33.8
		c-3.5,7.8-8.5,14.4-17.1,17.5c-1.9,0.8-2.7,1.9-2.7,4.3c0.4,2.3,0,4.7,0,6.6c0,2.3-1.6,3.1-3.5,3.1c-2.3,0-4.7,0-7,0
		c-2.7,0-4.3-1.2-3.9-4.3C498.4,459.2,498.4,458.4,498.4,457.2L498.4,457.2z M512.8,433.9c0.4,0,0.8,0.4,0.8,0.4
		c0.8-0.8,1.6-1.9,1.9-2.7c6.2-12.4,6.6-24.9,1.9-37.7c-0.8-1.9-2.7-3.9-4.3-5.8c-0.4,0-0.8,0.4-0.8,0.4
		C512.8,403.6,512.8,418.8,512.8,433.9z M498.4,433.5c0-15.5,0-30.7,0-46.2C489.1,393.1,487.5,426.9,498.4,433.5z"/>
	<path fill="#FFFFFF" d="M580.8,410.2c12.4,7.4,11.7,32.3-2.7,38.1c-3.5,1.6-7.8,2.3-11.7,2.7c-6.6,0.4-12.8,0.4-19.4,0.4
		c-3.9,0-4.7-0.8-4.7-4.7c0-22.9,0.4-46.2,0.4-69.2c0-2.7,1.6-4.3,4.3-4.3c7.8,0,15.5,0,22.9,0c7.8,0.4,15.9,5.4,18.3,13.6
		c2.3,8.5,0,17.1-7,22.5C581.2,409.4,581.2,409.8,580.8,410.2z M558.3,425.8L558.3,425.8c-0.4,1.9-0.4,3.9,0,5.8
		c0,0.8,1.2,2.3,1.6,2.3c3.1,0,6.6,0,9.7-1.2c4.3-1.6,5.8-7.4,3.1-10.9c-2.3-2.7-5.4-3.9-8.5-4.3c-5.4-0.4-5.4-0.4-5.4,4.7
		C558.3,423.8,558.3,425,558.3,425.8z M558.3,395.1c0,6.2,0,6.2,6.2,6.2c1.6,0,2.7,0,4.3-0.4c2.3-0.8,3.9-2.3,3.9-4.7
		c0-2.7-0.4-5.1-3.1-6.2c-1.2-0.8-3.1-0.8-4.3-1.2C558.6,388.5,558.6,388.5,558.3,395.1z"/>
	<path fill="#FFFFFF" d="M457.6,434.3c5.1,0,9.7,0,14.4,0c4.7,0,5.4,0.8,5.1,5.4c0,2.7,0,5.1,0,7.8c0,2.3-1.2,3.5-3.5,3.5
		c-11.7,0-22.9,0-34.6,0c-3.1,0-3.9-1.6-3.1-4.3c6.2-17.5,12.4-35,18.7-52.5c0.4-1.6,1.2-2.7,1.9-4.7c-2.3,0-4.7,0-6.6,0
		c-3.5,0-7,0-10.5-0.4c-2.7,0-3.9-1.2-3.9-3.9s0-5.8,0-8.5s0.8-4.3,3.9-4.3c10.5,0,21.4,0,31.9,0c1.9,0,3.5,0,5.4,0.4
		c2.3,0.4,2.7,1.6,1.9,3.5c-6.6,17.9-13.6,36.1-20.2,54C458.4,431.2,458,432.8,457.6,434.3z"/>
	<path fill="#FFFFFF" d="M498.4,313.8c7.4,0,7.8,0,10.1-7c0.8-1.9,1.2-4.3,1.9-6.6c0.4-0.8,1.6-1.6,1.9-2.3c0.8,0.8,1.6,1.6,1.6,2.3
		c1.6,3.9,2.7,7.8,3.9,11.7c0.4,0.8,1.9,1.9,2.7,1.9c3.9,0.4,7.8,0,11.3,0.4c1.2,0,1.9,0.8,3.1,1.2c-0.4,1.2-0.8,2.3-1.6,3.1
		c-3.1,2.3-6.2,4.3-8.9,7c-0.8,0.8-1.6,2.3-1.2,3.1c1.2,3.9,2.7,7.8,3.9,11.7c0.4,0.8,0,2.3-0.4,2.7c-0.8,0.4-1.9,0.4-2.7,0
		c-3.1-1.9-6.2-4.3-9.3-6.6c-1.9-1.6-3.1-1.6-5.1,0c-2.7,1.9-5.4,4.3-8.2,5.8c-1.2,0.8-2.3,0.4-3.5,0.8c0-1.2-0.4-2.3,0-3.1
		c1.2-3.5,2.3-7.4,3.5-10.9c0.4-0.8-0.4-2.7-1.2-3.1c-3.1-2.3-6.6-4.7-9.7-7c-0.8-0.8-1.2-1.9-1.9-3.1c1.2-0.4,1.9-1.2,3.1-1.6
		C494.1,313.8,496.5,313.8,498.4,313.8z"/>
	<path fill="#FFFFFF" d="M458,269.1c7.8-0.4,7.8-0.4,10.1-8.2c0.4-1.9,1.2-3.5,1.9-5.1c0.4-0.8,1.6-1.2,1.9-1.9
		c0.4,0.8,1.2,1.2,1.6,1.9c1.2,3.5,2.7,7.4,3.9,10.9c0.4,1.6,1.6,2.3,3.5,2.3c3.9,0,7.8,0,11.3,0.4c1.2,0,2.3,0.8,3.1,1.2
		c-0.8,1.2-1.2,2.3-1.9,3.1c-3.1,2.3-6.2,4.7-9.3,6.6c-1.2,0.8-1.6,1.6-1.2,3.1c1.6,3.5,2.7,7.4,4.3,10.9c0.4,0.8,0,1.9,0,3.1
		c-1.2,0-2.3,0-3.5-0.4c-3.1-1.9-6.2-4.3-8.9-6.2c-1.9-1.6-3.5-1.2-5.1,0c-2.3,1.9-5.1,3.9-8.2,5.8c-0.8,0.4-2.3,0.4-3.5,0.8
		c0-1.2-0.4-2.3-0.4-3.5c0.8-3.5,1.9-7,3.1-10.5c0.4-1.6,0.4-2.3-1.2-3.1c-3.5-2.3-7-4.7-10.5-7c-0.8-0.8-1.2-1.6-1.9-2.7
		c1.2-0.4,1.9-1.6,3.1-1.6C453.3,269.1,455.7,269.1,458,269.1z"/>
	<path fill="#FFFFFF" d="M540.8,269.5c7.8,0,7.4,0,9.7-7.4c0.8-1.9,1.2-3.9,1.9-5.8c0.4-0.8,1.2-1.9,1.9-1.9c0.8,0,1.6,1.2,1.9,1.9
		c1.6,3.5,2.7,7,3.9,10.9c0.4,1.9,1.6,2.7,3.5,2.7c3.5,0,7,0,10.5,0c1.2,0,2.3,0.8,3.5,1.6c-0.8,1.2-1.2,2.3-1.9,2.7
		c-2.7,2.3-5.4,4.3-8.2,6.2c-1.6,1.2-2.3,1.9-1.2,3.9c1.6,3.5,2.7,7.4,3.9,10.9c0.4,0.8-0.4,1.9-0.4,3.1c-0.8,0-1.9,0-2.7-0.4
		c-3.1-1.9-6.2-3.9-8.9-6.2c-1.9-1.6-3.1-1.6-4.7,0c-2.7,2.3-5.4,4.3-8.2,6.2c-0.8,0.8-2.3,0.8-3.5,1.2c0-1.2-0.4-2.3,0-3.5
		c0.8-3.5,1.9-7,3.1-10.5c0.8-1.6,0-2.7-1.2-3.5c-3.5-2.3-6.6-4.3-9.7-6.6c-0.8-0.8-1.2-1.9-1.9-2.7c0.8-0.4,1.9-1.2,2.7-1.6
		C536.5,269.9,538.4,269.9,540.8,269.5z"/>
	<path fill="#FFFFFF" d="M576.1,254c0.8,1.2,2.3,2.3,2.3,3.1c-0.4,1.2-1.6,2.3-2.7,2.3s-2.7-0.8-3.9-1.6c-1.2-0.8-1.9-1.6-3.1-1.9
		c-3.5-0.8-5.1-4.3-3.9-7.8c1.9-5.8,8.5-8.9,13.2-4.3c4.3,4.3,4.7,4.3-0.4,8.5C576.9,253.2,576.1,253.6,576.1,254z M573.8,246.6
		c-1.6,1.2-2.7,1.9-4.3,3.1c-0.4,0.4-0.4,1.2,0,1.2c0.4,0.4,1.2,0.4,1.2,0.4C572.2,250.5,574.2,249.7,573.8,246.6z"/>
	<path fill="#FFFFFF" d="M520.6,233.8c0.8,1.2,2.7,1.9,2.7,3.1c0.4,2.3-2.7,4.3-5.1,3.1c-1.9-0.8-3.5-0.8-5.1,0
		c-2.7,0.8-4.7-0.4-5.8-2.7c-1.6-3.5-0.4-8.9,2.3-11.3c1.6-1.6,8.9-1.9,10.5-0.4c0.8,0.8,0.8,2.3,0.8,3.5c0,1.6-0.8,3.1-1.2,4.7
		C519.8,234.2,520.2,233.8,520.6,233.8z M511.2,233.4c0.8,1.2,1.2,1.6,1.6,2.3c0.8-1.2,1.6-2.3,1.9-3.5c0.4-0.4-0.4-1.2-0.8-1.9
		C513.6,231.1,512.4,231.8,511.2,233.4z"/>
	<path fill="#FFFFFF" d="M469.6,248.2c0.4,0.8,0.8,1.9,0.8,2.7c-0.4,1.2-1.6,2.3-2.3,3.5c-0.8-0.8-2.3-1.6-2.7-2.7
		c-0.8-4.3-1.6-8.9-1.9-13.2c-0.4-3.9,1.9-6.6,5.1-7c3.5-0.4,5.8,1.2,7.4,5.1C477.8,242.3,475.9,245.8,469.6,248.2z M466.9,238.4
		c1.2,1.6,2.3,3.1,3.1,4.7c0.4-0.8,1.6-1.6,1.2-1.9c-0.8-1.6-1.6-3.1-2.3-4.7C468.5,236.9,468.1,237.3,466.9,238.4z"/>
	<path fill="#FFFFFF" d="M543.5,234.9c-0.4,3.5-1.6,7-5.1,8.5c-3.9,1.9-8.2-0.4-8.9-5.1c-0.8-5.8,3.5-10.5,9.3-10.1
		c2.3,0,5.1,0.8,7.4,1.2c1.2,0.4,1.6,1.6,2.7,2.3c-1.2,0.8-1.9,1.9-3.1,2.7C545,234.9,544.3,234.9,543.5,234.9z M534.5,239.2
		c3.5-1.9,4.7-3.9,3.5-5.8C534.5,234.9,533.8,236.5,534.5,239.2z"/>
	<path fill="#FFFFFF" d="M492.6,231.4c0.8-1.9,1.2-3.5,2.3-4.7c0.8-0.8,1.9-0.8,3.1-1.6c0.4,1.2,0.8,2.3,0.8,3.1
		c-0.4,1.6-1.6,2.7-1.9,4.3c-0.8,3.1-1.6,6.2-1.9,9.3c-0.4,1.9-0.4,3.9-2.7,3.9c-2.7,0-2.3-2.3-2.3-4.3c0-1.9,0.8-4.3,0.4-6.2
		c-0.4-1.6-1.6-3.1-2.7-3.9c-0.8-0.4-2.3,0.8-3.9,1.2c-0.8,0.4-1.9,0.8-2.7,0.4s-1.2-1.6-1.2-2.3c0-2.3,2.7-5.1,5.4-5.4
		s4.7,0.4,6.2,3.1C491.4,229.5,491.8,230.3,492.6,231.4z"/>
	<path fill="#FFFFFF" d="M451.8,245.4c1.6,0.4,4.3,0.4,4.3,1.2c1.2,3.5-3.1,3.1-3.9,5.8c1.2-0.4,1.9-0.8,3.1-1.2c1.2,0,2.3,0,3.1,0
		c0,1.2,0,2.3-0.4,3.5c-1.2,1.9-5.4,3.5-7.8,2.7c-3.1-0.8-5.4-3.9-5.4-8.2c0-3.5,1.6-6.6,5.1-8.2c0.8-0.4,2.3,0,3.5,0
		c-0.4,1.2-0.8,1.9-1.6,3.1C452.2,245,451.8,245.4,451.8,245.4z"/>
	<path fill="#FFFFFF" d="M554.8,243.5c1.6,0.8,3.5,1.6,3.9,2.3c0.4,2.3-1.6,3.1-3.1,3.1c-1.9,0-3.9,0-5.4-1.2
		c-1.9-1.6-1.2-3.9,0-5.4c1.6-2.3,3.1-5.1,5.1-7c0.8-0.8,2.7-0.4,3.5,0c0.8,0.4,1.2,2.3,0.4,3.1
		C557.5,240.4,555.9,241.9,554.8,243.5z"/>
	<path fill="#FFFFFF" d="M451.4,238.4c-2.3-0.4-3.5-1.2-1.9-2.7c1.2-1.6,3.1-2.7,4.7-3.9c0.8-0.4,2.3,0.8,3.5,1.2
		c-0.4,1.2-0.8,2.7-1.6,3.1C454.9,237.3,452.9,237.7,451.4,238.4z"/>
	<path fill="#FFFFFF" d="M643,336.8c2.3-2.7,4.7-5.1,7-7.8c0.8-0.8,1.9-0.8,2.7-1.2c0.4,0.8,0.8,1.9,0.8,2.7
		c-0.4,7.8-0.8,15.9-1.6,23.7c-0.4,4.3-1.6,8.5-2.3,12.4c-0.4,1.6-1.9,3.1-3.1,5.1c3.9,0.4,5.8,2.7,6.6,5.8c1.2,4.3-0.8,8.2-5.1,9.3
		c-2.3,0.8-2.7,1.9-2.7,3.9c-2.3,33.8-4.3,67.2-6.6,101c0,2.3-0.4,5.1-0.4,7.4c0,1.2,0.8,2.7,1.6,3.9c3.5,4.3,3.9,11.3,0.8,15.5
		c-3.5,5.1-9.3,7-15.2,4.7c-7.8-2.7-10.5-14.4-4.3-20.6c2.3-2.3,3.1-4.7,2.7-7.8c-0.4-19-0.8-38.1-1.6-56.7
		c-0.4-15.9-0.8-31.5-1.2-47.4c0-1.9-0.4-3.1-2.7-3.5c-3.9-0.8-6.2-4.7-5.8-8.2c0.8-4.3,3.9-7,7.8-7c0.4,0,1.2,0,1.6,0
		c0-0.4,0.4-0.8,0-0.8c-6.6-7-5.4-15.5-5.4-23.7c0-5.1,0.4-10.1,0.8-15.5c0-0.8,0.8-1.9,1.2-2.7c0.8,0.4,2.3,0.8,2.7,1.6
		c1.9,2.7,3.5,5.8,5.8,9.3c0.4-1.6,0.8-2.7,0.8-3.5c0.4-6.2,3.9-10.1,8.5-13.2c0.8-0.4,1.9-0.8,2.3-0.4c0.4,0,0.4,1.6,0.8,2.3
		c0.4,3.5,1.2,7.4,1.6,10.9C641.8,336.4,642.6,336.8,643,336.8z M645.3,346.5c-0.8,1.9-1.9,3.9-3.1,5.8c-0.4,0.8-1.9,1.2-2.7,1.6
		c-0.4-0.8-0.8-1.6-0.8-2.7c-1.2-5.1-2.3-10.5-3.5-15.5c-0.4,0-0.8,0-1.2,0c-0.4,0.8-0.8,1.6-0.8,2.3c0,3.9,0,8.2,0.4,12
		c0.8,5.4,3.5,10.5,2.3,16.3c-0.4,1.2-0.4,2.7-0.8,4.3C643.7,370.6,646.9,357,645.3,346.5z M632.1,490.3
		C632.5,490.3,632.5,490.3,632.1,490.3c0.4-0.4,0.8-0.8,0.8-1.6c0.8-21.4,1.9-42.7,2.7-64.1c0.4-10.1,0.8-20.6,0.8-30.7
		c0-0.8-0.8-1.9-1.2-2.7c-0.4,0.8-1.6,1.6-1.6,2.7c-0.4,10.1-0.4,20.6-0.8,30.7c-0.4,14-0.8,28.4-0.8,42.4
		C632.1,475.1,632.1,482.9,632.1,490.3z M618.5,379.1c0,0.4,0,0.8,0,1.2c0.8,0.4,1.6,0.8,2.3,0.8c7.4,0,15.2,0,22.5,0
		c1.2,0,1.9-0.8,3.1-1.6c-1.2-0.8-1.9-1.2-3.1-1.9H643c-7,0-14.4,0-21.4,0C620.8,378,619.7,378.7,618.5,379.1z M624.3,345.3
		c-0.4,0-0.8,0.4-1.2,0.4c0,6.2-0.4,12.8,3.1,18.7c0.8,1.2,1.9,1.9,3.1,2.7c0.4,0.4,1.6,0,1.9,0c0.8-1.9,1.6-3.9,2.7-6.2
		c-1.9,0.8-3.1,1.2-3.9,1.6c-0.4-1.2-0.8-2.3-1.2-3.5C627,354.3,625.9,349.6,624.3,345.3z"/>
	<path fill="#FFFFFF" d="M623.9,292.5c9.7,0,7,1.6,10.1-7c0.8-1.9,1.2-3.9,1.9-5.8c0.4-0.8,1.2-1.6,1.9-1.6c0.4,0,1.2,0.8,1.6,1.6
		c1.2,3.5,2.3,6.6,3.5,10.1c0.8,2.7,2.3,3.5,4.7,3.1c3.5,0,7,0,10.5,0c0.8,0,1.9,0.8,2.7,1.2c-0.4,0.8-0.8,1.9-1.6,2.7
		c-3.1,2.3-6.6,4.7-9.7,7.4c-0.8,0.4-1.2,1.9-0.8,2.7c1.2,3.5,2.3,7,3.5,10.9c0.4,0.8,0,1.9,0,2.7c-1.2,0-2.3,0-3.1-0.4
		c-3.1-1.9-6.2-4.3-8.9-6.2c-1.6-1.2-2.7-1.2-4.3,0c-2.7,2.3-5.8,4.3-8.5,6.2c-0.8,0.8-2.3,0.4-3.5,0.8c0-1.2-0.4-2.3,0-3.5
		c0.8-3.5,1.9-7,3.1-10.1c0.4-1.6,0.4-2.7-1.2-3.5c-3.5-2.3-6.6-4.7-10.1-7.4c-0.8-0.4-1.6-1.9-1.2-2.3c0.4-0.8,1.6-1.6,2.3-1.6
		C619.7,292.5,622,292.5,623.9,292.5z"/>
	<path fill="#FFFFFF" d="M674.1,261c1.6,0.4,3.1,0.8,3.5,1.6c0.4,0.8,0,2.7-0.8,3.1c-1.2,0.8-3.1,1.2-4.3,0.8
		c-1.6-0.8-3.1-0.8-4.7,0c-3.1,1.2-5.8-0.8-6.2-3.9c-0.4-3.5,0-7.4,3.1-9.7c3.1-2.3,6.2-0.8,9.3-0.4c0.4,0,1.2,1.9,1.2,3.1
		C675.2,257.1,674.5,259,674.1,261z M670.6,258.3c-0.8-0.8-1.6-1.6-1.9-1.9c-0.8,1.2-1.6,2.3-2.3,3.5c0,0.4,0.8,1.2,1.2,1.9
		C668.6,260.6,669.8,259.8,670.6,258.3z"/>
	<path fill="#FFFFFF" d="M608.8,261.8c-0.4-2.7-0.8-5.8-0.4-8.5c0-0.8,1.9-2.3,2.3-1.9c1.6,0.8,3.1,1.6,3.5,3.1
		c0.4,1.6-0.4,3.5-0.8,5.4c0,0.8,0,1.6,0,2.3c0.8-0.4,2.3-0.8,2.3-1.2c0.8-1.9,1.2-3.5,1.2-5.4c0-1.6,0-3.1,1.9-3.5
		c1.9,0,2.7,1.6,2.7,3.1c-0.4,4.3-1.6,8.5-5.4,11.3c-1.6,0.8-3.9,1.2-5.4,0.8c-1.6-0.8-2.3-3.1-3.5-4.7
		C608,262.1,608.4,262.1,608.8,261.8z"/>
	<path fill="#FFFFFF" d="M647.2,262.5c-0.4,0.8-0.4,1.9-0.8,2.7c-0.8,0.8-1.9,1.6-2.7,1.2c-0.8,0-1.6-1.6-1.6-2.3
		c0.8-3.1,1.6-6.2,2.7-9.3c0.4-0.8,1.9-1.6,3.1-1.9c0.8,1.2,1.2,2.3,1.9,3.5c0.4-0.8,1.2-1.9,1.9-2.7c0.8-0.8,1.9-1.2,3.1-1.2
		c0.4,0,1.6,1.2,1.2,1.6c-0.4,0.8-0.8,1.9-1.9,2.7c-4.7,2.7-4.7,3.9-0.4,7c0.8,0.4,1.2,2.3,1.2,2.3c-1.2,0.8-2.7,1.9-3.9,1.9
		c-1.2-0.4-1.9-1.9-3.1-3.1c-0.4-0.4-0.4-1.6-0.4-2.3C647.6,262.5,647.6,262.5,647.2,262.5z"/>
	<path fill="#FFFFFF" d="M376.4,370.2c-5.8-4.7-5.4-11.3-5.4-17.9c0-7.8,0-15.2,0.4-22.9c0-1.2,0.8-1.9,1.2-2.7
		c0.8,0.8,1.9,1.2,2.7,1.9c1.9,2.3,3.5,4.7,5.4,7.4c2.7-4.3,3.9-8.2,2.3-12.8c-0.4-1.2,0-2.3,0-3.5c1.6,0.4,3.1,0.4,3.9,1.2
		c4.3,4.3,7.8,8.5,9.7,14.4c0,0.4,0.4,0.8,0.4,1.2c2.3-2.3,4.3-4.7,6.6-7c0.8-0.8,1.9-0.8,3.1-1.2c0,1.2,0.4,1.9,0.4,3.1
		c0,4.7,0,9.3,0,14c0,4.7,0.8,9.3,0,14c-0.4,3.9-1.9,7.4-3.1,11.3c0.8,0,2.3-0.4,3.5,0c4.3,0,7,2.7,7.4,7.8c0.4,3.9-2.3,8.2-5.8,8.9
		c-4.7,1.2-4.7,1.2-5.1,6.2c-0.8,21.4-1.9,42.4-2.7,63.7c-0.8,13.6-1.2,27.2-1.6,40.8c0,1.2,0.8,2.7,1.6,3.5
		c5.1,4.7,5.8,12.8,1.6,18.3c-4.3,5.4-12,6.2-17.9,1.9c-5.1-3.9-6.6-12.4-2.3-17.5c1.9-2.7,2.3-5.1,2.3-8.2
		c-0.8-18.7-1.6-37.7-2.7-56.4c-0.4-8.5-0.8-16.7-1.6-25.3c-0.4-8.2-0.8-16.3-1.6-24.9c0-0.8-0.8-2.3-1.6-2.3
		c-4.3-1.2-7-3.1-7.8-7.8C369.8,375.6,371.7,372.9,376.4,370.2z M379.9,346.5c-0.8,10.1,1.2,21.4,8.2,21.8c1.2-4.7,2.3-9.3,3.1-14
		c0.8-3.5,1.2-6.6,1.2-10.1c0-2.3-0.8-4.7-1.2-7.4c-2.7,6.2-4.3,12-3.1,18.7c0,0.8-0.8,1.9-1.2,2.7c-0.8-0.8-1.6-1.6-1.9-2.3
		C383,353.1,381.4,349.6,379.9,346.5z M378.3,378c0,0.4,0,0.8-0.4,1.2c1.2,0.4,1.9,1.2,3.1,1.2c8.2,0,16.3,0,24.1,0
		c0.8,0,1.9-0.8,2.7-1.2c-0.8-0.4-1.9-1.2-2.7-1.2c-8.2,0-16.3,0-24.1,0C380.3,377.6,379.1,377.6,378.3,378z M402,344.5
		c-0.4,0-0.8,0-0.8-0.4c-0.4,1.9-1.2,3.5-1.6,5.4c-0.8,3.5-1.2,7.4-1.6,10.9c-0.4,1.9-0.8,3.9-4.3,2.7c0.8,1.6,1.2,2.3,1.6,3.1
		c0.8-0.4,1.6-0.8,2.3-1.2C402.8,359.3,402,351.9,402,344.5z M390.4,435.9h0.4c0-14.4,0-29.1,0-43.5h-0.4
		C390.4,406.7,390.4,421.5,390.4,435.9z M391.1,440.9L391.1,440.9c-0.4,6.6-0.4,13.2-0.4,19.8c0,0,0,0,0.4,0
		C391.1,454.1,391.1,447.5,391.1,440.9z"/>
	<path fill="#FFFFFF" d="M370.5,290.9c7.8,0,7.8,0,10.1-7.4c0.8-1.9,1.2-3.9,1.9-5.8c0.4-0.8,1.2-1.6,1.9-1.9
		c0.8,0.8,1.6,1.2,1.9,1.9c1.6,3.5,2.7,7.4,3.9,10.9c0.8,1.9,1.6,2.3,3.5,2.3c3.5,0,7.4,0,10.9,0.4c0.8,0,1.9,0.8,2.7,1.6
		c0.4,0.4-0.8,1.9-1.2,2.3c-3.1,2.3-5.8,4.7-8.9,7c-1.6,1.2-1.9,1.9-1.2,3.5c1.6,3.5,2.7,7,3.9,10.5c0.4,0.8,0,1.9,0,3.1
		c-1.2,0-2.3,0-3.5-0.4c-3.1-1.9-6.2-4.7-9.7-6.6c-0.8-0.4-2.7-0.4-3.5,0c-3.5,2.3-6.6,4.7-9.7,7c-0.8,0.4-1.9,0.8-3.1,0.8
		c0-1.2-0.8-2.3-0.4-3.1c1.2-3.9,2.3-7.8,3.5-11.3c0.8-1.6,0-2.3-1.2-3.5c-3.5-2.3-7-4.7-10.1-7.4c-0.8-0.4-1.6-1.9-1.2-2.3
		c0.4-0.8,1.6-1.6,2.3-1.6C365.9,290.5,368.2,290.9,370.5,290.9z"/>
	<path fill="#FFFFFF" d="M372.5,260.6c2.3-0.4,3.9-0.4,3.5,2.3c-0.4,2.3-2.3,3.9-5.1,3.5c-1.9-0.4-3.9-0.4-5.4,0
		c-3.9,0.4-6.6-1.9-6.2-5.8c0-1.9,0.8-3.9,1.6-5.8c1.6-3.9,4.7-5.1,8.5-3.9c3.5,1.2,4.7,4.3,3.5,8.2
		C372.5,259.8,372.5,260.2,372.5,260.6z M367.4,256.7c-0.4,0-0.8-0.4-1.2-0.4c-1.9,1.2-2.3,2.7-1.6,4.7c0.4,0,0.8,0.4,1.2,0.4
		C366.7,259.8,367,258.3,367.4,256.7z"/>
	<path fill="#FFFFFF" d="M348.4,264.5c-0.4,1.2-1.6,2.7-3.9,1.6c-2.3-1.2-1.6-3.1-0.8-4.7c0.8-1.6,1.9-3.5,2.3-5.4
		c-0.8,0.4-1.6,0.8-2.7,1.2c-0.8,0-1.9,0.4-2.3,0c-0.4-0.4-0.4-1.6,0-2.3c1.2-2.3,3.1-3.5,5.8-3.5c3.1,0,6.2,0,9.3,0.4
		c1.2,0,2.7,1.6,2.7,2.3c-0.4,1.2-1.2,3.1-2.3,3.5c-2.3,0.4-2.3,1.9-2.3,3.5c0,0.4,0.4,1.2,0.4,1.6c0.4,1.9,0.8,4.3-1.6,4.7
		C351.9,266.8,349.9,265.3,348.4,264.5z"/>
	<path fill="#FFFFFF" d="M383.4,261.8c3.1-1.6,4.3-3.9,3.9-6.6c-0.4-1.2,0-2.7,0.4-3.5c0.4-0.4,2.3-0.8,2.7-0.4
		c0.8,0.8,1.9,2.7,1.6,3.5c-0.8,3.1-1.6,6.2-3.5,8.9c-1.9,3.1-5.4,3.9-8.2,2.7c-3.1-1.6-2.7-4.7-2.3-7.4c0-1.9,0.8-3.9-0.4-5.8
		c-1.2-1.6,0.8-2.7,2.3-3.1c2.3-0.4,4.7,1.2,4.7,3.5c0,1.6-0.4,3.5-0.8,5.1C383.8,259.4,383.8,260.6,383.4,261.8z"/>
	<path fill="#FFFFFF" d="M477.8,173.5c1.6,0.8,2.7,1.2,3.9,1.9c1.6,1.2,1.2,2.7-0.8,3.5c-1.6,0.4-3.5,1.2-5.1,1.6
		c-0.8,0-1.9,0-2.3-0.4c-0.4-0.8-0.8-1.9-0.4-2.3C474.3,176.3,475.9,175.1,477.8,173.5z"/>
	<path fill="#080B44" d="M480.9,542.4c-8.9-5.1-18.7-7-29.5-8.2c1.2-2.7,2.3-5.4,3.1-8.5c3.5-9.3,7-19,10.1-28.4
		c0.8-1.6,1.2-2.7,3.5-1.9c5.8,1.6,12,2.7,17.9,4.3c7.8,2.3,15.2,5.1,22.2,9.3c1.6,1.2,2.3,1.9,2.3,3.9c0,12.8,0,25.6-0.4,38.5
		c0,2.7,0,5.8,0,9.7C501.1,552.5,491.4,546.6,480.9,542.4c1.2,0,2.7,0.4,4.3,0.8c4.7,1.2,8.9,1.2,12.4-1.9c8.2-7,10.9-15.5,8.9-25.6
		c-1.2-7.4-8.9-10.9-14-11.3c-5.1-0.4-10.1,3.9-12.4,9.7c-3.5,10.1,1.6,17.5,11.7,18.3c0.4,0,0.4,0.4,0.8,0.4
		c-3.1,2.3-6.6,2.3-8.9-0.8c-1.9-2.3-3.1-1.9-6.6,0.8c-2.3,1.6-1.9,3.5-0.4,5.4C478.2,539.2,479.4,540.8,480.9,542.4z M467.7,533.8
		c0.4-0.4,1.6-1.6,1.9-2.7c3.1-8.9,6.6-18.3,9.3-27.2c0.4-0.8,0.4-2.3,0-3.1c-1.2-2.3-8.2-2.7-10.1-1.2c-1.2,1.2-2.3,2.3-3.9,3.5
		c-1.6,1.6-2.3,3.1,0.4,4.3c0.8,0.4,1.2,1.6,1.2,2.3c-1.9,5.4-3.5,10.9-5.4,16.3C459.5,531.1,461.5,534.2,467.7,533.8z"/>
	<path fill="#FFFFFF" d="M480.9,542.4c-1.6-1.6-2.7-3.1-4.3-4.7c-1.6-1.9-1.9-3.9,0.4-5.4c3.5-2.7,4.7-3.1,6.6-0.8
		c2.7,3.1,6.2,3.5,8.9,0.8c-0.4,0-0.4-0.4-0.8-0.4c-10.5-0.8-15.2-8.2-11.7-18.3c1.9-6.2,7.4-10.1,12.4-9.7
		c5.1,0.4,12.8,3.9,14,11.3c1.9,10.5-0.8,19-8.9,25.6c-3.9,3.1-8.2,3.1-12.4,1.9C483.6,542.7,482.1,542.4,480.9,542.4
		C480.5,542,480.9,542.4,480.9,542.4z M496.8,518.3c0-2.3-1.9-4.3-3.9-4.3c-2.3,0-4.3,2.3-4.3,4.3c0,2.3,1.9,3.9,4.7,3.9
		C495.7,521.8,496.8,520.2,496.8,518.3z"/>
	<path fill="#080B44" d="M571.9,535c-21,1.9-39.3,10.1-56,23.3c0-10.9,0-21.4,0-31.9c1.9-0.4,3.9-0.4,5.4-1.6
		c1.2-0.8,1.6-2.3,2.7-3.5c0.8-1.2,1.6-2.3,2.3-3.1c0.4-0.4,1.9,0.4,1.9,0.8c0,1.2,0,2.7-0.4,3.9c-1.9,3.1-3.9,6.2-5.8,8.9
		c-3.5,5.1-4.3,10.5-2.3,15.9c0.8,2.3,2.3,3.1,4.3,1.9c5.4-2.7,10.5-5.4,15.5-8.5c2.3-1.2,1.9-4.3,0-7.8c-1.6-2.3-3.1-1.6-4.7-0.4
		c-1.6,0.8-3.1,1.9-5.1,2.7c2.7-5.1,7.8-8.9,8.2-15.5c0.4,1.2,0.8,2.3,1.2,3.9c1.6,5.1,3.9,9.7,8.9,12c7.4,3.5,16.7-2.3,16.3-10.5
		c0-3.5-0.8-7-1.2-10.9C566,522.1,569.1,528.7,571.9,535z"/>
	<path fill="#080B44" d="M536.9,515.9c-4.7-9.7-11.3-10.9-20.6-2.7c-0.4,0-0.4-0.4-0.8-0.4c0.8-0.8,1.6-1.9,2.7-2.7
		c5.4-2.7,10.5-5.8,15.9-8.2c5.8-2.7,12-4.7,17.9-7c1.6-0.8,2.7-0.4,3.1,1.6c1.2,3.5,2.7,7.4,3.9,11.3c-3.5-5.4-7.8-10.1-14.8-7.4
		C537.7,502.7,536.5,508.5,536.9,515.9z"/>
	<path fill="#080B44" d="M555.9,524.5c-0.4,0.8-0.8,2.7-1.6,2.7c-1.2,0.4-3.1-0.4-3.9-1.6c-3.5-3.5-5.1-8.2-4.7-13.2
		c0-1.2,1.2-2.7,2.3-3.1c0.8-0.4,2.3,0.8,3.1,1.6C554,514.8,554.8,519.4,555.9,524.5z"/>
	<path fill="#080B44" d="M512.8,433.9c0-15.2,0-30.3,0-45.5c0.4,0,0.8-0.4,0.8-0.4c1.6,1.9,3.5,3.5,4.3,5.8
		c4.7,12.8,4.3,25.6-1.9,37.7c-0.4,1.2-1.6,1.9-1.9,2.7C513.6,434.3,513.2,433.9,512.8,433.9z"/>
	<path fill="#080B44" d="M498.4,433.5c-10.9-7-9.3-40.8,0-46.2C498.4,402.8,498.4,418,498.4,433.5z"/>
	<path fill="#080B44" d="M558.3,425.8c0-1.2,0-1.9,0-3.1c0.4-5.1,0.4-5.4,5.4-4.7c3.5,0.4,6.2,1.6,8.5,4.3c2.7,3.5,1.2,9.3-3.1,10.9
		c-3.1,1.2-6.2,0.8-9.7,1.2c-0.4,0-1.6-1.6-1.6-2.3C557.9,429.6,558.3,427.7,558.3,425.8L558.3,425.8z"/>
	<path fill="#080B44" d="M558.3,395.1c0-6.6,0-6.6,7-6.2c1.6,0,3.1,0.4,4.3,1.2c2.7,1.2,3.1,3.5,3.1,6.2c0,2.7-1.6,4.3-3.9,4.7
		c-1.6,0.4-2.7,0.4-4.3,0.4C558.3,401.7,558.3,401.7,558.3,395.1z"/>
	<path fill="#080B44" d="M573.8,246.6c0.4,3.1-1.6,3.9-3.1,5.1c-0.4,0-1.2,0-1.2-0.4c-0.4-0.4-0.4-1.2,0-1.2
		C570.7,248.9,572.2,247.8,573.8,246.6z"/>
	<path fill="#080B44" d="M511.2,233.4c1.2-1.2,2.3-2.3,3.1-3.1c0.4,0.8,0.8,1.6,0.8,1.9c-0.4,1.2-1.2,2.3-1.9,3.5
		C512.4,234.9,512,234.2,511.2,233.4z"/>
	<path fill="#080B44" d="M466.9,238.4c0.8-1.2,1.6-1.6,1.9-1.9c0.8,1.6,1.9,3.1,2.3,4.7c0,0.4-0.8,1.2-1.2,1.9
		C469.3,241.5,468.1,240,466.9,238.4z"/>
	<path fill="#080B44" d="M534.5,239.2c-0.4-2.7,0.4-4.3,3.5-5.8C539.2,235.3,538,237.3,534.5,239.2z"/>
	<path fill="#080B44" d="M645.3,346.5c1.6,10.5-1.6,23.7-9.7,23.7c0.4-1.6,0.4-2.7,0.8-4.3c1.2-5.8-1.6-10.9-2.3-16.3
		c-0.8-3.9-0.4-7.8-0.4-12c0-0.8,0.4-1.6,0.8-2.3c0.4,0,0.8,0,1.2,0c1.2,5.1,2.3,10.5,3.5,15.5c0.4,0.8,0.8,1.9,0.8,2.7
		c0.8-0.4,1.9-0.8,2.7-1.6C643.7,350.4,644.5,348.4,645.3,346.5z"/>
	<path fill="#080B44" d="M632.1,490.3c0-7.8,0-15.2,0-22.9c0.4-14,0.4-28.4,0.8-42.4c0.4-10.1,0.4-20.6,0.8-30.7
		c0-0.8,1.2-1.9,1.6-2.7c0.4,0.8,1.2,1.9,1.2,2.7c-0.4,10.1-0.4,20.6-0.8,30.7c-0.8,21.4-1.9,42.7-2.7,64.1
		C632.9,489.5,632.9,489.9,632.1,490.3C632.5,490.3,632.5,490.3,632.1,490.3z"/>
	<path fill="#080B44" d="M618.5,379.1c1.2-0.4,2.3-1.2,3.5-1.2c7,0,14.4,0,21.4,0h0.4c1.2,0.8,1.9,1.2,3.1,1.9
		c-1.2,0.4-1.9,1.6-3.1,1.6c-7.4,0-15.2,0-22.5,0c-0.8,0-1.6-0.4-2.3-0.8C618.5,379.9,618.5,379.5,618.5,379.1z"/>
	<path fill="#080B44" d="M624.3,345.3c1.2,4.7,2.7,8.9,3.9,13.6c0.4,1.2,0.8,2.3,1.2,3.5c1.2-0.4,1.9-0.8,3.9-1.6
		c-1.2,2.3-1.9,4.3-2.7,6.2c0,0.4-1.6,0.4-1.9,0c-1.2-0.8-2.3-1.6-3.1-2.7c-3.5-5.8-2.7-12.4-3.1-18.7
		C623.5,345.3,623.9,345.3,624.3,345.3z"/>
	<path fill="#080B44" d="M670.6,258.3c-1.2,1.2-1.9,2.3-2.7,3.5c-0.4-0.8-1.2-1.6-1.2-1.9c0.4-1.2,1.6-2.3,2.3-3.5
		C669.4,256.7,669.8,257.5,670.6,258.3z"/>
	<path fill="#080B44" d="M379.9,346.5c1.6,3.1,3.5,6.6,5.1,9.7c0.4,0.8,1.2,1.6,1.9,2.3c0.4-1.2,1.2-1.9,1.2-2.7
		c-1.6-6.2,0.4-12.4,3.1-18.7c0.4,2.3,1.2,4.7,1.2,7.4c0,3.5-0.4,6.6-1.2,10.1c-0.8,4.7-1.9,9.3-3.1,14
		C381,367.9,378.7,356.6,379.9,346.5z"/>
	<path fill="#080B44" d="M378.3,378c0.8,0,1.9-0.4,2.7-0.4c8.2,0,16.3,0,24.1,0c0.8,0,1.9,0.8,2.7,1.2c-0.8,0.4-1.9,1.2-2.7,1.2
		c-8.2,0-16.3,0-24.1,0c-1.2,0-1.9-0.8-3.1-1.2C378.3,378.7,378.3,378.3,378.3,378z"/>
	<path fill="#080B44" d="M402,344.5c0.4,7.4,0.8,14.8-4.7,21c-0.4,0.8-1.6,0.8-2.3,1.2c-0.4-0.8-0.8-1.6-1.6-3.1
		c3.5,1.2,3.9-0.8,4.3-2.7c0.8-3.5,1.2-7.4,1.6-10.9c0.4-1.9,1.2-3.5,1.6-5.4C401.2,344.5,401.6,344.5,402,344.5z"/>
	<path fill="#080B44" d="M390.4,435.9c0-14.4,0-29.1,0-43.5h0.4c0,14.4,0,29.1,0,43.5C390.7,435.9,390.7,435.9,390.4,435.9z"/>
	<path fill="#080B44" d="M391.1,440.9c0,6.6,0,13.2,0,19.8c0,0,0,0-0.4,0C391.1,454.1,391.1,447.5,391.1,440.9L391.1,440.9z"/>
	<path fill="#080B44" d="M367.4,256.7c-0.4,1.6-1.2,3.1-1.6,5.1c-0.4,0-0.8-0.4-1.2-0.4c-0.8-1.9,0-3.5,1.6-4.7
		C366.7,256.3,367,256.7,367.4,256.7z"/>
	<path fill="#FFFFFF" d="M467.7,533.8c-6.2,0-8.2-2.7-6.6-7.8c1.9-5.4,3.9-10.9,5.4-16.3c0.4-0.8-0.4-1.9-1.2-2.3
		c-2.7-1.2-1.9-2.7-0.4-4.3c1.2-1.2,2.3-2.3,3.9-3.5c1.9-1.9,8.5-1.2,10.1,1.2c0.4,0.8,0.4,2.3,0,3.1c-3.1,8.9-6.2,18.3-9.3,27.2
		C469.3,532.2,468.1,533.4,467.7,533.8z"/>
	<path fill="#080B44" d="M496.8,518.3c0,1.9-1.2,3.5-3.9,3.9c-2.7,0-4.7-1.6-4.7-3.9c0-1.9,2.3-4.3,4.3-4.3
		C495.3,514,496.8,515.5,496.8,518.3z"/>
</g>
</svg>
