<?xml version="1.0" encoding="utf-8"?>
<!-- Generator: Adobe Illustrator 18.0.0, SVG Export Plug-In . SVG Version: 6.00 Build 0)  -->
<!DOCTYPE svg PUBLIC "-//W3C//DTD SVG 1.1//EN" "http://www.w3.org/Graphics/SVG/1.1/DTD/svg11.dtd">
<svg version="1.1" id="Layer_1" xmlns="http://www.w3.org/2000/svg" xmlns:xlink="http://www.w3.org/1999/xlink" x="0px" y="0px"
	 viewBox="0 0 1024 768" enable-background="new 0 0 1024 768" xml:space="preserve">
<g opacity="0.2">
	<path d="M119.9,625.5c0.5-1.2,0.7-2.5,1.5-3.5c2.2-3.4,4-7.7,7.1-9.8c7.5-4.9,15.6-8.9,23.6-13.2c3.5-1.9,5.3-4.2,5.4-8.4
		c0.1-18.3,2.1-36.5,7.8-54c1.9-5.5,4.9-10.6,8.2-15.5c3.2-4.8,7.1-9,9.3-14.8c-2.2,0-4.2,0-6,0c4.8-2.1,6.5-5.3,4.9-10.6
		c-2.5-8.1-4.4-16.3-8.8-23.8c-4.9-8.5-6.7-18.1-7.7-27.8c-1.2-9.9-2.1-19.8-3.4-29.8c-0.6-4.6-1.9-9.1-2.8-13
		c2.6-0.2,4.8-0.5,7.2-0.7c0.4,2,0.7,4.4,1.2,6.9c0.4,1.8,1.1,3,3.3,2.9c2.1-0.1,3.6-0.9,4.1-3c0.4-1.6,0.5-3.3,0.2-4.9
		c-1.2-6.5-2.5-13-3.7-19.5c-4,0.1-5.5,2.7-6.4,12c-2.9-7-1.2-11.4,0.2-24.2c1.2,2.8,2.1,4.7,3.2,7c1.4-0.8,2.7-1.6,4.3-2.6
		c0.4,3.3,0.6,6.3,0.9,9.5c1.3,0,2.2,0,3.5,0c2.8-17.9,1.1-36.4,9.7-53.1c-0.6,6.3-1.1,12.6-1.6,19c-0.7,7-1.6,14-2.2,21
		c-0.2,1.8,0.1,3.5,0.6,5.1c0.5,1.4,1.6,2.6,2.5,4c0.4-0.1,0.7-0.2,1.1-0.4c0.4-1.2,0.6-2.3,0.9-3.6c0.6-2.3,0.1-5.4,4.2-5.4
		c0.7,0,2-2.2,2.1-3.5c1.2-8.5,2.1-17,3.2-25.6c0.2-1.8,0.9-3.4,1.3-5c1.3-6.2,2.6-12.5,3.9-18.4c0.4,0.8,0.7,1.9,1.1,3
		c0.6,1.8,0.8,4.2,3.3,3.7c2-0.4,4.6-1.5,5.3-3c3.3-7,6.7-14,8.8-21.2c3.4-11.8,5.6-23.9,8.6-35.8c2-7.6,5.5-14.5,10.3-20.7
		c2.9-3.7,6.3-4.8,13.2-5c-1.2,0.9-2,1.9-2.9,2.3c-9.7,5.7-12.6,16-16.8,25.3c-1.1,2.3,0.7,6,2.9,6.9c2.8,1.1,4.7,0.2,6.5-3.2
		c2.8-4.9,5.1-10,8.2-14.9c2.5-4,5.4-7.6,8.2-11.3c0.2,0.2,0.6,0.4,0.8,0.5c-1.6,3.3-3.3,6.5-4.9,9.9c0.2,0.2,0.5,0.6,0.7,0.8
		c2-1.4,4.6-2.3,6-4.2c6.2-8.2,11.7-16.8,18-24.7c6.8-8.5,14.2-16.5,21.4-24.6c0.2-0.4,0.7-0.5,1.6-1.1c-1.8,6.2-4.4,11.9-2.2,18.4
		c1.1-0.9,2-1.9,2.9-2.7c6.8-5.8,13.5-11.6,20.4-17.4c7.1-6,15.5-8.2,24.5-8.6c11.1-0.6,22.2-0.4,33,2.7c-13.3-1.2-24.7,5.5-37,8.5
		c-2.2,0.6-4,3-6,4.6c0.2,0.4,0.4,0.8,0.5,1.2c3.6-0.5,7.4-0.8,11-1.5c11.1-1.9,22.1-4.1,33.1-5.6c7.2-0.9,13.7-3.5,19.5-7.6
		c3.4-2.3,6.9-4.6,10.7-7.2c-1.5,5.6,2.2,7.4,5.6,9.3c3.7,2.2,7.7,4.1,11.7,6.2c1.1-6.2,6.2-7.2,11.8-7c6.4,0.4,12.4-1.6,18.6-2.7
		c8.4-1.5,17-1.6,25.6-1.9c14.1-0.4,27.9,2.1,41.2,7.2c2.9,1.1,6.2,1.3,9.2,2c1.5,0.4,2.9,0.8,4.3,1.4c-11.4,1.2-21.9,5.3-32.6,8.9
		c-2.1,0.7-4.4,1.3-6.5,1.8c-3.3,0.6-4.7,2.2-4.4,6.3c14.9,0.8,29.8,1.8,44.9,2.6c-4.3,0.6-8.4,0.8-12.3,1.8
		c-2.2,0.6-4.4,1.9-6.2,3.4c-0.9,0.7-1.4,2.8-1.1,4s1.9,2.6,3,2.8c2.6,0.2,5.3-0.5,8.5-0.8c4.2,4.6,10.6,4.2,17.2,4
		c6.1-0.2,12.3-2.5,18.3-0.6c0.9,0.4,2,0.7,3.6,1.2c-4.4,1.1-8.1,2-11.8,2.9c-0.1,0.4-0.1,0.7-0.1,0.9c1.3,0.9,2.5,2,3.9,2.8
		c5,3,10.6,5.5,14.9,9.2c3.6,3.3,6,8.2,8.8,12.4c0.4,0.6-0.1,1.6-0.1,1.8c-3.5-1.2-6.8-2.8-10.3-3.4c-3.4-0.6-7-0.1-10.5-0.1
		c-0.1,0.4-0.4,0.7-0.5,1.1c2.1,1.5,4.2,3.3,6.4,4.6c9.7,5.3,19.3,10.6,29.1,15.4c3.3,1.6,7.4,1.6,11.1,2.1
		c18.2,2.6,36.4,3.6,54.7,2.5c9.6-0.6,19.3-2.2,28.6-4.9c15.5-4.3,31.2-9.1,46.2-15.1c15.5-6.1,28.4-16.5,39.9-28.5
		c9-9.3,16.1-20.3,22.4-31.6c8.3-14.7,13.7-30.8,17.9-47.1c1.5-5.5,1.1-11.4,1.3-17.2c0.6-14.2,1.2-28.7-2.8-42.5
		c-2-6.8-5.7-13.1-9.3-19.3c-6.2-10.4-14-19.7-22.4-28.5c-4.4-4.7-9.3-8.8-14-13.2c-0.5-0.5-0.9-1.1-1.3-1.8
		c9,5.5,17.4,11.6,24.4,19.4c6.5,7.5,12.5,15.6,18.3,23.8c6.1,8.5,9.6,18.2,10.5,28.5c1.2,12.8,3,25.9,2,38.6
		c-1.4,18.8-8.1,36.4-16.5,53.3c-6.5,13.3-14.5,25.9-24.3,37.1c-12,13.8-25.9,25.7-42.5,33.6c-12.3,5.8-24.9,11-37.6,15.9
		c-5,2-10.7,2.3-16.2,3.4c-7.8,1.5-15.5,3.5-23.5,4.2c-8.3,0.7-16.7,0.4-25.1-0.1c-9.5-0.5-19-0.9-28.2-2.6
		c-13.2-2.3-26.8-3.7-38.3-12c-5.3-3.7-10.6-7.2-14.5-13c-4.3-6.4-13.9-9.3-21.2-7.1c-0.9,0.2-1.9,0.5-2.9,0.5
		c3.4-2.5,7.2-4,11.3-3.9c7.1,0.2,14.1,1.1,21.1,1.6c1.3,0.1,2.7,0.5,3.9,0.2c1.3-0.4,3.3-1.1,3.5-2c0.4-1.5-0.4-3.4-1.2-4.7
		c-0.8-1.2-2.3-1.9-3.7-2.6c-6.8-3.5-13.4-7.1-20.3-10.4c-2.3-1.1-4.9-1.8-7.5-2.3c-6.1-1.3-7.9,2.7-6.5,7.8c0.5,1.8,0.9,3.4,1.8,6
		c-13.4-11.4-28.9-14.1-44.3-16.6c0.8-1.3,2.6-2.8,2.8-4.6c0.2-1.9-0.7-4-1.8-5.7c-1.1-2-2.3-3.9-4-5.5c-3.9-3.6-8.5-3.4-13.1-1.5
		c-5.8,2.3-11.7,3.6-17.3,3.5c2.3-2.2,5-4.6,7.5-7.2c0.7-0.8,1.1-2.8,0.6-3.9c-0.4-0.7-2.2-1.1-3.5-0.9c-2.8,0.2-5.6,0.7-9.1,1.2
		c5.3-2.9,10.4-2.5,15.3-2.8c5-0.4,10,0.1,15.1-0.2c2.9-0.2,5.7-1.1,8.5-2c2.3-0.8,2.9-2.6,2-5c-1.8-4.8-5.6-7.2-10.2-7.5
		c-12.7-0.6-25.4,0.2-37.7,4.1c-3.4,1.1-6.4,3.6-9,6.2c-3.6,3.5-3.3,5.3,0.8,8.4c0.5,0.4,0.8,0.6,1.2,0.8c-0.1,0.2-0.2,0.6-0.4,0.8
		c-6.1-1.9-12.1-3.6-18.2-5.5c-7.7-2.3-14.7-1.9-21,3.7c-1.8,1.5-3.9,2.5-5.8,3.7c-0.2-0.2-0.4-0.5-0.6-0.7c0.4-0.5,0.7-0.8,0.9-1.3
		c2.1-2.9,1.3-6.1-2.2-6.8c-3.3-0.7-6.7-1.2-10-1.1c-6.2,0.2-12.4,0.7-18.6,1.3c-1.3,0.1-2.8,0.4-3.6,1.1c-3.6,2.9-7.7,3-12,3.4
		c-7.4,0.7-14.6,1.9-21.9,2.8c-1.4,0.2-2.8,0.2-4.2,0.4c-2.9,0.2-5.4-0.2-5.5-3.7c-5.1,0.2-8.2,3.6-10.5,7.5
		c-5.5,8.9-8.2,19.8-18.6,25.3c1.2-1.6,2.3-3.3,3.6-4.9c3.2-3.6,2.3-8.3-1.9-10.4c-1.1-0.6-2.8-0.7-4-0.4
		c-7.5,2.3-15.3,7.5-15.8,20.7c-0.1,3.2-0.8,6.2-1.3,9.9c-2.5-3.4-5.4-4.2-8.9-4c-3.5,0.2-6.3,1.3-8.6,4c-2.3,2.8-4.7,5.5-7.1,8.2
		c-2.3,2.6-4.9,5.1-7.4,7.8c-1.3,1.4-2.5,3-3.4,4.7c-4.9,8.4-9.9,16.7-14.5,25.1c-1.4,2.6-1.9,5.7-2.5,8.6
		c-1.2,6.7-2.2,13.4-3.4,20.2c-0.7,3.9,0.5,7.4,3.3,8.6c0.9,0.5,2.1,0.6,3.2,0.6c3.4-0.1,6.7-0.4,10-0.6c0.1,0.2,0.1,0.6,0.2,0.8
		c-3.9,1.5-8.2,2.5-11.4,4.8c-3.3,2.2-5.7,5.7-8.8,8.9c0-7.4,0.1-14.5-0.1-21.7c-0.1-2.2-0.1-5.1-2.9-5.5c-1.9-0.2-4.3,0.8-5.6,2.1
		c-1.9,1.9-3.2,4.4-4.3,6.9c-3.7,7.8-3.4,16.5-4.2,24.9c-1.2,13.4-0.6,27-3.6,40.1c-0.1,0.2-0.2,0.4-0.2,0.6
		c-0.7-9-7.5-19.4-14.4-21.5c0.4,2.8,0.8,5.5,0.8,8.2c-0.1,2.1-0.4,4.4-1.3,6.2c-1.6,3.2-2.1,6-0.9,9.3c2,5.6,3.7,11.3,5.1,17.2
		c0.8,3.4,1.1,7.1-1.5,10.4c-0.6-2.9-0.9-5.7-1.8-8.3c-1.2-3.5-4.8-4.7-7.6-2.6c-0.8,0.7-1.6,2.1-1.6,3.2
		c-0.2,5.7,2.1,10.4,5.8,14.5c5.5,5.8,6.1,12.1,4.3,20.5c-1.8-8.2-3.9-15.8-10.6-21c-0.5,0.5-0.8,0.6-0.7,0.7c0.9,8.4,2,16.7,7.1,24
		c5.4,7.7,9.8,15.9,10.5,25.7c0.4,5,1.6,6,6.7,4.6c2.2-0.7,4.4-1.8,6.7-2.7c2.6-1.2,4.2-3.2,4.1-6.2c-0.1-3.2-1.8-5.3-4.8-6.3
		c-0.5-0.2-0.9-0.5-1.5-0.7c5.6-2.5,10-2.1,12.4,2c1.3,2.2,0.9,5.6,0.9,8.4c-0.1,3.5-0.9,7-0.9,10.5c0.1,4,2.8,6,6.4,6.5
		c2,0.4,4,0.7,7.1,1.3c-5.5,1.5-4.8,5-4.3,8.2c0.7,4.4,2.1,8.6,6.1,11.6c1.1,0.8,1.8,2,2.3,2.5c-2,0.8-5,1.4-5.1,2.3
		c-0.2,2.3-0.1,5.7,1.3,7.1c4,4,8.8,7.5,13.4,10.9c2.9,2.1,5.6,0.4,5.7-3.3s0-7.1,0-11.2c0.6,2.5,1.6,4.6,1.6,6.7
		c-0.1,9.3,1.2,18.4,6.1,26.7c-0.2,0.1-0.5,0.2-0.7,0.5c-0.8-1.1-1.6-2.3-2.7-3.3c-4.4-4.3-8.6-9-13.3-12.8c-3.7-3-8.6-4.7-12.4-7.6
		c-2.1-1.6-3.7-4.6-4.4-7.2c-1.2-4.4-2.8-8.3-6.9-9.8c1.1-2.9,2.3-5.5,2.7-8.2c0.2-1.6-0.5-4-1.6-4.9c-3-2.5-5.8-5.7-10.5-4.3
		c-4,1.2-5.8,3.7-4.6,7.8c0.9,2.8,2.6,5.1,4.1,7.7c1.2,1.9,2.6,3,2.1,6.1c-0.6,3.6,0.1,8.4,2.1,11.6c5.7,9.1,12.3,17.7,18.4,26.5
		c1.6,2.2,3.4,4.3,4.9,6.5c1.3,2,3,2.8,4.9,1.8c1.5-0.8,2.6-2.6,3.6-4c0.4-0.5,0.2-1.2,0.6-2.8c2.3,7.8,7.5,12.8,11.8,18.2
		c3.5,4.4,7.5,8.4,11.6,12.4c1.2,1.2,3.3,1.6,4.9,2.6c1.5,0.9,2.9,2.1,5.1,3.7c-2.9,0.1-4.9,0.2-7,0.4c-1.1,3,0.7,5.3,2,7.6
		c4.7,8.6,13.1,12.8,20.7,18c4,2.8,7.9,5.3,12.3,7.6c1.5,0.8,3.9,0.9,5.5,0.4c1.2-0.4,1.8-2.5,2.6-3.7c2.6,2.1,5.6,4.9,8.9,7.4
		c4.8,3.4,10.2,4.9,16,3.2c3.5-1.1,5.1-3.6,4.8-7.1c-0.5-3.6-3.3-6.8-6.4-7c-1.3-0.1-2.6,0-3.9,0c2-2.7,5-4.2,7.5-2.5
		c6.7,4.6,14.7,3.5,21.8,6.1c6.4,2.3,12.7,4.9,19.1,7.5c0.5,0.2,0.7,0.6,1.8,1.6c-10.3-4.4-20-2-29.6-1.4c-0.7,0.1-1.5,0.4-2.2,0.6
		c-2.1,0.6-5.1-0.4-5.5,3.3c-0.5,4.2,0.7,5.8,4.4,7.7c4.6,2.2,8.9,4.8,14.1,7.6c-2.2,0.6-3.4,0.9-4.7,1.2c3.7,5.1,16.2,9.9,26.7,10
		c-6.3-4.4-12-8.4-17.7-12.3c6.4,2.5,13,0.1,19.5,0.1c17.3,0,33.7-4.8,50.4-8.1c5-0.9,10.4-0.9,15.5-0.4c4.7,0.6,7.8-0.8,10.7-4.3
		c4.3-5,8.8-9.9,13.7-14.5c3.7-3.6,4.6-3.5,8.4-3c-1.8,1.8-3.7,3.7-5.7,5.7c-2.5,2.3-5.1,4.4-7.2,7c-2,2.5-3.3,5.4-5,8.1
		c-0.6,0.9-1.5,1.9-2.6,2.3c-6.9,3.4-12.1,8.1-14,15.8c-0.8,3.6,1.2,7.5,4,7.7c1.5,0.1,3-0.2,4.9,0.5c-1.2,0.6-2.3,1.3-3.6,1.6
		c-3.3,0.7-5.8,3.5-6.3,6.9c-1.6,10.3,2,18.4,9.1,25.6c6.3,6.3,13,12.4,21.8,14.2c8.3,1.8,16.8,1.8,23.7-4.3
		c1.9-1.6,3.5-4.9,3.3-7.4c-0.1-2.5-2.6-4.8-5.7-5c-1.1-0.1-2.3,0.1-3.3,0.6c-2,1.2-3.9,2.7-5.8,4c-0.2-0.2-0.6-0.5-0.8-0.7
		c1.6-1.9,3-3.9,4.8-5.6c2.1-1.9,4.4-1.6,6.8,0.1c3.2,2.2,6.5,4,9.8,6c5.1,3,10.3,0.8,15.4-0.4c11.7-2.9,20.5-9.7,27.2-19.6
		s15.3-17,25.9-22.3c10.3-5.1,19.5-11.9,25.4-21.8c4-6.7,6.9-14.1,9.8-21.2c3.6-8.9,4.7-18.2,3-27.5c-1.2-6.5-5.5-11.8-11.8-14.7
		c-1.5-0.7-2.9-1.3-3.5-1.5c0.7-5.6,2.1-10.5,1.9-15.5c-0.5-6.7-2.5-13.2-3.3-19.8c-2.6-18.9-11.8-34.5-23.3-49.1
		c-2.5-3.2-6.3-5.1-9.7-7.7c-2.6-2-5-4.2-7.8-5.8c-2.8-1.6-6-2.9-8.3-4.1c6.9,0.5,13.9,3,20.2,7.4c3.2,2.1,6.4,2.6,9.9,2.1
		c11.1-1.3,22.2-2.9,33.3-4.2c16.5-1.9,32.2-6.3,47.7-11.8c0.4-0.1,0.8-0.2,1.4,0.2c-5.5,3.9-11,7.8-16.5,11.8
		c0.1,0.4,0.4,0.7,0.5,1.1c6.4-1.1,12.8-2.1,19.8-3.3c-2.7,1.8-5,3.3-7.4,4.8c0.1,0.4,0.2,0.6,0.2,0.8c2.2-0.1,4.6-0.2,7.6-0.4
		c-3.5,3.7-6.5,7.1-9.7,10.5c0.2,0.4,0.4,0.6,0.6,0.8c5.5-1.2,10.9-2.5,16.3-3.6c0.1,0.1,0.2,0.4,0.2,0.5c-9,5.6-18,11.2-26.8,16.8
		c0.1,0.4,0.2,0.7,0.5,0.9c3.7-0.6,7.5-1.3,12.3-2.1c-5.5,4.7-10.2,8.9-14.9,13c0.2,0.4,0.4,0.6,0.5,0.8c9.6-3,19.1-6.1,28.7-9.1
		c0.1,0.1,0.1,0.4,0.2,0.5c-11.7,6.2-23.3,12.4-34.9,18.6c0.1,0.4,0.4,0.6,0.5,0.9c30.6-13.2,61.2-26.4,91.7-39.7
		c0.1,0.2,0.2,0.4,0.5,0.6c-6.3,7.1-12.6,14.2-18.8,21.4c0.2,0.4,0.5,0.7,0.6,1.1c5.1-2.6,10.3-5,16.3-8.1c-2.1,3.4-3.9,6.1-5.5,8.8
		c0.2,0.2,0.4,0.4,0.5,0.6c3.2-2.3,6.3-4.6,9.5-7c9.2-7.1,18.7-14,27.4-21.7c6.4-5.6,11.8-12.5,18-18.6c14.4-14.5,26-31.2,37.3-47.8
		c9.6-13.9,18-28.6,26.8-42.8c14.5-23,24-48.2,33.4-73.5c6.9-18.8,12.5-37.9,15.8-57.5c3.3-19.6,6-39.3,6.2-59.3
		c0.2-12.6-3.6-24.2-5.3-36.3c-2-14-8.3-26.5-14-39.2c-5.3-11.6-11.1-23-17.2-34.2c-9.3-16.7-21-31.4-34.2-44.8
		c-4.1-4.2-9-7.5-13.3-11.7c0.6,0.2,1.2,0.5,1.8,0.8c2.6,1.8,5.3,3.5,7.8,5.3c14.5,9.3,25.1,22.3,33.8,36.9
		c11.9,19.8,23.7,39.7,33.5,60.6c2.3,4.9,3.2,10.5,4.6,15.9c1.5,6,3.2,11.8,4.2,17.7c1.2,6.5,2.2,13.3,2.5,20
		c0.6,16.3,0.1,32.7-2.5,48.9c-3.5,22.3-8.4,44.3-15.2,65.7c-5.6,17.9-13.5,34.9-20.7,52.2c-3.2,7.7-6.3,15.4-10,22.6
		c-6.7,13-13.7,25.8-21.1,38.3c-8.2,13.7-16.3,27.4-26,39.9c-11.3,14.7-23.9,28.6-36.6,42.1c-6.5,7-14.7,12.3-21.8,18.7
		c-21.2,19.6-47,32.4-71,48.1c-16.5,10.7-33.1,21.4-49.6,32.2c-6,3.9-9.6,9.9-11.2,16.7c-3,12.3-6.2,24.3-11.7,35.6
		c-0.9,1.9-2.2,3.7-3.6,5.4c-9.1,11-20.4,19-32.8,26c-5.6,3.2-10.5,7.4-14.5,12.8c-8.8,12.3-20.3,20.7-34.8,25.1
		c-4.6,1.3-9,3.3-13.4,4.9c-5.6,2.1-11.2,4.1-16.8,6.2c-1.1,0.5-2.1,0.9-3.2,1.5c-3.9,0-7.8,0-11.8,0c-1.9-0.7-3.9-1.3-5.7-2.1
		c-13.4-6.3-22.8-16.5-27.7-30.6c-2-6-2.3-13.9,3.6-17.9c-5.6-3.2-6.7-7.8-5.3-13.7c0.9-3.7,0.4-4.7-3.5-5.4
		c-5.8-1.2-11.4-0.2-17,1.6c-6.1,2-12,4.3-18.2,6.3c-1.5,0.5-3.3,0.5-4.9,0.7c-0.1-0.2-0.1-0.5-0.1-0.6c3.9-2.1,7.8-4.1,11.7-6.2
		c-0.1-0.4-0.2-0.7-0.4-0.9c-9.5,1.2-18.9,2.5-28.5,3.7c9.7,10.4,20.8,16,35.7,12.5c-6,6.1-12.7,6.2-19.5,4.8
		c-7.1-1.4-14.1-3.5-21.1-5.5c-4.2-1.1-8.2-3.2-12.4-3.5c-5.6-0.6-9.9-2.8-13.9-6.3c-0.9-0.8-2.3-1.1-3.5-1.4c-4-1.1-7.9-2-11.8-3.4
		c-1.2-0.5-2-2.3-2.9-3.6c0.2-0.2,0.5-0.4,0.7-0.6c0.2,0.2,0.6,0.4,0.8,0.6c1.2,0.9,2.3,3,3.9,1.1c0.5-0.6-0.6-3.3-1.6-3.9
		c-3.2-2-6.5-4-10.2-5.1c-8.2-2.9-16.6-5.1-24.9-7.8c-3.4-1.1-7.5-1.9-9.8-4.2c-4.4-4.2-9.8-5.6-15.3-7.4c-4.4-1.5-8.6-3.7-12.8-5.6
		c0.1-0.4,0.2-0.7,0.4-1.1c0.9-0.1,1.9,0,2.8-0.2c1.4-0.5,2.3-1.4,1.3-2.9c-1.8-2.2-3.3-4.7-5.5-6.2c-4-2.8-7.7-5.5-10.4-9.7
		c-2.2-3.4-4.4-7-7.4-9.6c-5-4.4-10.6-8.1-15.8-11.9c0.1-0.1,0.9-0.5,2.5-1.4c-1.5-1.3-2.5-2.8-3.9-3.2c-0.7-0.2-2.1,1.5-2.8,2.6
		c-1.3,2.1-2.3,4.4-3.4,6.7c-3.7,8.6-5.5,16.9,1.1,25.4c2.5,3.3,4.2,8.3,3.6,12.1c-0.7,5.8-3.5,11.6-5.8,17.2
		c-2.2,5.3-5.5,10.2-7.1,15.6c-2,6.7-5,12.3-11,16c-0.6,0.5-1.3,0.8-1.8,1.4c-2.3,2.6-5.3,3.7-8.8,3.5c-3.5-0.2-6.3-1.4-6.7-6
		c-3.9,6.4-9.6,5.7-15.2,5.3c-3.5-0.4-7.1-1.2-10.6-1.6c-5.3-0.6-7.9-3.7-9-8.8c-0.7-3.3-1.8-6.5-2.8-9.7c-0.7-2.2-2-3.6-4.8-3.5
		c-1.9,0.1-3.7-0.4-5.5-0.8c-7.2-2.5-11-8.3-13-15.2c-0.9-3.2-1.5-6.4-2.2-9.7C119.9,631.5,119.9,628.5,119.9,625.5z M181.5,659.8
		c5.5,4.4,11.6,8.3,19.4,8.3c0.8,0,2-0.2,2.3-0.7c2.1-2.5,4.2-5,5.8-7.8c2.8-5,5.1-10.3,7.8-15.4c3.6-6.8,4.6-13.9,1.9-21.1
		c-1.8-4.9-4.3-9.7-6.7-14.2c-0.5-0.8-2.1-1.5-3.3-1.5c-9.8,0.2-19.5,0.2-28.9-3.3c-6.5-2.3-13.1-2.8-19.5,0.9
		c-1.5,0.8-3.7,1.5-5.3,0.9c-6.2-2.1-11.6,0.5-16.9,2.6c-8.4,3.4-12.7,9.1-11.9,17.4c0.7,8.1,2.2,16.1,3.7,24
		c0.5,2.1,2.3,4.2,4.1,5.5c6.3,4.9,13.2,4,20.1,1.6c2.2-0.8,3.6-0.9,5.1,1.2c2.5,3.4,6.2,5.1,10.3,4.6
		C173.7,662.4,177.4,660.8,181.5,659.8z M184.9,509.2c-1.2,1.4-1.8,2.1-2.3,2.9c-2.6,3.6-5,7.5-7.7,11c-5.3,6.7-7.1,14.4-8.2,22.6
		c-1.2,9.7-3.2,19.3-4.9,28.8c-1.2,6.1-2.8,12-4,18.1c-0.9,5,1.3,7.5,6.4,7.5c5.6,0,11.2-0.4,16.7,0.4c7.6,0.8,15.3,2.5,22.9,3.5
		c6.4,0.9,9.1-0.4,11.2-4.8c2.1-4.3,4.2-8.6,6.1-13c1.4-3.3,1.9-6.3-0.5-9.8c-5-7.7-10-15.5-14.2-23.8c-4.7-9.3-7.9-19.3-12.5-28.7
		C191.6,518.9,188.1,514.5,184.9,509.2z M639.1,576.6c-0.1-0.1-0.2-0.2-0.4-0.4c11.3-7,22.5-13.9,33.7-20.8
		c-0.2-0.4-0.4-0.6-0.5-0.9c-10.6,4.6-21.4,9.2-32,13.8c-0.1-0.1-0.1-0.2-0.2-0.4c3.6-2.1,7.2-4.1,10.9-6.2
		c-0.1-0.2-0.2-0.5-0.4-0.7c-9.2,3.5-18.6,6.9-27.9,10.4c-0.1-0.1-0.1-0.1-0.1-0.2c1.2-0.7,2.2-1.5,3.4-2.2
		c-6.1,1.8-11.8,4.2-17.4,6.5c-0.7,0.4-1.3,1.4-1.5,2.2c-0.4,1.9-0.6,3.9-0.6,5.8c0,0.9,0.5,2.1,1.1,2.8c2,2.5,4.3,4.6,6.2,7.1
		c1.5,2,2.7,2.2,4.8,0.9c26.1-15.4,52.3-30.7,78.5-46.1c0.7-0.5,1.5-1.1,2.1-1.5c-0.1-0.2-0.2-0.5-0.4-0.6
		C679,556.3,659,566.4,639.1,576.6z M182.5,676.6c3.4,5.5,4.6,6.4,8.3,5.8c5.6-1.1,9.6-4.4,12.4-9.3c0.8-1.5,0.4-2.6-1.5-2.6
		c-5.8-0.1-11.1-2.3-16.1-4.8c-2.8-1.3-5.5-1.2-8.5-0.9c-4.6,0.4-9.8,0.8-13.7-0.9c-5.5-2.5-10.4-3-16.3-1.3c0.2,2.9,0.2,6,0.8,8.9
		c1.5,6.5,5.6,9.9,12.3,10.6c2.1,0.2,4.1,0.6,6.2,0.7C172.6,683.2,178.7,683.1,182.5,676.6z M656,546c-0.1-0.1-0.2-0.2-0.2-0.4
		c13.8-6.5,27.4-13.2,41.2-19.7c-6.9,2-13.5,4.6-20.2,7.2c-14.7,6-29.3,12.1-44.2,17.9c-8.3,3.2-17,5.4-25.4,8.2
		c-0.9,0.4-2.3,1.3-2.3,2c0.1,2.7,0.7,5.3,1.2,8.5c24-10,47.7-19.8,71.3-29.8c-0.1-0.2-0.2-0.5-0.2-0.7
		C669.9,541.5,663,543.8,656,546z M600.2,546.8c13.8-6,26.7-11.7,39.7-17.4c-0.1-0.2-0.2-0.5-0.2-0.7c-7,1.9-14,3.9-20.9,5.7
		c0-0.1-0.1-0.1-0.1-0.2c2-1.1,4-2.1,6-3.2c-0.1-0.2-0.2-0.4-0.2-0.6c-4.3,0.9-8.6,1.8-13,2.7c-0.1-0.1-0.1-0.2-0.1-0.4
		c7.5-3.2,14.9-6.3,22.6-9.6c-0.6-0.2-0.8-0.5-0.9-0.4c-11.1,3.5-22.2,7-33.3,10.6c-0.6,0.2-1.4,1.2-1.3,1.8
		C598.9,538.9,599.6,542.6,600.2,546.8z M584.7,505.5c2,4.2,3.6,7.8,5.5,11.7c15.6-5.4,31.4-10.7,47-16.1c-0.1-0.2-0.1-0.5-0.2-0.7
		c-8.9,2.2-17.9,4.4-26.7,6.5c0-0.1-0.1-0.2-0.1-0.4c1.4-0.7,2.8-1.4,4.2-2.1c-0.1-0.2-0.1-0.4-0.2-0.6c-5.1,0.7-10.4,1.4-16.1,2.1
		c2.7-1.2,4.9-2.2,7.1-3.2c-0.1-0.2-0.1-0.5-0.2-0.7C598.4,503.3,591.7,504.5,584.7,505.5z M648.3,513c-0.1-0.4-0.2-0.6-0.4-0.8
		c-18.2,3.6-36.4,7.4-55,11.1c0.8,2.2,1.4,3.9,2,5.6C613.1,523.5,630.7,518.2,648.3,513z"/>
	<path d="M747.2,371.1c-8.5,6.4-16.8,12.7-25.4,19.3c-1.6-4.2-3-8.2-4.6-12c-2.3-6.4-4.7-12.8-7-19.4c-0.8-2.2-2-3.9-4.6-3.2
		c-2.3,0.6-4.8,1.6-4.4,4.8c0.4,3.3,0.8,6.4,1.6,9.6c6.1,23.6,17.2,45,27.7,66.9c1.5,3.3,3.2,6.4,5.1,9.3c1.2,1.8,3,3.2,4.9,4.1
		c2.7,1.5,6.7-2.3,6.1-6c-0.4-1.9-1.1-3.7-2-5.5c-4.2-8.2-8.4-16.2-12.5-24.4c-0.5-0.9-0.7-2.9-0.2-3.4c8.1-7.6,16.3-15.1,25.1-23.1
		c5.5,10.3,10.6,20.1,15.8,30.1c0.7,1.3,0.8,2.9,1.1,4.4c2.6,19.7-1.8,37.5-14.9,52.9c-5.3,6.1-11.4,11.1-18.7,13.8
		c-7.6,2.8-16.5,2.3-23.5-4.9c-9.3-9.6-15.4-20.8-20.7-32.9c-9.9-22.5-17.7-45.6-22.9-69.7c-2.8-12.8-1.1-25.1,8.6-34.9
		c8.4-8.5,19-13,30.6-15.1c7-1.3,13.1,1.3,18.8,5c1.1,0.7,1.9,2.1,2.5,3.4C738.1,350.8,742.6,360.8,747.2,371.1z"/>
	<path d="M794.3,407.7c-6.4-0.5-11.7-2.6-15.1-7.6c-5.1-7.6-10.4-15.1-14.6-23.1c-6.1-11.4-11.8-23.1-16.6-35
		c-6.1-15.3-1.2-28.6,9.6-40c3.9-4.2,8.6-7.6,13.1-11.3c4-3.3,8.6-4.3,13.4-2.3c2.1,0.9,4.2,2.8,5.5,4.8c8.2,12.4,16,24.9,24,37.3
		c3.7,5.7,7.4,11.4,9.5,18.2c3.5,11.4,2.1,22.5-2,33.5c-2.8,7.4-6.8,13.9-12.7,19.1C804.3,404.9,799.6,407.4,794.3,407.7z
		 M766.1,314.1c0.9,2.9,1.3,5.3,2.3,7.5c3,6.2,6.1,12.4,9.6,18.2c6.5,11.2,11.7,23.5,21.1,32.8c1.2,1.2,2.9,2,4.3,2.9
		c0.7-1.9,1.8-3.6,2.1-5.5c0.2-1.1-0.6-2.5-1.3-3.5c-1.8-2.6-3.6-5.1-5.4-7.7c-9.3-14.6-18.4-29.4-25.8-45.3
		c-0.6-1.3-2.7-2.6-4.1-2.6C767.9,310.7,767,312.9,766.1,314.1z"/>
	<path d="M808.8,246.1c5.7,6.9,11.1,13.5,16.6,20.2c0.4-0.2,0.8-0.6,1.2-0.8c-3.2-6.9-6-13.9-9.6-20.5c-2.8-5.1-3.3-9.6-0.1-14.7
		c2.7-4.4,4.6-9.3,6.8-14.2c4.6,6.5,9,12.7,13.2,19c7.8,11.7,16.9,22.1,26.7,32.1c1.5,1.6,2,3,1.3,5.1c-1.5,5.1-2.8,10.3-4.3,16.3
		c-8.3-9.5-16.2-18.4-24.2-27.4c-0.2,0.1-0.4,0.1-0.5,0.2c1.4,2.6,2.6,5.3,4.2,7.6c5.4,8.2,10.9,16.3,16.5,24.4c1.3,2,1.9,3.6,0.9,6
		c-1.5,3.7-2.6,7.6-4,11.7c-11.9-8.2-21.9-18.3-31.6-28.7c-0.2,0.2-0.5,0.4-0.7,0.6c3.9,5.6,7.5,11.3,11.7,16.6
		c4.7,6,9.9,11.6,15.1,17.3c1.6,1.9,2,3.4,0.9,5.7c-2.8,6.3-5.3,12.8-8.2,20c-4.8-5.7-9.6-11-13.8-16.5
		c-13.1-17-24.3-35.4-33.3-54.9c-0.8-1.9-0.6-2.9,0.6-4.6c4.8-6.3,9.2-12.8,13.8-19.4C808.2,246.9,808.4,246.4,808.8,246.1z"/>
	<path d="M319.7,418.9c4-5,9.2-7,14.4-8.1c5.8-1.3,11.9-2.2,17.6,0.6c3.3,1.6,6.4,4,9.1,6.5c2.3,2.2,1.1,8.4-1.9,12
		c-5.7,7.1-13.3,11.1-22.1,12.8c-13.9,2.8-27.8,3-41.4-0.5c-8.9-2.2-15.8-8.4-19.7-16.8c-4.4-9.3-7-19.3-3.7-29.6
		c0.5-1.5,0.9-3.2,1.9-4.4c5.1-7.7,10.4-15.3,15.5-23c0.5-0.8,0.6-2.6,0-3.2c-7.9-9.7-8.6-20.8-1.4-30.9c0.8-1.2,1.6-2.3,2.9-4.3
		c-1.2,3.9-2.3,7-2.8,10c-0.5,3.3-0.9,6.9-0.2,10c0.7,3.2,2.8,6,4.6,9.5c0.6-5.7,0.6-11,1.8-15.9c1.6-6.7,3.9-13.1,6.3-19.5
		c0.7-2,2.8-3.5,4.7-5c-5.5,14-7.2,28.5-5.7,43.9c2.5-1.3,4.8-2.3,7.1-3.7c0.4-0.2,0.5-1.1,0.5-1.8c-0.1-3.9-0.1-7.8-0.6-11.7
		c-0.6-6,4.8-11.9,10.6-12.1c0.8,0,1.8-0.4,2.6-0.5c3.5-0.5,6.4,0.1,9.1,2.9c3.6,4,5,3.6,7.6-1.2c4.4-8.6,3.9-17.4,0.7-26.1
		c-0.6-1.8-1.5-3.3-2.2-5.1c9,1.5,9.6,4.6,10.7,13c0.9,6.7-0.6,13.2-3.9,19.3c-3.2,5.8-6.3,11.7-9.5,17.5c-0.6,1.1-1.1,2.1-1.5,3.3
		c-1.9,4.8-1.1,6.8,3.6,8.6c0.6,0.2,1.6-0.1,2.3-0.5c1.9-0.9,3.5-2.2,5.4-3.2c4.7-2.3,8.6-1.6,12.6,2.3c-1.1,1.8-2.5,2.9-4.4,1.5
		c-2.5-1.9-5-2.6-7.8-0.8c-2.9,1.9-2.9,5.1-3.2,8.1c-0.1,1.9,0.2,3.7-0.4,6c-1.3-1.8-2.5-3.4-3.9-5c-4.2-5-8.6-10-15.5-11.1
		c-2.6-0.5-5.7-0.5-7.9,0.6c-5.1,2.5-10.3,5.3-14.9,8.6c-4.7,3.5-8.9,7.7-13.1,11.8c-4.1,4-6.2,9.3-6.5,14.6
		c-0.7,10.9-0.8,22.1,7.1,30.8c2.2,2.5,5,4.8,7.9,5.8c14.9,4.7,30.2,5.5,45.5,2.6c6-1.1,10.9-4.6,14.4-9.9c4-6.1,0.1-10.5-4.3-12.3
		c-6.2-2.5-12.4-1.5-18.6,0.4C326.2,416.7,323.2,417.7,319.7,418.9z"/>
	<path d="M435.8,573.5c5.5-0.1,9.9-2.2,13.2-6.7c2.5-3.4,5.6-6.2,10-6.5c2-0.2,2.8-1.3,2.5-3.3c-0.4-3.6,0.7-7.5-2.9-11
		c-3.7,2-7.7,4.2-11.6,6.2c-2.6-1.8-5.5-3.6-8.2-5.5c5.5,0.4,11-0.8,15.5-4c4.8-3.4,6.7-9,8.9-14.2c0.8-2,1.4-4,2.5-6
		c0,5.8,0.1,11.7,0,17.5c-0.2,9.7,2.3,18.7,6.1,27.4c2.1,4.8,4.7,9.3,6.7,14.1c3.5,7.9,9.8,13.2,16.2,18.8
		c9.6,8.2,20.8,11.1,32.7,12.5c9.1,1.1,18.2,1.9,26.7,2.7c-4.7,1.4-9.7,3.2-14.8,4.3c-4.8,1.2-7.8,4.6-9.9,8.4
		c-4.1,7.5-6.5,15.6-6.8,24.3c-0.2,8.1-0.2,16.1-0.9,24.2c-0.5,4.3-2.2,8.5-3.9,12.8c1.5-22.5-9-38.3-28.6-49.7
		c9.7,0.9,18.2,1.3,25.8-3.9c4.1-2.8,7.7-6,9.3-11c0.8-2.6,0.4-4.4-2.5-5.4c-2.6-0.8-5.1-1.9-7.7-2.5c-14.5-3.4-25.6-11.7-34.7-23.1
		c-3.4-4.3-6.4-8.8-9.8-13.1c-0.7-0.9-2.3-1.9-3.4-1.8C455.5,580.5,445.8,576.6,435.8,573.5z"/>
	<path d="M717.1,295.7c-13.2,6.1-26.5,12.3-39.7,18.3c-0.5,0.2-1.1,0.4-1.5,0.6c-7.5,4.8-15.4,4-23.6,3c-9.3-1.1-18.8-1.6-28.2-2.2
		c-2-0.1-4,0.7-6.1,0.9c-1.9,0.2-3.3,1.2-2.6,2.8c0.7,1.6,2.3,3.5,3.9,4c3.2,0.9,6.7,0.9,10,1.4c0,0.5-0.1,0.9-0.1,1.5
		c-9,0.6-18.1,1.2-27.1,1.6c-1.1,0.1-2.2-1.3-3.2-2.3c-3.3-3.7-6.1-7.9-9.6-11.4c-7.2-7-16.7-8.5-26.1-9.7
		c-10.2-1.3-20.2-1.1-30.1,1.2c-2.8,0.7-5.6,1.8-8.4,2.6c-0.2-0.2-0.4-0.5-0.5-0.7c3.3-2,6.3-4.6,9.9-5.8
		c14.4-5.3,29.4-5.6,44.5-4.7c9.6,0.6,19.1,3,28.6,4.8c13.1,2.3,26,5.3,39.1,7.1c5.4,0.8,11.1,0.1,16.6-0.6c8.9-0.9,17.7-2,26.4-3.7
		c6.1-1.3,11.9-4,17.9-6.1c3.2-1.1,6.3-2.3,9.3-3.5C716.8,295.1,716.9,295.3,717.1,295.7z"/>
	<path d="M848.3,211.5c0.9-3.3,1.8-5.7,2.6-8.8c2.3,2.6,4.4,4.7,6.3,7.1c0.6,0.7,0.7,2.1,0.4,2.9c-2.3,6.2-0.7,11.1,4.4,15.1
		c1.1,0.8,1.9,2.1,3.3,3.7c0.6-2.6,1.1-4.3,1.4-6c0.4-1.8,0.6-3.4,1.1-5.8c2.9,2.9,5.6,5.4,8.2,7.9c0.5,0.5,0.7,1.6,0.5,2.3
		c-1.9,9.6-3.7,19.1-5.7,29.6c-1.8-1.9-2.9-3.2-4.2-4.4c-13.1-14.2-25.3-29.3-35.7-45.6c-0.7-1.1-0.7-2.8-0.4-4
		c1.8-6,3.9-11.8,5.8-17.7c0.5-1.2,0.8-2.3,1.4-4.1c2.1,2.9,4.3,5.1,5.6,7.8c0.7,1.5,0.5,4-0.4,5.6
		C839.9,203.7,845,206.9,848.3,211.5z"/>
	<path d="M481.2,341.4c0.5-4.6,1.1-8.4,1.2-12.4c0.2-5.5-2.8-9.1-8.2-10.6c-3.9-1.1-7.6-0.8-11.4,0.6c-12.5,4.4-23.3,11.6-33.5,19.7
		c-12.7,10.3-26.5,19-42.2,24.4c-1.8,0.6-3.5,1.1-5.4,1.1c-4.9,0.1-9.8,0.4-14.5-0.4c-5.3-0.8-8.4-5.3-8.5-10.6
		c0-2.2-0.1-4.4,0.2-6.5c0.2-1.5,0.8-2.9,1.9-4.4c0.7,3.7,1.6,7.5,2.2,11.2c1.1,5.6,5,8.9,10.7,8.5c4.9-0.4,9.6-1.5,14-3.9
		c7.9-4.3,15.3-9.6,22.3-15.3c8.2-6.5,16.9-12.3,25.4-18.2c1.9-1.3,3.9-2.5,5.6-4c5.5-4.7,11.8-7.6,18.6-9
		c8.2-1.8,16.5-1.8,22.9,4.7c7,6.8,6.7,13.4,1.9,21.1C483.6,338.6,482.6,339.7,481.2,341.4z"/>
	<path d="M657.4,363.6c-1.9,1.2-3.7,2.2-5.4,3.6c-3.6,2.9-7.1,6-10.7,8.9c-1.3,1.1-2.8,1.9-4.3,2.7c-2.9,1.6-5.7,0.8-8.8-0.2
		c-2.9-0.9-6.1-1.5-9.1-1.8c-5.6-0.6-11.2-1.2-16.8-1.2c-5,0-10.2,0.8-15.3,1.2c-9,0.7-18,1.3-27,2c-11.4,0.8-22.8,1.5-34.2,2.2
		c4.9-3.2,10.3-4.8,16-6c9.2-1.8,18.3-1.2,27.7-0.9c5.4,0.1,10.7-1.1,16.1-1.9c10.4-1.5,20.8-3.4,31.3-4.7c3.4-0.5,6.9,0.6,10.4,0.9
		c9.1,1.2,17.7-0.9,26.1-4.1c1.3-0.5,2.6-0.8,4-1.2C657.3,363.4,657.4,363.5,657.4,363.6z"/>
	<path d="M850,177.9c-0.7,2.5-1.3,4.3-1.9,6.2c-4.9-3-7.2-8.1-6.1-13.4c1.4-6.7,2.9-13.3,4.3-20c4.7,2.7,6.7,6.9,6.3,11.9
		c-0.1,1.2,0.6,2.7,1.3,3.7c8.1,10.2,16.6,19.8,26.5,28.2c1.9,1.6,2.6,3.2,2,5.6c-0.8,3.6-1.1,7.2-1.8,12.1
		C870.3,200.6,860.4,189.5,850,177.9z"/>
	<path d="M858.7,137.5c-1.6-1.1-3-1.9-4.7-2.9c-0.4,5,3.6,8.2,7.6,6c4.3-2.3,7.5-1.3,11,1.4c6.4,5,11.2,11.1,12.6,19.1
		c0.6,3.3,0.1,6.7-0.4,10c-0.5,3-3,4-5.6,2.2c-2.7-1.9-5.8-3.7-7.4-6.3c-1.3-2.2-0.7-5.6-0.8-8.4c-0.1-0.8,0.4-1.6,0.7-2.8
		c2.3,2.1,4.6,4.1,6.7,6c0.4-0.4,0.6-0.6,0.9-0.8c-0.2-3.6-2.9-5.7-5.5-7.7c-2-1.8-3.7-0.4-5.6,0.8c-4.4,3-5.7,2.9-9.8-0.7
		c-7.4-6.3-10.3-14.6-11-23.9c-0.1-1.6,0.6-3.6,1.6-4.8c0.8-0.9,3-1.5,4.1-0.9C858.8,126.4,860.7,131.3,858.7,137.5z"/>
	<path d="M636.1,345.7c-11.3-3.5-22.9-7.1-34.4-10.6c34.1,2,67.1-0.6,97.6-18.4c0.1,0.4,0.2,0.6,0.2,0.9
		c-8.8,6.4-17.3,13.2-26.4,19.1c-7.1,4.7-15.4,4.7-23.7,4c-3.4-0.2-7,0.4-10.3,1.1C638,342,637.3,344.1,636.1,345.7z"/>
	<path d="M386.9,375c0.6,0.2,1.2,0.5,1.8,0.7c9.6,5.5,19.5,5.8,29.4,1.6c10.7-4.6,21.9-3.7,33.1-3.4c5.4,0.2,11.2,6,11.2,10.4
		c-2.9-2-5.7-4.8-9-5.7c-3.9-1.1-8.3-0.8-12.4-0.4c-2,0.2-2.5,2.6-1.6,4.8c1.6,3.9,4.7,5.8,8.9,7c-0.7,0.6-1.1,1.1-1.5,1.4
		c-4.6,3.7-4.4,3.6-9.7,0.6c-7.4-4.2-14.9-7.8-23.9-7.6c-7.8,0.2-15.2-2.5-22.3-5.5c-1.6-0.7-2.9-2.2-4.3-3.4
		C386.5,375.5,386.7,375.3,386.9,375z"/>
	<path d="M303.2,488.6c2.2,3.9,4,7.6,6.3,10.9c5,7.4,11.2,13.7,20.7,14.4c3.3,0.4,6.9-0.7,10-1.8c12-3.9,22.9-10,32.8-17.9
		c1.5-1.2,3-2.2,4.9-2.9c-2.6,3.2-4.7,6.7-7.8,9.1c-7.7,6-15.5,11.9-23.9,16.9c-7.2,4.4-15.6,4.6-23.6,1.8c-2.8-0.9-5.5-2.8-7.5-4.9
		c-3.4-3.5-6.3-7.5-9.1-11.4C303,498.7,302.6,494,303.2,488.6z"/>
	<path d="M341.1,287.6c4.6-5.3,9.3-10.3,13.4-15.8c2.6-3.6,4-8.2,2.1-12.6c-2-4.7-7.7-6.9-13.7-5.6c-6.2,1.4-10.9,5.5-15.1,9.9
		c-6.2,6.7-12.1,13.7-18.2,20.5c-2,2.2-4.1,4.6-6.1,6.8c-0.2-0.2-0.6-0.5-0.8-0.7c2.9-4.8,5.8-9.7,8.9-14.4c7-11,16-19.7,27.4-26
		c5.6-3,11.8-2.8,17.6-0.2c3.3,1.5,4.8,4.9,5.3,8.3c1.3,7.8-0.1,15.2-6.4,20.4c-4.4,3.7-9.6,6.7-14.4,9.9
		C341.3,288,341.1,287.7,341.1,287.6z"/>
	<path d="M410.2,446.1c-9.8,8.8-21.9,15.4-35,19.8c-11.6,3.9-23.3,7.2-35.2,9.8c-8.1,1.8-16.8,1.8-24.6-1.2
		c-9.8-3.7-18.1-10-21.8-21c0.4,0.4,0.6,0.5,0.8,0.7s0.5,0.5,0.7,0.7c8.9,11.7,21.2,16.1,35.4,16.5c18.3,0.4,35.8-4.1,52.4-11.7
		C392.5,455.3,401.7,450.4,410.2,446.1z"/>
	<path d="M563.2,407.7c5.8-4.2,12-4.6,18.1-5.1c9.2-0.9,18.6-2.2,27.9-2.9c6.4-0.5,12.8-0.4,19.3-0.2c8.8,0.2,17.5,0.7,26.4,1.2
		c0.4,0,0.7,0.2,1.1,0.8C625.3,403.5,594.6,405.6,563.2,407.7z"/>
	<path d="M427.2,485c0.5-12.1,7.2-22.8,11.8-34.3c2.6-6.5,5.3-13.1,7.1-20c0.7-2.9-0.1-6.3-1.1-9.3c-1.1-3.5-4.4-4.9-7.8-4.7
		c-8.3,0.5-16.5,1.5-24.7,2c-4.4,0.2-8.8-0.1-13.1-0.7c10.7-1.6,21.5-3.3,32.3-4.7c5.6-0.7,11.7-1.6,15.2,3.9c2,3.2,2.6,7.5,3,11.3
		c0.2,2.8-0.6,6-1.8,8.5c-5,11.3-10.5,22.5-15.6,33.7C430.4,475.6,428.8,480.6,427.2,485z"/>
	<path d="M642,356.1c-22.8-1.3-45.5-2.6-68.5-3.9C596.7,347.6,619.5,348.5,642,356.1z"/>
	<path d="M420.3,227.3c-12.3,8.9-24.4,17.4-32.9,30.2c1.3-8.6,4.6-13.3,11.8-17.7c3.2-2,6.7-3.6,8.6-8.5c-2.1,0-3.9-0.5-5.1,0.1
		c-5.8,2.8-11.6,6-17.3,9c-0.9,0.5-1.8,1.2-2.9,2C385.4,234.6,409.1,222.8,420.3,227.3z"/>
	<path d="M652.2,462.1c-13,3.5-26.1,6.7-39.8,6.5c-8.4-0.1-16.7,0.7-25.1,0.9c-9,0.2-18,0.1-27.2,0.1
		C590.8,467,621.5,464.5,652.2,462.1z"/>
	<path d="M587.9,485.6c22.8-5.3,45.6-10.5,68.5-15.8C635,481.6,611,481.5,587.9,485.6z"/>
	<path d="M639,430.8c-10.9,2.2-21.6,4.9-32.6,6.5c-5.1,0.7-10.5-0.7-15.9-1.3c-2.5-0.2-4.9-0.8-7.4-0.7c18.6-1.6,37.1-3.3,55.8-4.9
		C639,430.6,639,430.7,639,430.8z"/>
	<path d="M594.3,244.4c20.3,8.4,41.8,11.8,63.7,14.5C635.1,260.2,614.4,253.9,594.3,244.4z"/>
	<path d="M565,396.9c-13.4-3.3-24.7,1.5-36.5,6.3C537.8,392.4,556.7,389,565,396.9z"/>
	<path d="M636.5,418.3c-17.5,1.9-34.2,3.6-50.5,5.5C601.9,417.6,618.8,418.1,636.5,418.3z"/>
	<path d="M290,286.3c3.6-11.9,11.7-19.5,19.5-27.3c0.2,0.2,0.5,0.4,0.7,0.5C303.6,268.4,297,277,290,286.3z"/>
	<path d="M660.7,273.5c-12.8,1.3-27.5,1.5-42.4-2.6C633.4,271.7,648,272.7,660.7,273.5z"/>
	<path d="M496.1,346c2.2-7,4.8-14.5,7.1-21.6C507.4,332.2,502.5,341.2,496.1,346z"/>
	<path d="M654.5,443.5c-9.2,2.6-18.6,5.3-27.8,7.8c-0.1-0.1-0.1-0.2-0.1-0.5c2.9-1.1,5.8-2.1,8.9-3.2c3-1.1,6.1-2.3,9.2-3.2
		s6.4-1.2,9.6-1.8C654.3,443.2,654.5,443.3,654.5,443.5z"/>
</g>
<g>
	<g>
		<polygon fill="#FFFFFF" points="519.9,311.6 494.7,332.4 494.7,217.8 474.8,200.7 409.2,200.7 388.8,217.8 388.8,372.7 
			407.2,390.2 450.5,390.2 450.5,369 455.6,364.8 418.5,364.8 418.5,225.3 464.5,225.3 464.5,357.4 		"/>
		<polygon fill="#FFFFFF" points="347.3,378.4 347.3,211.2 392.4,173.9 492.1,173.9 535.7,211.2 535.7,311.6 566.4,311.6 
			566.4,200.7 506,148.9 378,148.9 317.7,199.4 317.7,390.2 376.5,441.6 450.5,441.6 450.5,416.1 388.8,416.1 		"/>
		<path fill="#FFFFFF" d="M706.3,441v-62.7L648,326.5H525.2l-59.8,49.6v190.4l59.8,52.6h119.2l61.9-51.3v-69.3h-94.7v42.6h-44.5
			V402.8h44.5V441H706.3z M556.9,378.2L536.5,394v155.8l20.5,18h64.4l20.5-18v-26.3h34.3v31.6l-45.5,38.6H539l-43-38.6V387.9
			l43-36.4h95.7l41.5,36.4V416h-34.3v-22l-18.4-15.8H556.9z"/>
	</g>
	<g>
		<polygon fill="#C80000" points="519.9,311.6 535.7,311.6 535.7,211.2 492.1,173.9 392.4,173.9 347.3,211.2 347.3,378.4 
			388.8,416.1 450.5,416.1 450.5,390.2 407.2,390.2 388.8,372.7 388.8,217.8 409.2,200.7 474.8,200.7 494.7,217.8 494.7,332.4 		"/>
		<polygon fill="#C80000" points="676.2,416 676.2,387.9 634.7,351.5 539,351.5 496.1,387.9 496.1,555.1 539,593.7 630.6,593.7 
			676.2,555.1 676.2,523.5 641.8,523.5 641.8,549.8 621.4,567.8 556.9,567.8 536.5,549.8 536.5,394 556.9,378.2 623.4,378.2 
			641.8,394 641.8,416 		"/>
	</g>
	<path d="M581.2,311.6V193.8L511.5,134H372.7l-69.9,58.4V397l68.1,59.5h79.5v116.8l69.1,60.8h130.2l71.4-59.2v-91.2H596.8v42.6H582
		V417.7h14.8v38.2h124.4v-84.3l-67.6-60L581.2,311.6L581.2,311.6z M418.5,225.3v139.6h37.1l-5.1,4.2v21.2v25.9v25.4h-74l-58.9-51.3
		V199.4l60.4-50.5h127.9l60.4,51.8v110.9h-30.7h-15.8l-55.2,45.8V225.3H418.5z M449.6,240.1v109.8h-16.4V240.1H449.6z M706.3,441
		h-94.7v-38.2h-44.5V541h44.5v-42.6h94.7v69.3L644.4,619H525.2l-59.8-52.6V376l59.8-49.6H648l58.4,51.8L706.3,441L706.3,441z"/>
</g>
</svg>
