<?xml version="1.0" encoding="utf-8"?>
<!-- Generator: Adobe Illustrator 18.0.0, SVG Export Plug-In . SVG Version: 6.00 Build 0)  -->
<!DOCTYPE svg PUBLIC "-//W3C//DTD SVG 1.1//EN" "http://www.w3.org/Graphics/SVG/1.1/DTD/svg11.dtd">
<svg version="1.1" id="Layer_1" xmlns="http://www.w3.org/2000/svg" xmlns:xlink="http://www.w3.org/1999/xlink" x="0px" y="0px"
	 viewBox="0 0 1024 768" enable-background="new 0 0 1024 768" xml:space="preserve">
<g opacity="0.1">
	<path fill="#090923" d="M208.5,468.5c0-1.2,0-2.4,0-3.6c0.4-0.5,0.8-0.8,1.1-1.3c2.5-5.4,5.3-10.9,7.5-16.4
		c3.4-8.2,6.5-16.6,9.8-24.9c0.4-0.7,0.4-1.7,0.7-3.1c-8,4.1-10.7,11.6-14.7,18.1c0.2-6.5,1.8-12.5,5.2-17.8c4.4-6.8,9.4-13.4,14-20
		c0.6-0.7,0.9-1.7,1.7-3c-4.6,1-8.5,1.9-12.4,2.8c-0.1-0.3-0.2-0.6-0.4-0.8c2.8-4.1,6.2-7.7,7.2-13.2c-2,0-3.6,0-5.6,0
		c0.9-1.4,1.6-2.2,2-3.1c0.8-1.7,1.8-3.4,2.1-5.3c0.4-2.8-1-3.7-3.7-3c-1.9,0.5-3.9,1.3-5.8,1.8c-2.2,0.6-4.5,1.1-6.5,0.3
		c3-7.1,5.4-14,8.8-20.7c3.2-6.5,7.2-12.7,11.1-19.6c-4.2,0.5-7.1,3-10.8,2.9c10.5-9.7,19.2-20.6,25.6-33.2
		c-0.2-0.2-0.4-0.5-0.6-0.6c-3.2,1.8-6.5,3.5-9.8,5.3c-0.2-0.3-0.5-0.5-0.7-0.7c0.6-1.6,1-3,1.7-4.5c1.9-4.2,4.1-8.5,5.9-12.8
		c3.3-8.2,6.7-16.1,14-21.8c0.6-0.5,1.1-1.3,1.6-1.9c-5.1-0.2-7.9,3.8-12.5,6.1c0.5-8.5,5.4-14.4,8.9-21.5
		c-5.7-0.2-9.1,3.7-13.6,5.7c3.1-6.7,6.1-13.6,10.2-19.5c4.2-5.9,9.6-11.1,14.4-16.5c-0.2-0.3-0.4-0.6-0.6-0.9
		c-5.1,1.4-10.1,2.9-15.1,4.2c-0.4-0.5-0.6-0.8-0.9-1.3c0.7-0.4,1.6-0.6,2.2-1.1c6.5-4.2,12.9-8.6,19.3-12.9
		c7-4.7,13.6-9.8,17.7-17.3c0.3-0.5,0.4-1.1,0.8-2.2c-5.7,2.2-10.1,5.9-15.4,7.4c-0.1-0.2-0.3-0.4-0.4-0.6c3.4-4,6.8-8,10-11.7
		c-8.2-1.8-15.5,1.7-23,4.4c0.6-1.4,1.3-2.4,1.9-3.4c0.6-1,0.9-2.4,1.8-3.2c10.3-10.6,21.5-20.1,35.8-25c1.4-0.5,2.7-1.5,4.1-2.2
		c-0.1-0.2-0.2-0.5-0.4-0.7c-6.5-0.9-12.5,2.3-19.1,2.8c0.4-0.7,0.5-1.1,0.6-1.3c3-1.9,6-4,9.1-5.7c3-1.7,6.3-2.9,9.3-4.4
		c7.4-3.7,15.1-5.7,23.4-5.9c1,0,1.9-0.4,3-0.5c-0.7-0.9-1.3-1.9-2.2-2.5c-1.8-1.1-3.7-2.1-6.4-3.4c5.3-1.5,9.9-2.8,14.5-4.1
		c0.1-0.3,0.1-0.5,0.2-0.7c-1.6-1-3.1-2-4.6-3.2c-0.7-0.6-1.4-1.3-2-2c0.9-0.5,1.8-1.1,2.8-1.2c4.2-0.2,8.2-0.2,12.4-0.4
		c0.7,0,1.9-0.2,2-0.5c0.4-2.4,2.1-1.7,3.5-1.7c3.3-0.1,6.6,0,10,0c-0.1-0.4-0.1-0.6-0.2-0.8c-1.6-3-1-3.9,2.4-3.9
		c2.4,0,4.7,0.2,7.1,0.3c1.2,0.1,2.4,0,4.2,0c-0.7-1-0.9-1.6-1.3-1.7c-3-1.3-6-2.7-9-3.9c-1.3-0.6-2.8-0.7-4-1.4
		c-0.6-0.4-0.9-1.3-1.3-1.9c0.8-0.2,1.7-0.6,2.5-0.6c0.9-0.1,1.8,0.1,2.8,0.1c0.1-0.2,0.1-0.5,0.1-0.7c-1.7-0.6-3.4-0.9-5-1.7
		c-1.5-0.7-2.7-1.9-4.1-3c1.5-0.6,2.9-1.6,4.4-1.8c1.9-0.4,4.1-0.1,6.1-0.1c0.1-0.3,0.1-0.6,0.1-0.9c-5.2-2.5-11.3-1.5-16.3-4.6
		c8.5-1.4,17-0.2,26.1,0.6c-0.9-0.9-1.3-1.1-1.6-1.4s-0.3-0.7-0.5-1.1c0.4-0.1,0.6-0.3,0.9-0.3c8.1,1.5,16.3,2.6,24.4,4.5
		c6.3,1.6,11.8,4.8,16.3,9.7c0.7,0.9,1.4,1.9,2.1,2.9c-0.2,0.4-0.4,0.6-0.6,0.9c-5.6-3.4-10.9-7.7-18-7c1.5,1.3,3.1,2.3,4.7,3.2
		c3.6,2.1,7.4,3.7,9.8,7.4c0.5,0.7,0.5,1.8,0.7,2.7c-0.9,0-1.9,0.2-2.8-0.1c-5.6-1.9-11.3-4-16.9-5.9c-1-0.4-2.1-0.4-3.2-0.5
		c-0.1,0.2-0.2,0.5-0.2,0.7c3.6,2.9,8.8,3.5,11.3,7.7c-0.1,0.3-0.3,0.6-0.4,0.8c-5.2-0.9-10.3-1.7-15.5-2.6
		c-0.1,0.2-0.2,0.5-0.3,0.7c3,3,7.5,3,10.6,5.4c-0.1,0.4-0.2,0.6-0.3,0.9c-3.5-0.6-7-1-10.8-1.7c0.4,1.2,0.5,1.8,0.8,3
		c-4.4-0.6-8.6-1.1-12.6-1.6c-0.1,0.4-0.2,0.6-0.2,0.9c4.2,1.8,8.4,3.4,12.6,5.3c-0.1,0.3-0.2,0.6-0.2,0.8
		c-6.7,0.6-13.5,1.2-20.1,1.8c0.3,0.6,0.6,0.8,0.8,0.8c18.4,2.5,36.7,5,55.1,7.5c0.7,0.1,1.6-0.1,2.4-0.2c-5.4-3.3-11.8-4.1-16.9-8
		c1.2-0.5,2.4-0.6,3.5-0.5c4.4,1,8.8,2.2,13.2,3.2c5.4,1.1,10.9,2.2,16.3,3.2c3.5,0.6,7.1,1.1,10.6,1.7c0.7,0.1,1.4,0.2,2.5,0.4
		c-2.5-2.4-5.9-2.3-7.4-5c0.1-0.3,0.2-0.5,0.4-0.7c6,1.8,12,3.8,18,5.6c0.1-0.2,0.2-0.4,0.2-0.6c-5.9-2.8-11.7-5.5-17.7-8.3
		c0.1-0.3,0.2-0.6,0.3-0.7c3.2,0.9,6.5,1.9,9.7,2.9c0.1-0.3,0.1-0.5,0.2-0.7c-4.3-2.1-8.7-4.2-13.7-6.5c4.4-1.1,7.6,1.6,11.1,1.6
		c0.1-0.3,0.2-0.5,0.4-0.7c-4.7-2.1-9.3-4.3-13.9-6.5c0.1-0.3,0.2-0.6,0.4-0.8c9,0.4,17.3,4.2,26,6.5c0.1-0.2,0.2-0.5,0.2-0.6
		c-5.3-4.5-10.6-9-16-13.6c0.1-0.3,0.3-0.6,0.4-0.7c1.9,0.6,4,1.1,5.7,1.9c7.1,3.6,14.2,7.4,21.3,10.9c3,1.5,6,2.7,9,4
		c0.2-0.3,0.5-0.6,0.6-0.9c-3.1-4.3-6.2-8.7-9.3-13c0.2-0.2,0.5-0.4,0.6-0.6c3.3,1.6,6.5,3.2,9.8,4.8c3.2,1.6,6.5,3,9.8,4.5
		c0.1-0.2,0.2-0.4,0.4-0.6c-2.1-2.7-4.3-5.3-6.5-8c0.2-0.2,0.4-0.5,0.5-0.6c0.8,0.3,1.7,0.6,2.4,0.9c2.4,1.1,4.6,2.4,7,3.5
		c0.6,0.3,1.5,0.3,2.1,0c0.2-0.1,0.2-1.2,0.1-1.8c-0.2-1.6-0.6-3.2-0.9-4.8c1.6,0.6,3,1.4,4.7,1.8c3,0.6,4.4,2.8,5.7,5.2
		c0.7,1.4,1.9,2.5,3,3.8c0.4-0.1,0.6-0.2,0.9-0.3c0-3.2,0-6.5,0-9.7c0.3-0.1,0.6-0.1,0.9-0.2c2.2,4.2,4.5,8.6,7,13.2
		c3-4.4,3-9.7,6.5-14.1c0.5,4.8,0.9,8.9,1.3,12.8c0.4,0,0.6,0.1,0.9,0.1c0.6-0.9,1.2-1.8,1.8-2.5c1-1.2,2-2.4,3.2-3.5
		c0.4-0.4,1.3-0.4,1.8-0.2c0.2,0.1,0.4,1.1,0.2,1.6c-0.9,2.5-0.1,4.5,1.6,6.5c1.8,2.3,3,2.2,4.2-0.5c0.6-1.2,1.1-2.5,1.8-3.7
		c0.3,0.1,0.5,0.1,0.7,0.1c0.2,0.9,0.6,1.8,0.6,2.8c-0.2,2.2-0.6,4.3-0.7,6.5c-0.1,1,0.5,2,0.6,3c0.9-0.6,2-1,2.8-1.8
		c1.1-1.2,2.1-2.7,3.6-4.6c0.4,1.4,0.6,1.9,0.6,2.4c-0.6,2.4-1.3,4.8-1.9,7.3c-0.5,1.6-1.3,3,0.2,4.9c1.6-3.2,3-6.2,6.3-7.7
		c0,0.9-0.3,1.6-0.6,2.3c-1,3-2.4,6-3,9c-0.5,3.3,0.6,3.9,3.8,2.6c0.6-0.2,1.3-0.2,1.8-0.2c-0.1,0.7,0.1,1.5-0.2,2
		c-1.1,2-0.6,3.6,1.3,4.7c2.5,1.5,5.1,3,7.7,4.2c2.2,1,4.7,1.4,7.5,2.2c-0.8,0.9-1.1,1.5-1.7,1.8c-1.6,0.8-3.2,1.4-4.7,2.3
		c-1,0.6-1.8,1.5-2.8,2.2c1.1,0.5,2.2,1,3.3,1.2c1.2,0.3,2.5,0.2,3.7,0.3c0,0.3,0,0.6,0,0.8c-3.1,0.6-6.3,1.1-9.3,1.8
		c0,0.2-0.1,0.5-0.1,0.7c1.2,0.4,2.4,1.1,3.6,1.1c4.7,0,9.4-0.2,14.1-0.4c0.6,0,1.3,0.3,1.9,0.4c-0.4,0.6-0.6,1.3-1.1,1.8
		c-0.7,0.6-1.8,1.1-2.7,1.6c0.1,0.2,0.1,0.5,0.2,0.6c1.8,0,3.7,0,5.6,0c-0.1,1.1-0.2,1.9-0.2,2.7c0.9,0.5,1.6,0.7,2,1
		c-1.3,2.4-2.6,4.7-3.7,7c-0.7,1.5-1.9,3.1,0.2,4.7c1.4,1.1,2.5,3,4.2,3.5c5,1.8,9.1,7.7,8.9,13.9c-1.4-0.9-2.6-1.7-3.8-2.4
		c-0.2,0.2-0.4,0.4-0.6,0.5c0.6,1.3,1.1,2.5,1.6,3.8c0.2,0.5-0.4,1.1-0.6,1.8c-0.5-0.4-1.3-0.5-1.6-1c-1-1.6-1.8-3.2-2.8-4.8
		c-0.8-1.3-1.8-2.6-2.8-3.9c-0.3,0.2-0.6,0.3-0.9,0.5c0.2,1.1,0.2,2.2,0.7,3.2c1.1,2.2,2.5,4.4,3.4,6.7c0.4,0.7-0.2,1.9-0.3,3
		c-0.6-0.6-1.4-1-1.8-1.7c-1.9-3.1-4.5-4.5-8.4-4.4c-3.4,0.2-6.8-0.5-10.2-1c-2.1-0.4-4.2-1.2-6.5-1.9c-0.3,2.8-1.9,2.7-3.9,2.2
		c-1.8-0.4-3.7-0.6-5.5-0.6c-1.6,0-3,0.5-4.5,0.7c0.8,1.5,1.4,3.2,2.6,4.3c2.3,2.2,5,4,7.5,5.9c-0.4,0.1-1,0.3-1.6,0.4
		c-1.8,0.1-3.7,0.1-5.5,0.2c-3,0.1-5.7,0.5-8.7,1.8c-2.4,1.1-5.7,0.4-8.6,0.6c-0.8,0.1-1.6,0.5-2.4,0.7c0.5,0.7,0.9,1.8,1.6,2.3
		c1.4,1,3.1,1.6,4.6,2.5c2.1,1.3,4.4,2.5,6.3,4.1c1.8,1.6,3.4,3.4,5.3,5.3c-7.3,1.9-13.4-1.8-19.8-2.4c0.7,1,1.6,1.7,2.5,2.1
		c1.2,0.6,2.7,0.9,3.6,1.7c0.9,0.7,2.1,2.4,1.8,3.1c-0.6,1.7-2.3,1-3.4,0.4c-5.2-3-11.2-2.2-16.6-3.8c-0.2-0.1-0.4,0.2-0.9,0.5
		c1,1.1,1.8,2.3,2.8,3.2c2.4,2.2,3.7,4.9,4.4,8c0.5,2.1,0.8,4.4,1.7,6.3c2.9,6,2.6,12.3,1.2,18.4c-2.6,11.4-7,22.3-12.6,32.6
		c-6,10.8-11.7,21.6-17.5,32.5c-4.5,8.5-9.3,16.8-11.4,26.3c-1.2,5.3-4,9.8-7.4,14.1c-3.9,5.3-6.8,11.2-10.1,16.9
		c-0.4,0.6-0.3,1.3-0.4,2c0.2,0.1,0.5,0.2,0.7,0.2c2.8-7.4,7.5-13.3,13.2-18.4c1.3-1.1,2.2-2.5,3.3-3.8c5.1-6.4,10.2-12.8,15.3-19.2
		c0.5-0.6,1.2-1.1,1.8-1.6c0.2,0.2,0.4,0.4,0.5,0.5c-0.9,1.3-1.9,2.7-2.8,4c-3.1,5-5.8,10.3-9.4,14.9c-6.5,8.3-10.1,18-14.6,27.3
		c-3.1,6.6-3,14.3-3,21.6c0,2.1,0.5,4.3,2,6.2c-1-10.1,1.6-19.5,5-28.6c3.4-9.2,8.5-17.4,15.7-24.4c-5.8,12.7-9.7,26.2-10.1,39.8
		c-0.4,13.6,0.2,27.5,6.1,40.4c-0.6-13.2-0.7-26.2,5.3-38.4c0.6,0.9,0.6,1.8,0.6,2.7c-0.7,11.8-0.8,23.7,1,35.5
		c0.9,6.2,3.9,11,8.2,15.8c0.1-0.7,0.2-1,0.1-1.3c-1-3.7-2-7.5-3-11.2c-2.1-7.9-1.9-15.8-0.6-23.8c0.2-0.9,0.7-1.8,1.1-2.7
		c0.4,0.1,0.6,0.2,1,0.2c0.2,3,0.5,5.8,0.5,8.8c0,10.3,2.4,20,7.7,28.9c4.2,7,8.5,14,12.6,20.9c2.7,4.4,5.3,8.8,8.2,13
		c0.6,0.8,1.5,1.3,2.2,1.9c0.2-0.2,0.4-0.3,0.6-0.5c-1.3-4.7-2.7-9.5-4-14.2c0.4-0.2,0.7-0.3,1.1-0.5c5.8,12,11.7,23.9,17.5,35.9
		c0.4-0.1,0.6-0.2,0.9-0.3c-0.9-4.5-1.8-9.1-2.8-13.7c0.4-0.1,0.6-0.2,1-0.4c1.4,1.9,2.8,4,4.1,6c4.8,7.4,9.1,14.9,14.3,22
		c5,6.8,8.8,13.9,10.3,22.1c1,5,2.1,10,4,14.6c3.4,9,3.3,18,0.7,27c-0.2,0.6-0.7,1.3-1.1,1.8c-0.2-0.1-0.5-0.1-0.7-0.2
		c-0.2-3.2-0.5-6.5-0.6-9.8c-0.4,0-0.7,0-1.1,0c-0.4,3-0.6,6.2-1,9.1c-0.9,6.5-1.7,13-2.8,19.5c-0.4,2.2-0.9,4.7-3.9,6.7
		c0-5,0-9.1,0-13.5c-1.1,3-1.6,6.2-2.3,9.1c-0.7,2.8-1.1,6-2.9,8.2c-2.2,3-3.4,5.9-3.2,9.4c0.1,1.4,0.3,2.9,0.2,4.2
		c-1,11.7-2.1,23.5-3.2,35.2c-0.2,2.8-0.4,5.5-0.6,8.3c0.2,0.1,0.5,0.1,0.7,0.1c0.4-0.8,0.9-1.6,1.1-2.5c3.4-11,6.8-22,10.3-33
		c0.7-2.4,1.8-4.7,2.8-7c0.7-1.7,1.8-3.3,2.4-5.1c0.6-1.7,0.6-3.5,0.9-5.3c0.3-1.1,0.8-2.1,1.3-3.1c0.3,0.1,0.5,0.2,0.7,0.2
		c0.2,1.7,0.3,3.3,0.5,5c0.8,8.1,1.1,16.1-1.9,23.9c-0.4,0.9-0.3,2.1-0.4,3.1c0.3,0.1,0.5,0.1,0.7,0.2c1.3-2.4,2.7-4.8,4-7.1
		c0.3,0.1,0.6,0.2,0.8,0.4c-0.3,1.9-0.6,4-0.9,5.9c0.3,0.1,0.5,0.1,0.7,0.1c1.3-4.7,2.7-9.3,3.9-13.9c2.3-9.1,4.3-18.4,6.7-27.4
		c0.7-3,2.2-5.8,3.4-8.8c0.4,0.1,0.6,0.2,1,0.4c-2.5,9.1-5,18.3-7.4,27.4c0.4,0.1,0.6,0.2,1,0.4c1.4-3,2.8-5.7,4-8.8
		c1.9-4.7,3.4-9.5,5.5-14.1c4.2-8.9,8.7-17.7,12.6-26.7c3.3-7.5,5.9-15.4,8.9-23c0.2-0.6,0.9-1,1.4-1.6c0.5,0.6,1.3,1,1.3,1.6
		c0.2,2.6,0.1,5.3,0.1,7.7c0,1-0.1,2-0.2,3c4-3.6,5.6-8,4.8-13c-1-6.1-2.8-12.1-4.2-18.1c-0.2-0.6-0.3-1.3-0.5-2
		c3.6,0.1,6,1.4,7.3,4.4c0.7,1.7,1.6,3.3,2.3,5.1c0.6,1.6,1.3,3.1,1.9,4.7c0.3,0,0.6,0,0.8,0c0.2-0.9,0.6-1.8,0.7-2.7
		c0.2-1.4,0.3-2.8,0.2-4.2c-0.1-2.1-0.1-4.2-0.7-6.2c-1.8-5.7-5.6-10.3-9.6-14.7c-1.5-1.7-3-3.3-4.5-5.1c7.1-0.6,10.6,5.3,15.6,7.9
		c0.2-0.4,0.5-0.6,0.7-1c-8-7-16.1-13.9-24.2-20.9c0.2-0.2,0.4-0.5,0.6-0.6c7.1,1.9,12.8,7.5,20.4,8.4c-4.2-5.1-9.8-8.5-15.5-11.4
		c-6.5-3.3-12.3-7.1-17.5-12c-0.1-0.1,0.1-0.3,0.1-0.7c5.8,2,11.5,4.1,17.2,6.1c0.2-0.5,0.4-0.9,0.6-1.3c-1.6-1.1-3.2-2.1-4.8-3.2
		c-3.9-2.7-7.7-5.3-11.4-7.9c-0.5-0.4-0.8-0.9-1.3-1.4c0.1-0.3,0.2-0.6,0.3-0.7c1.3,0.2,2.7,0.1,4,0.5c1.9,0.6,3.9,1.8,5.8,2.5
		c0.9,0.4,2.1,0.3,3.1,0.4c0.1-0.4,0.2-0.7,0.3-1c-2.2-1.2-4.5-2.5-6.7-3.6c-1.7-0.8-1.8-1.8-0.5-3c2.2-2,4.5-4.1,6.7-6.2
		c7.7-7.1,15.2-14.3,23-21.3c1.6-1.5,3.5-2.8,5.5-3.6c4.2-1.8,8.9-2.7,13-4.7c10.3-5,20.4-10.3,30.5-15.6c0.6-0.4,1.4-0.6,2.3-0.9
		c-0.6,3.9-4.2,8.5-6.8,10c-7.7,4.2-15.7,8.2-23,13.2c-6.7,4.7-12.7,10.4-18.9,16c-3.1,2.8-5.9,6-8.6,9.1c-2.9,3.4-5.4,7-8.2,10.6
		c-0.6,0.7-1.1,1.5-1.7,2.2c-0.6,0.7-1,1.5-1.6,2.2c0.3,0.2,0.6,0.5,0.8,0.6c3.6-3.9,7.5-7.5,10.6-11.6c4.2-5.6,9.4-10.1,14.6-14.8
		c3.7-3.4,7.9-6.2,11.8-9.4c8.6-7.1,18.4-12.2,28.2-17.2c2.5-1.3,5.1-2.6,7-3.6c1.3,1.2,2.3,2.1,3.6,3.2c-0.3,0.5-0.7,1.3-1.1,1.9
		c-2.1,3.2-4.3,6.5-6.5,9.7c-0.5,0.7-0.5,1.8-0.7,2.8c0.2,0.1,0.5,0.2,0.7,0.3c0.4-0.3,0.8-0.6,1.1-0.9c2.9-4.1,6-8,8.5-12.3
		c1.9-3.3,4.7-3.8,7.9-3.6c2,0.1,2.9,1.4,2.2,3.3c-0.5,1.5-1.1,2.9-1.7,4.2c0.2,0.2,0.5,0.3,0.7,0.5c1.1-1.6,2.2-3.2,3.4-4.7
		c0.9-1.1,1.8-2.5,3-3c6.8-2.8,13.7-5.4,20.8-7.7c8.9-3,16.7-7.4,23.6-13.7c4.3-4,8-8.5,9.6-14.3c1.5-5.7,2.8-11.6,4.2-17.4
		c0.5-2.1,0.4-3.8-2.2-4.4c-0.8-0.2-1.6-0.9-2.2-1.7c-3.2-3.8-6.4-7.7-9.5-11.4c-4.6-5.7-10.1-10.1-17.5-11.4
		c-1-0.2-2.4-0.2-3.1-0.7c-4.2-3.7-7.7-7.9-8.3-13.9c-0.1-0.6,0.2-1.7,0.7-1.9c0.5-0.3,1.4,0.1,1.9,0.4c0.9,0.4,1.7,1.1,2.7,1.4
		c5.8,1.9,11.6,4,17.5,5.7c2.2,0.6,4.7,0.7,7,0.6c4.2-0.4,8.2-1,12.3-1.6c4.5-0.7,9.1-1.6,13.7-2.2c7.1-1,13.9,0,20.5,2.9
		c0,2,0,4.1,0,6.1c-0.2,0.1-0.6,0.1-0.6,0.3c-2,4.6-5.9,7.5-9.4,10.7c-0.5,0.5-0.9,1.1-1.6,2c1,0,1.5-0.1,1.9,0
		c0.5,0.1,0.9,0.2,1.8,0.5c-0.6,0.9-0.9,1.7-1.4,2.2c-6,6.8-8.7,14.9-8.8,23.9c0,4.6,0.6,9.2,1.1,13.8c0.5,4.6-0.9,8.5-4.4,11.5
		c-1.3,1.1-2.7,2.4-4.2,3.3c-3.6,2.4-6.3,5.4-8.4,9.2c-3,5.6-2.3,9.5,2.9,13.4c1.7,1.2,3.3,2.4,4.9,3.6c0.6,0.5,1,1.1,1.6,1.7
		c-0.1,0.2-0.2,0.5-0.4,0.7c-1.4-0.1-2.8-0.2-4.7-0.4c2.1,6.1,7.9,8.9,11.3,13.5c-0.1,0.2-0.2,0.5-0.4,0.7
		c-4.3-0.6-8.6-1.3-12.9-1.8c-0.1,0.3-0.2,0.6-0.3,0.9c3,2.6,5.8,5.2,8.8,7.7c-0.2,0.2-0.4,0.5-0.6,0.7c-0.6-0.2-1.1-0.2-1.6-0.5
		c-5.3-3.6-10.5-7.2-15.7-11.1c-1.1-0.9-1.8-2.6-2.4-4.1c-0.6-1.5,0.3-2.2,1.8-2.1c0.6,0.1,1.3,0.5,1.9,0.5c0.8,0.1,1.7-0.1,2.5-0.2
		c-0.4-0.7-0.6-1.6-1.1-2.3c-0.3-0.4-0.8-0.6-1.3-0.8c-2.7-1.8-2.8-2.4-0.3-4.2c-2.4-3.9-4.9-7.7-7.1-11.6c-1-1.8-2.2-2.5-4.2-2.5
		c-5.7-0.2-11.2,1.4-16.5,3.2c-3.8,1.3-7.7,2.2-9.4,6.4c-0.8,1.8-1.8,2-2.6,0.5c-1.4,1.3-2.7,2.9-4.2,3.6c-1.1,0.6-2.3,0.7-2.6,2.2
		c-0.1,0.4-0.6,0.8-0.9,0.8c-3.4,0.2-4.4,3-6,5.3c-1.7,2.3-2.8,2.3-4.2,0c-0.9-1.4-1.6-1-2.2,0.1c-0.4,0.6-0.4,1.3-0.6,1.9
		c-1.5,4.1-1.7,4-5.9,3c-1.3-0.3-3.1,0.2-4.2,1c-0.9,0.7-1.9,3-1.6,3.7c1.5,2.4,0.6,4.3,0,6.5c-0.2,0.6,0,1.1,0,2.3
		c3-3,3.9-7.3,8.5-9.2c-0.4,3-0.6,5.5-0.9,8c0.2,0.1,0.4,0.1,0.5,0.1c0.9-1.3,1.8-2.5,3-4.2c0.5,2.3,0.9,4.1,1.4,6.5
		c1.3-1.6,2-2.5,3-3.5c1.4,2.1,2.3,0.9,3.2-0.4c0.7-1,1.3-2.2,2.1-3.2c0.8-1.1,1.8-2.1,2.7-3c0.2,0.1,0.5,0.2,0.7,0.3
		c0.2,1.4,0.4,2.7,0.6,4c0.7,0.2,1.4,0.4,1.9,0.6c0.2,1.9,0.4,3.6,0.6,5.3c0.3,0,0.6,0,0.9,0c1-2.4,1.9-4.9,3-7.3
		c3,1.6,3.2,1.4,4.4-1.6c0.4-0.9,0.9-1.7,1.3-2.5c3.4,11.5,5.6,23,10.7,33.7c0.7-1.8,1.4-3.6,1.2-5.3c-0.7-6.2-1.7-12.3-2.6-18.4
		c-0.2-1.1-0.4-2.2-0.5-3.3c0.3-0.1,0.6-0.1,0.9-0.2c1.6,4.5,3,9,4.5,13.6c1.6,4.4,1.8,9.4,4.7,13.4c0.4-0.1,0.7-0.1,1-0.1
		c0-5.6,0-11.3,0-16.9c0.4-0.1,0.7-0.2,1.1-0.2c2.6,6.5,5.2,13.2,7.7,19.7c0.4-0.1,0.7-0.2,1.1-0.2c-0.2-1.8-0.4-3.6-0.6-5.3
		c-0.4-2.2-1.3-4.5-1-6.7c0.5-4,2.8-7,7-4.2c0.9,0.6,2.1,1,3.1,1.5c0.1-0.2,0.2-0.4,0.4-0.6c-1-0.9-2.2-1.8-3.1-2.8
		c-1.7-1.9-3.6-3.8-4.8-6c-2.2-4.2-4.1-8.5-6-12.8c-0.7-1.7-1.3-3.6-1.9-5.3c0.2-0.1,0.4-0.2,0.6-0.3c0.5,0.6,1,1.3,1.4,2
		c1.6,3.2,3.2,6.5,4.8,9.7c0.3,0.6,0.7,1.4,1.1,1.6c3.6,0.5,5.6,3.4,8,5.3c4.8,3.9,9.2,8,13.7,12.3c1.8,1.7,1.3,2.8-1.1,3.1
		c-1.8,0.3-3.5,0.4-5.3,0.5c-2.1,0.1-3.1,0.9-3.2,3.2c-0.4,7.9-2.7,15.4-6.9,22.1c-0.4,0.6-0.9,1.2-1.8,2.4c-0.4-1.4-0.5-2.2-0.7-3
		c-1.5-3-2.9-6.2-4.6-9.1c-0.5-0.7-2.1-1-3-0.9c-0.5,0.1-1,1.6-1.1,2.5c-0.2,1.4-0.1,2.9-0.1,4.2c-0.4,0.1-0.6,0.1-1,0.2
		c-0.7-1.5-1.3-3-2.2-4.3c-0.7-1-1.8-1.8-2.8-2.7c-0.4,1.1-0.9,2.1-1.1,3.3c-0.5,3.7-2,4.6-5,2.5c-5-3.6-10.6-4.9-16.5-5.7
		c-10-1.4-20-1.6-30-1c-3,0.2-6,0.7-9.7,1.1c1.8,2,3,3.4,4.4,4.9c7.4,8,14.8,16.1,20.4,25.6c2.2,3.8,5.1,7.4,6.8,11.4
		c3.7,9.2,3.2,19,2.9,28.7c-0.1,1.1-1.3,2.3-1.9,3.4c-0.7-1.1-1.8-2.1-2.2-3.3c-1.8-5.1-5.3-8.9-9.1-12.8c-0.2,1-0.4,1.4-0.4,1.8
		c-1,11.7-4.1,22.8-10.3,32.8c-1.7,2.7-2.7,6-3.2,9.1c-0.7,3.8-1.9,7.3-4,10.5c-6.9,11.3-16,20.9-25.1,30.3
		c-8.5,8.8-17.5,17-26.4,25.6c-5.7,5.4-11.4,10.9-17.1,16.4c-4.8,4.8-9.6,9.7-14.3,14.6c-0.6,0.6-1.4,1-2.1,1.5
		c-0.4-0.9-0.9-1.8-1-2.7c-0.2-2-0.1-4.1-0.1-6.1c-0.3-0.1-0.6-0.2-0.8-0.3c-0.8,0.7-1.6,1.6-2.4,2.3c-4.9,5-9.8,10-14.7,14.9
		c-2.5,2.6-5.1,5.2-7.6,7.7c-0.8,0-1.7,0-2.5,0c1.3-3.3,2.8-6.5,3.8-9.9c0.6-1.8,0.5-3.8,0.8-6.4c-2.7,1.6-4.4,2.6-6.2,3.6
		c-0.2-0.2-0.5-0.4-0.6-0.6c0.8-3.9,1.6-7.7,2.4-11.6c-0.2-0.1-0.5-0.2-0.7-0.4c-0.6,0.8-1.5,1.5-1.9,2.4c-1.5,3-2.7,6.2-4.2,9.1
		c-2,3.7-4.2,7.5-6.7,10.9c-1.4,1.8-2.7,1.3-3.2-1c-0.5-2-0.7-4.2-1.3-6.2c-0.3-1-0.8-2-1.3-3c-0.6,0.7-1.4,1.6-2,2.4
		c-1.2,1.5-2.2,3.2-3.6,4.5c-1.8,1.7-2.5,1.3-3.2-1c-2.8-9-5.4-18-8.5-26.9c-1.8-5.3-1.8-5.2-6.4-2.4c-0.6,0.5-1.7,0.4-2.5,0.5
		c-0.1-0.8-0.4-1.8-0.1-2.5c2.1-5.5,2.5-11.3,2.4-17.2c-0.1-1.8-0.5-3.7-0.8-5.5c-0.3,0-0.6,0-0.8,0c-0.9,7.4-3.2,14.2-7,21.3
		c-2.6-4-4.7-7.3-6.8-10.6c-0.9-1.5-1.9-1.7-3.2-0.4c-2.8,2.7-5.6,5.3-8.5,7.9c-0.6,0.6-1.4,0.9-2,1.3c-0.4-0.7-1.1-1.6-1.1-2.3
		c-0.5-5.7-0.7-11.6-1-17.4c-0.1-1.1-0.2-2.2-0.3-3.4c-0.6,0-0.9-0.1-1,0c-3,1.4-3,1.4-3.7-1.8c-1.6-5.9-3.1-11.9-4.8-17.8
		c-0.3-1.1-1-2-1.6-3c-0.4,7.7-0.5,15.4-1,22.9c-0.2,3.6-1.7,6.9-4.2,9.6c-0.7,0.7-1.9,1.1-3,1.7c-0.5-0.9-1.1-1.8-1.5-2.8
		c-2.4-6.7-4.2-13.6-8.2-19.6c-2.2-3.3-4.7-6.7-5.9-10.5c-1.7-4.9-4.4-8.9-7.5-12.8c-0.5-0.6-1.1-0.9-1.9-1.6
		c-0.9,3.3-0.3,6.5-2.8,9.5c-4-11.2-6.1-22.5-12.7-32.1c1.6,9.3,5.1,18.1,4.8,27.7c-0.8-0.5-1.4-1-1.8-1.6c-2.2-2.7-4.4-5.3-6.5-8
		c-1.1-1.4-2.1-1.4-3.2,0c-1.8,2.4-3.7,4.8-5.6,7.1c-0.9,1-2,1.8-3.3,2.9c-4.2-12.2-7.9-23.9-14.1-34.6c-0.7,0.5-0.9,0.6-0.9,0.6
		c-0.2,0.3-0.4,0.6-0.5,0.9c-2.1,5.1-1.9,10.3-0.7,15.7c0.3,1.2,0.1,2.5,0.1,3.8c-1.2-0.6-2.7-1-3.6-1.9c-4-4-8.2-7.7-11.8-12.1
		c-4.8-5.8-9.1-12.1-13.7-18.1c-0.5-0.6-1-1.3-1.8-2.3c-0.6,7.1-1.2,13.7-1.8,20.7c-1.4-0.5-2.6-0.7-3.5-1.4c-4-2.6-8-5.2-11.9-8
		c-4.3-3.2-8.4-6.7-12.6-10.1c-0.6-0.5-1.4-0.7-2.1-1.2c-0.2,0.2-0.5,0.5-0.7,0.6c3,5.3,6.1,10.5,9.1,15.8c-0.2,0.2-0.4,0.4-0.6,0.6
		c-2.4-1.8-5-3.4-7.1-5.4c-6.1-5.8-12.2-11.7-18-17.7c-2.8-2.9-5.5-5.9-7.5-9.4c-5.4-9.5-8.9-19.9-12.6-30.2
		c-0.6-1.6-1.1-3.2-1.7-4.8c-0.3,0.1-0.6,0.1-0.8,0.1c0,0.8-0.1,1.7,0,2.5c0.5,2.1,1.3,4.2,1.4,6.3c0.1,4.8,2.2,8.9,3.5,13.4
		c1.8,6.2,3.2,12.5,6.5,18.2c0.5,0.9,0.6,2,0.9,3c-0.3,0.1-0.5,0.3-0.7,0.4c-3.1-1.9-5.4-4.7-7.7-7.6c-8.1-9.9-16.3-19.7-24.4-29.5
		c-0.9-1.1-1.8-1.6-3.3-0.8c-3,1.4-6.2,2.7-9.2,4.1c-2.4,1.1-3.2,0.7-3.3-1.9c-0.1-1.6,0.4-3.2,0.3-4.8c-0.1-1-0.5-2-0.7-3
		c-1,0.3-2.1,0.4-3,0.9c-2.5,1.5-4.9,3.2-7.7,5c-3.8-9.3-0.9-18,1.8-26.7c-2.7,2.2-3.6,5.3-4.3,8.3c-1.1,4.6-2.5,5.1-6.2,1.9
		c-0.5-0.4-0.7-0.9-1.2-1.3c-2.8-3-4.2-6.4-5.2-10.2c-0.3-1.2-1.1-2.3-1.7-3.4c-0.5,4.1-0.6,7.8-0.5,11.6c0.2,3.7,0.8,7.5,1.3,11.3
		c-0.6-0.5-1.3-0.8-1.8-1.4c-7.3-8.4-14.4-17-18.9-27.3c-1.9-4.4-3.9-8.9-5.3-13.7c-1.2-4.2-1.5-8.8-2.2-13.2
		c-0.7-4.4-2.3-8.8-1.6-13.5c0.4-2.1,0.7-4.6-1.5-6c-2.2-1.4-3.9,0.7-5.7,1.6C213.6,466,211.1,467.3,208.5,468.5z M398.9,547.5
		c0.4-0.2,0.7-0.3,1-0.5c8,10.8,13.3,23.2,19.8,34.9c1.1-8.5-3.7-15.6-5.3-23.4c0.3-0.2,0.6-0.4,0.8-0.5c3.1,4.2,6.2,8.5,9.3,12.7
		c0.4-0.2,0.7-0.4,1-0.6c-3-7.7-6-15.3-9-23c0.2-0.2,0.5-0.4,0.6-0.5c2.5,2.5,4.9,5,7.5,7.5c0.1-0.6,0.3-0.9,0.2-1.2
		c-1.3-6.8-2.2-13.9-5.6-20.1c-2.5-4.6-5.6-8.9-8.4-13.4c-3.6-5.7-6.8-11.6-10.6-17.2c-1.8-2.7-4.3-5-6.5-7.4
		c-0.3,0.2-0.6,0.3-0.7,0.5c3,8.9,5.2,18.1,4.8,27.7c-5.6-10.6-9.8-22-13.9-33.2c-0.3,0.1-0.5,0.1-0.7,0.2
		c0.5,7.4,0.9,14.8,1.3,22.1c-0.3,0.1-0.6,0.1-0.9,0.1c-0.2-0.3-0.4-0.6-0.5-0.8c-1.7-6.8-3.3-13.6-4.8-20.4
		c-1.7-7.1-3.2-14.3-4.7-21.5c-0.7-3.6-1.9-7.3-0.9-11.7c0.9,1,1.7,1.6,2,2.2c0.7,1.5,1.4,3,2.1,4.5c0.4,0.6,0.9,1.1,1.4,1.6
		c0.6,0.6,1.6,1,1.9,1.7c1.1,1.9,2.1,4.1,3,6.2c1.7,3.9,2.9,7.9,6.3,10.8c0.7,0.6,1.8,0.7,2.8,1.1c0-1,0.2-2.1-0.1-3
		c-1-3.2-2.2-6.5-3.4-9.6c0.3-0.2,0.6-0.4,0.8-0.6c0.7,0.8,1.7,1.6,2.4,2.5c1.8,2.7,3.4,5.3,5.3,8c1.4,2.1,3.1,4.2,4.2,6.5
		c2.2,4.2,6,6.7,10.1,9c-0.9-2.7-1.7-5.3-2.6-8c16,16,23.9,36.8,34.1,56.2c-1.2-13.1-9.1-24.2-11.3-37c12.9,21.5,23,44.4,34.6,66.3
		c0.2-0.9,0.4-2.1,0.6-3.2c0.2,0,0.5,0,0.6,0c2.7,9.1,5.3,18.2,8.1,27.3c0.4,0,0.6-0.1,1-0.1c0.2-1.3,0.6-2.7,0.6-4
		c-0.6-7.7-1.6-15.2-2.2-22.8c-0.4-3.7-0.5-7.4-0.7-11.1c0.4-0.1,0.8-0.1,1.2-0.2c3.2,6.2,3.5,13.1,5,19.7c1.5,6.7,3,13.5,4.5,20.2
		c0.5-0.1,0.8-0.1,1.3-0.2c0.3-10.1-3-20.2-1.3-30.4c3,4.1,3.1,9,4.9,13.6c1-4.4-0.9-9,1.4-13.4c0.7,2.1,1.6,4.2,2.2,6.3
		c0.3-0.1,0.6-0.1,0.9-0.1c0.2-1,0.5-1.9,0.5-3c0.1-8.4-2.9-16.1-6.6-23.3c-5.3-9.8-11.8-18.9-17-28.7c-3.2-6-6.7-11.6-11.2-16.7
		c-0.4-0.4-0.6-0.9-0.7-1.4c1.3,0.3,2.1,1,3,1.7c2,1.8,4,3.6,6,5.4c5.4,5,10.6,10.1,15.1,16.2c5.9,8,12.6,15.5,18.7,23.5
		c3.9,5.1,7.7,10.2,10.3,16c3,6.5,7,12.6,8.1,19.9c0.1,0.7,0.7,1.5,1.1,2.2c1,2.5,2.5,4.8,3,7.4c0.7,4.9,0.9,9.9,1.3,14.9
		c0.1,1.2,0.4,2.4,0.6,3.8c1.4-0.6,2.2-1.1,3.6-1.8c1.7,7.3,3.3,14.2,5,21.2c0.4,0,0.6-0.1,1-0.1c0-7.9,0-15.8,0-23.7
		c0.5-0.1,0.9-0.1,1.3-0.2c2.7,11.6,5.4,23.2,8.1,34.9c0.7-2.5,1-5.1,1-7.6c0-8.5-0.2-17-0.2-25.5c0-0.9,0.5-1.8,0.7-2.7
		c0.2,0,0.5,0.1,0.6,0.1c0.3,1.7,0.6,3.4,0.9,5.2c0.2,0,0.5,0,0.7,0c1.5-5.3,2.4-10.5,2.2-16c-0.3-6.7-4.2-12.1-6.5-18.2
		c-1-2.7-2.5-5.1-3.9-7.7c0.1-0.1,0.2-0.3,0.4-0.4c1.3,0.7,2.6,1.5,3.9,2.2c0.3-0.2,0.5-0.4,0.7-0.5c-0.8-2.5-1.6-5-2.6-7.9
		c6.1,3.7,9.5,9.3,13.9,13.8c-3.6-9.8-8.8-18.6-15.5-26.6c3.9,1.1,6.7,3.6,9.3,6.3c2.7,2.7,5,5.4,7.4,8.3c0.1-0.7,0-1.3-0.3-1.7
		c-5.4-9.8-12.1-18.6-19.6-26.9c-3.5-4-7.8-7.1-11.6-10.9c-1.1-1.1-1.5-2.8-2.2-4.2c1.6,0.4,3.3,0.4,4.5,1.1
		c9,6.1,16.9,13.4,23.9,21.7c3,3.6,5.9,7.3,9.2,11.4c-0.1-1-0.1-1.3-0.2-1.5c-4.6-7.4-9.1-14.9-13.9-22.3
		c-7.5-11.4-19.5-18.4-28.3-28.6c-4.9-5.5-10.8-10.2-15.9-15.5c-17.2-17.9-31.1-38.1-42.7-59.9c-1.2-2.2-2.5-4.4-3.7-6.5
		c-0.5,0.6-0.6,0.9-0.5,1.1c1.8,3.7,3.4,7.5,5.4,11.1c7.3,12.8,14.7,25.5,22,38.3c0.2,0.4,0.1,0.8,0.2,1.8
		c-3.6-3.9-6.8-7.1-9.9-10.6c-3-3.6-6.1-7.3-8.9-11.1c-2.8-3.8-5.3-7.7-7.9-11.6c-2.6-3.7-5.2-7.5-7.7-11.2
		c3.6,12.6,11.7,22.8,17.9,34c-5.6-5.7-10.6-12-16-17.8c-5.6-6-9.5-13.1-13.5-20c-3.9-6.8-6.8-14.1-10.4-21.8
		c-0.2,1.1-0.4,1.6-0.4,2c0.7,3.6,0.9,7.5,2.4,10.8c3.2,7.4,7,14.6,10.5,21.8c0.4,0.8,0.6,1.7,1,2.5c-0.3,0.2-0.5,0.4-0.7,0.5
		c-1.2-1.3-2.6-2.5-3.7-4c-3-4.1-6.1-8.2-9-12.4c-0.5-0.6-0.8-1.3-1.1-1.9c-1.6-4-4.5-7.5-4.5-12.1c0-0.2-0.2-0.5-0.3-0.7
		c-0.9-3.2-2-6.4-2.8-9.7c-0.8-3.4-2.2-6.4-4.5-9c-1,4.3,0.3,8.5,1.2,12.5c0.9,4.2,2.2,8.3,3.4,12.4c-0.4,0.2-0.6,0.3-1,0.5
		c-1.3-2.4-3-4.6-3.9-7.1c-4.2-12.1-8.4-24.2-12.3-36.2c-3-9.2-5.4-18.5-8-27.9c-0.8-3-1.5-5.9-2.4-9.5c0,3.1-0.2,5.5,0.1,7.8
		c0.9,7.7,1.8,15.6,3.2,23.2c1.1,6.4,2.7,12.6,4.4,18.9c1.4,5.1,3.7,10,5.3,14.9c2.6,8.3,4.8,16.6,9.2,24.3
		c6,10.3,13.7,19.3,22.1,27.9c1.2,1.2,2.4,2.5,3.6,3.7c-0.2,0.2-0.3,0.4-0.5,0.6c-0.8-0.5-1.8-0.9-2.5-1.5
		c-3.6-2.9-7.1-5.7-10.5-8.7c-11.4-9.8-17.6-23.3-25.2-35.9c-3.6-5.9-5.7-12.5-8.9-18.6c-4.2-8.2-7.5-16.7-8.9-25.9
		c-0.7-5.2-1.8-10.2-2.9-15.4c-1.8-9.1-4.4-18-4.4-27.4c0-1.1-0.5-2.2-0.7-3.4c-0.3,0-0.5,0-0.7,0c-0.3,0.7-0.6,1.5-0.8,2.2
		c-1.8,7.9-2.6,16-1.7,24.1c1,9.7,1.8,19.5,3.2,29.1c1.3,9.1,3,18.2,6.5,26.8c4,9.6,6.3,19.9,11.8,28.9c0.7,1.3,1,2.9,1.4,4.2
		c0.1,0.5-0.2,1-0.5,2.4c-2.2-3.1-4.2-5.4-5.7-8.1c-8.6-13.9-13.2-29.6-18.4-44.9c-1.6-4.7-2.1-9.7-3.2-14.6c-1-4.5-2.5-9-2.8-13.5
		c-0.7-10.6-1.4-21.3-1.2-32c0.2-6.5,2-13.1,3.3-19.6c0.5-2.2,1.4-4.2,2.2-7c-0.9,0.6-1.2,0.6-1.4,0.9c-0.4,0.3-0.6,0.6-0.9,0.9
		c-4.7,6.5-9,13.4-10.8,21.3c-1.4,6.3-2.3,12.7-3.2,19.2c-0.6,4.7-1.8,9.5-1.2,14c1.3,8.5-1.3,16.7-0.6,25.1c0,0.1,0,0.2-0.1,0.3
		c-1.5,5.9-3,11.7-4.4,17.6c-0.6,2.7-1.1,5.3-1.8,7.8c0.4,0.1,0.6,0.3,1,0.4c1.7-2.4,3.4-4.9,5.1-7.3c0.2,0.1,0.5,0.3,0.6,0.4
		c-0.3,4.5-0.5,9.1-0.7,13.7c0.4,0.1,0.7,0.2,1.1,0.4c1.6-2.1,3.1-4.2,4.7-6.5c0.3,0.1,0.6,0.1,0.8,0.2c0,1.4,0.2,2.9,0,4.2
		c-0.7,5.4-1.6,11.1-2.2,16.5c-0.1,1,0.2,2.2,0.6,3.3c0.4,1,1.4,1.7,1.8,2.7c0.6,1.4,0.6,3,1.1,4.4c0.2,0.6,0.6,1,1,1.6
		c0.5-0.5,1-0.9,1.4-1.5c0.4-0.6,0.5-1.3,0.7-1.9c0.3,0,0.5-0.1,0.7-0.1c0.4,0.9,0.9,1.7,1,2.6c0.4,4.2,0.6,8.4,0.9,12.5
		c0.1,1.1,0.2,2.1,0.4,3.2c0.2,0,0.5,0,0.6,0c0.4-0.9,0.7-1.8,1.1-2.7c0.3,0.1,0.6,0.1,0.8,0.1c4,12.4,0.7,24.8-0.2,37.3
		c-3-4.2-1.3-9.6-2.8-14.1c-0.2,0-0.5,0-0.6,0.1c-0.7,4.2-1.4,8.5-2.1,12.8c-0.2,0-0.5,0.1-0.6,0.1c-2.2-5.6-2.8-11.7-3-17.8
		c-0.4-0.1-0.6-0.2-0.9-0.2c-1,1.9-1.9,3.8-3,5.7c-0.2,0-0.5,0-0.6,0c0-8.5,0-17.1,0-25.6c-0.2,0-0.5,0-0.6,0
		c-2.3,7.3-4.6,14.7-7,22c-0.4-0.1-0.6-0.1-1-0.2c-0.1-0.7-0.4-1.6-0.4-2.3c0.3-3.9,0.4-7.7,0.9-11.6c0.8-5.9,1.9-11.8,3-17.7
		c0.4-1.9,0.1-3.7-1.9-5.1c-2.5,6.4-4.8,12.5-7.3,18.6c-0.3-0.1-0.5-0.1-0.7-0.2c0.1-11.1,2.5-22,4-32.8c-0.4-0.1-0.6-0.2-1-0.2
		c-1.8,4.6-3.7,9.1-5.6,13.7c-0.2-0.1-0.5-0.2-0.7-0.3c-0.1-0.6-0.1-1.3-0.1-1.9c-0.2-7.5,2-14.7,4.1-21.8c0.3-0.9,0.4-1.9,0.6-3
		c-0.2-0.1-0.4-0.1-0.5-0.1c-2.4,4.1-4.8,8-7.3,12.1c-0.3-0.2-0.6-0.3-0.8-0.5c0.1-0.7,0.1-1.5,0.2-2.2c0.8-4.2,1.8-8.6,2.5-12.9
		c0.4-1.9-0.2-4.1,0.3-5.9c0.6-2.8,1.8-5.3,2.9-8c0.9-2.4,1.9-4.8,3-7.7c-1.7,0.4-2.6,0.6-3.7,0.7c0-0.5-0.1-0.9-0.1-1.1
		c1.4-4.5,2.8-9,4.3-13.5c1-2.9,0.6-5.4-0.2-8.6c-3.3,6.3-6.5,12.1-9.6,18c-0.3-0.1-0.6-0.2-0.8-0.4c0.4-1.5,0.7-3,1.1-4.4
		s0.8-3,1.2-4.4c-0.2-0.1-0.5-0.1-0.7-0.2c-1.3,3-2.5,6-3.7,9c-0.2-0.1-0.4-0.1-0.6-0.2c0.7-2.7,1.5-5.4,2.2-8.1
		c2.1-7.9,3.6-16,6.4-23.6c3.5-9.5,0.3-18.2-1.3-27.2c-3,1.6-6.5,8.8-5.6,11.2c0.9-0.9,1.7-1.8,2.7-2.9c2.1,7.3-1.3,12.9-10.5,17.3
		c0.4-1.1,0.6-1.8,0.9-2.5c0.5-0.9,1.1-1.7,1.5-2.7c0.2-0.6-0.1-1.4-0.2-2.1c-0.6,0.2-1.3,0.3-1.8,0.6c-0.9,0.7-1.6,1.7-2.6,2.7
		c-1.8-2.4,0.3-3.7,1-5.3c0.8-1.7,1.8-3.2,2.8-4.8c-0.2-0.2-0.4-0.3-0.6-0.5c-0.9,0.7-1.8,1.4-2.8,2c-0.6,0.4-1.3,0.5-2,0.7
		c-0.1-0.7-0.6-1.7-0.2-2.3c1.7-3.4,3.6-6.8,5.3-10.2c0.5-0.7,0.7-1.6,1.1-2.4c-0.2-0.1-0.4-0.2-0.5-0.4c-2.5,1.6-4.9,3-7.4,4.6
		c-0.2-0.3-0.5-0.6-0.6-0.8c3-6.6,9.1-10.9,12.9-17.2c-3.9,1.6-7.7,3.2-11.4,4.8c-0.2-0.3-0.3-0.6-0.5-0.8c3-5.1,8-8.1,11.7-12.7
		c-2.1,0.6-4.2,1.3-7,2.1c0.6-1.5,0.8-2.2,1.1-3c0.9-2.2,1.8-4.5,2.6-6.8c0.2-0.7,0.1-1.8-0.4-2.6c-0.2-0.3-1.5,0-2.3,0.2
		c-0.6,0.1-1.1,0.5-1.7,0.6c-3.9,1.4-7.7,3.6-11.6,4c-6,0.5-9.6,4.7-13.7,7.7c-4,3-7.4,6.5-11.1,10c-1.1,1-2.4,1.9-3.2,3.1
		c-3,4-5.6,7.9-8.4,12c-0.5,0.7-1,1.6-1.4,2.4c-0.7,1.8-1.4,3.5-2.1,5.3c-0.5,0.9-1,1.8-1.6,2.7c0.8,0.1,1.2-0.1,1.6-0.4
		c3.9-3.8,7.7-7.7,11.5-11.3c3.3-3.2,7-6.1,10.1-9.6c4.4-5.1,9.7-8.6,16-10.9c0.7,1.8-0.2,3.1-1.6,3.7c-4.9,2.2-7.8,6.5-11.3,10.2
		c-6.7,7.5-13.7,14.9-20.7,22.1c-2.6,2.8-5.7,5.2-7.7,8.2c-3.8,5.7-7,11.9-10.4,17.9c-0.4,0.6-0.6,1.4-0.9,2.1
		c0.2,0.1,0.5,0.3,0.6,0.4c0.6-0.7,1.1-1.4,1.6-2.1c3-4.4,5.9-8.9,8.9-13.2c5.9-8.3,12.3-16.2,20.2-22.8c9.6-7.9,18.7-16.4,28-24.6
		c1.1-1,2.5-1.7,3.7-2.5c0.2,0.3,0.5,0.5,0.7,0.7c-4.2,6-8.6,12.1-12.9,18.1c0.2,0.2,0.3,0.4,0.5,0.6c2.1-0.9,4.2-1.8,6.3-2.7
		c0.2,0.2,0.4,0.5,0.5,0.6c-4.9,4.9-9.8,9.8-14.6,14.7c4.7-1.7,8.5-5.1,14.3-5.3c-3.3,4.7-7.4,8.1-9.4,12.8c0.2,0.2,0.5,0.5,0.6,0.6
		c4.1-2.3,8.1-4.7,12.6-7.3c-0.6,5.3-4.8,7.4-7.5,11.3c2-0.5,3.2-0.8,4.5-1.1c0.1,0.6,0.2,0.7,0.1,0.9c-4.2,7.1-9.8,13.1-17.2,17.1
		c-4.9,2.7-10,4.7-15,7c-1,0.5-2,0.6-3,0.9c-0.1-0.2-0.3-0.5-0.4-0.7c0.7-1,1.4-2.1,2.1-3.1c-0.1-0.2-0.2-0.4-0.3-0.6
		c-3.1,0.9-6.3,1.8-10.1,3c0.8-1.7,1.2-2.6,1.7-3.5c-0.2-0.2-0.5-0.5-0.7-0.6c-3.1,3-6.2,5.7-9.8,9c3,0.9,2.4,2.5,1.7,4
		c-0.2,0.4-0.4,0.7-0.5,1.1c-6.5,16.5-14.3,32.6-24.9,46.9c-2.8,3.8-4.6,8.2-5.7,12.8c-0.1,0.4,0.1,0.8,0.3,1.4
		c4.6-6.7,10.3-12.3,15.4-14.9c1,3.2,3,0.5,5,0.5c-0.2,0.7-0.4,1.3-0.6,1.8c-1.7,3-3.3,6.1-5,9.1c-4.2,7.4-8,14.9-9.9,23.2
		c-0.5,2.1-0.6,4.2-0.9,6.5c0.4,0.1,0.6,0.2,1,0.2c0.5-0.9,1.1-1.8,1.5-2.8c1.9-6,6-10.5,10-15.1c4.4-5.2,8.8-10.5,13-15.8
		c1.1-1.4,2.5-2.8,1.2-4.9c-0.2-0.4,0.2-1.1,0.5-1.7c1.3-1.9,2.2-4.2,3.9-5.9c5.4-5.3,11.2-10.5,16.7-15.8c0.6-0.6,1.3-1.3,1.8-1.8
		c-6.4,2.8-11.6,7.3-18.4,9.7c0.2-1.5,0.3-2.4,0.5-4.2c-3,1.4-5.2,2.5-7.5,3.6c-0.2-0.2-0.4-0.5-0.5-0.7
		c7.5-6.8,16.9-11.6,23.2-19.7c-0.2-0.3-0.4-0.6-0.5-0.9c-3.9,1.8-7.7,3.6-11.7,5.3c-0.2-0.2-0.4-0.5-0.5-0.6
		c2.1-2.8,4.2-5.6,6.3-8.4c-0.2-0.2-0.4-0.4-0.5-0.5c-2,0.7-4.2,1.5-6.2,2.2c13.4-14.1,28.7-25.3,45.3-34.8c0.2,0.2,0.5,0.4,0.6,0.6
		c-3,4.3-5.9,8.7-8.8,12.9c0.2,0.2,0.5,0.5,0.6,0.7c3.1-0.9,6.3-1.8,9.4-2.7c0.1,0.2,0.2,0.4,0.3,0.5c-2.5,2.3-5.1,4.5-7.6,6.8
		c0.2,0.4,0.4,0.7,0.5,1c2.5-0.4,5.1-0.6,7.6-0.9c0.2,0.2,0.3,0.5,0.5,0.6c-1,0.9-1.9,2.2-3.2,2.7c-2.4,1-2.8,3.2-4,5.7
		c2.4-0.4,4.3-0.7,6.3-1c0.2,0.2,0.4,0.5,0.5,0.7c-2.6,3.1-5.1,6.2-7.7,9.3c0.1,0.2,0.2,0.4,0.3,0.6c2.2-0.9,4.3-1.8,6.5-2.7
		c0.7-0.3,1.7-0.2,2.6-0.4c0,0.9,0.4,1.8,0,2.6c-1.3,3-2.8,5.7-4.2,8.6c-3.9,7.5-7.7,14.9-13.9,20.9c-5.6,5.4-11.4,10.8-16.9,16.3
		c-4.2,4.4-8.3,9-12.3,13.7c-1,1.3-1.6,3-2.4,4.5c0.2,0.2,0.5,0.4,0.6,0.5c4.4-3.9,7.3-9.6,13.5-11.3c-6,9-13.9,16.7-18.7,26.5
		c3.1-3.2,5.7-7,8.8-10.3c3-3.3,6.5-6.2,9.8-9.3c0.2,0.2,0.5,0.5,0.7,0.7c-2.1,6.6-6.8,11.8-10.5,17.5c3.9-2.9,6.3-7.4,11.6-9.6
		c-1.3,4.2-2.5,7.5-3.3,10.9c-0.8,3.4-1.7,7.1,0.5,11.3c0.7-4,1.4-7.3,2-10.5c0.3,0,0.6,0,0.8,0c1.9,6.5,2.5,13.7,7.1,19.6
		c0.4-5.6,0.4-10.9,1.1-16c0.7-5.2,2.1-10.2,4.8-15.1c1.3,8.2,2.3,16,3.9,23.7c1.6,7.7,3.5,15.3,7.5,22.3c0.2-5.3-0.1-10.3-0.4-15.4
		c-0.4-7.5-0.6-15,2.1-22.2c0.9-2.4,3-4.3,4.3-6.6c2.7-4.7,5.3-9.6,7.8-14.4c0.4-0.6,0.9-1,1.7-1.9c2.1,5.8,4,11,5.8,16.1
		c1.3,3.9,2.5,7.7,3.7,11.7c1.5,4.7,2.5,9.7,4.5,14.1c4.5,9.8,9.6,19.3,14.4,28.9c0.2,0.4,0.5,0.7,0.6,1.1c0.8,5.4,4.5,9.2,7.7,13.4
		c4.5,5.9,8.8,12,13.2,18c3.6,4.9,7.2,9.8,10.8,14.6c0.6,0.7,1.4,1.1,2.1,1.8c-3-7.5-7.5-14.1-9.2-21.9c0.3-0.2,0.6-0.4,0.9-0.6
		c2.1,2.4,4.2,4.7,6.3,7c0.5-0.7,0.6-1.2,0.5-1.5c-4.7-10-9.4-19.8-14-29.8c-2.1-4.3-4.2-8.7-6.3-13c0.4-0.2,0.6-0.4,1-0.6
		c6.7,11.3,13.4,22.5,20,33.9c0.3-0.1,0.6-0.3,0.8-0.4c-2.3-6.5-4.7-12.9-7-19.5c0.3-0.1,0.5-0.2,0.7-0.4c6.6,11.5,13.4,23,20,34.5
		c0.3-0.1,0.6-0.3,0.9-0.4C400.8,553.3,399.9,550.5,398.9,547.5z M298.1,165.5c0.1,0.4,0.2,0.7,0.4,1.1c10.5-3.2,20.9-6.5,32.5-4.7
		c-0.7,1.1-1.2,1.8-1.8,2.8c0.9,0.3,1.7,0.5,2.5,0.7c-0.1,0.7-0.2,1.3-0.4,2.1c1.3-0.3,2.5-0.6,3.6-0.7c0.1,0.3,0.3,0.6,0.4,0.9
		c-9.7,7-20.5,12.2-30.3,19.2c3.9,0.3,7.3-2.5,11.7-1.5c-5.2,4.2-9.9,7.8-14.6,11.6c0.2,0.2,0.3,0.5,0.5,0.7
		c5.7-1.8,11.1-4.8,17.5-5.5c-0.3,0.9-0.4,1.2-0.5,1.5c-0.2,0.4-0.6,0.6-0.9,0.9c-7.3,6.3-15,11.9-23.6,16.4c-1,0.6-1.8,1.5-2.8,2.2
		c0.1,0.2,0.3,0.5,0.4,0.6c5.9-3.1,11.8-6,18.7-5.9c-4.7,5.5-11.4,8.6-16.7,13.6c5.3-1.6,9.7-5.1,15.6-5.6
		c-8.9,8.3-17.3,16.1-26,24.3c1,0.4,1.7,0.7,2.7,1.1c-3.6,7.1-9,12.5-14.4,18.1c0.2,0.2,0.4,0.4,0.5,0.6c2.5-1.3,5.1-2.5,7.5-3.7
		c0.2,0.2,0.4,0.5,0.6,0.6c-1.5,3.2-2.1,6.8-5.6,8.9c-3.3,1.9-6.7,3.8-9.7,6.3c-4.8,4.2-9.3,8.5-13.7,13.1c-2.2,2.3-3.6,5.3-5.4,7.9
		c0.2,0.3,0.5,0.6,0.6,0.7c2.7-0.5,5.4-0.8,8.1-1.3c2.8-0.6,3.6-0.1,3.4,2.7c-0.2,2.9-0.6,6-1.9,8.5c-3.9,7.6-8.1,14.9-12.2,22.4
		c-0.4,0.7-0.6,1.6-0.8,2.3c0.2,0.1,0.5,0.3,0.6,0.4c3.1-4.2,4.7-9.7,10.3-11.7c-0.3,2.1-0.7,4.2-1.5,6c-2.5,6.4-5.1,12.6-7.5,19
		c-0.8,2.2-1.2,4.7-1.8,7c0.4,0.1,0.6,0.2,0.9,0.3c0.6-0.9,1.4-1.8,1.9-2.8c4.8-8,9.7-16,14.3-24.1c3.2-5.4,6.6-10.8,12-14.5
		c1.9-1.4,3.8-3,5.5-4.8c0.9-0.9,1.6-1.9,2.2-3c-0.2-0.2-0.4-0.4-0.6-0.5c-3.4,2.2-6.8,4.5-10.2,6.8c-0.3-0.2-0.6-0.5-0.8-0.7
		c1.9-8.9,6.5-16.7,11.2-24.4c4.8-7.9,12.4-12.8,20.3-17.4c-4.6-0.2-8.7,3-13.9,1.9c2.6-2.2,4.7-4.2,6.7-6c-0.2-0.4-0.5-0.7-0.7-1.1
		c-2.8,1-5.5,2.1-8.3,3c-0.2-0.3-0.3-0.5-0.5-0.7c1.1-0.7,2.2-1.6,3.3-2.4c1.4-0.9,3.2-1.6,4.2-2.8c1.8-2.5,4.4-3.6,7.2-4.2
		c0.7-0.2,1.4-0.4,2.4-0.6c-1.9-3-5.3-0.6-7.6-2.5c1.1-1,1.9-2.4,3.1-2.9c3.6-1.5,7.3-3,11.2-3.9c5.9-1.4,11.8-2.4,17.8-3.7
		c0.9-0.2,1.7-0.9,2.4-1.4c-7.8,0.2-11.9,0.3-13.4-3.4c2.4-0.7,4.8-1.4,7.8-2.3c-3.6-2.8-7.4-1.1-11.1-2.4c4.9-5.3,11.2-7.5,17-10.8
		c-0.8-0.6-1.4-0.9-2.6-1.7c4.6-2.1,8.8-3.9,13.2-5.9c-1-0.7-1.6-1.1-2.5-1.8c2-1.4,3.9-2.6,5.6-3.7c-0.1-0.2-0.2-0.4-0.3-0.6
		c-3.3,0.4-6.6,0.7-10,1.1c-0.1-0.2-0.2-0.5-0.3-0.7c0.7-0.6,1.3-1.5,2.1-1.8c2.5-1.1,5-2.4,7.5-2.9c5.9-1,11.8-1.6,17.8-2.2
		c0.8-0.1,1.7-0.4,2.4-0.6c-0.4-0.7-0.7-0.9-1.1-1c-6.5-1.4-13.1-1.7-19.8-0.5c0.6-0.9,1.3-1.6,2-2.1c4.7-3,9.8-4.4,15.3-4.4
		c1.6,0,3.2-0.2,4.8-0.4c0-0.4,0-0.8,0-1.2c-4.6,0-9.3,0-13.9,0c0-0.4,0-0.7,0-1.1c21.5-10.3,44.6-10.1,67.5-11.1
		c0.2,0.4,0.3,0.7,0.5,1.1c-2.2,1.4-4.3,2.9-6.7,4.4c0.6,0.3,0.7,0.5,1,0.5c6.6-0.4,13.3-0.7,19.8-1.2c0.7-0.1,1.4-0.6,2.2-1
		c-0.5-0.7-0.7-1.7-1.3-2.2c-0.7-0.7-1.6-1.4-2.4-2c4.5-0.7,8.2,2.3,12.7,0.7c-1.8-1.3-3.6-2.6-5.3-3.9c0.1-0.4,0.2-0.6,0.3-1
		c2.7,0.2,5.3,0.4,8.8,0.5c-1.6-3-2.8-5.3-4.2-8.1c1.1,0.2,1.9,0.2,2.8,0.4c0.9,0.2,1.8,0.6,2.7,0.7c1.9,0.3,2.5-0.5,1.7-2.2
		c-0.5-1-0.9-2-1.7-3.8c2.1,0.8,3.5,1.6,5,1.8c0.8,0.2,2.1-0.2,2.7-0.7c1-1.3,1.7-2.8,2.7-4.5c-4.3-1.6-8.9-3.2-13.5-4.8
		c-0.4-0.1-0.8,0-1.2,0.1c-1.2,0.3-2.4,0.9-3.6,0.8c-2.6-0.2-5.3-0.6-7.7-1c-8.5-1.6-16.9-3.3-25.3-5c-0.7-0.2-1.7,0-2.5,0
		c2.8,1.6,5.7,2.4,8.5,3.5c2.8,1.1,5.9,1.7,7.7,4.6c-15.9-5.7-32.4-7.6-49-10c0.1,2.7-2.4,5.4-4.7,5.5c-6.3,0.2-12.6,0.5-18.9,0.6
		c-3.6,0.1-7,0.2-10.6,1.6c-6.5,2.5-13.5,3.8-19.9,6.3C310.5,159.2,304.4,162.5,298.1,165.5z M528.5,148.9c-0.4,0.1-0.6,0.1-1,0.2
		c0,3.9,0,7.7,0,11.5c-0.2,0.1-0.5,0.1-0.7,0.2c-0.4-0.6-0.6-1.3-1-1.8c-2-2.8-4-5.6-6.2-8.2c-1.8-2.1-4-3.3-6.5-1.3
		c-2.6-2.2-5-4.2-7.4-6.3c-0.2,0.2-0.4,0.4-0.6,0.6c1.6,2.6,5.5,3.9,4.8,8.5c-5-4-9.9-7-15.4-8.9c-0.1,0.2-0.3,0.4-0.4,0.6
		c1.5,1.2,3,2.4,4.8,4c-2.9,0.2-3.6,1.8-3.9,4c-0.1,0.7-1.2,1.9-2,2.1c-5.9,1.1-11.9,2-17.9,3c-2.1,0.4-2.5,1.1-1.2,2.8
		c1.7,2.1,3.6,4.1,5.3,6.2c1,1.4,1.8,3,2.7,4.5c-0.2,0.2-0.4,0.5-0.5,0.6c-6.4-4.4-12.6-2.5-19.6-0.1c3.4,1.1,6.3,2.1,9.3,3
		c-4.2,1.9-8,3.7-12.4,5.7c1.4,0.6,2.3,1,3.2,1.3c1.8,0.6,3.6,0.9,5.3,1.8c1,0.6,1.6,1.8,2.4,2.8c-1,0.6-1.8,1.3-3,1.8
		c-2.4,1-5,1.8-7.3,2.8c-1.7,0.7-2.7,1.9-1,3.7c1.3,1.4,0.6,2.3-0.5,3.4c-2.2,2.2-4.3,4.5-6.4,6.8c-0.9,1-1.5,2.2-2.2,3.3
		c0.2,0.2,0.4,0.4,0.6,0.5c2.4-1.6,4.7-3,7.1-4.5c0.3,0.4,0.6,0.6,0.8,1c-2.8,3-5.4,6.2-8.2,9.2c0.2,0.3,0.4,0.5,0.6,0.7
		c4.6-1.3,8.8-4.3,13.7-4.5c0.2,0.3,0.4,0.6,0.5,0.9c-5.3,3.2-10.5,6.5-15.8,9.6c1.6,0.6,3,0.6,4.3,0.8c0.5,0.1,1.4,1,1.3,1.2
		c-0.2,0.6-0.8,1.3-1.4,1.5c-0.9,0.2-1.8-0.2-2.8-0.1c-0.8,0.1-1.7,0.5-2.4,0.7c0.6,0.6,1,1.6,1.7,1.8c3.8,1.4,7.7,2.6,11.4,3.9
		c0.5,0.2,0.9,0.6,1.3,0.8c-0.1,0.3-0.2,0.6-0.3,0.8c-5-1.3-9.9-2.5-14.9-3.8c-0.1,0.2-0.2,0.5-0.3,0.6c0.6,0.6,1.3,1.2,1.9,1.7
		c4.3,3,8.8,5.7,13,8.7c0.6,0.5,1,1.3,1.6,2c-0.8,0.1-1.8,0.5-2.5,0.3c-2-0.6-4.1-1.4-6-2.1c-0.1,0.3-0.3,0.6-0.4,0.9
		c5.3,4.2,12.3,5.3,18.4,8c-0.1,0.4-0.4,0.9-0.2,1.1c2.1,3-0.6,3.4-2.2,4.4c-1.1,0.6-2.3,1.1-3.5,1.3c-5.9,0.9-9.6,5-13.1,9.1
		c-0.4,0.5-0.5,1-0.6,1.6c0.2,0.2,0.4,0.5,0.6,0.6c7.7-7.3,17.7-9.4,27.7-12.4c-1.3,2.7-2.7,5.3-4,8c0.3,0.2,0.6,0.4,0.8,0.5
		c1.7-1.5,3.3-3,5.2-4.3c0.7-0.5,1.9-0.4,3-0.5c-0.3,0.9-0.4,1.8-0.8,2.7c-0.9,1.5-1.9,3-2.9,4.3c0.2,0.2,0.4,0.4,0.6,0.5
		c2.8-1.3,5-4.2,9-3.5c-3,10.9-5.9,21.5-8.9,32.2c1.5-1.3,3-2.6,3.8-4.3c2.8-6.5,5.1-13.4,7.7-20c1.8-4.4,2.7-9.2,6.3-12.7
		c1.1-1,1.8-2.5,2.8-3.7c-4.8,1.2-6,6.2-9.2,9.4c-1.8-4.2,1.9-6.7,1.9-10.6c-2.4,2.7-4.5,5-6.5,7.3c-0.4-0.2-0.6-0.4-0.9-0.5
		c0.2-1.1,0.3-2.4,0.7-3.3c0.9-1.8,2-3.7,3.2-5.4c2.4-3.9,0.2-8.9-4.2-9.5c0.2-0.5,0.5-0.9,0.6-1.3c0.4-0.9,0.6-1.8,1-2.7
		c-0.9-0.1-1.8-0.2-2.8-0.2c-2,0.2-4,0.5-6,0.6c-0.1-0.2-0.1-0.5-0.2-0.7c0.8-0.7,1.7-1.4,2.7-2.2c-0.6-0.6-1.1-1.1-1.8-1.8
		c1.2-1.1,2.4-2.1,3.4-3.2c2.1-2.1,4.5-3.7,4.2-7.4c-0.2-2-0.7-2.5-2.3-2.5c-1.4-0.1-2.8,0-4.2,0c-0.1-0.4-0.2-0.7-0.4-1.1
		c3-1.3,6-2.7,8.9-4c-0.1-0.4-0.2-0.6-0.3-0.9c-3.4,0.4-6.7,0.8-10.1,1.2c-0.1-0.4-0.2-0.7-0.4-1.1c2.5-1,5-2.1,7.5-3.1
		c-0.1-0.2-0.1-0.4-0.1-0.6c-1.7-0.5-3.3-0.9-5.4-1.6c2.8-2.6,5.7-0.7,9-1.6c-2.7-1.7-4.7-3-6.8-4.2c0.2-0.4,0.4-0.6,0.5-1
		c2.2,0.5,4.4,0.9,6.8,1.3c0.2-0.9,0.4-1.7,0.5-2.5c0.9,0.3,1.6,0.6,2.3,0.6c0.7,0.1,1.4-0.1,2.1-0.2c-0.2-0.7-0.1-1.8-0.6-2.2
		c-1.3-1.6-2.8-3-4.2-4.4c-0.8-0.9-1.6-1.9-2.3-3c0.3-0.3,0.6-0.6,0.8-0.9c3.4,2.6,6.7,5.1,10.1,7.7c0.2-0.3,0.5-0.6,0.7-0.9
		c-2.4-2.5-4.8-5.1-7.2-7.7c0.2-0.3,0.5-0.6,0.6-0.7c2.8,1.8,5.6,3.8,8.9,5.9c0.6-8.3-3.6-14.9-4.5-22.7c3,5,5.7,9.6,8.8,14.6
		c1.7-3.2-0.6-6.7,2.5-9c1.2,3.7,2.2,7,3.3,10.3c0.2-0.1,0.5-0.2,0.6-0.2c0.5-3,1-5.9,1.5-8.8c0.4,0,0.7,0.1,1,0.1
		c0.2,0.6,0.5,1.4,0.6,2c0.4,3,0.6,6.2,1,9.3c0.2,1,0.7,2.2,1.5,3c2.3,2.2,4.8,4.2,7.3,6.3c1,0.8,2.1,1.5,3.1,2.2
		c0.2-0.2,0.5-0.4,0.6-0.5c-0.4-1.4-0.6-2.7-0.9-4.1c0.2-0.1,0.4-0.2,0.5-0.4c2.3,2.7,4.5,5.3,6.8,8c0.4-0.2,0.6-0.4,0.9-0.6
		c-1.3-2.8-2.7-5.5-4-8.3c0.2-0.2,0.5-0.4,0.7-0.6c3.3,3,6.6,5.7,10,8.7c0.2-0.2,0.4-0.4,0.6-0.5c-1.6-6.3-3-12.5-4.5-18.7
		c0.2-0.1,0.4-0.1,0.6-0.2c2.7,4.8,5.3,9.6,8.2,14.9c1.7-3.4,3.7-2.4,5.7-1.6c2,0.8,4,2.1,6.9,1.5c-3.6-4.2-7.8-7.3-9.3-12.5
		c0.9-0.2,1.7-0.3,2.7-0.5c-3-5.3-5.6-10.2-8.5-15.1c-0.3-0.5-1.7-0.6-2.5-0.4c-1.2,0.4-2.4,1-4.2,1.9c0.2-2.2,0.4-3.7,0.6-5.1
		c-3.1-2.8-1.6-7.5-3.9-10.5c-0.3,0-0.5,0-0.7,0c-0.4,3.2-0.7,6.5-1.1,9.8c-0.4,0-0.7,0.1-1,0.1C531.8,161.1,532,154.2,528.5,148.9z
		 M668.3,555.5c-0.2,0-0.4,0-0.6,0c0,1.1-0.2,2.4,0.1,3.5c1.8,7.4,1.6,14.9,1.1,22.4c-0.1,0.9-0.5,1.8-0.6,2.7c-0.3,0-0.6,0-0.7,0
		c-0.6-2.3-1.1-4.6-1.8-6.9c-0.6-2.3-1.1-4.8-3.9-6.5c0.1,10.1,0,19.7-3,29.1c-0.3,0-0.6,0-0.8,0.1c-0.5-4.9-0.9-9.8-1.4-14.7
		c-0.4,0-0.6,0-0.9-0.1c-2.5,4.6-3,9.8-4.8,14.8c-0.1-1.7,0.5-3.1,0.6-4.7c0.2-1.6,0.1-3.2,0.1-4.8c-0.2,0-0.4,0-0.5-0.1
		c-2.7,7.7-5.3,15.4-7.8,23.1c-0.4-0.1-0.7-0.2-1.1-0.3c-1-5.3,1.9-10.1,2.5-15.8c-2.8,1.6-3.9,3.5-4.8,5.9c-1.7,4.7-3.6,9.4-5.6,14
		c-1,2.3-2.5,4.4-3.7,6.5c-0.2-0.1-0.4-0.2-0.5-0.2c0.8-3.3,1.7-6.5,2.4-10c-0.3-0.1-0.5-0.2-0.7-0.2c-0.3,0.4-0.7,0.6-0.9,1
		c-8.2,19.6-13.4,40.3-20.1,60.5c1.8-2.5,3.6-5,5.1-7.7c5.3-9.4,10.2-18.9,15.5-28.4c0.5-0.8,1.1-1.6,1.8-2.4
		c0.2,0.1,0.5,0.3,0.7,0.4c-0.3,1.4-0.5,2.8-0.9,4.1c-2.4,9.6-6.5,18.4-11.3,26.9c-0.5,0.7-0.5,1.8-0.5,2.9c0,1.5,0.4,3,0.1,4.4
		c-0.4,1.8-1.1,3.6-2,6c1-0.7,1.6-0.9,1.8-1.3c4.5-9,9.3-18,13.6-27c2.5-5.3,4.2-11,6.4-16.4c0.5-1.3,1.4-2.5,2.1-3.7
		c0.2,0.1,0.5,0.2,0.7,0.4c1.1,9.7-2.2,18.6-5.1,27.7c0.7-0.4,1.3-0.7,1.6-1.3c3-6.2,6.5-12.2,9.1-18.4c3-6.8,5.3-14,7.9-21
		c0.5-1.1,1.1-2.2,1.7-3.3c0.7,0.6,1,1,0.9,1.4c-0.7,6.5-0.9,13.2-2.5,19.5c-3.2,12.5-9.4,23.8-16.1,34.7c-4.2,6.7-9,13-13.5,19.6
		c-0.6,0.8-0.9,1.8-1.3,2.7c0.2,0.1,0.4,0.3,0.6,0.4c2.4-2.2,4.8-4.4,7.1-6.6c9.1-8.9,18-18,27.3-26.7c6.7-6.3,12.8-12.9,16.6-21.3
		c1.4-3,3-6.1,4.4-9.1c-0.2-0.2-0.4-0.3-0.5-0.5c-2.3,1.8-4.5,3.7-6.8,5.4c-0.2-0.2-0.5-0.4-0.6-0.6c2.8-4,5.4-7.9,8.4-11.8
		c2.2-3,5.2-5.6,7-8.8c4.3-7.4,8.2-15,12.4-22.5c3.7-6.6,6.5-13.6,6.3-21.3c-0.1-4.5,0.2-9-2.3-13.2c-1.4-2.3-1.7-5.2-2.5-7.7
		c0.2-0.2,0.5-0.4,0.7-0.5c3,3.6,6.3,7.1,9.3,10.8c3,3.7,5.9,7.6,8.9,11.3c0.5-0.7,0.6-1.4,0.4-1.8c-3.6-9-10-16.3-15.2-24.4
		c-1.9-3-4.7-5.3-7.1-7.8c-4.8-5.3-10.1-10-16.2-13.5c-1.7-0.9-3.4-1.4-5-0.7c4.2,4.6,8.6,8.9,12.5,13.6c5.1,5.9,9.1,13.4,8.8,15.8
		c-5.3-5.3-10.2-10.6-15.4-16c-0.2,0.1-0.4,0.3-0.6,0.4c0.4,0.7,0.7,1.5,1.1,2.2c4.3,7.1,8.8,14.1,13,21.3c1.1,1.8,1.5,4.1,2.1,6.1
		c-0.4,0.1-0.6,0.3-0.9,0.4c-0.5-0.7-1-1.4-1.5-2.2c-2.9-4.4-5.6-8.8-8.6-13.1c-4.3-6.3-8.8-12.5-13.1-18.9c-1.1-1.7-2-3.5-3.3-5
		c-1.5-1.6-3.3-1.7-5.1,0s-1,3,0.1,4.6c3,4.5,6,8.9,8.7,13.7c5.3,9.3,9.1,19.2,10.4,29.9c0.1,1-0.1,1.9-0.1,3
		c-0.2,0-0.5,0.1-0.7,0.1c-2.8-7.5-5.4-14.9-8.2-22.4c-0.4,0.1-0.7,0.2-1.2,0.4c2.7,7.9,3.3,16,3.6,24.4c-0.2,0.1-0.4,0.1-0.6,0.1
		c-1.4-4.4-2.9-8.9-4.2-13.4c-0.9,4.5,1.3,8.9-0.6,13.5C673.1,573,670.7,564.3,668.3,555.5z M496.8,327.5c-0.2,0-0.5-0.1-0.6-0.1
		c-1.9,3-3.9,6-5.8,9.1c-1.1-3.5,2.3-5.9,1.1-9.2c-1,1-1.6,2.1-2.2,3.2c-0.6,1.1-1.2,2.2-2.1,3.1c-0.4,0.4-1.4,0.4-1.9,0.2
		c-0.4-0.2-0.6-1.2-0.4-1.7c1.2-3.4,2.6-6.8,3.9-10.3c0.4-1,0.4-2,0.6-3c-2.8,1.3-3.2,4.8-6.8,4.8c1.1-3,2.3-5.7,3.2-8.6
		c0.9-2.8,1.7-5.6,2.6-8.4c-0.4-0.2-0.7-0.4-1.1-0.5c-4.7,6.8-9.5,13.6-14.2,20.4c-0.3-0.1-0.5-0.3-0.7-0.4c0.4-1.8,0.7-3.5,1.1-5.3
		c-0.3-0.1-0.6-0.2-0.8-0.4c-1.9,3.4-3.8,6.7-5.7,10.1c-0.3-0.1-0.6-0.3-0.8-0.4c1.2-2.8,2.4-5.5,3.6-8.3c-0.3-0.1-0.6-0.3-0.7-0.4
		c-1.8,2.5-3.6,5.1-5.3,7.5c0.7-7.3,4.1-13.5,7-20c-1.8,0.9-3.5,1.8-4.5,3.3c-5.7,8.6-8.5,18.3-9.1,28.5c-0.1,0.6,0.3,1.3,0.5,1.9
		c0.3,1.3,0.7,2.5,0.7,3.8c-0.2,2.9-0.7,5.6-1,8.5c-0.1,0.8,0.1,1.7,0.2,2.5c0.3,0.1,0.6,0.1,0.9,0.1c0.6-2.2,1.3-4.4,2-6.5
		c0.2-0.6,0.7-1,1.1-1.5c0.5,0.6,1.1,1,1.3,1.6c0.5,1.8,0.6,3.7,0.9,5.6c1.6-3.4,2.4-6.9,3.5-10.3s2.5-6.8,5.3-9.4
		c0.1,2.7-0.1,5.3-0.6,7.9c-1,4.7-2.5,9.3-3.4,13.9c-0.4,1.6,0.1,3.3,0.2,5.1c0.3,0,0.6,0,0.9,0c0.5-1.8,1-3.5,1.6-5.3
		c0.6-1.8,1.3-3.7,1.9-5.4c0.6-1.6,1.4-3.2,2.1-4.7c0.4,0.1,0.6,0.2,0.9,0.2c-3.3,9-4.4,18.4-3.4,27.9c1-3,1.7-6,2.2-9.1
		c0.5-3.1,1.1-6.2,3.9-9.3c0.6,1.6,1.2,2.7,1.2,3.7c0.1,3.6-0.1,7.3-0.1,10.9c0,0.8,0,1.7,0,2.5c1-0.4,1.4-0.7,1.6-1.2
		c1.2-4.3,2.6-8.7,3.5-13.1c1.1-5.3,2.5-10.4,5.1-15.2c2.5-4.7,4.5-9.6,6.5-14.4C496.6,330,496.6,328.7,496.8,327.5z M448.1,337.2
		c0.4-0.1,0.7-0.1,1.2-0.1c0-1.5-0.2-3,0.1-4.4c0.6-4.8,0.7-9.8,2.2-14.4c4.7-14.9,13.1-27.7,22.1-40.1c0.8-1.1,1.6-2.4,2.3-3.6
		c-0.9-0.2-1.3-0.2-1.6,0.1c-5.1,4.4-10.3,8.7-15.1,13.4c-3.4,3.4-6.8,7-8,12c-0.6,2.4-1.3,4.7-1.9,7.1c-2.1,7.9-3.9,16-2.9,24.2
		C446.7,333.2,447.5,335.2,448.1,337.2z M775.2,438.1c0.7-0.3,1.1-0.4,1.4-0.5c2.7-2.5,5.3-5,8.1-7.4c3.4-3,5.4-6.8,5.7-11.4
		c0.2-2.7,0.2-5.3-0.1-8c-0.5-6.7-0.7-13.5,2.7-19.7c1-1.8,1.4-3.8,2.1-5.9c-0.8,0-1.1-0.1-1.3,0c-3.4,2.6-7.8,4.4-7,10.1
		c0.1,0.4,0,0.6-0.1,1c-1.9,10.8-3.9,21.5-9.3,31.3C775.9,430.5,774.9,434.1,775.2,438.1z M348.4,250.9c-4.5-1.8-22.5,4.9-25.1,9.2
		c1.4-0.1,2.7-0.1,4.4-0.2c-3.3,5-8.9,6.5-12.5,10.7c0.5,0,0.6,0,0.6,0c10.3-4.3,20.8-8.6,31.1-12.9c0.6-0.3,1.1-0.9,1.9-1.8
		c-4-0.5-7.2,2.7-10.6,0.9c-0.1-0.3-0.2-0.6-0.2-0.8C341.4,254.3,344.8,252.6,348.4,250.9z M382,210.3c4.8,0.9,34-9.3,36-12.6
		c-12.1,3-23.9,4.4-36,3.3c0,0.4,0,0.6-0.1,1c2.5,0.6,5,1.1,8.2,1.8c-1.9,1-3,1.7-4.2,2.4c0.4,0.6,0.6,1.1,0.7,1.7
		C385.2,208.6,383.9,209.4,382,210.3z M306.3,288.3c0.2,0.3,0.4,0.5,0.6,0.7c8.8-3.3,18.1-4.8,26.3-9.6c-0.1-0.2-0.2-0.5-0.2-0.7
		c-4,0.9-8,1.7-12,2.6c-0.1-0.3-0.2-0.6-0.4-0.9c5.5-3.7,12.1-6.1,16.5-11.3c-1.9,0.5-3.7,1.3-5.3,2.1c-6.7,3.5-13.5,6.8-19.9,10.8
		C309.6,283.4,308.1,286.1,306.3,288.3z M367.1,221.1c0,0.2,0.1,0.5,0.1,0.7c1,0.3,1.9,0.6,3.3,0.9c-0.6,0.8-1.1,1.4-1.6,1.9
		c-0.5,0.6-1,1.1-1.5,1.7c0.2,0.2,0.4,0.5,0.5,0.6c10.5-4.2,22.7-4.4,31.7-13.8C388.3,215.9,377.7,218.5,367.1,221.1z M395.9,194
		c0.1,0.3,0.1,0.5,0.2,0.7c0.7-0.1,1.6-0.1,2.3-0.2c2.1-0.4,4.2-0.6,6.2-1c6.4-1.2,12.7-2.3,19-3.7c3.7-0.8,5.4-2.4,6.5-4.6
		c-12.1,4.8-24.4,5.5-36.8,2.6c-0.1,0.4-0.2,0.7-0.2,1c2.4,0.8,4.8,1.7,7.7,2.7C398.8,192.6,397.3,193.3,395.9,194z M349,242.4
		c10.6-4.1,22.1-6,32.1-12.1C368.9,230.3,358.3,234.8,349,242.4z M690.9,464.9c-6.7-1.6-29.9,19.7-32.2,29.1
		c0.9-0.7,1.7-1.3,2.3-1.9c3.1-3.3,6.3-6.5,9.2-10.1c5.2-5.9,10.5-11.6,17.5-15.4C688.8,466,689.9,465.4,690.9,464.9z M799.6,370.2
		c-0.6,0.4-0.9,0.5-1.1,0.7c-0.6,0.5-1.2,1-1.7,1.7c-0.1,0.1,0.4,1,0.5,0.9c0.7-0.2,1.7-0.4,2.2-0.8c3-2.9,5.9-5.7,8.6-8.8
		c1.6-1.8,1-2.8-1.3-3c-3.8-0.5-6.7,1.3-10,3.5c1.4,0.4,2.4,0.6,3.4,0.8c0.1,0.2,0.1,0.5,0.2,0.6c-1.3,0.6-2.6,1.4-4.2,2.2
		C797.4,368.7,798.3,369.4,799.6,370.2z M348.4,344.6c0.6-10.3,2.7-20.5,6.5-30.8C348.2,319.4,344,338.9,348.4,344.6z M462.9,266.5
		c-5.6,2-19.6,18-18.7,23.7C450.6,282.2,456.7,274.4,462.9,266.5z M504.1,259.5c-3.7,1.6-7.5,10.8-7,15.5c2.1-0.9,7.9-9.1,7.7-11.1
		c-0.9,0.7-1.9,1.6-2.9,2.3c-0.2-0.2-0.5-0.4-0.7-0.5C502.2,263.8,503.1,261.7,504.1,259.5z M457.3,281.5c4.9-0.5,15.1-11.5,15.3-16
		C467.3,271,462.3,276.2,457.3,281.5z M743.5,506.5c0.6-3.7-2.5-12-5.2-13.6C737.4,496.7,740.6,505.4,743.5,506.5z M508.3,207.7
		c-0.1,0.2-0.2,0.4-0.4,0.6c6.3,5.1,11.3,12,19.6,13.2C521.3,217,514.8,212.3,508.3,207.7z M729.9,491.4c-1.7,2.5-3.6,4.7-2.8,7.3
		c0.6,1.9,2,4.2,4.7,4.9C731.1,499.5,730.6,495.9,729.9,491.4z M723.7,502.8c0.2-0.2,0.5-0.4,0.6-0.5c-0.1-0.5-0.1-1.1-0.4-1.5
		c-1.6-1.8-1-3.2,0.5-4.7c0.6-0.6,0.7-1.6,1.1-2.4c-0.3-0.3-0.5-0.5-0.7-0.7c-1.7,1.1-3.4,2.1-5,3.3c-0.4,0.3-0.6,1.4-0.3,1.8
		C720.9,499.7,722.3,501.2,723.7,502.8z M528.2,217.8c-3.9-3.9-7.7-7.7-11.6-11.7C517.2,211,524.5,218.2,528.2,217.8z M525.5,223.8
		c-4.8-2.9-9.7-5.7-14.9-8.8C512.6,218.7,521.7,224.2,525.5,223.8z M737,502.9c-0.7-3.4-1.4-6.9-2.1-10.6
		C732.2,494.7,733,499.8,737,502.9z M717.6,493.3c-2.5-0.1-4,0.7-4.8,2.4c-0.5,1,2.1,3.6,4.8,4.2C715.5,497.5,716,495.5,717.6,493.3
		z M690.8,472.1c-0.2-0.2-0.5-0.4-0.7-0.5c-2.4,3.1-4.8,6.3-7.3,9.4c0.3,0.2,0.6,0.4,0.7,0.6C686.4,478.7,689.2,475.8,690.8,472.1z
		 M373.6,241.6c-0.1-0.5-0.3-0.9-0.4-1.3c-3.9,1.3-7.8,2.7-11.7,4c0.1,0.3,0.2,0.6,0.3,0.9C365.8,243.9,369.8,242.7,373.6,241.6z
		 M511.9,268.7c-1,3-1.9,5.5-3.1,8.7C512.4,274.6,513.6,271.5,511.9,268.7z M502.6,275.7c0.3,0.2,0.5,0.3,0.7,0.5
		c2.5-1.5,4.4-5.1,3.7-7.6C505.4,271.2,504,273.4,502.6,275.7z M747.3,360.4c2.4,4.8,5.7,7.3,7.7,6.4
		C752.6,364.7,750.1,362.7,747.3,360.4z M785.4,383c0.4,0.2,0.6,0.5,1,0.6c0.8-0.8,1.8-1.6,2.5-2.6c0.2-0.4-0.2-1.1-0.3-1.8
		c-0.6,0.1-1.4,0.1-1.7,0.5C786.2,380.8,785.8,382,785.4,383z M514,222.7c-0.1,0.5-0.2,0.9-0.2,1.3c1.7,0.4,3.4,0.6,5.2,0.9
		c0.1-0.4,0.2-0.8,0.2-1.2C517.4,223.5,515.8,223.1,514,222.7z M764,369.3c-0.2,0.2-0.4,0.4-0.5,0.6c0.6,2.4,1.6,3.2,4.4,3.1
		C766.3,371.4,765.2,370.3,764,369.3z M792.2,376.2c0.2,0.5,0.5,0.9,0.7,1.3c0.9-0.5,1.8-0.9,2.6-1.6c0.1-0.1-0.3-0.7-0.5-1.2
		C794.1,375.2,793.2,375.7,792.2,376.2z"/>
	<path fill="#090923" d="M508.5,33.6c0.9,0.6,1.8,1.3,2.7,1.7c6.6,3,10.6,8.7,14.9,14.1c1.3,1.8,2.4,3.7,3.7,5.3
		c0.6,0.8,1.6,1.4,2.7,1.8c-0.4-5.8-2.7-10.9-4.8-16.1c4.8,4,8.6,8.8,12,13.8c3.3,5.1,6.3,10.4,9.6,15.6c0.9-6.7-2.1-12.5-4.2-18.6
		c7.6,6.7,11.4,15.6,14.7,24.8c0.2,0,0.5,0,0.6,0c0.2-1.6,0.5-3.2,0.7-4.8c0.3-0.1,0.5-0.2,0.7-0.2c0.4,0.9,0.8,1.8,1,2.7
		c0.5,2,0.6,4.2,1.3,6.2c0.9,3,3.1,3.6,5.4,1.6c1.1-1,1.9-0.9,2.7,0.4c0.2,0.4,0.4,0.8,0.6,1.1c0.8,0.7,1.7,1.4,2.6,2.1
		c0.5-1,0.9-1.9,1.3-3c0.2-0.6,0.2-1.4,0.4-2.1c0.2-0.1,0.5-0.2,0.6-0.3c2.8,3.7,5.5,7.4,8.8,11.6c1.4-5.1-0.4-9.6,0-14.6
		c6.8,5.7,11.3,12.3,13.7,20.5c10.9-4.4,21.7-7.3,33.4-5.4c-6.1,3-12,6-16,12c1-0.6,2.1-1,3-1.6c1.9-1.2,3.7-2.6,5.7-3.7
		c0.7-0.5,1.8-0.4,2.8-0.5c-0.2,0.9-0.1,1.9-0.6,2.7c-1.1,1.7-2.5,3-3.9,4.6c0.1,0.3,0.2,0.5,0.4,0.7c0.9-0.3,1.9-0.4,2.8-0.9
		c4.4-2.8,8.8-5.7,13.1-8.5c0.7-0.5,1.8-0.6,3-0.5c-4.7,4.8-8.3,10.1-10.3,17.2c8-0.6,15.7-2.4,23.5-1.5c-2.5,3.9-7.6,3.9-10.5,7.3
		c11.3-2.4,22.4-4.7,33.9-3.3c0.1,0.2,0.2,0.5,0.3,0.6c-0.8,0.6-1.6,1.3-2.4,1.8c-6.3,3.9-12.8,7.5-17.7,13.4c-0.9,1-1.4,2.4-2,3.6
		c1.3,0.4,2.7,0.9,4,1.1c1.7,0.3,3.3,0.4,5,0.6c0.7,0.2,1.4,0.7,2,1.1c-0.4,0.6-0.7,1.3-1.2,1.8c-1.2,1.1-2.7,2.1-3.7,3.4
		c-0.8,0.9-1.5,2.1-1.8,3.2c-0.2,0.6,0.1,1.8,0.6,2.2c0.4,0.4,1.5,0.2,2-0.1c4.9-2.4,9.8-5,14.6-7.5c2.5-1.3,4.8-2.8,7.3-4
		c2.8-1.4,3.8-1,3.2,1.9c-0.5,3-1.7,6.2-3,9c-1.8,3.9-3.9,7.6-6.1,11.8c5,0.5,8.5-4.1,13.1-3.9c0.2,0.2,0.4,0.5,0.6,0.7
		c-2.9,3.1-5.7,6.3-8.6,9.4c0.1,0.3,0.2,0.6,0.4,0.8c2.7,0.3,5.3,0.6,8.3,0.9c0.1,0.6,0.3,1.2,0.5,2.2c3.5-0.5,7.1-0.9,10.7-1.3
		c0.2,0.4,0.3,0.7,0.5,1.1c-1.3,0.9-2.5,1.8-3.9,2.6c-1.4,0.7-2.8,1.3-4.2,1.9c0.1,0.3,0.1,0.6,0.2,0.8c1.4-0.2,2.9-0.1,4.2-0.6
		c4.2-1.6,8.2-3.2,12.8-3.5c3-0.2,5.9-1.9,8.9-2.9c1.4-0.5,2.9-0.6,4.2-1c0.2,0.2,0.5,0.5,0.6,0.6c-0.9,1.8-1.7,3.9-2.8,5.6
		c-3.4,5.5-8.9,8.9-14,12.5c-1.6,1.1-3,2.5-4.5,3.6c-0.9,0.6-2,1-3,1.6c-0.9,0.5-1.8,0.9-2.7,1.4c0.5,0.8,0.9,1.7,1.4,2.5
		c1.9,2.5,4,4.8,5.7,7.4c1,1.6,1.8,3.4,0.6,5.8c-1-0.7-1.8-1.3-2.7-1.9c-3.8-3.2-8-6-11.3-9.7c-5.3-6-13.2-7.9-18.9-13.2
		c-1-0.9-1.9-1.9-2.8-3.1c4.3-0.6,8.5,1.1,12.6-0.7c-2.6-0.5-5.2-1-7.7-1.6c-0.8-0.2-1.6-0.7-2.4-1.1c0.7-0.6,1.5-1,2.2-1.6
		c0.3-0.2,0.5-0.4,1.3-1c-1.4-0.5-2.3-0.7-3.2-1c-1.7-0.5-3.5-0.6-5.1-1.4c-2.4-1.2-2.5-4.1-0.5-5.7c0.8-0.6,1.6-1.5,2.3-2.2
		c-0.1-0.3-0.2-0.6-0.2-0.8c-1.2,0.1-2.4,0.2-3.6,0.3c-0.6,0-1.3-0.1-1.8-0.2c0.1-0.6,0-1.3,0.3-1.9c1.3-2.7,2.6-5.3,3.9-7.9
		c0.2-0.4,0.1-0.9,0.2-1.6c-0.6,0.1-1,0.1-1.4,0.3c-4.1,2.4-8.4,2-12.7,1.3c-2.1-0.4-3-1.6-2.4-3.6c0.1-0.4,0.2-0.6,0.3-1
		c1-3.9,0.9-4-3-4.2c-0.2,0-0.5-0.1-1.1-0.3c0.7-2.7-0.6-4.2-2.8-5.7c-2.2-1.6-4.3-1.3-6.6,0.1c3.6-7.2,9.9-11.4,16.3-15.4
		c-0.1-0.3-0.2-0.6-0.2-0.7c-1.4,0.1-3-0.1-4.2,0.4c-4.2,1.2-8,2.9-12.3,4c-3.8,1-7.7,1.4-11.6,2.1c-0.6,0.1-1.3-0.2-2.2-0.5
		c2.2-2.3,4.2-4.3,6.1-6.4c-0.2-0.4-0.4-0.7-0.5-1.1c-1.8,0.2-3.6,0.4-5.4,0.6c-1.8,0.4-3.6,0.9-5.3,1.3c-0.6,0.1-1.7,0.1-1.8-0.2
		c-0.3-0.6-0.1-1.4,0.1-2.1c0.4-1.5,0.9-3,1.4-4.4c-0.2-0.2-0.5-0.4-0.6-0.6c-1.7,1.1-3.4,2.2-5.1,3.4c-3,2.1-3,2.1-4.2-1.1
		c-0.2-0.6-0.6-1.3-1.1-2.2c-0.7,0.7-1.1,1.1-1.6,1.7c-1.6,2-3.3,2.2-4.9,0.1c-0.9-1.3-1.8-1.4-3-0.6c-1.9,1.6-2.7,0.6-3-1.3
		c-0.2-1.1-0.2-2.3-0.2-3.5c-2.4-0.2-4.5,5.2-6.8-0.3c-0.2,0.2-0.4,0.3-0.6,0.5c0,0.7-0.2,1.6,0.1,2.2c0.6,2.1,1.3,4.2,1.8,6.3
		c0.4,1.6,0.9,2.2,2.6,1.3c0.6-0.4,1.4-0.2,2-0.4c-0.2,0.7-0.4,1.5-0.6,2.1c-0.3,0.6-0.7,1.1-1,1.7c-0.7,1.3-0.4,2.2,1.2,2.1
		c2.7-0.3,2.4,1.1,1.8,2.8c-0.1,0.2-0.3,0.5-0.3,0.7c-0.2,1.4-0.4,2.8-0.6,4.2c1.5,0,3,0.4,4.3-0.1c3-0.9,5.7-2.3,8.6-3.4
		c0.8-0.4,1.8-0.5,2.7-0.6c0.2,0.3,0.4,0.6,0.6,0.8c-1.3,0.7-2.5,1.4-4.1,2.3c2.6,1.9,6.2-1.6,6.2,3.4c2.5-1,4.7-1.9,6.9-3
		c0.2,0.2,0.3,0.4,0.5,0.5c-0.7,0.9-1.4,1.8-2.3,2.9c0.7,0.2,1.4,0.5,1.9,0.6c-1.7,6.8-7.9,8.9-12.7,12.5c0.1,0.2,0.2,0.4,0.2,0.6
		c0.6-0.2,1.4-0.2,2-0.5c3.3-1.6,6.5-3.4,10.1-4.7c5.3-2,10,0.4,14.7,2c0,0.3-0.1,0.6-0.1,0.7c-3.3,0-6.6,0-10,0
		c-0.1,0.4-0.1,0.7-0.2,1.1c4.1,1,8.2,2.1,12.3,3.1c-4.9,3-10.1-0.4-14.9,1.7c0.6,0.2,1.3,0.5,1.9,0.6c9.2,3,18.4,6.1,27.7,9.1
		c2.2,0.7,4.7,1.3,3.6,4.7c-0.1,0.4,0.3,0.9,0.6,1.8c-3.3-0.4-6.4-0.6-9.4-0.9c7,3.4,14.3,6.3,19.1,12.6c-0.2,0.3-0.3,0.6-0.5,0.9
		c-2.5-1-5-1.9-7.5-3c-0.2,0.3-0.4,0.5-0.5,0.7c1.1,1.1,2.2,2.1,3.2,3.2c-0.1,0.2-0.2,0.5-0.4,0.6c-1.7-0.5-3.4-1-5.2-1.6
		c-0.1,0.3-0.3,0.6-0.4,0.8c2.7,1.7,5.3,3.4,7.9,4.9c2.4,1.3,5.1,2.2,7.5,3.6c2.5,1.3,4.8,3,7.4,4.2c3.4,1.7,7,3,11.2,4.6
		c-0.9-1.8-1.6-3-2.2-4.2c0.2-0.1,0.4-0.2,0.6-0.4c14.3,8.9,26.1,21.2,41.4,28.5c-0.1,0.3-0.2,0.6-0.2,0.8c-0.8,0-1.7,0.1-2.5,0
		c-6.6-1.2-12.9-3.3-18.8-6.7c-5-3-10.1-5.3-15.2-7.9c-0.3-0.1-0.6-0.1-1.5,0.5c1.8,2.1,3.5,4.2,5.4,6.2c1.9,1.9,4.1,3.6,6.1,5.3
		c-0.1,0.3-0.2,0.6-0.4,0.8c-1.9-0.2-4-0.4-6.3-0.6c1.2,2.4,3.3,3,5.3,3.3c3,0.6,6,0.6,9,0.9c0.9,0.1,1.7,0.4,2.6,0.5
		c-0.4,0.9-0.6,1.8-1.1,2.6c-0.3,0.5-0.7,0.9-0.6,1.4c0,1.4,0,2.8,0,4.6c2,1,4.5,2.4,7.1,3.7c-0.1,0.3-0.2,0.6-0.4,0.8
		c-0.4,0.1-0.7,0.2-1.1,0.2c-1.8-0.1-2.8,0.6-3.9,2.5c-1.9,3.2-0.9,4.2,1.8,5.3c0.9,0.4,1.7,1,2.6,1.5c-0.2,0.4-0.4,0.7-0.6,1.1
		c-1.4,0.5-2.8,0.9-4.2,1.6c-2.3,1-2.4,2-0.5,3.5c0.7,0.6,1.4,1.3,2.2,1.9c-3,1.9-2.8,1.8-1.2,4.8c1.3,2.6,3.4,4,5.9,5.3
		c12.9,7.3,26.2,14.3,38.8,22.1c7.3,4.5,13.7,10.5,20.5,16c3.1,2.5,6,5.3,9.1,7.8c7.7,6.5,13.9,13.9,18.4,22.9
		c1.6,3.2,3.4,6.4,5.1,9.6c0.3,0.5,0.6,0.9,1,1.4c0,1.2,0,2.4,0,3.6c-0.6-1-1.4-2-1.9-3.1c-5-10.6-13.1-18.5-22.7-24.9
		c-15.9-10.5-31-22-47.6-31.5c-12.5-7.1-24.7-15-36.9-22.8c-3.4-2.1-6.5-5-9.7-7.5c0.1-0.2,0.2-0.5,0.4-0.6c1.9,0.4,3.9,0.6,5.8,0.9
		c0.1-0.2,0.1-0.5,0.2-0.7c-4.5-3.1-11-2.8-14.8-7.5c7,1.6,14.4,1.8,20.5,6.5c-0.4-5.7-6.4-7.7-7.7-12.8c2.4,1.1,4.8,2.3,7.2,3.4
		c0.2-0.3,0.4-0.5,0.6-0.7c-0.3-0.7-0.5-1.6-0.8-2.2c-0.9-1.6-1.6-2.8,0.6-3.9c0.4-0.2,0.2-1.6,0.2-2.7c0.6-0.3,1.5-0.6,2.4-1
		c0-0.3,0.1-0.5,0.1-0.7c-1.8-0.5-3.5-0.9-5.6-1.4c1-1.7,1.9-3.2,2.9-4.7c-0.6-0.3-0.7-0.5-0.9-0.5c-8.3,1.8-14.2-2.3-18.7-8.6
		c-2.3-3.2-4.8-5.3-8.6-6.4c-7.7-2.3-13.9-7-19-13.2c-0.7-0.9-1.8-1.4-2.7-2.2c-1.6-1.6-3.2-3.2-4.5-5c-1.1-1.4-1.9-3-3-4.5
		c-0.2,0.1-0.5,0.2-0.6,0.4c0.5,1.6,0.8,3.2,1.3,4.8c-0.2,0.2-0.5,0.3-0.7,0.5c-1.1-0.9-2.3-1.8-3.7-2.8c0,2.2,2.8,3.6,0.7,6.5
		c-0.9-1.3-1.8-2.7-2.8-4.2c-1.5,2.5,1.3,8.2,3.6,9.4c3,1.5,5.6,3.6,8.8,5.5c0.4,2.3,0.4,2.3,4.8,1.2c-0.8,4-0.9,4.2,3.1,6.5
		c5.4,3,11.1,5.8,16.4,8.9c2.1,1.3,4,3,6,4.6c-0.2,0.4-0.4,0.6-0.5,0.9c-1.7-0.2-3.3-0.4-5-0.6c3,3.1,8,2.6,10.5,7.6
		c-2.8-0.6-4.8-1.1-6.8-1.7c1.8,3.8,6.3,3.1,9.1,6c-1,0.2-1.6,0.2-2.1,0.4c-0.6,0.2-1.3,0.5-1.9,0.7c0.4,0.6,0.7,1.3,1.3,1.7
		c1,0.9,2.2,1.7,3.3,2.6c-0.1,0.2-0.2,0.5-0.3,0.7c-1-0.2-1.9-0.6-3-0.6c-6.7,0.4-10.1-4.2-13.5-8.9c-4.1-5.7-8.5-11.3-12.9-16.9
		c-0.9-1.1-2.1-1.8-3.4-2.6c-2.9-1.6-5.9-2.8-8.6-4.4c-2.2-1.3-4.2-3.1-6.3-4.8c-0.7,0.4-1.3,0.7-1.9,1.1c0.1-0.3,0.2-0.5,0.2-0.7
		c-1.7-0.7-3.5-1.3-5-2.4c-2-1.5-3.8-3.4-5.7-5.1c-1-0.9-2.3-1.5-4-2.5c0,1.4,0,2.1,0,2.5c-1.8-0.4-3.7-0.6-5.4-1
		c-0.8-0.2-1.6-0.9-2.2-1.5c-1.5-1.3-2.9-2.7-4.3-4c-0.3,0.2-0.6,0.4-0.9,0.5c0.4,1.8,0.7,3.7,1.3,6.2c-6.5-4.3-9.1-10.3-11.4-16.9
		c1.8,0.9,3.2,1.7,4.7,2.2c0.3,0.1,0.8-0.5,1.2-0.7c-2.5-6.6-8-10.2-13.8-13.6c0.2-0.2,0.4-0.5,0.6-0.7c8.5,1.8,17,3.7,25.5,5.4
		c-11.6-8-24.1-14.9-35.1-24.1c10,2.9,19.6,6.6,29.7,8.6c0.1-0.3,0.2-0.6,0.4-0.8c-10.6-5.2-21.2-10.3-32.5-15.8
		c2.5-2.2,4.7-4.1,6.8-5.9c-0.1-0.3-0.2-0.6-0.2-0.7c-1.2,0.2-2.4,0.3-3.6,0.5c-3.4,0.6-6.7,1.5-10.1,1.7c-4.2,0.2-6.5-3.3-5.4-7.3
		c1.3-4.6,2.5-9.3,3.7-13.9c0.2-0.6,0.1-1.2,0.1-1.8c-0.3-0.2-0.6-0.4-0.7-0.5c-2.4,2.8-4.7,5.6-7.4,8.9c-2.1-6.7,0.6-13.2-0.4-19.6
		c-0.2-0.1-0.5-0.1-0.7-0.2c-1.4,3.4-2.8,6.8-4.2,10.4c-2.3-1.7-2.5-3.8-2.5-5.8c0.2-4.8-0.7-9.4-2.4-13.8c-0.4-1-0.9-1.8-1.9-2.7
		c-0.5,2.2-0.7,4.5-1.4,6.7c-0.4,1.1-1.3,1.9-2,3c-1-0.7-2.2-1.3-3-2.3c-6.5-8-12.9-16.1-21.5-22.3c-4-3-7.9-5.9-12-8.9
		c-0.6-0.5-1.5-0.6-2.2-0.7c-0.2,0.7-0.5,1.6-0.5,2.4c0.2,3.4,0.5,6.8,0.7,10.8c-6.5-2.3-10.1-7.7-14.5-12.2
		c-0.2,0.1-0.5,0.2-0.7,0.2c0.1,1.1,0.1,2.4,0.4,3.4c0.7,2.6,1.7,5.1,2.4,7.7c0.2,0.6-0.1,1.4-0.1,2.1c-0.6-0.2-1.5-0.2-1.9-0.5
		c-3.4-2.3-6.7-4.7-10.6-7.4c0,1.9,0.1,3.3,0,4.7c-0.1,1-0.3,1.9-0.4,3c-0.9-0.4-1.8-0.6-2.7-0.9c-0.4-0.1-0.6-0.2-1.2-0.5
		c0.4,1.4,0.7,2.6,0.9,3.8c0.1,0.6-0.2,1.4-0.3,2.1c-0.6-0.2-1.4-0.3-1.9-0.6c-5-4-9.8-7.9-14.7-12c-1.1-0.9-2.3-1.6-3.4-2.4
		c-0.3,0.2-0.5,0.3-0.7,0.5c0.5,1.8,0.9,3.5,1.4,5.7c-5.1-1.5-7.9-6.2-12.9-7.5c3.6,5.9,0.4,12,1.8,18c-0.4,0.1-0.7,0.2-1.1,0.4
		c-0.6-0.7-1.2-1.4-1.8-2.1c-1.9-2.5-3.9-5.1-5.9-7.6c-0.6-0.6-1.7-0.9-2.5-1.3c-0.1,0.9-0.4,1.8-0.4,2.6c0.1,2.5,0.4,5,0.5,7.4
		c-0.2,0.1-0.5,0.2-0.7,0.4c-0.7-0.5-1.5-0.9-2.1-1.4c-4.3-3.6-8.6-7.4-13-10.8c-1.9-1.6-4.2-2.7-6.5-3.7c-1.3-0.6-2.9-0.5-4.2-0.7
		c-0.1,1.5-0.5,3-0.1,4.4c1,3.6,2.4,7.2,3.6,10.8c0.5,1.3,1,2.5,1.5,3.7c0.2,0.6,0.5,1.5,0.3,1.7c-2.7,2-0.7,4.7-1,7
		c-0.1,0.4-0.2,0.6-0.5,1.3c-14.9-11.6-31.7-18.7-49.3-24.4c0-0.2,0-0.5,0-0.7c1.3-0.2,2.5-0.6,3.7-0.6c5.3,0.2,10.4,0.5,15.7,0.8
		c2.7,0.2,2.8,0,2.2-2.6c-0.4-1.5-0.6-3-0.9-4.4c0.3-0.2,0.6-0.4,0.8-0.5c4.2,3,8.6,6.2,12.8,9.3c0.3-0.2,0.5-0.4,0.7-0.5
		c-0.6-2-0.9-4.2-1.6-6.1c-0.9-2.7-2.1-5.2-3-7.7c-0.2-0.6-0.1-1.4-0.2-2.1c0.7,0.1,1.5,0.1,2,0.5c1.8,1.1,3.4,2.5,5.3,3.7
		c0.3-0.2,0.6-0.4,0.9-0.6c-1.1-2.4-2.1-4.7-3.6-7.7c3.5,1.3,6.3,2.4,9.1,3.4c0.3-0.3,0.6-0.6,0.8-0.7c-1.8-3.2-3.6-6.4-5.7-10.1
		c1.5,0.3,2.7,0.2,3.6,0.6c4.9,2.8,9.7,5.7,14.5,8.6c0.9,0.6,1.8,1.1,3,1.5c-1.6-4.2-2.3-8.9-6.5-11.7c-3-2.1-6-4.2-8.8-6.5
		c-1.6-1.3-2.8-3.1-4.2-4.7c0.2-0.3,0.4-0.6,0.6-0.9c1.7,0.3,3.3,0.5,5,0.9c6.2,1.6,12.5,2.8,18.5,4.8c2.9,1,5.5,3.1,7.7,5.3
		c3.2,3.3,6.1,6.8,10.4,8.6c0.6,0.3,1.6-0.2,2.4-0.3c0.7-0.1,1.8-0.6,2.2-0.3c2.2,1.3,4.4,2.8,6.3,4.4c2,1.7,3.7,3.7,5.6,5.6
		c0.2-0.2,0.5-0.4,0.7-0.6c-1.6-2.4-3-4.7-4.6-7.1c0.2-0.2,0.5-0.5,0.6-0.6c1.7,1.6,3.3,3.1,5,4.7c0.2-0.2,0.5-0.3,0.6-0.5
		c-1.4-2.5-2.8-5.1-4.4-7.9c1.1-0.1,1.8-0.1,2.8-0.2c-2.2-5.3-4.4-10.5-6.5-15.7c0.4-0.2,0.6-0.4,1-0.6c1.7,1.7,3.3,3.4,5.1,5.1
		c0.2-0.1,0.5-0.3,0.6-0.4c-1.4-3.9-4.7-7-4.7-12c1.1,0.7,1.7,1.3,2.4,1.7c0.7,0.5,1.4,1.2,2.2,1.2c5.9-0.1,9.4,4.8,14.2,6.9
		c1.6,0.6,3.2,1.2,4.8,1.8c0.2-0.3,0.4-0.6,0.5-0.7c-0.6-1.7-1.2-3.3-1.8-5c0.2-0.1,0.4-0.2,0.5-0.4c2,1.6,4,3.2,6,4.8
		c0.2-0.2,0.4-0.3,0.5-0.5c-0.2-0.7-0.5-1.5-0.6-2.2c3.4-1.3,4.2,2.7,7.2,3.3c-0.5-1.1-0.9-1.8-1.1-2.6c-0.2-0.6-0.1-1.4-0.2-2.1
		c0.6,0.1,1.4,0,1.8,0.3c2.4,1.3,4.7,2.7,7,4c0.6,0.4,1.6,0.4,2.4,0.6c0-0.7,0.2-1.6,0.1-2.3c-1.4-4.4-3.9-8.2-7.4-11.3
		c-1.1-1-1.8-2.4-2.8-3.6C507.2,33.6,507.8,33.6,508.5,33.6z M692.8,217.3c0.2-0.2,0.3-0.4,0.5-0.6c-0.4-0.6-0.6-1.1-1-1.6
		c-4.4-4.7-8.8-9.3-13.3-13.8c-0.9-1-2.3-1.7-3.6-2.1c-2-0.7-4.2-1-6.2-1.7c-2.4-0.7-4.7-1.7-7.3-2.6c0.2,0.7,0.2,0.9,0.3,1
		c0.2,0.2,0.5,0.5,0.7,0.6c4.2,1.6,6.7,5.2,9.6,8.3c1.8,2,4.2,3.6,6.5,5.1c3.9,2.4,7.9,4.4,11.9,6.5
		C691.5,216.8,692.1,217,692.8,217.3z"/>
	<path fill="#090923" d="M603.8,457.2c-3.7-2.9-7.4-5.8-11.1-8.6c-4.8-3.7-9.8-7.1-14.6-11c-2-1.7-3.4-4-5.1-6.1
		c-0.7-1-1.7-1.9-2.2-3c-0.4-0.7-0.1-1.7-0.1-2.6c0.7,0,1.5-0.2,2.1,0c1.6,0.5,3,1.1,4.5,1.7c0.7,0.2,1.6,0.3,2.3,0.5
		c0.2-0.3,0.3-0.6,0.5-0.9c-1-0.6-2.1-1.3-3-2c-0.6-0.5-0.8-1.1-1.3-1.7c0.6-0.4,1-0.8,1.7-0.9c5.5-1,11.1-1.9,16.7-3
		c0.4-0.1,0.7-0.2,1,0c1.6,1.2,3,2.5,5.2,2.4c0.8,0,1.8,0.6,2.5,0.2c3.2-1.6,6.3-3.2,9.3-5c1.1-0.6,1.9-1.8,3-2.7
		c0.6-0.5,1.3-0.9,1.8-0.9c11.4,0.2,22.9,0.6,34.3,0.9c0.7,0,1.6,0.4,2.8,0.6c-14.9,14-24.7,31.1-35.7,47.3c0.4,0.2,0.6,0.5,1,0.7
		c1-1.5,2.1-3,3.2-4.4c6.7-9.2,13.1-18.6,20.1-27.6c4.3-5.4,9.7-10.1,14.7-14.9c1-0.9,2.9-1.5,4.2-1.4c5,0.1,10,0.6,14.9,1
		c3,0.3,3.4,1.6,1.8,4c-0.7,1-1.6,1.9-2.3,3c-0.5,0.7-0.7,1.7-0.8,2.8c4.3-3.1,6.8-8.7,13.7-9c-2.8,4.9-8.6,6.4-11.1,11.5
		c5,0.3,7.7-3.6,12.2-4.9c-1.6,2.7-3,4.8-4.2,7c-3.5,7-10.8,9.6-16.3,14.3c-6,5.1-12.1,10-18.1,14.9c-1,0.7-1.9,1.7-3.1,2
		c-10.3,3-20.7,6-31,9c-3.5,1-7,2.4-10.8,1.7c-0.5-0.1-1.2,0.5-1.8,0.7c-2.2,1.1-4.5,1.8-6.6,0.1c-2.5-2-4.8-4.4-7.1-6.6
		c0.1-0.2,0.2-0.4,0.4-0.6c3.3,1.6,6.6,3,10,4.5c-2.7-3-7.6-3.4-8.9-8.5c2.5,0.6,5,1.4,7.3,2c-4-4.7-10.2-7-14.5-11.5
		c0.3-0.5,0.6-0.9,0.7-1.3c5.9,2.3,11.7,4.5,17.5,6.8C603.4,457.8,603.6,457.5,603.8,457.2z M617.6,420.5c-0.1-0.2-0.2-0.5-0.4-0.6
		c-2.8,1.3-5.5,2.5-8.2,4c-1.1,0.6-1.9,1.8-2.8,2.8c-0.4,0.5-0.3,1.2-0.4,1.8c0.6,0.1,1.4,0.5,1.8,0.3
		C611.9,426.9,615.3,424.4,617.6,420.5z"/>
	<path fill="#090923" d="M526.6,406.8c2.5-4.3,1.2-10.3,7.2-13.4c-0.6,4.4-1.1,8.3-1.7,12.3c0.3,0.1,0.6,0.2,0.8,0.3
		c0.7-0.6,1.5-1,2.7-1.9c0.1,1.4,0.2,2.2,0.3,3c0.5,4.7,0.8,9.3,1.3,14c0.1,0.7,0.8,1.3,1.2,1.9c0.6-0.6,1.1-1.1,1.6-1.7
		c0.6-0.7,1.1-1.6,1.6-2.2c0.2,0.1,0.4,0.1,0.6,0.2c0.3,5.9,0.6,11.8,0.9,17.8c0.4,0.1,0.7,0.2,1.1,0.2c1.9-3.6,3.8-7.2,5.7-10.8
		c0.4,0.1,0.6,0.1,0.9,0.2c0.2,1.9,0.6,4,0.6,6c0.1,2.7,0,5.3,0.1,7.8c0.1,2.1,0.1,4,1.4,6c1.4,2.1,1.1,5.3,1.3,8
		c0.2,3.7,0.2,7.4,0.2,11.1c0,0.7,0.2,1.4,0.4,2.1c0.4,0,0.6,0,0.9,0c0-3.5,0-7,0-10.5c0.4-0.1,0.7-0.1,1.1-0.1
		c1.8,6.4,1.6,13.5,5.4,19.2c0.3,0,0.5,0,0.7,0c0.4-2.2,0.8-4.3,1.2-6.5c0.2,0,0.5-0.1,0.7-0.1c4.2,7.1,5.4,15.8,10.6,22.3
		c0.2-0.1,0.5-0.1,0.7-0.1c0-2.6,0-5.3,0-8.5c0.8,0.9,1.3,1.3,1.7,1.8c0.9,1.4,1.8,3,2.4,4.4c1.9,4.7,5.1,7.9,10.1,9
		c5.4,1.3,8.9,4.8,11.8,9.2c6.1,9.3,9.1,19.6,11.3,30.3c0.2,0.7,0,1.5-0.6,2.4c-1.4-3-2.7-6-4.3-8.9c-2.5-4.4-5.2-8.6-7.8-12.9
		c-0.4-0.6-1.3-0.8-2-1.3c-0.4,0.8-0.9,1.7-0.9,2.5c0.1,3,0.5,6,0.6,9c0.1,0.8,0,1.6,0,2.4c-0.2,0.1-0.5,0.1-0.6,0.2
		c-0.4-0.6-0.9-1.3-1.2-1.9c-1.8-3.8-3.6-7.7-5.4-11.3c-0.4-0.7-1.3-1.1-1.9-1.7c-0.3,0.7-0.6,1.4-0.7,2.1c-0.2,0.6-0.2,1.2-0.5,2.5
		c-3.2-3.7-6.2-7.1-9-10.3c-0.4,0.2-0.7,0.4-1,0.5c0,2.2,0,4.5,0,6.7c-0.4,0.1-0.6,0.2-1,0.3c-6.4-5.4-10.1-12.6-13.3-20.5
		c-1.5,4.7-0.5,9.4-1.1,14.2c-4-5.6-4.8-12.4-6.5-18.7c-0.3-0.1-0.6-0.1-0.9-0.1c-0.5,1.4-0.9,2.8-1.6,4.3c-2.1-1-2.5-3-2.9-4.7
		c-0.7-3.6-1.1-7.1-1.8-10.7c-0.2-0.9-0.5-1.7-0.7-2.5c-0.4-0.1-0.6-0.1-1-0.2c-1.5,4.2-3,8.5-4.4,12.7c-0.2,0-0.5,0.1-0.7,0.1
		c-0.5-3.9-1.3-7.7-1.5-11.7c-0.3-5,0-10-0.1-14.9c-0.1-1.4-0.6-2.8-0.8-4.2c-0.2,0.1-0.5,0.1-0.7,0.1c-0.7,3.7-1.5,7.4-2.2,11.1
		c-0.4,0-0.7,0-1.1,0c-1.6-7.1-0.9-14.7-3.6-22.4c-1.9,2.3-3.4,4.1-5.3,6.3c-2.6-7.4-0.2-14.4-1.1-21.9c-3.5,3.4-3.4,7.8-5.3,11.4
		c-2-8.3-0.1-16.7,0.4-25c-0.2-0.1-0.5-0.2-0.6-0.2c-1.4,2.4-2.8,4.9-4.2,7.3c-0.4-0.1-0.7-0.1-1-0.2c-0.4-5.2-0.7-10.3-1.1-15.5
		c-0.2-0.1-0.5-0.1-0.6-0.1c-1,2.3-2.1,4.6-3.1,6.9c-0.4-0.1-0.7-0.2-1.1-0.3c-0.1-2.4-0.6-4.8-0.3-7.1c0.7-6,1.8-12,3-17.9
		c1.4-7,3-14,4.6-20.9c1.2-5.4,3-10.6,6.2-15.4c1.4-2.1,2.1-4.8,3.6-6.9c2.1-3.3,4.5-6.3,6.8-9.5c0.4,0.2,0.6,0.4,1,0.6
		c-1.1,2.5-2,5.2-3.3,7.6c-0.9,1.7-1.1,2.8,1.6,3.4c-2.1,4-4.1,7.7-6.3,12.1c1.7-0.6,2.7-0.9,4.3-1.4c-0.5,1.4-0.6,2.2-1,3
		c-2.9,6.5-5.9,13-8.6,19.6c-0.7,1.8-0.6,4-0.5,6.2c2.3-4.3,4.2-8.8,9.6-11.3C527.5,390.1,525.4,398.4,526.6,406.8z"/>
	<path fill="#090923" d="M727,343.3c-3-2.6-4.5-7.1-10-8.2c1.6,3,2.9,5.4,4.5,8.6c-1.4-0.9-2.1-1.3-3.2-1.9
		c-0.2,1.3-0.4,2.3-0.6,3.7c-3-3.6-4.3-8.2-8.5-11.1c-0.2,1.8-0.4,3-0.5,4.2c-0.4,0.1-0.6,0.2-1,0.2c-1.1-2.6-2.2-5.3-3.4-8
		c-0.4,0.5-0.6,0.6-0.8,0.9c-0.2,0.3-0.4,0.6-0.5,0.7c-1.1-0.1-2-0.2-3-0.3c-0.5-2.1-1-4.4-1.6-6.6c-1.8,0.5-4.4-1.3-4.7-3
		c-1-8.3-5.9-14-14.1-16.6c-4.7-1.4-9.2-3.2-13.8-4.8c-0.6-0.2-1.2-0.6-1.8-1c0.1-0.2,0.1-0.5,0.2-0.6c3.6,0.2,7.1,0.4,10.6,0.5
		c0.1-0.4,0.1-0.7,0.2-1.1c-3.9-2.7-8.7-3-12.9-4.5c0.1-0.3,0.1-0.5,0.1-0.7c2.2,0.2,4.4,0.4,7.3,0.6c-0.7-0.9-1.1-1.6-1.6-1.7
		c-1.3-0.6-2.8-0.9-4.1-1.4c-2.4-0.9-4.9-1.8-7.1-3c-2.1-1.1-4.1-1.7-6.5-0.7c-3.9,1.3-7.8,2.7-11.8,3.4c-6,1.1-11.3-0.8-15.9-4.9
		c-1.7-1.6-3.3-3.2-5.3-4.2c-2.4-1.3-5.1-1.9-7.7-2.8c-1.4-0.5-3-0.6-4.3-1.3c-0.8-0.5-1.1-1.7-1.8-2.5c0.8-0.4,1.7-1,2.5-1
		c5.1,0.2,9.9-0.9,14.5-2.9c2.4-1,5.4-1.5,4.3-5.6c1.2,0.5,2,0.9,3,1c1.1,0.2,2.4,0.6,2.6-1.4c0.1-0.4,1.1-0.9,1.8-0.9
		s1.3,0.5,2.5,1c-0.5-1.9-0.9-3.4-1.3-4.9c0.2-0.2,0.5-0.4,0.7-0.5c1,0.7,1.9,1.7,3.1,2.2c0.6,0.4,1.9,0.4,2.4-0.1
		c3.3-3,3.1-5-0.3-8.1c-1.1-1-2-2.4-3-3.6c0.2-0.2,0.4-0.5,0.6-0.6c0.7,0.1,1.6,0.3,2.5,0.5c-1.9-5.3-6.6-7.3-11.4-10.2
		c1.2,2.4,2.1,4.2,3,6.2c-0.2,0.2-0.5,0.4-0.6,0.5c-0.9-0.6-1.8-1.4-2.2-1.7c-0.5,1-0.9,2.7-1.7,3c-1,0.3-2.4-0.6-4.1-1
		c0.5,1,0.7,1.7,1.1,2.6c-1-0.4-1.7-0.6-2.4-0.9c0,0.2,0.1,0.3,0.1,0.5c-0.9,0.2-2.1,0.8-2.8,0.5c-2.4-1.1-2.1-3.4-1.7-5.9
		c0.5-0.1,1.1-0.1,1.8-0.2c-0.2-0.7-0.4-1.5-0.8-3c2.5,1.4,4.3,2.5,6.1,3.5c1.4-4.2-1.5-6.5-3.4-9.4c-1.1-1.7-1.9-3.4-2.9-5.3
		c0.2-0.2,0.5-0.4,0.6-0.6c1.3,1.2,2.6,2.5,4.2,4.2c-0.2-2.1-0.3-3.6-0.5-5.2c0.2-0.1,0.5-0.3,0.6-0.4c1.6,3.3,6.1,2.6,7.5,6.3
		c0.2,0.5,1.1,1.2,1.6,1.1c2.6-0.7,3.3,1.3,4.5,2.7c1.9,2.2,4,4.4,6.5,6.4c0.7-3.7-2.1-6.3-3-10c3.7,1.7,4.3,5.2,6.5,7.5
		c0.7-0.9,1.6-1.8,2.9-3.2c1.2,3.4,2.2,6.3,3.3,9.4c0.7-0.5,1.3-0.8,2.4-1.5c0.3,1.3,0.6,2.5,0.7,3.6c0.2,1.2,0.2,2.5,0.6,3.8
		c0.5-1.2,1-2.4,1.5-3.6c0.5,0.2,0.7,0.4,0.7,0.4c-0.4,3,0.1,5.6,3,7.3c0.5,0.3,0.3,1.7,0.5,2.8c1.5-0.8,2.8-1.6,4.3-2.5
		c0.3,1.7,0.5,3.2,0.7,4.7c0.1,0,0.3,0,0.4,0c0.3-1.1,0.5-2.3,0.7-3.4c0.4,0,0.7,0,1,0c0.4,3.6,0.7,7.1,1,10.7
		c-0.4,0.1-0.6,0.2-0.9,0.2c-0.5-0.6-1-1.4-1.7-2.2c-1.6,1.9-3,1.8-4.2-0.8c-1.1,1.7-2.1,3-3,4.3c-1,1.2-2.8,2.2-3,3.4
		c-0.1,1.1,1.6,2.4,2.4,3.6c0.1,0.1,0.1,0.4,0.2,0.6c-3.4,2.1-7.3,0-10.9,0.6c-0.1,0.3-0.2,0.5-0.4,0.7c0.8,0.6,1.6,1.3,2.5,1.8
		c2.6,1.3,6,1.9,7.7,4c2.6,3.4,5.6,4.3,9.4,4.2c2.4,0,4.7,0.2,7,0.6c1.5,0.3,3,1,4.3,1.7c0.7,0.4,1.4,1,2.1,1.4c2.5,1.4,3,1.1,3-1.7
		c0-0.2,0.2-0.5,0.5-1.1c0.7,1,1.4,1.8,1.9,2.7c0.9,1.3,1.7,2.8,2.6,4c0.4,0.6,1.3,1.1,1.8,1c0.5-0.1,1-1,1.3-1.7
		c0.5-1.1,0.6-2.3,1-3.4c0.4,0,0.6,0.1,0.9,0.1c0.1,1.3,0,2.6,0.3,3.7c0.3,1.1,0.8,2.4,1.7,3.2c0.3,0.3,1.8-0.6,2.7-1
		c0.6-0.3,1.1-0.6,2.4-1.4c-0.4,2.1-0.6,3.6-0.8,5.3c1.2-0.3,2.1-0.5,3-0.6c0,1.5,0,3,0,4.4c1.3-0.3,2.6-0.5,4.5-0.9
		c-0.6,1-1,1.6-1.4,2.2c-0.3,0.6-0.5,1.3-0.6,1.9c0.7,0,1.5,0.2,2.1-0.1c1.7-0.7,3.3-1.6,5.1-2.4c0.2-0.1,0.5,0.1,1.5,0.2
		c-1.8,1.7-3.3,3-4.8,4.3c0.2,0.4,0.3,0.6,0.5,1c2.1-0.6,4.2-1,6.3-1.6c0.1,0.2,0.2,0.4,0.3,0.5c-1.4,1-2.8,2-4.2,3
		c0.1,0.2,0.2,0.5,0.3,0.6c3.2,0.4,6.3,0.7,9.5,1c0.1,0.3,0.1,0.6,0.1,0.9c-1.8,0.6-3.6,1.1-5.3,1.7c0,0.2-0.1,0.5-0.1,0.6
		c4,1.4,8,2.7,12,4.1c-0.1,0.3-0.1,0.6-0.1,0.9c-2.6,0.5-5.2,1-7.7,1.6c0,0.3,0,0.6,0,0.8c3.6,1.2,7.3,2.4,10.9,3.6
		c-0.1,0.3-0.1,0.6-0.2,0.8c-3,1.7-6.4-0.9-9.6,0c1.8,3.6,3.4,7.3,5.2,10.8C727.5,342.9,727.3,343.1,727,343.3z M619.6,278.9
		c1.4,2.9,5.9,6.8,8.3,7.7c2.8,0.9,7.6-1,8.6-3.7c0.3-0.6-0.2-1.6-0.4-2.4c-0.7,0.3-1.4,0.6-2,0.9c-0.3,0.2-0.5,0.5-0.6,0.7
		c-1.3,2.1-3.2,3-5.6,2.3c-2.5-0.6-4.2-2.2-4.5-4.8c-0.1-0.7-0.3-1.4-0.5-2.5C621.5,278,620.5,278.4,619.6,278.9z"/>
	<path fill="#090923" d="M588.2,393.4c1-2.2,1.9-4.3,3.2-7.2c-3.1,0.4-5.4,0.6-8.4,0.9c1.1-2.8,1.9-5.1,2.9-7.3
		c-0.2-0.2-0.4-0.3-0.5-0.5c-1.3,1.1-2.7,2.4-4,3.5c-0.3-0.2-0.6-0.4-0.7-0.6c1-1.8,1.9-3.7,3.3-6.3c-1.8,0.7-3,1.2-4.1,1.6
		c-0.6,0.2-1.4,0.1-1.8-0.2c-0.2-0.2-0.2-1.1,0-1.6c2.4-5.4,4.8-10.9,7.4-16.3c0.2-0.5,1.3-0.6,2.1-0.7c0.1,0,0.6,1,0.6,1.6
		s-0.2,1.2-0.1,1.8c0.2,0.7,0.7,1.4,1,2.1c0.6-0.4,1.2-0.6,1.8-1.1c0.7-0.6,1.4-1.3,2.1-1.9c0.3,0.1,0.6,0.2,0.8,0.4
		c-0.3,1-0.6,1.9-0.8,3c-0.1,0.7,0.1,1.4,0.1,2.2c0.6-0.1,1.4-0.2,2-0.4c0.6-0.1,1.3-0.1,1.8-0.2c-0.1,0.7-0.1,1.4-0.1,2.1
		c-0.1,0.8-0.1,1.7-0.1,2.5c0.7-0.4,1.7-0.6,2.3-1.1c1-0.7,1.9-1.8,2.9-2.7c0.2,0.1,0.5,0.2,0.6,0.3c-0.1,0.8,0,1.7-0.2,2.5
		c-0.6,3-0.4,3.2,2.5,2.3c0.2-0.1,0.5-0.1,0.7-0.1c0.2,0,0.4,0.1,0.7,0.2c-0.4,1.4-0.7,2.8-1.1,4.2c0.1,0.2,0.1,0.5,0.2,0.7
		c4.2-3.8,6.3-2,9.3,1.7c2.7,3.2,6.5,6.5,11.3,7.5c2.4,0.5,4.2-0.5,6-0.9c2.2-0.6,4.4-1.3,6.5,0.2c0.4,0.3,1,0.3,1.5,0.2
		c3.9-0.2,7.7-0.6,11.5-0.5c4.2,0.2,8.6,0.8,12.7,1.7c7.6,1.6,15.1,3.4,22.6,5.3c0.6,0.2,1.3,0.6,1.8,0.9c2.6,1.9,2.5,2.6-0.4,3.9
		c-1.8,0.8-3.6,1.9-5.4,2.5c-1.7,0.5-3.7,1-5.3,0.6c-15.2-3.4-30.8-3.2-46.1-4.8c-9.4-1-18.8-0.2-28.2,0.2
		c-3.6,0.2-7.3,0.1-10.8-0.2C590.9,395.1,589.7,394.1,588.2,393.4z"/>
	<path fill="#090923" d="M697,370.6c-0.2,1.9,0,4-0.6,5.7c-0.7,2.5-0.6,4.5,0.7,6.7c0.6,1,1,2.2,1.5,3.4c0.6,1.5,0.3,2.4-1.6,2.6
		c-0.7,0.1-1.8,0.7-2.1,1.4c-0.9,1.8-2.1,1.9-3.7,1.2c-14.1-6.1-29.1-8.7-44.3-10.6c-1.5-0.2-3-0.1-4.5-0.1c-1.4,0-2.2-0.4-1.9-2.1
		c0.1-0.7-0.7-1.9-1.4-2.3c-1.4-0.6-1.8-1.3-1.3-2.9c1-3.6,0.2-7-1.7-10.1c-1-1.8-2-2.4-3.8-0.9c-0.4,0.3-0.8,0.5-1.4,0.6
		c-0.2-1.6-0.5-3-0.6-4.3c-1.3,0.3-2.7,0.6-4.1,0.8c1.6-5.1,7.2-9.8,11-9.4c0.9,1.7,1.8,3.3,3,5.3c1.4-2.1,2.8-4.2,4.3-6.5
		c0.8,3.4,1.4,6.2,2.2,9.4c1.7-1.8,3-3.1,4.5-4.8c0.5,0.9,0.7,1.6,1.3,2.7c0.8-1.1,1.6-2.2,2.3-3.2c0.2,0,0.5,0.1,0.7,0.1
		c0.2,1.3,0.4,2.5,0.6,3.7c0.2,0.7,0.4,1.8,0.8,1.9c0.6,0.2,1.6-0.2,2.2-0.6c1.1-0.6,2.1-1.4,3.2-2.1c0.3,1.3,0.6,2.5,0.9,3.8
		c0.2,0.7,0.1,1.7,0.5,2.2c0.6,0.8,1.7,1.6,2.7,2c0.2,0.1,1-1,1.5-1.6c0.9-0.9,1.6-2.1,2.7-2.8c1.8-1,1-2.1,0.6-3.4
		c-0.2-0.7,0-1.7,0-2.5c0.6,0.6,1.5,1.1,1.9,1.8c1.4,2.4,2.7,4.9,4,7.3c0.3-0.1,0.6-0.2,0.8-0.4c0-1.2,0-2.4,0-4.1
		c1,1.1,1.6,1.8,2.2,2.7c0.2-0.1,0.4-0.2,0.6-0.3c-0.2-1.5-0.4-3-0.5-4.4c0.2-0.1,0.5-0.1,0.7-0.2c0.7,1.8,1.4,3.8,2.1,5.6
		c0.7,1.9,1.6,3.8,2.3,5.7c0.3-0.1,0.6-0.1,0.9-0.1c0-1.7-0.1-3.4,0.1-5.1c0.1-0.6,0.7-1.1,1.1-1.7c0.5,0.6,1.2,1,1.3,1.7
		c0.3,1.8,0.3,3.5,0.4,5.3c0.1,1.1-0.2,2.4,0.1,3.5c0.4,1.4,1,2.7,1.6,4c1.1-0.9,2.2-1.8,3.3-2.7c0.7-0.7,1.3-1.6,1.9-2.4
		C696.3,370.3,696.6,370.5,697,370.6z"/>
	<path fill="#090923" d="M595.5,319.8c1-1.9,1.9-3.9,3-5.7c-0.2-0.2-0.4-0.4-0.5-0.6c-2.8,0.5-5.4,1-8.2,1.5
		c-0.2-0.3-0.4-0.6-0.5-0.7c1.8-1.7,3.4-3.3,5.3-5c-0.1-0.3-0.2-0.5-0.3-0.7c-2.7,0-5.3,0-8,0c-0.1-0.3-0.2-0.6-0.3-0.8
		c3-2.4,5.7-4.7,8.7-7c-0.1-0.4-0.3-0.7-0.4-1c-3.2,0.3-6.3,0.6-10.3,0.9c0.9-1.3,1.3-2.5,2.1-3c1.7-1.1,3.5-1.9,5.3-2.9
		c1.4-0.6,3.2-0.6,3.6-2.7c0.1-0.4,1.1-0.5,1.7-0.6c0.6-0.1,1.4,0,2.5,0c-0.6-1-1-1.6-1.8-2.7c1.9,0.2,3.6,0.5,5.2,0.6
		c3.5,0.3,3.9-0.3,2.4-3.5c-0.2-0.5-0.4-1-0.6-1.6c0.2-0.2,0.3-0.4,0.5-0.6c1.6,0.9,3.3,1.7,4.7,2.8c3.7,3,7.2,6.1,10.9,9
		c3.8,3,8.2,4.2,12.9,4.3c0.7,0,1.4,0.1,2.1,0.2c0.1,0.4,0.1,0.6,0.1,1c-1.5,0.2-3,0.4-4.4,0.7c-0.8,0.2-2.1,0.2-2.4,0.7
		c-0.8,1.9-1.9,1.3-3.2,0.7c-0.7-0.3-1.8-0.4-2.5,0c-2.3,1.1-4-0.4-5.6-1.3c-1.9-1.1-2.8-0.9-4.1,0.8c-1,1.4-2.7,2.5-4.2,3.7
		c-0.6,0.5-1.2,0.9-2.3,1.8c1.2,0.3,1.7,0.5,2.2,0.5c2.5,0.1,2.7,0.2,1.6,2.6c-0.3,0.6-0.5,1.3-0.7,1.9c0.2,0.2,0.4,0.4,0.5,0.6
		c2.6-0.8,5.1-1.7,8.4-2.7c-0.6,1.8-1,3-1.4,4.2c-0.7,2.5-0.2,3.1,2.3,3.3c0.6,0.1,1.7,0.3,1.7,0.6c0.7,3,2.6,1.7,4.2,1.2
		c1.1-0.4,2.2-0.8,3.2-1.4c2-1,2.8-0.3,2.8,1.8c0,0.5,0.1,0.8,0.1,1.3c0.1,4.2,0.1,4.2,3.9,2.2c2.2-1.1,4.4-2.4,7.1-3.8
		c-0.7,2.3-1.2,4-1.9,6.3c2.9-1,4.9-1.7,6.8-2.4c0.2,0.4,0.4,0.7,0.5,1c-2.4,3.7-6.3,5.1-10.3,6.5c-3.9,1.3-7.7,2.7-12.2,1.6
		c0.1-0.7,0.2-1.6,0.2-2.5c-0.1-2.4-1-3-3.1-2.1c-2.4,1.1-4.6,2.4-7,3.6c-0.6,0.4-1.4,0.5-2.1,0.6c-0.1-0.6-0.2-0.7-0.2-0.9
		c0.4-1.3,1.1-2.7,0.9-3.9c-0.1-0.9-5.2-0.9-6.5-0.2c-0.8,0.5-1.7,0.7-2.5,1.1c-0.2-0.2-0.3-0.4-0.5-0.5c0.4-0.7,0.9-1.5,1.1-2.3
		s0.4-2-0.1-2.5c-0.5-0.5-1.7-0.6-2.5-0.5c-1.7,0.5-3.3,1.3-5,1.8c-1,0.4-2.2,0.3-3.4,0.1c1.8-2.5,5.4-3,6.3-7
		c-2.2,0.8-4,1.6-5.7,2.2C595.7,320.1,595.6,320,595.5,319.8z"/>
	<path fill="#090923" d="M672.2,402.8c-3.9,2.8-7.6,5.3-11.2,7.9c-2.2,1.6-4.4,1.8-7.1,1.6c-9.4-0.6-18.8-0.9-28.2-1.4
		c-5.9-0.4-11.8-0.7-17.8-1.3c-1-0.1-1.9-1.3-3-1.9c-0.6-0.5-1.3-0.9-2-1.2c-0.7-0.2-1.6,0-2.2-0.3c-0.6-0.2-1.2-0.8-1.8-1.3
		c0.5-0.6,0.7-1.4,1.3-1.7c2.1-1,1.7-1.8,0.1-3c-0.6-0.5-0.9-1.3-1.4-1.9c0.7-0.4,1.6-1,2.4-0.9c20.1,0.6,40.4,0.1,60.4,3
		c3,0.5,6,1,8.9,1.6C671.3,402.2,671.8,402.6,672.2,402.8z"/>
	<path fill="#090923" d="M568.2,415.2c1.4,0.4,2.5,0.6,3.4,0.9c2.1,0.7,3.4-0.2,4.2-2.1c0.6-1.4,0.5-2.5-1.5-1.8
		c-1.6,0.5-2.1-0.4-2.2-1.6c-0.2-1.3-0.2-2.7-0.4-4c-0.2-1.8-0.9-2.5-2.9-1.9c-3.2,1-3.8,0.6-3.9-3c-0.1-2.1,0-4.2,0-6.5
		c-0.4-0.2-0.6-0.3-0.9-0.5c-2.1,2-4.2,4-6.2,6c-0.3-0.1-0.6-0.2-0.8-0.4c0.1-1.3,0.1-2.7,0.4-4c0.2-1.5,0.6-3,0.8-4.4
		c0.1-0.2,0.1-0.6,0-0.7c-3-3-0.6-6.5-0.6-9.6c0-0.3-0.1-0.5-0.1-0.7c-0.1-0.2-0.2-0.3-0.5-0.7c-0.7,0.6-1.4,1.3-2.2,1.6
		c-0.6,0.2-1.9-0.4-1.9-0.6c0.4-6.7,0.7-13.5,4.1-19.5c0.1-0.1,0.2-0.1,0.6-0.3c-0.2,3.2-0.4,6.3-0.6,9.3c-0.2,3.1,0.3,3.7,3.3,3
		c1.7-0.4,2.4,0.2,2.4,1.8c0.1,2.6,0.1,5.3,0.5,7.7c0.5,3,1.3,3.6,4.4,3.3c1.6-0.2,1.8,0.6,2,1.8c0.3,2.4,0.6,4.8,0.8,6.5
		c1.9,0.2,3.3,0.4,4.8,0.6c0.4,0.1,0.8,0.1,1.3-0.1c3-0.6,2.9-0.6,2.5,2.4c-0.2,2.1-0.4,4.2-0.1,6.3c0.2,1,1.6,1.8,2.4,2.8
		c0.7-0.6,1.4-1.3,2.1-2c0.1-0.1,0.1-0.2,0.1-0.2c0.6-0.9,1.4-1.8,2-2.7c0.5,1.2,1.3,2.4,1.3,3.6c-0.1,2.2-0.4,4.2,1.4,6.3
		c0.8,1,0.2,3.2,0,4.8c-0.1,0.4-1.4,0.6-2.1,0.7c-3.6,0.6-7.2,1-10.6,1.9C571.5,420.8,569.5,419.8,568.2,415.2z"/>
	<path fill="#090923" d="M583.5,344.9c1.7,3.7-2.2,16.7-5.9,19.2c-0.1-1-0.2-1.8-0.2-2.5c0-1.6,0-3-2.1-3.3c-0.5-0.1-1-1.2-1.1-1.9
		c-0.2-1-0.1-2.1-0.1-3.7c-1.2,0.9-1.9,1.4-3.4,2.5c-0.2-2.8-0.4-5.1-0.5-7.5c-2.7,0.8-3-0.8-3-2.8s-0.3-3.9-0.5-6.5
		c-0.9,1.1-1.3,1.8-1.8,2.4c-0.2-0.1-0.4-0.1-0.6-0.1c0-1.8,0.1-3.7,0-5.6c-0.1-0.6-0.4-1.9-0.6-1.9c-3-0.1-1.9-2.2-2-3.7
		c-0.1-1.1,0-2.4,0-3.5c-0.2-0.1-0.5-0.1-0.7-0.1c-0.6,1.3-1.1,2.6-1.8,4c-2.8-3.3,0.6-17.1,4.7-20c-0.2,0.9-0.4,1.8-0.7,3.4
		c1.4-0.9,2.2-1.3,3.2-1.9c0.6,2.9-3.7,4.4-1.4,8.1c0.7-1.3,1.3-2.2,1.8-3.2c0.3,0.1,0.6,0.3,0.9,0.4c0,0.6,0.1,1.3,0,1.9
		c-0.2,1-0.7,1.9-0.7,3c0,0.9,0.5,1.9,0.7,2.9c0.7-0.5,1.7-0.7,2.3-1.4c1.1-1.3,2.1-2.7,3.6-4.7c1.6,5.1-2.6,8.7-1.8,13.3
		c1.1-0.9,1.8-1.5,3-2.4c-0.4,2.7-0.6,5-0.9,7.7c1.3-0.8,1.9-1.3,3.3-2.1c-0.7,3.3-1.3,6-1.8,8.9c0.3,0.1,0.6,0.3,0.8,0.4
		c1.1-0.9,2.3-1.8,4-3.2c0,1.7-0.1,2.8,0,3.7c0.1,0.7,0.2,1.6,0.4,2.3c0.6-0.4,1.4-0.7,2-1.1C582.7,345.5,583,345.2,583.5,344.9z"/>
	<path fill="#090923" d="M644,467.2c-0.4,0.5-0.6,1-1,1.4c-9,8.3-18,16.6-27,24.7c-0.7,0.6-2.7,1.1-3.2,0.6
		c-4.5-3.2-8.8-6.6-13.2-10.1c0.2-0.4,0.4-0.7,0.6-1.1c1.9,0.8,4,1.7,6,2.5c0.1-0.2,0.3-0.5,0.4-0.6c-0.7-0.6-1.6-1.3-2.4-2
		c-0.9-0.9-2-1.8-2.7-3c-0.8-1.4-0.5-2.7,1.5-3c1-0.1,2-0.3,3-0.4c10.5-0.6,20.1-4.9,30.1-7.7c2.5-0.7,5.1-1.6,7.6-2.3
		C643.7,466.6,643.8,466.9,644,467.2z"/>
	<path fill="#090923" d="M572.4,533.4c1.1,1.1,2.2,2.3,3.6,3.3c8.5,6.5,12.5,15.5,13.9,25.7c0.8,6.2,0.9,12.4,1.3,18.6
		c0.1,0.6-0.1,1.3-0.6,1.9c-3.6-17.4-10.1-33.8-18.9-49.2C571.9,533.8,572.2,533.6,572.4,533.4z"/>
	<path fill="#090923" d="M691.2,435.1c-0.6,1.4-1.1,2.8-1.7,4.2c-0.7,1.8-1.4,3.7-2.2,5.4c-0.3,0.6-0.8,1.3-1.4,1.6
		c-8.2,4.6-16.4,9.2-25.6,11.6c-1,0.3-2.1,0.3-3.1,0.5c-0.1-0.2-0.2-0.5-0.4-0.7c5.4-3.8,11.1-7.7,16.5-11.4
		c5.6-3.9,11.3-7.7,17.1-11.5C690.7,434.8,690.9,435,691.2,435.1z"/>
	<path fill="#090923" d="M597.6,591c-1.6-18.2-3-36.2-9.5-53.5c6.9,8,10.2,17.5,11.6,27.9C600.9,574.1,599,582.5,597.6,591z"/>
	<path fill="#090923" d="M531.5,333.1c1.1-0.6,2.2-1.3,3.3-1.9c0.3,0.2,0.6,0.5,0.8,0.7c-5.3,8.3-10.5,16.7-15.8,25.1
		c-0.3-0.1-0.6-0.2-0.8-0.4c0.2-0.7,0.2-1.7,0.6-2.4c1.5-3.4,3-6.7,4.6-10.1c0.4-0.7,0.6-1.4,0.7-2.1c0.1-0.6-0.2-1.4-0.4-2
		c-0.6,0.2-1.3,0.4-1.8,0.6c-1,0.6-1.9,1.3-3,1.9c-0.3-0.2-0.5-0.5-0.7-0.7c0.9-1.6,1.7-3.4,2.8-4.8c4.4-5.1,8.9-10.1,13.5-14.9
		c0.5-0.6,1.7-0.5,2.6-0.7c-0.2,0.9-0.1,1.9-0.6,2.6c-1.7,2.3-3.6,4.5-5.3,6.7c-0.5,0.6-0.7,1.3-1,2
		C531.3,332.9,531.4,333,531.5,333.1z"/>
	<path fill="#090923" d="M528.8,315.1c1.8-3,3.4-5.6,5-8.2c-0.2-0.2-0.5-0.4-0.6-0.6c-1,0.2-2.1,0.3-3.1,0.5
		c-0.2-0.3-0.4-0.5-0.5-0.7c1-1.1,2.1-2.2,3.2-3.2c1-1,1.7-1.9,1.4-3.7c-0.5-3.6,3.4-7.8,6.8-7.7c-0.2,1.7-3.3,3-0.5,4.8
		c-0.7,0.8-1.3,1.5-2,2.2c0.5,0.6,0.9,1.2,1.3,1.7c-0.6,1.3-1.2,2.5-1.9,4c1.2,0.2,2.1,0.2,3,0.4
		C540.9,306.3,532.8,313.9,528.8,315.1z"/>
	<path fill="#090923" d="M664.2,411.7c6.1-3,11.1-8.6,18.7-7.8c0.7,0.1,1.6,0.5,2.3,0.6c-0.4,0.7-0.6,1.7-1.1,2.4
		c-1.3,1.9-2.8,3.9-4.2,5.7c-0.3,0.4-0.7,0.7-1.1,0.7c-4.8-0.2-9.7-0.5-14.5-0.7C664.3,412.4,664.2,412.1,664.2,411.7z"/>
	<path fill="#090923" d="M681.1,270.9c0.1,4.9,3,9,0.4,13.9c-0.9-0.8-1.1-0.9-1.1-1c0.4-4-2.7-6.3-4.4-9.3
		c-1.8-3.3-5.3-5.9-4.7-10.3c0.1-1,0.2-1.9,0.8-3c1.6,2.8,3.3,5.4,4.7,8.4C677.6,271.2,678.3,272.5,681.1,270.9z"/>
	<path fill="#090923" d="M601.3,552.5c5.9,6.8,7.9,23.8,3.4,27.4C603.6,570.9,602.6,562,601.3,552.5z"/>
	<path fill="#090923" d="M633.8,346.8c-3.4,6.5-11.1,10.1-16.9,7.7C619.5,350,629.2,345.4,633.8,346.8z"/>
	<path fill="#090923" d="M746.1,343.5c1.8,0.7,3,1.1,4.5,1.7c-0.6,0.6-1.1,1.1-1.7,1.8c1.9,0.9,3.8,1.9,5.7,2.9
		c-0.1,0.3-0.3,0.6-0.4,0.9c-3.7-0.4-7.7-0.6-10.7-3.2c-0.9-0.7-1.1-2.4-1.6-3.6c-0.2-0.5,0.2-1.1,0-1.5c-0.5-1-1.3-1.9,0.1-2.8
		c1.4-0.9,2.9-1.7,4.8-0.8c-0.5,0.7-0.9,1.3-1.4,2.1c1.3,0.2,2.4,0.5,3.5,0.6c0,0.2,0.1,0.4,0.1,0.6
		C748.2,342.4,747.5,342.7,746.1,343.5z"/>
	<path fill="#090923" d="M732,359.7c-1.7,0.9-2.7,1.4-3.6,1.9c-0.2-0.2-0.4-0.4-0.5-0.6c1.6-1.4,3-3,4.8-4.5
		c3.8,4.5,3.9,9.9,5.3,14.9c-1.4,0.2-2.3,0.4-3,0.4c-0.9-0.7-1.7-1.3-3-2.2c0,0,0.1-0.8,0.2-1.6c-0.6-0.1-1.3-0.1-2.7-0.2
		c1.3-1.8,2.2-3,3.4-4.7c-0.9,0-1.6,0-2.4,0C731.1,362.1,731.4,361.3,732,359.7z"/>
	<path fill="#090923" d="M526.7,324.5c2.3-7,6.9-11.4,14.3-13.7C537.1,316.9,532.7,321.6,526.7,324.5z"/>
	<path fill="#090923" d="M684.8,272.6c0.2,1.6,0.5,3.2,0.8,5.5c1-1.6,1.6-2.6,2.2-3.5c0.2,0,0.4,0.1,0.5,0.1c0,1.9,0,4,0,6.2
		c1-0.1,1.7-0.2,2.4-0.2c0,3-2.8,1.8-4.2,3c-0.4-0.7-0.6-1.3-1-1.9c-0.4,0.7-0.7,1.4-1.1,2.1c-0.2-0.1-0.5-0.1-0.6-0.1
		c0-3.7,0-7.4,0-11.1C684.2,272.6,684.6,272.6,684.8,272.6z"/>
	<path fill="#090923" d="M714.1,291.3c2.8-1.3,5.3-2.6,8.9-1.1c-1.4,0.5-2.3,0.8-3.6,1.3c5.2,1.6,10,3,15.2,4.6
		C732.7,297.1,717.9,293.4,714.1,291.3z"/>
	<path fill="#090923" d="M600,199.1c4.7-0.1,12.3,7.7,12.2,12.5C608,207.5,604,203.3,600,199.1z"/>
	<path fill="#090923" d="M690.7,443.7c2.3-3.9,4.2-7.2,6.2-10.4c0.7-1.1,2.1-1.3,2.5,0.1c0.4,1.5,0.6,3.6-0.1,4.6
		C697.1,440.6,694.1,442.1,690.7,443.7z"/>
	<path fill="#090923" d="M737.9,411.6c0.7-1.8,1.3-3.7,2.4-5.3c0.5-0.7,2-0.9,3-0.8c0.4,0.1,1,1.9,0.7,2.7c-0.8,1.8-2.1,3.3-3.3,4.9
		c-0.4,0.5-1.3,0.6-1.9,0.9C738.5,413.1,738.2,412.6,737.9,411.6z"/>
	<path fill="#090923" d="M576.9,265.3c5.4-0.6,10.6-1,16-1.6C591.4,267.3,581.3,267.9,576.9,265.3z"/>
	<path fill="#090923" d="M705.6,437.1c1.2,5.3-1.1,9.3-6.5,11.1C701.5,444.4,701.7,440,705.6,437.1z"/>
	<path fill="#090923" d="M719.4,433.9c0.8-2.2,1.6-4.5,2.7-6.5c0.4-0.6,1.9-1.2,2.7-0.9c0.6,0.3,1.2,1.8,1,2.7
		c-0.6,3-3.3,4.1-5.6,5.3C720,434.1,719.7,434.1,719.4,433.9z"/>
	<path fill="#090923" d="M591.1,280.3c-0.6-1.1-1.3-2.2-2.2-3.9c1.6,0.6,2.5,1,3.7,1.5c0-0.6,0-1.2,0-2.4c2.5,1.3,4.5,2.3,6.8,3.4
		c-3,2.5-5.6,2.4-8.4,1.2L591.1,280.3z"/>
	<path fill="#090923" d="M583.2,257.1c-3.2,3.5-9.1,3-12.6-0.8C574.8,256.6,578.9,256.9,583.2,257.1z"/>
	<path fill="#090923" d="M550,366c-0.8-3,1.8-12.1,4-13.4C555.1,355.1,552.5,363.6,550,366z"/>
	<path fill="#090923" d="M707.1,285c2.8-0.5,5.1-0.7,7.3-1.1c0.1,0.4,0.2,0.7,0.4,1c-1,0.5-2,1-3.3,1.7c1.9,0.3,3.7,0.6,5.7,0.9
		C714.4,290.3,710.3,289.3,707.1,285z"/>
	<path fill="#090923" d="M556.3,226.8c5.7,0.6,11,1.1,16.4,1.7C569.2,230.6,558.9,229.7,556.3,226.8z"/>
	<path fill="#090923" d="M761.2,402.3c-1,1.6-1.8,3-3,4.2c-0.5,0.5-1.7,0.7-2.1,0.5c-0.5-0.4-0.9-1.5-0.6-2.1c0.4-1.3,1-2.7,1.7-3.9
		c0.4-0.6,1.5-1.2,1.9-1C759.9,400.4,760.4,401.3,761.2,402.3z"/>
	<path fill="#090923" d="M727.8,403.2c-0.4-2.8,0.9-5.4,3.2-6.7c1.5-0.9,2.2-0.5,2.3,1.2C733.4,400.4,731,403.1,727.8,403.2z"/>
	<path fill="#090923" d="M693,422.2c1-3.6,2.4-4.8,5-4.5c0.6,0.1,1.5,0.5,1.6,0.9c0.2,0.6-0.1,1.5-0.5,1.9
		C697.8,422.1,695.4,422.7,693,422.2z"/>
	<path fill="#090923" d="M576.6,295.6c1.3-2.8,6.2-4.6,9.8-3.8C585.5,293.9,579.8,296.2,576.6,295.6z"/>
	<path fill="#090923" d="M735.7,429.5c0.9-2.5,1.6-4.7,2.5-6.8c0.2-0.5,1.6-1,1.7-0.8c0.6,0.6,1.4,1.6,1.4,2.3
		C741.2,426.6,738.7,428.9,735.7,429.5z"/>
	<path fill="#090923" d="M743.5,398.2c1-2.1,1.9-4.2,3.1-6.3c0.2-0.3,1.3-0.5,1.5-0.2c0.5,0.5,0.9,1.2,0.9,1.8
		C749,395.7,746.8,397.9,743.5,398.2z"/>
	<path fill="#090923" d="M722.9,417.8c0.2-3,1.5-4.7,3.2-4.2c0.7,0.2,1.6,1.2,1.7,1.9c0.2,1.6-1.8,3.6-3.4,3.3
		C723.8,418.7,723.2,418,722.9,417.8z"/>
	<path fill="#090923" d="M542.7,350.5c1.6-2.4,3.1-4.7,4.8-7c0.2-0.2,0.9-0.2,1.3-0.1c0.2,0.1,0.5,0.8,0.4,1
		c-1.4,2.6-2.7,5.3-5.3,6.8C543.3,350.9,543,350.8,542.7,350.5z"/>
	<path fill="#090923" d="M712.1,408c-0.7-1.6-1.3-2.1-1.3-2.8c0-1.7,2.1-3.9,3.6-3.5c0.6,0.2,1.6,1.6,1.5,1.7
		C714.9,404.9,713.7,406.1,712.1,408z"/>
	<path fill="#090923" d="M657.6,300c-5.5,1.7-6.5,1.4-7.4-1.7c1.3-0.5,2.7-1.3,3.8-1.1C655.2,297.6,656.2,298.9,657.6,300z"/>
	<path fill="#090923" d="M552.4,348.9c-1.8,2.8-3.5,5.6-5.6,8.9c-1-3.4,1.8-8.3,4.8-9.4C551.8,348.5,552.1,348.7,552.4,348.9z"/>
	<path fill="#090923" d="M645.4,330c2.3-1.5,4.7-3,7.2-4.6C653,328.5,649.6,330.8,645.4,330z"/>
	<path fill="#090923" d="M578.6,254.6c-1.6,0-3,0-4.7,0c0.6-0.9,1-1.4,1.5-2.1c-0.6-0.5-1.2-1-1.8-1.6
		C575.9,249.4,577.6,250.6,578.6,254.6z"/>
	<path fill="#090923" d="M619.9,347.1c-0.3,2.9-3.8,5.6-5.5,5c-0.4-0.2-0.7-1.6-0.7-1.7C615.6,349.4,617.6,348.3,619.9,347.1z"/>
	<path fill="#090923" d="M557.1,232.1c2.4,0.3,5.1-1.3,7.1,1.4C562.1,235.1,560,234.6,557.1,232.1z"/>
	<path fill="#090923" d="M561.5,224.8c2.9-0.5,5.7-1.3,8.6-0.2c0,0.3,0,0.6,0,0.8c-2.9,0-5.7,0-8.6,0
		C561.5,225.2,561.5,225,561.5,224.8z"/>
	<path fill="#090923" d="M761.1,389c-1,1.1-1.8,2.1-2.7,3c-0.5-0.5-1.3-1.2-1.2-1.4c0.6-1.3,1.6-2.4,2.3-3.5
		C759.9,387.7,760.3,388.1,761.1,389z"/>
	<path fill="#090923" d="M596.8,275c2.6-0.4,4.5,0.8,5.3,3.3C599.8,278.8,597.9,277.6,596.8,275z"/>
	<path fill="#090923" d="M620.1,252.4c-0.6,0.2-1.3,0.6-1.6,0.5c-1.1-0.7-2.2-1.7-3.3-2.6c0.6-0.2,1.2-0.7,1.7-0.6
		c1.2,0.5,2.3,1.1,3.4,1.8C620.2,251.8,620.1,252.2,620.1,252.4z"/>
	<path fill="#090923" d="M704.9,280.6c-0.7,1.2-1.5,2.5-2.4,3.6c-0.2,0.3-1,0.2-1.6,0.3c0-0.5-0.2-1.1,0-1.4c0.9-1.1,1.9-2.2,3-3.3
		C704.2,280,704.5,280.3,704.9,280.6z"/>
	<path fill="#090923" d="M756.4,424.2c-0.6-2,0.6-3.1,2.2-3.8c0.2-0.1,1.1,0.6,1.2,1C760,422.6,758.3,424,756.4,424.2z"/>
	<path fill="#090923" d="M720.5,383.2c0.7-0.7,0.7-0.9,0.9-0.9c1.8-0.5,3.2,0.4,4.1,1.9c0.2,0.3-0.3,0.8-0.5,1.3
		C723.6,384.9,722.2,384.1,720.5,383.2z"/>
	<path fill="#090923" d="M707,427.9c0.9,1,1.9,1.7,1.8,2.1c-0.3,0.8-1.1,1.5-1.7,2.2c-0.6-0.6-1.8-1.1-1.8-1.7
		C705.3,429.7,706.2,429,707,427.9z"/>
	<path fill="#090923" d="M711.5,420.1c-1.4,0.8-2.2,1.5-3,1.7c-0.3,0.1-0.8-0.9-1.3-1.4c0.6-0.5,1.1-1.2,1.8-1.4
		C709.6,418.9,710.2,419.5,711.5,420.1z"/>
	<path fill="#090923" d="M740.6,377.7c1.1,0.6,2.3,1,3.3,1.7c0.2,0.1-0.1,0.9-0.2,1.3c-1.3-0.6-2.5-1.1-3.8-1.6
		C740.2,378.7,740.4,378.2,740.6,377.7z"/>
	<path fill="#090923" d="M708.5,416.2c1.4-0.7,2.1-1.4,3-1.4c0.6,0,1.1,0.9,1.7,1.4c-0.7,0.5-1.4,1-2.1,1.1
		C710.3,417.4,709.7,416.8,708.5,416.2z"/>
	<path fill="#090923" d="M591.1,280.3L591.1,280.3c0.1,0.4,0.3,0.9,0.4,1.5c-0.6,0.1-1.1,0.5-1.6,0.4c-0.9-0.4-1.7-1-2.5-1.6
		c0.1-0.4,0.2-0.6,0.4-0.9C588.9,279.8,590,280.1,591.1,280.3z"/>
	<path fill="#090923" d="M650.1,303.5c-1.4-1.6-2.5-2.6-3.8-4C649.5,299.7,650.4,300.6,650.1,303.5z"/>
	<path fill="#090923" d="M693.2,405.6c1.6,0.4,3.2,0.6,4.8,1c-0.1,0.5-0.2,0.8-0.2,1.3c-1.7-0.3-3.2-0.6-4.9-0.8
		C693,406.6,693.1,406.1,693.2,405.6z"/>
	<path fill="#090923" d="M574.2,260.8c2.2,0,4.5,0,6.8,0c0,0.2,0,0.4,0,0.5c-2.2,0-4.5,0-6.7,0C574.3,261.2,574.3,261,574.2,260.8z"
		/>
	<path fill="#090923" d="M741.6,333.8c-1.1,0.5-2.2,0.9-3.3,1.3c-0.1-0.5-0.5-1.4-0.4-1.4c1-0.5,2.1-0.8,3.2-1.1
		C741.2,333,741.4,333.4,741.6,333.8z"/>
	<path fill="#090923" d="M713.6,388.8c-1.2-0.7-2.5-1.6-3.7-2.4c0.2-0.3,0.4-0.5,0.5-0.7C712.1,385.6,713.4,386.3,713.6,388.8z"/>
	<path fill="#090923" d="M618.9,286.8c-0.6-1-1.3-2.1-1.9-3.1c0.4-0.2,0.6-0.5,1-0.6c0.6,1,1.3,2,1.9,3
		C619.6,286.4,619.3,286.6,618.9,286.8z"/>
	<path fill="#090923" d="M609.7,279.1c0.7,1.3,1.3,2.2,2,3.4C608.9,282,608.5,281.4,609.7,279.1z"/>
	<path fill="#090923" d="M763.2,490.4c-2.4-5.4-4.7-11-7.1-16.4c0.4-0.2,0.6-0.3,1-0.5c2.8,5.3,5.3,10.8,7.3,16.4
		C764.1,490,763.7,490.2,763.2,490.4z"/>
	<path fill="#090923" d="M745.3,459.8c0.9,2.4,1.8,4.8,2.7,7.3c-0.2,0.1-0.5,0.2-0.6,0.2C745.3,465.6,744,461.8,745.3,459.8z"/>
	<path fill="#090923" d="M757.9,461.3c-1.1-2.3-2.2-4.7-3.4-7c0.5-0.2,0.8-0.4,1.3-0.6c1.1,2.4,2.2,4.7,3.4,7
		C758.7,460.9,758.3,461.1,757.9,461.3z"/>
	<path fill="#090923" d="M764.9,460.1c-1.6-1.9-3-3.9-4.5-5.7c0.4-0.2,0.6-0.5,0.9-0.7c1.6,1.9,3,3.9,4.5,5.8
		C765.5,459.6,765.2,459.9,764.9,460.1z"/>
	<path fill="#090923" d="M747.6,456.6c0.6,2,1.1,4.1,1.6,6.2c-0.4,0.1-0.7,0.2-1.1,0.2c-0.6-2-1-4.2-1.6-6.2
		C746.9,456.7,747.2,456.7,747.6,456.6z"/>
	<path fill="#090923" d="M764.7,454.1c1,1.2,1.9,2.4,3,3.6c-0.3,0.2-0.6,0.5-0.9,0.7c-1-1.2-1.9-2.4-3-3.6
		C764.1,454.4,764.3,454.3,764.7,454.1z"/>
	<path fill="#090923" d="M510.6,531.5c-1.1-0.9-2.3-1.8-4-3c1.6,4,4.4,6.8,4,11.4c-1-1-1.8-1.6-2.3-2.2
		c-9.7-11.8-19.8-23.1-31.4-33.2c-12.7-11.2-25.3-22.5-38.1-33.4c-5.6-4.8-12.1-8.6-18.2-12.8c-0.4-0.2-0.6-0.5-0.9-0.6
		c0.1-0.2,0.2-0.5,0.3-0.6c2.7,1,5.4,1.8,8,3c6.4,2.5,12.1,6.2,17.4,10.4c10.5,8.4,21.3,16.4,31.8,24.8c6,4.8,12.2,9.7,17.7,15.1
		c6.3,6.1,11.3,13.3,16,20.7C511,531.1,510.8,531.4,510.6,531.5z"/>
	<path fill="#090923" d="M460.1,494.9c17.7,10.7,31.4,25.2,43.6,41.1c5,6.5,9.7,15.7,9.8,18.2C508.6,552.1,461.5,500.1,460.1,494.9z
		"/>
	<path fill="#090923" d="M320.8,420.8c-0.2,1.3-0.1,2.2-0.5,3c-2.5,6-4.7,12.3-9.6,17c-1,1-1.5,2.6-2.3,3.9
		c-0.5,0.7-1.1,1.4-1.8,2.3C304.3,440.5,313.7,426.9,320.8,420.8z"/>
	<path fill="#090923" d="M321.4,436.4c0.3,2.9-7.7,19.6-10.4,21.8C307.4,452.8,313.8,439.3,321.4,436.4z"/>
	<path fill="#090923" d="M303.9,428.5c3.4-9.1,9.1-16.6,14.4-24.2C318.6,411.5,310.2,426.9,303.9,428.5z"/>
	<path fill="#090923" d="M325.9,354.2c1.6-1.2,2.7-1.9,3.9-3c0.3,3.8-4.2,9.8-8.5,11.7c0.6-1.4,0.9-2.4,1.4-3.7
		c-0.7,0.2-1.5,0.3-3,0.6c2-4.7,5.3-7.7,7.5-11.6c0.4,0.2,0.6,0.4,0.9,0.5C327.4,350.3,326.8,352,325.9,354.2z"/>
	<path fill="#090923" d="M356.7,166.6c-2.9,0.4-5.6,0.6-9.2,1c2.8-3,6.2-4,9.2-5.1c3.2-1.1,6.7-1.6,10.1-1.9
		c3.4-0.4,6.8-0.1,10.4-0.1c0-1,0-1.7,0-2.4c1.6-1.2,26.3,4.2,29,6.5c-24.6,4.6-49.3,8.6-73,16.2c-0.2-0.5-0.4-0.9-0.5-1.4
		c7.4-5.2,15.1-9.6,24.2-11.7C356.8,167.3,356.7,166.9,356.7,166.6z"/>
	<path fill="#090923" d="M680.9,542.9c3.7,6.2,7.5,12.3,9.4,19.3c-0.4,0.2-0.6,0.4-1,0.5c-3.1-6.5-6.3-12.9-9.4-19.3
		C680.2,543.2,680.5,543.1,680.9,542.9z"/>
</g>
<g>
	<path fill="#7D7DE1" d="M619.3,314.4V209.8h19.9V134h-94.4l-84,131.9l-0.2-0.3l-0.2,0.3l-84-131.9H282v75.8h19.9v172.8H282v76
		h130.3v-76h-19.9v-72.9l0.4,0.7v-0.7l44.5,69.9v10.6h6.7l16.7,26.1l7.4-11.7L544.8,634h89.7L716,390.3h26v-75.9H619.3L619.3,314.4z
		 M528.7,314.4h-3l3-4.7V314.4L528.7,314.4z M516.4,314.4h-19.7h-6.8h-28.1H437V355v9.5l-52.1-81.7v0.7l-0.4-0.7v107.7h19.9v60.3
		H289.8v-60.3h19.9V202h-19.9v-60.1H372l88.4,138.7l0.2-0.3l0.2,0.3l88.4-138.7h82.2V202h-19.9v188.5h19.9v60.3H516.7v-49.3l0,0
		v-11.2h21.8h29.1V380v-40.5v-8.3v-16.7h-31.1v-31.6L516.4,314.4L516.4,314.4z M508.9,458.6h17.8h15.6h23.5l9.9,29.5l13.9,41.5
		l0.2-0.7l0.2,0.7l23.7-71h3.5h22v-17.4v-13.7v-45h-10.8h-8.7v-60.2h114.6v60.2h-23.8L629,626.2h-78.4L469,382.4h-23.8v-60.2h114.6
		v60.2c-5,0-9.7,0-14.4,0h-36.5v14.4v4.6l0,0v23.4L508.9,458.6L508.9,458.6z M605.4,458.6l-15.5,46.2l-0.2-0.7l-0.2,0.7L574,458.6
		H605.4L605.4,458.6z M453.3,390.3h9.9l1.6,4.9l-4.2,6.7L453.3,390.3L453.3,390.3z"/>
	<polygon fill="#090923" points="507,314.4 544.4,255.8 544.4,314.4 567.6,314.4 567.6,331.1 567.6,339.5 567.6,380 567.6,390.3 
		546,390.3 546,398.2 546,398.3 544.8,398.3 524.6,398.3 524.6,434 524.6,442.9 546.9,442.9 552.7,442.9 561,442.9 569.3,442.9 
		572.5,442.9 623.9,442.9 623.9,414.5 623.9,403.6 623.9,401.5 623.9,398.3 621.7,398.3 613.2,398.3 604,398.3 604,386.6 604,194.1 
		623.9,194.1 623.9,149.7 553.4,149.7 460.8,295.2 368.1,149.7 297.7,149.7 297.7,194.1 317.5,194.1 317.5,398.3 297.7,398.3 
		297.7,442.9 396.9,442.9 396.9,398.3 377.1,398.3 377.1,255.8 437,349.8 437,314.4 461.7,314.4 489.8,314.4 496.7,314.4 	"/>
	<polygon fill="#090923" points="622,458.6 589.9,554.3 557.9,458.6 542.2,458.6 526.6,458.6 508.9,458.6 508.9,424.9 508.9,401.5 
		508.8,401.5 508.8,396.8 508.8,382.4 531,382.4 532.4,382.4 531.9,381 531,378.1 529.8,374.6 543.8,374.6 552.3,374.6 552.3,338.3 
		552.3,330.1 544.4,330.1 536.5,330.1 528.7,330.1 516.5,330.1 515.7,330.1 506.3,330.1 497,330.1 453.1,330.1 453.1,374.6 
		468.7,374.6 474.6,374.6 475.8,378.1 479,387.7 556.2,618.3 589.9,618.3 623.7,618.3 705.2,374.6 726.8,374.6 726.8,330.1 
		627.5,330.1 627.5,374.6 650.1,374.6 639.5,406.1 639.2,407.2 639.2,427.4 639.2,441.1 639.2,458.6 	"/>
</g>
</svg>
