<?xml version="1.0" encoding="utf-8"?>
<!-- Generator: Adobe Illustrator 18.0.0, SVG Export Plug-In . SVG Version: 6.00 Build 0)  -->
<!DOCTYPE svg PUBLIC "-//W3C//DTD SVG 1.1//EN" "http://www.w3.org/Graphics/SVG/1.1/DTD/svg11.dtd">
<svg version="1.1" id="Layer_1" xmlns="http://www.w3.org/2000/svg" xmlns:xlink="http://www.w3.org/1999/xlink" x="0px" y="0px"
	 viewBox="0 0 1024 768" enable-background="new 0 0 1024 768" xml:space="preserve">
<g opacity="0.1">
	<path fill="none" d="M177.1,733.9h669.7V34H177.1V733.9z M600.1,686.7c-4.2,0-7.5-3.4-7.5-7.6c0-4.2,3.4-7.6,7.5-7.6
		c4.2,0,7.6,3.4,7.6,7.6C607.7,683.3,604.3,686.7,600.1,686.7z M214.3,87c100.5-3.5,179.3,62.7,195.4,77.3
		c8.3,3.4,10.3-4.5,25.4-9.7c11.5-5,26.2-7.1,40.6-5.5C461,129.7,426,93.9,355.3,69.4C253.3,34.1,312.6,41,312.6,41
		c81.9,9.5,149.5,81.8,173.2,110c11.1,2.7,21.5,7.8,29.3,15.8c23.9-1.3,47.9,10.6,64.9,24.4c13.7-36.8,34.3-72.2,64.6-95.9
		c7.3-3.9,19-13.4,27.4-2.6c12.4,38.9-16.7,96.6-15.7,101.4c40.1-37.6,92.2-68.9,143.4-75.4c19.9-2,26.6,8.4,27.9,15.2
		c8,16.5-24.6,61.2-45,80c22.3-0.9,60.5-1.9,26.5,42.9c-17.4,20.2-34.6,27.6-65.9,41.4c8.1,10.1,41.3,26.6,55.5,50.2
		c4.9,18.7-12.8,26.9-14.7,49.1c-16.3,20.8-25,8.1-34.5,0.1c0.9,2.8-13.5-16.7-18.1-19.6c-60.6-19.3,37.9-45.5-36-38.4
		c-10.4-0.8-17.5-1.6-23.8,0c1.1,3.8-12.8,14.4-11.1,19.1c2.9,8.1,13.4,18.4,21.5,28.6c56.4,38.9,31.4,97.1,32.6,101.7
		c5.8,22.2,5.3,46,4.8,53.2C710.4,673.3,592.6,656.7,588,660.6c-69.9,59.6-125.1,73.3-125.1,73.3c31-35,62-84.4,63.9-104.3
		c-48.5-89,7.1-128,10.3-129.8c0.4-6.2,0.8-28.2,0.8-33.2c0.2-13-52-14.3-54.8-15.9c-15.9-2.4-41.2,2.1-55.6-8
		c-4.4,9-18,21.6-9.7,33c-0.9,1.1,18,11,10.4,24.4c-6.2,8.7-26.1,2.2-14.3,16.3c2.8,12-2.6,16.6-7.7,19.5c-4.9,1.7-8.2,1.7-13.2,0.1
		c-6.3,8.6-15,16.8-25.3,18.8c-15.4,1.6-27.8-5.4-37.2-15.1c-21.8-24.1-19.8-54.6-18.7-52.9c1.2-30,38.8-24,46.8-48.1
		c0.2-7.9-12.2-4.9-18.3-7.4c-17.1,10.5-28.9,15.1-50.2,14.1c-17.4-1.5-31.9-18.2-37.7-33.9c-19.9-50.6,25.7-134.3,41.3-150.4
		c-1-4.8-2.1-9.6-2-13.5c-4.1-31.2,28.5-101.2,100.8-88.7c-16.2-14.2-59.6-45.9-132.6-54.3C157.9,93.1,214.3,87,214.3,87z"/>
	<path fill="#162B52" d="M399.8,166c0,0-2.5-2.8-7.4-7.1c-72.3-12.4-104.9,57.6-100.8,88.8c-0.1,3.9,1,8.7,2,13.5
		c-15.6,16.1-61.3,99.7-41.3,150.4c5.8,15.7,20.3,32.4,37.7,33.9c21.3,1,33.1-3.7,50.2-14.1c6.1,2.5,18.5-0.4,18.3,7.4
		c-8,24.1-45.5,18.2-46.8,48.1c-1.1-1.7-3.1,28.9,18.7,52.9c9.3,9.7,21.7,16.7,37.2,15.1c10.3-2,19-10.1,25.3-18.8
		c4.9,1.6,8.3,1.6,13.2-0.1c5.2-3,10.6-7.5,7.7-19.5c-11.7-14.1,8.2-7.6,14.3-16.3c7.5-13.4-11.3-23.2-10.4-24.4
		c-8.3-11.5,5.3-24,9.7-33c14.5,10,39.7,5.6,55.6,8c2.9,1.6,55,2.9,54.8,15.9c-0.1,4.9-0.5,27-0.8,33.2
		c-3.1,1.8-58.8,40.8-10.3,129.8c-1.8,19.9-32.9,69.4-63.9,104.3c0,0,55.1-13.7,125.1-73.3c4.6-3.9,122.4,12.7,131.1-118.4
		c0.5-7.3,1-31.1-4.8-53.2c-1.2-4.6,23.8-62.8-32.6-101.7c-8.1-10.3-18.6-20.5-21.5-28.6c-1.6-4.6,12.2-15.3,11.1-19.1
		c6.4-1.6,13.5-0.8,23.8,0c73.9-7.1-24.6,19.1,36,38.4c4.5,2.9,19,22.3,18.1,19.6c9.5,8,18.3,20.7,34.5-0.1
		c2-22.2,19.7-30.3,14.7-49.1c-14.3-23.6-47.4-40-55.5-50.2c31.3-13.8,48.6-21.2,65.9-41.4c34-44.9-4.2-43.8-26.5-42.9
		c20.4-18.9,53-63.5,45-80c-1.3-6.8-8-17.2-27.9-15.2c-51.2,6.5-103.3,37.9-143.4,75.4c-1.1-4.8,28.1-62.5,15.7-101.4
		c-8.4-10.8-20.1-1.3-27.4,2.6c-30.2,23.7-50.8,59.2-64.6,95.9c-17-13.8-41.1-25.7-64.9-24.4c-7.9-8-18.3-13.1-29.3-15.8
		c5.8,6.9,9,11.3,9,11.3l-9.9,0.7c0,0-2.7-5.4-9.1-13.9c-14.4-1.7-29.1,0.4-40.6,5.5c-14.9,5.3-16.9,13.1-25.2,9.7
		c2,1.8,3.2,3,3.2,3L399.8,166z M342.6,538.2c-16.7-8.5-21.8-29.9-22.8-45.1c-0.1-6.6,3.5-11.2,7.5-15c3.5-3.2,16.7-4.7,22-1.7
		l3,11.7c4.3,4.8,6.5,10.5,3.5,15.8c-9.1,6.1-14.3,13-14.8,25.4C341.2,532,342.6,534.9,342.6,538.2z M405.9,482.8
		c-3.9-0.1-11.1-0.2-14.3-4.1c-1.4,0.4-3.1-1.2-4,0.6c-0.5,2.6,3,5.2,6.1,5.8c3.3,3.3,15.5,1.7,13.9,9.9c1.7,4.9-1.1,9-5.5,11.4
		c6.5,3.9,6.6,9.8,7.4,15.9c-1.5,4.3-3.9,6.5-7.7,9c-2,0.3-3.8-0.7-5.2-0.4l3.7-1.9c1-5-10.6-6.6-10.6-6.6
		c-1.9,10.1-5.2,20-15.7,23.3c-5.6,1.5-11.3,0.5-15.9-3.1c-4.4-4.1-7.3-9.9-8.1-16c-0.1-6.6,3-11.9,6.8-15.1c0.9,2.1-1,5,1.3,6.8
		c4.4-2.4,7.5-8.4,7.2-13.7c2.6-13.3-22.6-32.6,4.6-37.2c12.9-2.1,33.6-10.6,40,7.1C409.6,477.5,409.5,481.5,405.9,482.8z
		 M415.9,485.4c2.7,3.2,9.5,5.2,7.8,10.7c-1.2,3.1-4.1,4.4-6.4,6c-3.3-3.3-2.6-10.4-3.8-14.5L415.9,485.4z M406.5,459.2
		c-7.2-3.4-15.6-1.1-24.6-2.1c-9.1,2.9-18.1,5-27.2,11.8c-10.3-4.6-17-0.7-25.3,1.7c4.4-9,17.3-7.9,24.7-15.6
		c4.6-7,12.1-11.5,14.3-19.6c12.1-1.6,27.2-1.3,38-6.4c6.2,1.8,8.5,6.9,12.2,11.6C418.5,448.4,413.6,456.7,406.5,459.2z
		 M476.3,725.1c39.9-31.1,57.7-95.4,57.7-95.4c17.8,17.7,46.6,24.4,46.6,24.4C576.2,674.1,476.3,725.1,476.3,725.1z M710,491.5
		c3.2,18.3-12.3,95.2-68.2,108.2c-11.4,2.7-51.7,18.5-87.7-15.6c-33.9-32.1-18.8-78.5-16.9-83.8c0-0.2-0.1-0.4-0.1-0.6l0.3,0.1
		c0,0-0.1,0.2-0.2,0.6c1.9,21.6,15.1,45.8,62.4,51.6C599.5,552,678.8,569.2,710,491.5z M669.4,454.4c-28.9,39.9-69.9,39.9-69.9,39.9
		c-43.3,2.2-59.4-34.4-59.4-34.4c73.9,7.8,94.9-22.2,94.9-22.2c31.1-41.1,17.8-77.7,17.8-77.7C705,401.1,669.4,454.4,669.4,454.4z
		 M671,325c-6.5-7.1-6.8-15.8-9.3-23.5c0.7-3.8,4.2-8.4,2.2-11.4c-6.4,6-8.1,18.2-5.9,27.1c-0.8,7.7,9.7,11.1,6.8,19.1
		c-6,7.3-10.8,18.3-21.8,17.4c-6,10.7-12.3,19.3-25.4,22.7c-11.4,1.1-22.8-4.4-29.2-12.2c-8.7-9.5-8.4-21.3-4.9-32.5
		c5.8-9.4,14-21.6,28.5-21.5c32.3-52.5,68.7-39.3,73.2-35.1C675.8,286.5,665.7,308.2,671,325z M722.2,332.3
		c-5.5,0.9-13.4-1.9-18.9-1s-12,1-16.3,2.8c-5.1-4.3-11.2-10-11-17.9c0.3-15,5-29.3,17.3-38.7l7,1.3c0,0,42.4,18.8,39.3,27.9
		C729.9,312.8,724.6,320.3,722.2,332.3z M746.5,308.7c15.8,10.3,24.5,17.5,32.3,23.3c9.6,11.2,19.6,17.6,11.1,31.1
		c-0.9,1.1-3.8,2.6-4,0.6c0.9-1.1-0.4-1.4-0.9-2.1c-1.7,12.2-8.1,18.2-12.2,29.2c0.5,0.8,1,1.5,2.4,1.1l1.4-0.4
		c-0.3,1.3,1.9,3.7,0.8,6.1c-4,3.8-7.9,3.1-11.2,3.7c-7-1.3-12.1-5.6-16.4-10.4c3.9,0.1,6.1,2.5,8.7-0.9l0.3-1.3
		c-11.3-6.1-18.6-12.8-28.9-20.7l-0.7,3.8l-7.2-0.1c-4.3-1.5-7.9-6.8-5.2-10.9c5.4-7.5,21.4-12.3,14.9-22.7c-3.9-0.1-3.5-5.9-2.2-9
		C732.9,321.2,736,312,746.5,308.7z M781.2,129.4c11.7-2.3,27.6-7.1,36.5,5.1c12,41.9-71.7,95.2-71.8,99.1
		c83.7-39.5,101,15.2-5.5,58.8c-15.1-10.1-79-61.7-131.1,8.2c-2.8,0.8-5,2.3-8.1,1.1c-0.9-2.1,5.4-34.4,6.7-38.1
		c8.6-10.2,36.3-44.9,40-50.7C682.7,176.1,731.7,140.3,781.2,129.4z M637.3,112.1c6.8-4.6,11.9-14.1,21.6-12.9
		c25.1,7-11.4,106.2-24.2,118.2c-8.7,10.8-16.9,23-25.9,35.1c-4.8-21.1-12.9-41.9-24.3-57.9C596.2,161.4,613.8,135.2,637.3,112.1z
		 M461.9,161.1c9.4-1.4,17.7,2.2,18.6,8.1c0.9,5.9-6.1,11.8-15.5,13.2c-10.7,1.6-17.6-1.4-18.6-8.1
		C445.6,168.4,452.5,162.5,461.9,161.1z M492.1,273.9c19.2-14.3,44.3-50.4,30.8-97.2c57.2-4.7,92.9,75.3,69.9,124.6
		c-22.6,8.1-20.2,6.8-37.3,23.8c-18.3,16.2-50,51.1-70.7,66.8c-45.9,28.7-125.9,39-131.6,31.3c22-15.5,41.3-36.7,63.5-53.4
		c23.6-23.9,55.2-30.7,79.9-46.3c23.6-14,43.6-28.4,58.6-47.8c18.3-22.4-1.5-36.5-6.7-36.8c-2.2,1.5-3.4,3.9-4,7.1
		c-11.2,10.3-19.8,21.1-34.5,28.8c-19.1,17.3-42.3,31.9-56.7,52.1c-26,25.9-54.5,50.6-83.3,73.9c-26.2,16.6-57.5,43.8-81.8,38.8
		c-35-8.9-9.9-105.9-3.2-119.5c13.2-27.3,24.5-51.8,46.4-73.2l-2.6-0.5c-23.4,18.6-34.6,42.6-47.4,68.4
		c-33.7,85.2-9.4,116.4-9.4,116.4c-38.4-34-17.5-151.4,106.8-233C339.3,298.8,453.9,309.8,492.1,273.9z M448.6,339.9
		c2.7-3.4,7.2-6.5,10.6-10.5c1.1,0.9,2.2,2.4,3.2,3.9C458.1,338.4,453.8,336.9,448.6,339.9z M533.4,289.2
		c-7,5.9-26.6,25.1-33.4,23.1c-1.5-5.6-6.2-12.3-4.6-16.7c10.7-7.8,18-14.9,28.4-20.8C528.6,276.5,532.3,284.4,533.4,289.2z
		 M530.7,269c6.2-8,18.5-14.2,20.3-23.7c10.7,2.7,5.7,18.2,5.7,18.2c-4.7,5.8-12,15-19.8,21.1C535.4,278.5,530.4,274.2,530.7,269z
		 M495.5,316.3l-27.6,15.9c-0.9-1.9-3.2-3.7-4.6-6.6c6.8-7.9,16.1-15.3,25.4-22.7C492,306.2,494.5,311.1,495.5,316.3z"/>
	<path fill="#FFFFFF" d="M634.6,217.5c12.9-12,49.3-111.2,24.2-118.2c-9.6-1.2-14.7,8.3-21.6,12.9c-23.5,23.1-41.1,49.2-52.7,82.5
		c11.4,16,19.5,36.9,24.3,57.9C617.7,240.5,626,228.3,634.6,217.5z"/>
	<path fill="#FFFFFF" d="M608,263.6c-1.4,3.7-7.6,36-6.7,38.1c3.1,1.3,5.3-0.3,8.1-1.1c52.1-69.9,115.9-18.3,131.1-8.2
		c106.4-43.6,89.2-98.3,5.5-58.8c0.1-3.9,83.8-57.2,71.8-99.1c-8.8-12.2-24.8-7.3-36.5-5.1c-49.4,10.8-98.4,46.7-133.1,83.4
		C644.3,218.6,616.5,253.4,608,263.6z"/>
	<path fill="#FFFFFF" d="M556.8,263.5c0,0,4.9-15.5-5.7-18.2c-1.8,9.5-14.2,15.7-20.3,23.7c-0.4,5.2,4.7,9.5,6.2,15.7
		C544.8,278.5,552.1,269.3,556.8,263.5z"/>
	<path fill="#BBA06E" d="M612.1,310.3c-14.4-0.2-22.7,12-28.5,21.5c-3.5,11.2-3.8,22.9,4.9,32.5c6.4,7.8,17.8,13.3,29.2,12.2
		c13.2-3.4,19.4-12,25.4-22.7c11,0.8,15.8-10.1,21.8-17.4c2.9-8-7.7-11.4-6.8-19.1c-2.2-9-0.5-21.1,5.9-27.1c2,3-1.5,7.6-2.2,11.4
		c2.4,7.7,2.8,16.3,9.3,23.5c-5.3-16.8,4.8-38.5,14.2-49.8C680.8,271.1,644.4,257.8,612.1,310.3z"/>
	<path fill="#FFFFFF" d="M739.6,306.8c3.1-9.1-39.3-27.9-39.3-27.9l-7-1.3c-12.3,9.4-17,23.7-17.3,38.7c-0.2,7.9,5.9,13.6,11,17.9
		c4.3-1.8,10.9-1.8,16.3-2.8c5.4-0.9,13.4,1.9,18.9,1C724.6,320.3,729.9,312.8,739.6,306.8z"/>
	<path fill="#BBA06E" d="M729.4,329.1c-1.3,3.1-1.7,8.9,2.2,9c6.5,10.5-9.5,15.2-14.9,22.7c-2.8,4.1,0.8,9.3,5.2,10.9l7.2,0.1
		l0.7-3.8c10.3,7.9,17.5,14.6,28.9,20.7l-0.3,1.3c-2.7,3.4-4.8,1-8.7,0.9c4.3,4.8,9.4,9,16.4,10.4c3.4-0.7,7.2,0.1,11.2-3.7
		c1.1-2.4-1-4.8-0.8-6.1l-1.4,0.4c-1.4,0.4-1.9-0.4-2.4-1.1c4.1-11,10.5-17,12.2-29.2c0.5,0.8,1.8,1,0.9,2.1c0.3,2,3.2,0.6,4-0.6
		c8.5-13.5-1.5-19.9-11.1-31.1c-7.8-5.8-16.5-13-32.3-23.3C736,312,732.9,321.2,729.4,329.1z"/>
	<path fill="#FFFFFF" d="M523.7,274.8c-10.4,5.9-17.6,13-28.4,20.8c-1.5,4.3,3.1,11.1,4.6,16.7c6.8,2,26.4-17.2,33.4-23.1
		C532.3,284.4,528.6,276.5,523.7,274.8z"/>
	<path fill="#FFFFFF" d="M463.2,325.6c1.4,2.9,3.7,4.6,4.6,6.6l27.6-15.9c-1-5.2-3.5-10.1-6.8-13.4
		C479.3,310.3,470,317.7,463.2,325.6z"/>
	<path fill="#FFFFFF" d="M448.6,339.9c5.2-3,9.5-1.5,13.8-6.5c-1-1.5-2-3-3.2-3.9C455.8,333.4,451.3,336.4,448.6,339.9z"/>
	<path fill="#BBA06E" d="M406.5,429c-10.8,5.2-25.9,4.8-38,6.4c-2.2,8.1-9.6,12.6-14.3,19.6c-7.4,7.8-20.3,6.6-24.7,15.6
		c8.4-2.3,15-6.3,25.3-1.7c9.2-6.8,18.2-9,27.2-11.8c9,1.1,17.3-1.3,24.6,2.1c7.1-2.6,11.9-10.8,12.1-18.7
		C415,435.9,412.7,430.8,406.5,429z"/>
	<path fill="#BBA06E" d="M370.1,467.3c-27.2,4.6-2,23.9-4.6,37.2c0.3,5.3-2.9,11.3-7.2,13.7c-2.3-1.8-0.4-4.7-1.3-6.8
		c-3.9,3.2-6.9,8.5-6.8,15.1c0.8,6.1,3.6,11.9,8.1,16c4.6,3.5,10.3,4.6,15.9,3.1c10.5-3.3,13.7-13.1,15.7-23.3
		c0,0,11.5,1.6,10.6,6.6l-3.7,1.9c1.4-0.4,3.2,0.6,5.2,0.4c3.8-2.6,6.2-4.7,7.7-9c-0.8-6.1-1-12-7.4-15.9c4.4-2.4,7.1-6.5,5.5-11.4
		c1.6-8.2-10.6-6.6-13.9-9.9c-3.2-0.6-6.6-3.3-6.1-5.8c1-1.8,2.7-0.2,4-0.6c3.2,3.9,10.4,4,14.3,4.1c3.5-1.3,3.6-5.2,4.2-8.4
		C403.7,456.7,383,465.2,370.1,467.3z"/>
	<path fill="#BBA06E" d="M417.3,502c2.2-1.5,5.2-3,6.4-6c1.7-5.6-5.1-7.5-7.8-10.7l-2.4,2.2C414.7,491.7,414,498.8,417.3,502z"/>
	<path fill="#FFFFFF" d="M355.8,504c3-5.4,0.8-11-3.5-15.8l-3-11.7c-5.4-3-18.5-1.5-22,1.7c-4,3.8-7.5,8.4-7.5,15
		c1,15.3,6.1,36.7,22.8,45.1c0-3.3-1.4-6.2-1.6-8.8C341.5,516.9,346.7,510.1,355.8,504z"/>
	<path fill="#BBA06E" d="M378.8,198.2c-124.3,81.7-145.2,199-106.8,233c0,0-24.3-31.3,9.4-116.4c12.9-25.8,24.1-49.9,47.4-68.4
		l2.6,0.5c-21.9,21.4-33.2,45.8-46.4,73.1c-6.8,13.7-31.8,110.7,3.2,119.5c24.3,5.1,55.5-22.1,81.8-38.8
		c28.8-23.3,57.3-48,83.3-73.9c14.4-20.2,37.6-34.8,56.7-52.1c14.6-7.7,23.3-18.5,34.5-28.8c0.6-3.2,1.7-5.6,4-7.1
		c5.2,0.4,24.9,14.4,6.7,36.8c-14.9,19.4-35,33.9-58.6,47.8c-24.7,15.6-56.4,22.4-79.9,46.3c-22.3,16.7-41.5,38-63.5,53.4
		c5.8,7.7,85.7-2.6,131.6-31.3c20.8-15.7,52.5-50.5,70.7-66.8c17.1-17,14.7-15.7,37.3-23.8c23.1-49.3-12.6-129.3-69.9-124.6
		c13.6,46.7-11.6,82.8-30.8,97.2C453.9,309.8,339.3,298.8,378.8,198.2z"/>
	<path fill="#BBA06E" d="M599.5,552c-47.2-5.8-60.4-29.9-62.4-51.6c-1.9,5.4-17,51.8,16.9,83.8c36,34.1,76.2,18.2,87.7,15.6
		c56-13.1,71.5-90,68.2-108.2C678.8,569.2,599.5,552,599.5,552z"/>
	<path fill="#BBA06E" d="M537.1,499.8c0,0.2,0.1,0.4,0.1,0.6c0.1-0.4,0.2-0.6,0.2-0.6H537.1z"/>
	<path fill="#BBA06E" d="M635,437.7c0,0-21.1,30-94.9,22.2c0,0,16.1,36.7,59.4,34.4c0,0,41.1,0,69.9-40c0,0,35.5-53.2-16.6-94.4
		C652.8,360,666.1,396.6,635,437.7z"/>
</g>
<g>
	<path fill="#BA9F6D" d="M846.3,604.7c0-4.6-2.8-7.3-9-7.3h-8.9v27.1h1.3V612h6.2c0.7,0,1.3,0,2-0.1l8.1,12.6h1.6l-8.3-12.7
		C843,611.4,846.3,609.3,846.3,604.7z M836.3,610.7h-6.5v-11.9h7.5c4,0,7.8,1,7.8,6.1C845.1,610.1,840,610.7,836.3,610.7z"/>
	<path fill="#BA9F6D" d="M860,610.5c0-13-10.5-23.5-23.5-23.5S813,597.4,813,610.5c0,13,10.5,23.5,23.5,23.5l0,0
		C849.5,634,860,623.5,860,610.5z M836.5,632.8c-12.3,0-22.2-9.9-22.2-22.2s9.9-22.2,22.2-22.2s22.2,9.9,22.2,22.2
		C858.7,622.8,848.8,632.8,836.5,632.8z"/>
	<path fill="#BBA06E" d="M377.7,532.2c60.1-4.9,113.5-19,149.8-40l-0.1,18.6h72.5v-144h34.7V541h-41.5v68h178.2v-68h-41.5V366.6
		h100.5l6.5,36h58.3V289.6H436.9v113.1h57.9l6.8-36h36.3c-9.9,65.5-77.8,105.6-153.7,99.7c-75.4-5.8-146.3-48.5-145.9-121.6
		c0.4-77.7,68-130.7,143.4-134c48.3-2.1,98.8,17.2,134,46.2c3.7,3.1,1,0.7,5.1,4.1H590V134h-67.9v45l-0.6-0.3
		c-34.1-23.6-91.5-43.6-152.9-43.4C240.1,135.8,127.8,236,129.2,345.5C130.5,459.3,250.2,542.6,377.7,532.2z"/>
</g>
</svg>
