<?xml version="1.0" encoding="utf-8"?>
<!-- Generator: Adobe Illustrator 18.0.0, SVG Export Plug-In . SVG Version: 6.00 Build 0)  -->
<!DOCTYPE svg PUBLIC "-//W3C//DTD SVG 1.1//EN" "http://www.w3.org/Graphics/SVG/1.1/DTD/svg11.dtd">
<svg version="1.1" id="Layer_1" xmlns="http://www.w3.org/2000/svg" xmlns:xlink="http://www.w3.org/1999/xlink" x="0px" y="0px"
	 viewBox="0 0 1200 100" enable-background="new 0 0 1200 100" xml:space="preserve">
<path fill="#FFFFFF" d="M67.6,71c-5.2,2.2-10.6,3.2-16.3,3.2c-8.8,0-16-2.9-21.5-8.9s-8.3-13.7-8.3-23.2c0-10.4,3.1-18.9,9.1-25.2
	s13.7-9.5,23-9.5c4.9,0,9.7,0.8,14.3,2.5v4.8c-4.5-2-9.4-3.1-14.3-3.1c-8.1,0-14.7,2.8-19.8,8.3c-5.1,5.5-7.7,12.7-7.7,22
	c0,8.8,2.5,15.7,7.2,20.7c4.9,5.1,11.1,7.7,18.4,7.7c6,0,11.2-1.2,16-3.5L67.6,71L67.6,71z"/>
<path fill="#FFFFFF" d="M99.5,74.2c-6.8,0-12-2.2-16-6.6c-4-4.5-5.8-10.1-5.8-17.2c0-7.7,2-13.7,6.1-18c4.1-4.3,9.5-6.6,16.1-6.6
	c6.6,0,11.8,2.2,15.5,6.5c3.8,4.3,5.7,10.3,5.7,17.8c0,7.2-2,12.9-5.8,17.4S106.3,74.2,99.5,74.2z M99.8,29.6
	c-5.4,0-9.8,1.8-13.1,5.5c-3.2,3.7-4.8,8.8-4.8,15.2c0,6,1.5,10.9,4.8,14.6c3.2,3.7,7.5,5.5,12.9,5.5c5.5,0,9.8-1.8,12.7-5.4
	c3.1-3.5,4.5-8.6,4.5-15.1c0-6.6-1.5-11.7-4.5-15.1C109.5,31.3,105.4,29.6,99.8,29.6z"/>
<path fill="#FFFFFF" d="M165.4,73v-8.3h-0.2c-1.5,2.9-3.7,5.2-6.6,6.9c-2.9,1.7-6.3,2.6-10,2.6c-5.7,0-10.3-2-13.8-6.1
	s-5.4-9.8-5.4-17.2s2-13.5,5.8-18.1s9.1-6.9,15.2-6.9c6.9,0,11.8,2.8,14.7,8.4h0.2V4.8h4.1V73H165.4z M165.4,45
	c0-4.3-1.4-8-4.1-10.9c-2.8-2.9-6.3-4.5-10.9-4.5c-4.8,0-8.8,1.8-12,5.5c-3.2,3.7-4.8,8.8-4.8,15.2c0,6.3,1.4,11.2,4.3,14.7
	c2.9,3.5,6.5,5.2,10.9,5.2c5.2,0,9.4-1.7,12.1-4.9c2.9-3.2,4.3-7.2,4.3-11.8L165.4,45L165.4,45z"/>
<path fill="#FFFFFF" d="M195.5,82.5c-1.7,4.1-3.5,7.2-5.5,9.2c-2,2-4.6,3.1-7.8,3.1c-1.4,0-2.6-0.2-3.5-0.6V90
	c1.1,0.5,2.3,0.6,3.8,0.6c3.7,0,6.6-2.6,8.8-7.7l4.3-10.3L178,26.9h4.6l14,37.5c0.3,0.8,0.5,1.4,0.6,1.8c0.2,0.6,0.3,1.1,0.5,1.5
	h0.2l1.1-3.1l14.9-37.8h4.5L195.5,82.5z"/>
<path fill="#FFFFFF" d="M305.2,73h-3.7l-14.3-48.5c-0.8-2.5-1.1-4.5-1.2-6.1h-0.2c-0.2,1.4-0.6,3.4-1.4,6L269.1,73h-3.7L246.2,8.5
	h5.1L266,60.2c0.6,2.3,1.1,4.3,1.4,5.7h0.2c0.2-1.1,0.8-3.1,1.5-5.7l16-51.8h2.3L302,60.2c0.6,2.5,1.2,4.3,1.4,5.7h0.2
	c0.2-0.8,0.5-1.8,0.8-2.9l15.1-54.5h4.8L305.2,73z"/>
<path fill="#FFFFFF" d="M356.2,73v-9.2H356c-1.5,3.2-3.5,5.7-6.5,7.5c-2.8,1.8-6,2.8-9.4,2.8c-4.5,0-7.8-1.2-10.4-3.7
	c-2.6-2.5-3.8-5.5-3.8-9.4c0-8,5.4-12.9,16-14.6l14.1-2.2c0-9.8-3.7-14.9-11.2-14.9c-5.1,0-10,2-14.7,6.1v-5.1
	c1.7-1.4,4-2.5,6.9-3.5c2.9-0.9,5.7-1.4,8.3-1.4c4.8,0,8.4,1.5,11.1,4.5c2.6,2.9,3.8,7.2,3.8,12.7v29.9h-4V73z M343.4,50.1
	c-4.8,0.8-8.3,1.8-10.1,3.4c-2,1.5-2.9,4-2.9,7.5c0,2.8,0.9,4.9,2.8,6.8c1.8,1.8,4.3,2.6,7.5,2.6c4.5,0,8.1-1.7,11.1-4.9
	c2.9-3.2,4.5-7.5,4.5-12.7v-4.5L343.4,50.1z"/>
<path fill="#FFFFFF" d="M395.9,31.3c-1.4-0.9-3.1-1.5-4.9-1.5c-3.7,0-6.6,1.8-9.1,5.7c-2.5,3.7-3.7,9.1-3.7,16v21.7h-4V27h4v10.3
	h0.2c1.1-3.5,2.8-6.3,5.1-8.1c2.3-2,4.9-2.9,8-2.9c1.7,0,3.2,0.3,4.6,0.8v4.3C396.1,31.3,395.9,31.3,395.9,31.3z"/>
<path fill="#FFFFFF" d="M435.4,73v-8.3h-0.2c-1.5,2.9-3.7,5.2-6.6,6.9c-2.9,1.7-6.3,2.6-10,2.6c-5.7,0-10.3-2-13.8-6.1
	s-5.4-9.8-5.4-17.2s2-13.5,5.8-18.1c3.8-4.6,9.1-6.9,15.2-6.9c6.9,0,11.8,2.8,14.7,8.4h0.2V4.8h4.1V73H435.4z M435.4,45
	c0-4.3-1.4-8-4.1-10.9c-2.8-2.9-6.3-4.5-10.9-4.5c-4.8,0-8.8,1.8-12,5.5c-3.2,3.7-4.8,8.8-4.8,15.2c0,6.3,1.4,11.2,4.3,14.7
	c2.9,3.5,6.5,5.2,10.9,5.2c5.2,0,9.4-1.7,12.1-4.9c2.9-3.2,4.3-7.2,4.3-11.8V45H435.4z"/>
<path fill="#FFFFFF" d="M455.4,28.7h-3.2l5.7-20.3h4.6L455.4,28.7z"/>
<path fill="#FFFFFF" d="M463.7,71v-5.1c1.5,1.4,3.4,2.5,5.7,3.2c2.2,0.8,4.1,1.2,5.8,1.2c7.2,0,10.9-2.9,10.9-8.9
	c0-2-0.8-3.8-2.5-5.2c-1.5-1.4-4.1-2.9-7.7-4.5c-4.5-1.8-7.5-3.8-9.2-6c-1.8-2-2.6-4.6-2.6-7.5c0-3.7,1.4-6.8,4.3-9.1
	c2.9-2.3,6.5-3.5,10.6-3.5c4,0,7.4,0.8,10.1,2.5v4.6c-3.4-2.2-6.9-3.4-10.6-3.4c-3.1,0-5.5,0.8-7.4,2.3c-1.8,1.5-2.8,3.7-2.8,6.1
	c0,2.2,0.6,4,1.7,5.4c1.2,1.4,3.7,2.9,7.7,4.8c4.8,2.2,8.1,4.1,9.8,6c1.7,1.8,2.8,4.3,2.8,7.4c0,3.7-1.4,6.8-4.1,9.1
	c-2.8,2.3-6.6,3.5-11.4,3.5C470.3,74.2,466.6,73.1,463.7,71z"/>
<path fill="#9E9E9E" d="M527.7,73V8.5h18.6c23.8,0,35.6,10.4,35.6,31.5c0,10-3.2,18-9.8,24c-6.6,6-15.5,9.1-26.6,9.1H527.7z
	 M538.3,17.7v46.4h8.6c7.5,0,13.4-2,17.5-6.1s6.3-10,6.3-17.5c0-15.1-7.8-22.6-23.5-22.6L538.3,17.7L538.3,17.7z"/>
<path fill="#9E9E9E" d="M597.9,17.2c-1.7,0-3.2-0.6-4.5-1.7s-1.8-2.5-1.8-4.3s0.6-3.1,1.8-4.3c1.2-1.1,2.6-1.7,4.5-1.7
	c1.8,0,3.2,0.6,4.5,1.7s1.8,2.6,1.8,4.3c0,1.7-0.6,3.1-1.8,4.1C601.1,16.7,599.6,17.2,597.9,17.2z M603,73h-10.4V26.9H603V73z"/>
<path fill="#9E9E9E" d="M658.6,69.3c0,16.9-8.4,25.3-25.5,25.3c-6,0-11.2-1.1-15.7-3.1V82c5.1,2.9,9.8,4.3,14.3,4.3
	c10.9,0,16.4-5.4,16.4-16.1v-5.1H648c-3.4,5.8-8.6,8.8-15.5,8.8c-5.7,0-10.1-2-13.5-6.1c-3.4-4.1-5.2-9.5-5.2-16.4
	c0-7.8,1.8-14.1,5.5-18.7c3.7-4.6,8.8-6.9,15.2-6.9c6.1,0,10.6,2.5,13.5,7.5h0.2v-6.5h10.4V69.3z M648.3,51.9v-6
	c0-3.2-1.1-6-3.2-8.3c-2.2-2.3-4.8-3.4-8-3.4c-4,0-7.1,1.5-9.2,4.5c-2.2,2.9-3.4,7.1-3.4,12.3c0,4.5,1.1,8.1,3.2,10.9
	c2.2,2.8,4.9,4.1,8.6,4.1c3.5,0,6.5-1.2,8.8-3.8C647.1,59.3,648.3,55.9,648.3,51.9z"/>
<path fill="#9E9E9E" d="M677.5,17.2c-1.7,0-3.2-0.6-4.5-1.7c-1.2-1.1-1.8-2.5-1.8-4.3s0.6-3.1,1.8-4.3c1.2-1.1,2.6-1.7,4.5-1.7
	c1.8,0,3.2,0.6,4.5,1.7s1.8,2.6,1.8,4.3c0,1.7-0.6,3.1-1.8,4.1C680.7,16.7,679.2,17.2,677.5,17.2z M682.7,73h-10.4V26.9h10.4V73z"/>
<path fill="#9E9E9E" d="M720.5,72.5c-2,1.1-4.8,1.5-8,1.5c-8.9,0-13.4-4.3-13.4-12.9V35h-7.7v-8.1h7.7V16.3l10.4-2.9V27h11.1v8.1
	h-11.1v23c0,2.8,0.5,4.6,1.5,5.8c1.1,1.2,2.6,1.7,4.9,1.7c1.8,0,3.2-0.5,4.6-1.5L720.5,72.5L720.5,72.5z"/>
<path fill="#9E9E9E" d="M764.9,73h-10.1v-7.2h-0.2c-3.2,5.5-7.8,8.3-14,8.3c-4.5,0-8.1-1.2-10.6-3.7c-2.6-2.5-3.8-5.7-3.8-9.8
	c0-8.8,5.1-13.8,15.1-15.2l13.7-2c0-6.6-3.1-9.8-9.4-9.8c-5.5,0-10.4,1.8-14.9,5.7v-9.1c4.9-2.9,10.4-4.3,16.9-4.3
	c11.7,0,17.5,5.7,17.5,17.2L764.9,73L764.9,73z M754.9,50.4l-9.7,1.4c-3.1,0.5-5.2,1.1-6.8,2.2s-2.3,2.9-2.3,5.5
	c0,2,0.8,3.5,2.2,4.8c1.4,1.2,3.2,1.8,5.5,1.8c3.2,0,5.8-1.1,7.8-3.4c2.2-2.3,3.1-5.1,3.1-8.4L754.9,50.4L754.9,50.4z"/>
<path fill="#9E9E9E" d="M788.2,73h-10.4V4.8h10.4V73z"/>
<path fill="#9E9E9E" d="M877.9,47c0,18.1-8.6,27.2-25.8,27.2c-16.4,0-24.7-8.8-24.7-26.1V8.5h10.8v37.3c0,12.6,4.9,19,14.7,19
	c9.5,0,14.3-6.1,14.3-18.3V8.5h10.8V47z"/>
<path fill="#9E9E9E" d="M932.9,73h-10.4V47c0-8.6-3.1-12.9-9.1-12.9c-3.2,0-5.8,1.2-7.8,3.5c-2,2.3-3.1,5.4-3.1,9.1V73H892V26.9
	h10.4v7.7h0.2c3.4-5.8,8.4-8.8,14.9-8.8c5.1,0,8.9,1.7,11.5,4.9c2.6,3.2,4,8,4,14.1L932.9,73L932.9,73z"/>
<path fill="#9E9E9E" d="M950.8,17.2c-1.7,0-3.2-0.6-4.5-1.7c-1.2-1.1-1.8-2.5-1.8-4.3s0.6-3.1,1.8-4.3c1.2-1.1,2.6-1.7,4.5-1.7
	s3.2,0.6,4.5,1.7c1.2,1.1,1.8,2.6,1.8,4.3c0,1.7-0.6,3.1-1.8,4.1C954.1,16.7,952.7,17.2,950.8,17.2z M956.1,73h-10.4V26.9h10.4V73z"
	/>
<path fill="#9E9E9E" d="M1009.4,26.9L991.5,73h-11.4l-16.9-46.1h11.4l10.3,32.3c0.8,2.3,1.2,4.5,1.4,6.1h0.2c0.3-2.2,0.6-4.3,1.2-6
	l10.8-32.4C998.5,26.9,1009.4,26.9,1009.4,26.9z"/>
<path fill="#9E9E9E" d="M1054.7,52.8h-31.3c0.2,4.3,1.4,7.5,4,9.8c2.5,2.3,6,3.5,10.3,3.5c4.9,0,9.4-1.5,13.5-4.5v8.4
	c-4.1,2.6-9.7,4-16.6,4c-6.8,0-12.1-2.2-16-6.3s-5.8-10.1-5.8-17.7c0-7.2,2.2-13.1,6.3-17.5c4.3-4.5,9.5-6.8,15.8-6.8
	s11.2,2,14.6,6.1c3.4,4.1,5.2,9.7,5.2,16.9V52.8L1054.7,52.8z M1044.7,45.5c0-3.7-0.9-6.6-2.6-8.8c-1.7-2.2-4.1-3.1-7.2-3.1
	s-5.5,1.1-7.7,3.2c-2.2,2.2-3.4,5.1-3.8,8.6C1023.3,45.5,1044.7,45.5,1044.7,45.5z"/>
<path fill="#9E9E9E" d="M1091.4,36.9c-1.2-0.9-3.1-1.5-5.4-1.5c-3.1,0-5.7,1.4-7.7,4.1s-3.1,6.6-3.1,11.4V73h-10.4V26.9h10.4v9.5
	h0.2c1.1-3.2,2.6-5.8,4.8-7.5c2.2-1.8,4.5-2.8,7.1-2.8c1.8,0,3.4,0.3,4.3,0.9L1091.4,36.9L1091.4,36.9z"/>
<path fill="#9E9E9E" d="M1096.4,71.6v-9.7c3.8,2.9,8.1,4.5,12.9,4.5c6.3,0,9.5-1.8,9.5-5.5c0-1.1-0.3-2-0.8-2.6
	c-0.6-0.8-1.2-1.4-2.2-2c-0.9-0.6-2-1.1-3.2-1.5c-1.2-0.5-2.6-0.9-4.1-1.5c-1.8-0.8-3.5-1.5-5.1-2.5c-1.5-0.8-2.8-1.8-3.8-2.9
	c-1.1-1.1-1.7-2.3-2.3-3.7c-0.6-1.4-0.8-2.9-0.8-4.8c0-2.2,0.5-4.1,1.5-5.8c1.1-1.7,2.5-3.1,4.3-4.3s3.8-2,6-2.6
	c2.2-0.6,4.6-0.9,6.9-0.9c4.3,0,8.1,0.6,11.4,2v9.1c-3.2-2.2-6.9-3.4-11.2-3.4c-1.4,0-2.5,0.2-3.5,0.5c-1.1,0.3-2,0.6-2.8,1.1
	c-0.8,0.5-1.4,1.1-1.7,1.7c-0.3,0.6-0.6,1.4-0.6,2.3c0,0.9,0.2,1.8,0.6,2.5c0.5,0.6,1.1,1.2,1.8,1.8c0.8,0.5,1.8,1.1,2.9,1.4
	c1.2,0.5,2.5,0.9,4,1.4c2,0.8,3.7,1.7,5.4,2.5c1.5,0.8,2.9,1.8,4,2.9c1.1,1.1,2,2.3,2.6,3.7c0.6,1.4,0.9,3.1,0.9,4.9
	c0,2.3-0.6,4.5-1.7,6.1c-1.1,1.7-2.5,3.2-4.3,4.3c-1.8,1.1-3.8,2-6.3,2.6s-4.8,0.8-7.4,0.8C1104.6,74.2,1100.1,73.3,1096.4,71.6z"/>
<path fill="#9E9E9E" d="M1178.2,52.8h-31.3c0.2,4.3,1.4,7.5,4,9.8c2.5,2.3,6,3.5,10.3,3.5c4.9,0,9.4-1.5,13.5-4.5v8.4
	c-4.1,2.6-9.7,4-16.6,4c-6.8,0-12.1-2.2-16-6.3s-5.8-10.1-5.8-17.7c0-7.2,2.2-13.1,6.3-17.5c4.3-4.5,9.5-6.8,15.8-6.8
	c6.3,0,11.2,2,14.6,6.1c3.4,4.1,5.2,9.7,5.2,16.9L1178.2,52.8L1178.2,52.8z M1168,45.5c0-3.7-0.9-6.6-2.6-8.8
	c-1.7-2.2-4.1-3.1-7.2-3.1c-3.1,0-5.5,1.1-7.7,3.2c-2.2,2.2-3.4,5.1-3.8,8.6C1146.7,45.5,1168,45.5,1168,45.5z"/>
</svg>
