<?xml version="1.0" encoding="utf-8"?>
<!-- Generator: Adobe Illustrator 18.0.0, SVG Export Plug-In . SVG Version: 6.00 Build 0)  -->
<!DOCTYPE svg PUBLIC "-//W3C//DTD SVG 1.1//EN" "http://www.w3.org/Graphics/SVG/1.1/DTD/svg11.dtd">
<svg version="1.1" id="Layer_1" xmlns="http://www.w3.org/2000/svg" xmlns:xlink="http://www.w3.org/1999/xlink" x="0px" y="0px"
	 viewBox="0 0 1024 768" enable-background="new 0 0 1024 768" xml:space="preserve">
<g>
	<path fill="#414042" d="M258.8,545.8c2.7-1.2,5.4-2.4,8.1-3.5c6.1-2.4,12-5.1,18.2-7.2c8.9-2.9,17.9-5.5,26.9-7.8
		c5.9-1.5,12.1-2.3,18.1-3.5c1.7-0.3,3.4-0.6,5.1-0.9c5.5-1,11-1.6,16.5,0.5c1.1,0.4,2.6-0.1,3.8-0.5c0.8-0.3,1.5-0.9,2-1.6
		c5.3-7,12.2-12.3,19.8-16.7c3.8-2.2,7.7-4.3,11.7-6.2c3-1.4,5.9,0.6,5.2,3.8c-1.3,6.2-1.2,12.3-0.2,18.4c0.7,4.2,1.8,8.2,2.8,12.3
		c2.2,9.5,6.3,18.3,11.4,26.4c10.7,17.1,23.5,32.7,38.9,46c8,6.9,16.1,13.8,24.5,20.3c7.8,6,16.1,11.3,24.1,16.9
		c0.9,0.6,1.7,1.3,2.4,2c2.4,2.4,5.4,3.6,8.4,2.2c2.9-1.4,2.8-4.8,2.8-7.7c0-3.4-0.3-6.8,0.2-10c0.7-4.2,2.1-8.4,3-12.6
		c0.7-3,0.7-6.2,1.7-9.1c1-3.2,2.8-6.2,4-9.4c0.6-1.7,0.8-3.6,1-5.4c0.3-2.4-0.9-4-2.7-5.7c-3.1-2.8-5.8-6.1-8.6-9.2
		c-2.3-2.5-4.2-5.3-6.7-7.5c-3.5-3-8-2.8-11.2,0.5c-2.9,3-5.5,6.4-8,9.8c-3.7,5.1-7.2,10.4-10.9,15.6c-1.5,2.2-4.3,2.9-6.1,1.6
		c-1.9-1.4-2.2-4-0.5-6.5c4.6-6.8,9.3-13.4,13.8-20.3c1.4-2.2,2.2-4.9,3-7.4c1.8-5.9,4.4-11.2,8.9-15.6c4.9-4.8,9.1-10.3,14-14.9
		c2.9-2.7,6.7-4.4,10.1-6.5c0.9-0.6,1.9-1,2.8-1.5c3.8-2.1,7.4-4.5,11.3-6.2c2.1-0.9,4.7-0.7,7.1-0.9c1.8-0.1,3.7,0.3,5.5,0
		c1.6-0.3,3.6-1,4.5-2.2c0.6-0.8-0.3-2.8-0.6-5c0.7-0.1,2.1-0.6,3.5-0.5c10.6,0.2,21.2,1.1,31.8,0.6c6.1-0.3,12.5-1.8,18.2-4.3
		c4.6-2,8.5-5.9,12.1-9.5c7.1-7.3,14-14.9,20.5-22.7c4.5-5.4,8.3-11.3,12.4-17c1.6-2.3,3.2-4.6,5.1-6.6c0.8-0.8,2.4-1.4,3.5-1.2
		c0.8,0.1,1.6,1.7,1.8,2.8c0.4,2.4,1.8,3,3.9,2.7c8.5-1.1,16.7-10.8,17.7-17.2c1.1-7.9,2.4-15.7,0.7-23.8c-0.9-4.4-0.2-9.2,0.3-13.8
		c0.2-1.9,1.5-3.7,2.3-5.5c0.5-1.1,1.1-2.2,1.5-3.4c0.8-1.9,1.6-3.9,2.3-5.9c0.5-1.2,1.1-2.5,1.1-3.8c0.1-1.9-1.4-2.5-2.9-1.4
		c-1,0.7-2.1,2.6-3.3,0.9c-0.7-1-0.8-3.3-0.1-4.3c2.1-3.3,4-6.7,4-10.7c0.1-6.2,0-12.3-0.2-18.5c-0.1-2.7-0.5-5.4-0.8-8.1
		c-0.3-2.9-1-5.4-2.9-7.9c-7.6-10-10.2-21.6-9.8-33.9c0.2-4.7,1.7-9.2,2.5-13.9c0.7-3.8,0-7.3-2-10.8c-1.5-2.7-2-6-2.7-9.1
		c-1.6-7.1-2.5-14.3-4.6-21.2c-1.7-5.5-4.5-10.7-7-16c-1-2.2-2.1-4.7-3.9-6.3c-2.4-2.1-5.3-3.8-8.3-5c-6.5-2.8-12.3-6.8-18-10.8
		c-3.1-2.2-6.5-4.1-9.9-6c-1.1-0.6-2.6-1-3.9-1c-8.7,0.1-16.2-4-23.8-7.3c-3.9-1.7-7.5-4-11.2-5.9c-0.9-0.5-2.1-1-3-0.8
		c-1.2,0.2-2.2,1.2-3.2,1.9c0.6,1,1.1,2,1.8,2.9c0.9,1.2,2.5,2.2,2.9,3.5c0.5,2-1.4,3.1-3.3,2.2c-0.3-0.2-0.7-0.4-1-0.6
		c-8.2-7.2-18.4-10.2-28.2-14.3c-1.4-0.6-2.4-1.9-3.6-2.8c1.5-0.9,2.9-2.4,4.4-2.5c10.1-0.9,20,0.3,29.7,3.3
		c5.4,1.7,10.7,3.8,16.2,5.2c4.3,1.1,8.7,1.3,13.1,1.8c3.3,0.4,6.6,0.2,9.8,0.8c1.9,0.3,4.1,1.2,5.3,2.5c5.8,7,13.8,10.2,21.6,14.1
		c2.2,1.1,3.9,3.5,5.8,5.3c1.6,1.5,3.1,2.9,4.7,4.3c2.6,2.2,5.9,4,7.8,6.7c2.7,3.8,4.3,8.3,6.4,12.5c0.4,0.9,0.4,1.9,0.9,2.7
		c4.7,7.5,7.3,15.8,9.2,24.4c0.3,1.2,0.8,2.4,1.2,3.5c1.7,4,1.9,8,1.5,12.4c-0.8,7.1,0.3,13.9,4.1,20.5c3.2,5.6,5,12,7.2,18.2
		c1.2,3.4,5.3,6.8,8.7,5.9c1.5-0.4,3.4-2.1,3.6-3.4c0.6-4.1,0.5-8.4,0.5-12.6c0-1.9-0.5-3.8-0.8-5.7c-0.9-6-1.3-12-2.7-17.9
		c-2-8.7-3.9-17.6-7.1-25.9c-3.2-8.5-7.7-16.6-12-24.6c-5.6-10.5-12.9-19.9-21.6-28c-6.5-6.1-13.5-11.8-20.8-16.9
		c-6.2-4.4-13-8.2-19.8-11.7c-4.7-2.5-9.8-4.5-14.9-6.2c-8.9-2.9-17.8-5.6-26.8-8c-4.5-1.2-9.3-1.6-13.9-2.4
		c-6.9-1.3-13.7-1.2-20.8-0.4c-10.5,1.1-20.8,2.3-31,5c-5.9,1.5-11.8,3-17.6,4.6c-1.1,0.3-2.2,0.8-3.2,1.3c-2.4,1.3-2.7,3-1.1,5.2
		c2.3,3.1,5.4,4,9.1,4c5.7-0.1,11.4-0.3,17.1,0c2.9,0.2,6,1.2,8.7,2.4c5.6,2.4,11.1,5.3,16.6,7.9c6.6,3.1,13.3,6,19.8,9.3
		c1.7,0.8,3,2.4,4.3,3.8c1.4,1.6,0.8,3.2-1.3,3.6c-1.2,0.2-2.7,0.2-3.6-0.4c-7-4.4-14.9-6.6-22.6-9.3c-3.8-1.3-7-4.1-10.6-6.2
		c-1.3-0.8-2.6-1.6-4-2.1c-0.7-0.2-1.5,0.2-2.3,0.3c0.1,0.8,0,1.8,0.4,2.4c0.6,0.8,1.6,1.3,2.3,2.2c0.6,0.8,1.5,1.9,1.3,2.6
		c-0.3,0.9-1.5,2.2-2.3,2.1c-1.9-0.1-4-0.5-5.6-1.5c-2.9-2-5.4-4.7-8.2-6.7c-1.2-0.8-3-0.7-4.5-1c-0.1,1.4-0.5,2.9-0.2,4.2
		c0.6,1.9,1.1,3.7-0.9,4.9c-2,1.2-3.2-0.3-4.4-1.6c-1.8-2-3.7-4-5.6-5.9c-2.7-2.6-6.7-2.9-9.4-0.2c-2.2,2.3-3.8,5.2-5.6,7.9
		c-0.6,1-0.9,2.1-1.5,3.1c-1.6,2.6-3,2.8-4.9,0.4c-1.8-2.4-3.1-2.1-5.5-0.5c-2.3,1.6-5.1,2.6-7.8,3.4c-5.3,1.5-10.1,4.4-12.9,8.8
		c-3.2,4.9-6,10.3-6.5,16.5c-0.1,1.8-0.3,3.9-1.3,5.2c-0.9,1.3-2.9,2.3-4.4,2.4c-0.9,0-2.1-2-2.7-3.4c-0.4-1.1-0.4-2.6,0.1-3.7
		c1.9-5,3.6-10.2,6.2-14.8c3-5.3,6.9-10.2,10.3-15.3c0.4-0.6,0.9-1.2,0.9-1.8c-0.2-1.9-0.1-4.2-1.2-5.5c-0.5-0.7-3.6-0.3-4.8,0.5
		c-4.6,3.1-9,6.6-13.5,9.9c-11.7,8.4-20.2,20-29.8,30.5c-3.5,3.9-6.4,8.3-5.6,14.3c0.5,3.6-0.5,7.3-3.3,10.1c-0.8,0.8-1.1,2-1.5,3.1
		c-0.3,0.9-0.5,1.9-0.8,2.8c-2.1,5.5-4.3,11.1-6.3,16.6c-0.8,2.1-1.2,4.2-1.8,6.4c-0.8,2.7-1.6,5.3-2.3,8c-1.2,4.4-2.2,8.9-3.6,13.3
		c-0.3,1.1-1.8,1.8-2.7,2.7c-0.8-1.1-2.3-2.2-2.2-3.1c0.6-5.3,1.4-10.6,2.5-15.9c0.7-3.5,2.1-6.8,3.2-10.2c0.3-1,0.6-2,1-3
		c1.2-3.1,2.5-6.2,3.8-9.3c2.3-5.4,4.8-10.7,7-16.1c0.5-1.2,0.1-2.7,0.1-4c-1.3,0-2.7-0.3-3.9,0.1c-0.9,0.2-2,1.1-2.4,2
		c-3.6,6.9-7.2,13.8-10.5,20.8c-2.3,4.8-4.3,9.7-6,14.7c-2.5,7.2-4.8,14.4-7.1,21.7c-1,3.1-1.6,6.4-2.4,9.5c-0.9,3.4,0.3,5,3.9,4.9
		c1.1,0,2.1-0.2,3.1-0.4c5.5-1.5,11-2.9,16.4-4.5c3.8-1.1,4.2-1.9,3.7-5.8c-0.9-5.9,1.8-10.8,5.2-15.1c2.4-3.1,3.5-6.1,3.4-10
		c-0.1-3.3,0.9-6.6,1.6-9.9c0.4-1.9,1.2-3.7,1.3-5.6c0.5-6,4-10.8,6.5-15.9c1.2-2.5,2.2-5.1,2.9-7.7c0.9-3,1.2-6.2,2.2-9.3
		c0.3-1.1,1.5-2.3,2.5-2.9c1.9-1.2,3.6-0.3,3.6,2c0,2.3-0.4,4.6-1.1,6.8c-3.2,9-4.1,18.2-2.8,27.6c0.2,1.2,1.5,2.2,2.3,3.3
		c0.8-1,1.7-2.1,2.5-3.1c0.1-0.1,0.1-0.4,0.1-0.6c0.1-8.5,3.5-16.4,4.4-24.6c0.9-7.8,3.6-15.2,5-22.8c0.1-0.4,0.1-0.8,0.3-1.1
		c0.7-1.6,1.7-3,3.7-2.4c2,0.6,2,2.3,1.6,4.1c-0.9,3.7-2.1,7.5-2.6,11.3c-0.3,2.3,0.5,4.8,0.8,7.2c0.3,2,0.8,4.1,0.9,6.1
		c0.2,5.4,0.3,10.8,0.3,16.2c0,1.3-0.2,2.7-0.7,3.9c-0.3,0.7-1.5,1.7-2.1,1.6c-0.8-0.2-1.9-1.2-2.1-2c-0.3-2-0.1-4-0.3-6
		c-0.2-1.9-0.5-3.8-1-5.6c-0.2-0.7-1.3-1.2-2-1.7c-0.5,0.7-1.4,1.4-1.5,2.2c-0.2,1.8-0.1,3.7-0.1,5.5c0.1,7.1-0.6,14-2.2,20.9
		c-2.3,10.4-2.2,20.9,1.9,31c0.4,1.1,0.5,2.3,1.1,3.3c3.3,5.6,0.8,10.1-2.6,14.5c-0.5,0.6-1.1,1.2-1.4,1.9
		c-2.1,5.4-4.1,10.8-6.1,16.2c-5.1,13.6-2.6,27.1,0.8,40.4c1.3,5,4.5,9.5,6.8,14.2c2.3,4.7,4.8,9.3,7,14.1c0.8,1.6,1.3,3.4,1.8,5.2
		c0.5,1.8,1.5,3.7,1.2,5.3c-1.2,6.5,2.3,11,6.2,15.1c8.7,9.1,17.3,18.4,26.5,27c6.9,6.5,14.9,11.5,24.7,13c2.6,0.4,5.1,1.9,7.4,3.2
		c7.3,4.2,14.6,8.5,21.9,12.8c0.8,0.5,1.8,0.7,2.7,1.1c2.1,1.1,4.2,2.3,6.3,3.4c1.2,0.6,2.5,1,3.6,1.7c2.2,1.1,4.2,2.5,6.4,3.5
		c1.5,0.8,3.2,1.3,4.8,1.8c1.2,0.4,2.4,0.7,3.9,1.2c-2.4,2-5.9,1.8-8.4,0.3c-1.4-0.8-2.9-1.2-4.4-1.8c-3.2-1.2-6.5-2.3-9.7-3.5
		c-0.4-0.1-0.7-0.4-1-0.5c-5.3-2.1-10.8-4.1-16-6.4c-4.5-2-8.7-4.4-13.1-6.7c-1.4-0.7-2.8-1.3-4.2-2c-1.8-0.9-3.5-2-5.3-2.6
		c-1.9-0.7-4-1.1-6.1-1.3c-0.7,0-1.9,1.1-2.1,1.9c-0.1,0.6,1,1.6,1.7,2.1c1.6,1.2,3.4,2.3,5.1,3.4c0.7,0.5,1.4,1,2.2,1.2
		c2.6,0.6,4.9,1.3,6.5,3.8c0.6,0.8,2.2,1,3.3,1.4c1.1,0.5,2.4,0.8,3.4,1.5c0.4,0.3,0.6,1.2,0.5,1.8c-0.1,0.3-0.9,0.8-1.3,0.7
		c-2-0.5-4-1-5.9-1.8c-1.7-0.7-3.3-1.8-4.9-2.7c-1.6-1-3.2-1.9-4.8-3c-0.4-0.3-0.7-0.7-1.1-1c-3.4-1.9-7-3.5-10.2-5.7
		c-5.4-3.6-10.8-7.1-15.7-11.3c-4.9-4.1-9.1-9.2-13.9-13.4c-2.5-2.2-5.6-3.6-8.6-5c-1.8-0.8-3.2,0.3-3.4,2.4
		c-0.1,0.9-0.2,1.8,0.1,2.6c2.6,5.9,1.7,12.1,2,18.2c0.2,4.6,1.8,8.4,4.4,12.2c2.4,3.6,3.6,7.9,5,12.1c0.3,0.8-0.9,2-1.4,3
		c-0.8-0.8-1.8-1.5-2.5-2.3c-1.5-1.7-2.7-3.7-4.3-5.3c-1.4-1.4-3-0.9-3.8,0.9c-2.2,4.9-3.8,9.7-1.5,15.2c2,4.9,4.7,8.8,8.6,12.4
		c4.2,3.9,7.6,8.6,11.3,13c2.6,3.1,5.1,6.2,7.5,9.4c2.5,3.4,4.8,6.9,7,10.5c2.4,4,4.5,8.2,6.9,12.2c2.2,3.7,2.6,7.6,2.3,11.7
		c-0.1,0.8-1.5,2.3-2.1,2.2c-0.9-0.2-2.3-1.3-2.4-2.2c-1.1-7.5-5.2-13.7-8.7-20.2c-2-3.8-3.9-7.7-6.1-11.3c-2-3.3-4.1-6.5-6.5-9.4
		c-2.1-2.6-4.8-4.7-7.1-7.1c-2.1-2.3-4.3-2.1-6.7-0.6c-4,2.4-5.8,1.5-6.7-3.1c-0.8-4-2-7.8-2.8-11.8c-0.6-3.1-0.9-6.3-1.1-9.4
		c-0.1-1.2,0.4-2.5,1-3.6c5.1-8.9,5.4-18.2,1.6-27.6c-0.9-2.3-2.6-4.3-4.2-6.2c-1.9-2.2-4.5-1.3-5.5,1.6c-1.2,3.5-1.8,4.1-4.8,2.2
		c-4.2-2.7-8.1-5.8-11.6-9.3c-2.3-2.2-3.8-5.2-5.5-8c-1.7-2.9-3.1-3.6-6.4-2.7c-6.4,1.7-6.6,1.6-8.4-4.6c-0.7-2.5-1.8-2.9-3.6-1.2
		c-1.8,1.7-3,1.2-4.7-0.1c-2.7-2.1-4.9-4.3-5.2-7.9c0-0.1,0-0.2-0.1-0.3c-6-7-3.5-15.6-4.4-23.6c-0.5-4.6-0.2-9.2-0.2-13.9
		c0-2.8-1.1-4.6-3.8-5.8c-5.8-2.8-6.2-3.7-5-11.1c0.6-3.6-0.5-5.9-3.5-7.7c-2.9-1.8-4.9-1.1-5.9,2.1c-2,6.4-2.6,13.1-1.9,19.7
		c0.7,6.3,1.5,12.6,2.5,18.9c0.4,2.6,1.5,5.1,2.1,7.8c0.3,1.3-0.1,2.7-0.1,4.1c-1.2-0.5-3-0.5-3.6-1.4c-1.3-2-2.6-4.4-3-6.7
		c-1.3-8.2-1.8-16.5-3.3-24.6c-0.7-3.7-2.3-7.6-4.5-10.7c-5-7-8.3-14.7-10.6-22.9c-4-14.7-7.1-29.7-8.7-44.8
		c-2.3-20.9-2.8-42,1.4-62.8c2-10.2,4.3-20.4,7.6-30.2c4-11.8,9.5-23,16.4-33.6c6.2-9.6,12.9-18.8,21.2-26.6
		c8.4-8,17.5-15.4,26.7-22.6c11-8.5,23.3-15.1,35.9-20.7c10.6-4.7,21.6-8.6,32.7-12.2c12.5-4,25.1-7.6,37.9-10.4
		c12.7-2.8,25.6-4.5,38.4-6.6c3.6-0.6,7.2-1.1,10.9-1.6c2.1-0.2,60.4-0.2,62.2,0.1c1.7,0.2,3.4,0.6,5.1,0.9c8.9,1.3,17.9,2.2,26.8,4
		c9.2,1.9,18.4,4.2,27.4,7.1c7.4,2.4,14.6,5.5,21.6,8.8c6.2,2.9,12.4,6.1,18.1,10c7.2,4.9,14,10.5,20.8,16
		c11.3,8.9,19.6,20.4,27.3,32.3c5.3,8.3,9.3,17.4,13.4,26.4c2.4,5.2,3.8,10.9,5.6,16.3c0.6,1.6,1.1,3.3,2,4.7
		c3.6,5.7,7,11.5,8.6,18.1c0.5,2,0.5,50.6,0.1,52.6c-0.7,3.4-1.4,6.9-2.8,10c-3.7,8.3-7.7,16.5-11.6,24.8
		c-4.6,9.9-10.8,18.9-17.5,27.4c-5.7,7.3-10.3,15.2-14.6,23.4c-1.6,3.1-3.4,6-5.2,9c-2.3,3.8-4.3,7.7-7,11.1c-2.8,3.5-3.4,6.8-2,11
		c2.3,6.8,4,13.7,2.4,21c-0.2,1-0.7,2-1,3c-0.3,0-0.6,0-0.9-0.1c-0.3-1.4-0.6-2.7-0.8-4.1c-0.3-1.9-0.1-4-0.9-5.7
		c-0.5-1.1-2.4-2.2-3.5-2c-1,0.2-2.5,2.2-2.4,3.2c0.9,5.7,0,11.1-1.5,16.6c-0.4,1.3-0.9,2.6-1,3.9c-0.2,2.4,1.5,3.6,3.7,2.7
		c2.9-1.2,4.5-0.3,3.5,2.6c-1.9,5.5-2.8,11.5-7,16c-1,1.1-3,2.3-4.2,2.1c-2.3-0.5-4-2.4-4.1-5c0-1.2,0.4-2.4,0.6-3.7
		c0.8-4,1.7-8.1,2.3-12.1c0.8-5.7,1.2-11.5,2-17.2c0.4-2.9-0.8-5.1-2.8-6.9c-0.6-0.5-2.8-0.3-3.1,0.2c-1.3,2.1-2.4,4.5-3.1,6.9
		c-1.4,4.8-2.2,9.7-3.8,14.4c-1,2.9-1.4,5.5-0.7,8.4c0.4,1.9,0.5,4,0.2,6c-0.5,3-1.4,6-2.1,9c-0.6,2.8-2.1,5-4.7,6.2
		c-0.9,0.4-2.1,0.2-3.2,0.2c0-1.1-0.4-2.3-0.1-3.2c1.6-4.5,3.4-8.9,5.1-13.4c0.8-2.3-1-5-3.6-5.7c-1.9-0.5-3.9,1.2-4.2,3.7
		c-0.2,1.9,0,3.9-0.1,5.8c-0.1,1.3-0.6,2.5-0.9,3.8c-1.2-0.4-2.5-0.7-3.6-1.3c-4.8-2.8-7.4-1.4-7.6,4.1c0,0.4,0,0.8-0.1,1.2
		c-0.5,3.9-2.3,4.7-5.5,2.5c-2.3-1.6-4.5-0.8-4.9,1.9c-0.2,1.7-0.1,3.5,0.3,5.2c2.1,8.5-0.7,16-5.7,22.5c-6.8,8.8-15.6,15-26.5,18
		c-4.5,1.2-5.9,4.6-4,8.9c1.5,3.4,3.3,6.8,4.1,10.4c0.9,4.3,3.2,7.5,6,10.6c8.4,9.2,16.7,18.4,24.9,27.8c1.7,1.9,3,4.2,4.2,6.5
		c1.3,2.6-0.4,4.2-2.4,5.4c-1.8,1.1-3.2,0.6-4.6-0.8c-4.6-4.5-9-9.3-14-13.3c-3.9-3.1-8.5-5.2-12.9-7.5c-2.5-1.3-5.3-0.8-7.3,1.1
		c-0.9,0.8-1.4,2.8-1.1,4c0.5,1.7,1.8,3.1,3,4.5c7.4,8.7,15.2,17.1,22.1,26.2c6,7.9,11.3,16.3,15.2,25.6c0.2,0.5,0.7,0.9,0.9,1.5
		c1.1,2.4,2.2,4.8,3.1,7.3c0.5,1.5,0.6,3.3-1.5,3.7c-2.1,0.4-2.6-1.3-3.1-3c-0.6-2-1.4-3.9-2.2-5.9c-0.8-1.9-1.7-3.8-2.6-5.7
		c-0.7-1.3-1.5-2.6-2.2-3.9c-1,1.4-2,2.7-3,4.1c-0.2,0.3-0.1,0.7-0.2,1.1c-1,6.1-6.5,11.2-12.7,11.6c-1.8,0.1-3.7,0.1-5.5,0.1
		c-9.7,0-15.5-5.9-15.4-15.6c0-1.3,0.1-2.5,0-3.8c-0.6-8.1,7.4-15.2,14.6-14.6c2,0.2,4.1,0.5,6,0.3c1.2-0.2,2.6-1.1,3.3-2.1
		c0.3-0.5-0.7-2.1-1.4-2.9c-1.9-2.3-4-4.4-6-6.6c-6.3-6.5-12.6-12.9-18.8-19.3c-0.8-0.8-1.5-1.7-2.1-2.7c-3.1-4.8-6.9-8.3-13.2-8.5
		c-4.5-0.1-5.8-1.6-6.2-5.9c-2-0.6-3.7-0.7-4.2,2.1c-0.1,0.7-0.8,1.5-1.5,2c-4.2,2.8-14,2.4-17.9-0.6c-3.4-2.6-8.4-2.5-11.3,0.5
		c-3.2,3.3-6.2,6.8-9.1,10.4c-1.4,1.8-2.4,4-3.3,6.1c-0.3,0.6,0.1,1.8,0.6,2.3c0.3,0.3,1.5,0.3,2.1-0.1c4.2-2.7,8.9-2.3,13.5-1.7
		c5.5,0.8,11.7,6.2,12,12.7c0.1,2.3,0.1,4.6,0.1,6.9c-0.3,13.2-13.7,16.9-23.6,13.7c-4.7-1.5-7.4-5.2-10-9.2c-1-1.5-2.4-2.6-3.7-3.9
		c-0.5,1.8-1.2,3.5-1.4,5.3c-0.7,4.2-0.3,8.8-2,12.4c-1.7,3.7-2.4,7.1-2.4,11c0,2-0.8,4-0.7,6c0.2,5.9-0.3,11.6-2.9,17
		c-0.4,0.8,0.4,2.1,0.6,3.2c1-0.3,2.2-0.3,3.1-0.8c2.9-1.6,5.4-4,8.5-4.8c5.8-1.4,11.8-1.1,16.7,3.2c3,2.6,6.1,5.3,5.3,9.9
		c-0.2,1.4-0.7,2.8-1.1,4.2c-22.6,0-45.2,0-67.7,0c-0.1-2.2-1.3-2.8-3.4-3c-9.1-0.9-18.2-1.8-27.3-2.9c-4.3-0.6-8.5-1.7-12.7-2.7
		c-11.6-2.7-23.2-5.4-34.7-8.4c-8-2.1-15.9-4.6-23.6-7.6c-8.8-3.5-17.4-7.7-26-11.6c-10.1-4.5-19.3-10.4-28.1-17
		c-8.7-6.6-17.4-13.4-25.4-20.9c-7.3-6.8-14-14.4-20.2-22.2c-4.4-5.6-7.5-12.3-11.4-18.4c-0.8-1.2-2.4-1.8-3.7-2.7
		C258.8,550.1,258.8,547.9,258.8,545.8z M394.9,434c0,0.2,0,0.4,0.1,0.6c3.8-0.5,7.7-0.8,11.4-1.6c3.9-0.9,6.1-4.2,6-8.2
		c-0.2-7.8-3.8-14.7-7.1-21.5c-2.1-4.4-5.8-8.1-9.3-11.7c-3.3-3.4-4.1-7-2.8-11.3c0.6-1.9,1.1-3.9,1.6-5.9c0.8-3.5-0.9-6.3-3.2-8.5
		c-2-1.9-4.3-0.4-6.4,0.6c-1,0.5-1.9,0.9-2.9,1.4c-4.2,2.3-6.7,5.6-6.6,10.7c0,1.2-0.1,2.5-0.4,3.7c-0.5,1.9-1.9,2.2-3.3,1.1
		c-0.9-0.7-1.6-1.7-2-2.7c-0.9-2.7-1.9-5.5-2.2-8.4c-0.2-2,0.1-4.4,1.2-6c1.6-2.5,4-4.6,6.2-6.7c2-1.9,4.5-3.3,6.5-5.2
		c2-1.9,2.2-6.1,0.6-7.7c-2.2-2.2-6.2-2-8.6,0.2c-2.7,2.6-5.5,5.1-8.4,7.4c-0.7,0.6-2.2,0.2-3.3,0.3c0-1.2-0.1-2.5,0.1-3.7
		c0.1-0.4,0.8-0.7,1.3-1.1c3.1-2.9,6.3-5.6,9.3-8.6c1.9-1.8,1.8-3.8-0.1-4.9c-5.9-3.3-14.6-0.5-16.1,4.3c-0.9,2.9-1.4,6-2,9
		c-0.7,3.1-1.3,3.3-3.6,1.3c-2.1-1.8-6.9-1.3-8.6,0.8c-1,1.3-2.3,2.4-3.2,3.7c-2.1,3-4.6,6-6.1,9.3c-3.5,8.1,2.1,14.1,5.3,20.5
		c1.3,2.6,3,5.1,4,7.8c1.8,4.6,2.4,9.9,8.1,11.7c0.3,0.1,0.5,0.3,0.7,0.5c2.5,4.1,6.8,5.6,10.7,7.5c5.9,2.8,12.1,4.5,18.7,2.3
		c3-1,3.6-3.6,1-5.3c-2.3-1.6-5.1-2.6-7.8-3.5c-2.3-0.8-5-0.8-7.2-1.9c-4.8-2.4-9.4-5.2-12.5-9.8c-1.2-1.8-2-3.9-2.6-5.9
		c-0.2-0.8,0.6-2,1-3c0.9,0.7,2.3,1.3,2.5,2.2c0.9,3.6,3.5,5.7,6.4,7.5c1.8,1.1,3.8,1.8,5.7,2.6c2.1,0.9,4.1,2.6,6.2,2.7
		c5.6,0.3,9.5,3.3,13.1,7c2.2,2.2,2.5,4.9,0.8,7c-1.7,2.1-3.4,4.1-5,6.3c-4,5.4-1.2,12.1,5.5,12.9C390.1,434.3,392.5,434,394.9,434z
		 M681.4,404.9c0,2-0.1,3.6,0,5.1c0.1,2.3,1.4,3.7,3.6,4.3c2.3,0.6,3.6-0.6,4.8-2.3c1.9-2.5,3.9-5,6.1-7.3c2.2-2.4,5-4.3,6.9-6.9
		c2.6-3.4,4.6-7.2,6.3-11.2c3-7.1,7.4-13.7,10.3-20.8c1.9-4.6,2.4-9.8,3.2-14.8c0.3-2.1-0.6-4.1-3.1-4.4c-2.5-0.3-4,1.1-4.5,3.5
		c-0.3,1.5-0.6,3-1,4.5c-0.8,3.4-1.5,6.8-2.5,10.1c-0.6,1.9-2.2,3.1-4.2,2.4c-0.3-0.1,0-2.2,0.1-3.4c0.3-3.9,0.8-7.8,0.7-11.7
		c0-1-1.9-2.9-2.7-2.8c-1.4,0.2-3,1.3-3.7,2.6c-0.5,0.8,0.2,2.5,0.6,3.7c0.5,1.9,1.1,4-0.9,5.1c-0.4,0.2-2.4-1.6-3.1-2.8
		c-2.6-4.1-6.9-4.6-9.9-0.9c-0.7,0.8-1.3,1.7-1.9,2.6c-1.3,2.1-1.2,4.1,0,6.2c1.7,2.8,3.3,5.7,4.7,8.6c0.5,1,0.7,2.5,0.4,3.6
		c-1,3.6-1.5,7.5-5.3,9.6c-0.5,0.3-0.9,0.8-1,1.4C683.8,394.4,680.5,399.4,681.4,404.9z M568.2,562c-1.5-1.2-2.2-2.1-3.2-2.6
		c-6.4-3-8.4-8.2-8.7-14.9c-0.3-5.5,2.7-9.2,5-13.5c0.5-0.9,0.7-1.9,1.1-2.8c-1-0.3-2.1-0.8-3.1-0.9c-8-0.8-16.1-0.3-23.9-3.1
		c-2.7-1-4.7,0.8-4.2,3.6c0.2,1.2,0.9,2.7,1.9,3.4c2.7,2.1,3.5,4.8,3.1,7.9c-0.2,1.4-1.2,3.8-1.9,3.9c-2.3,0.1-1.9-2.1-2-3.7
		c-0.2-2.7-3.5-6.6-6.4-7c-3.1-0.5-5,1.7-5.9,4.1c-1.1,3-1.7,6.3-2,9.5c-0.2,2.4,1.5,4,4,4c3.7,0,6.5,1.6,9.4,3.9
		c1.6,1.3,3.9,1.7,6,2.3c5.1,1.5,10.5,2.2,15.1,4.5c3.9,2,7.7,2.8,11.8,2.6C565.2,563.2,566.3,562.6,568.2,562z M377,318.4
		c-9.9,1.4-19.8,2.7-28.9,7.7c-6.2,3.4-10.3,8.3-13.6,14c-1.3,2.2-1.8,5.1-2.1,7.7c-0.1,1,0.8,2.8,1.8,3.2c0.9,0.4,2.8,0,3.5-0.7
		c2.9-3,5.9-6.1,8.2-9.6c3.5-5.1,7.6-9.4,13.1-11.8c2.8-1.2,6.7-1.9,9.4-0.9c6.3,2.3,11.5,6.7,14.7,12.8c1.2,2.2,2.4,4,4.6,5.2
		c4.9,2.8,9.4,0.6,9.9-5.2c0.2-2.8,0.5-5.6,0.6-8.4c0.2-4.2-1.4-7.4-4.9-9.8C388.4,319.4,383.1,317.6,377,318.4z M568.8,517
		c0-0.1,0-0.1,0-0.2c-5.2,0-10.4-0.1-15.6,0.1c-0.9,0-1.8,0.7-2.7,1.1c0.8,0.7,1.5,1.8,2.4,2c3.6,0.7,7.3,0.9,10.8,1.8
		c1.8,0.4,3.8,1.5,5,2.8c2.4,2.5,3.3,3,5.9,0.6c2.9-2.7,6.4-3.8,10.2-4.2c5.9-0.7,11.9-1.3,17.7-2.4c3.8-0.7,7.8-1.8,11.2-3.6
		c4.1-2,7.8-4.8,11.5-7.6c4.1-3.1,6.9-7.4,8.7-12.3c0.7-1.8,1.4-3.6,1.7-5.5c0.4-1.9,0.3-4,0.4-6c-1.9,0.7-4.2,0.8-5.7,2
		c-6.2,5.2-11.9,10.9-18.3,15.9c-5.8,4.5-10.8,10.7-18.9,11.3c-0.9,0.1-1.7,0.8-2.6,1.1c-2,0.7-3.9,1.9-5.9,2.1
		C579.4,516.7,574.1,516.8,568.8,517z M695.4,345.3c2.9-0.6,5.8-1.2,8.7-1.8c2.6-0.6,5.1-1.4,7.7-2c1.7-0.4,3.4-0.3,5.2-0.6
		c3.7-0.6,4.4-2.2,2.5-5.4c-3.6-6-9.1-9.9-15.3-12.8c-8.6-4-19.4,0.6-19.4,11.4C684.8,343.4,685.8,345.2,695.4,345.3z M590.4,526.3
		c-1.7,0.6-3.5,1.2-5.2,1.9c0.7,1.6,1.3,3.2,2.1,4.8c1.1,2.2,3.2,4.2,3.5,6.5c0.8,4.9,0.8,10-2.1,14.6c-0.4,0.7-0.4,2.3,0.1,2.8
		c0.5,0.5,2,0.4,2.8,0c2.1-0.7,4.3-1.5,6.3-2.7c2.2-1.3,4.4-2.7,6.1-4.6c0.9-1,1-3.3,0.6-4.8c-1-3.4-2.3-6.8-4-9.8
		C598.3,531,596.5,526.2,590.4,526.3z M350.9,426.4c0,2.3-0.2,4.7,0.1,6.9c0.4,3,0.9,6.1,1.9,9c0.8,2.5,2.1,4.9,3.4,7.2
		c0.6,1.1,1.9,2.2,3,2.4c1.9,0.3,2.1-1.5,2.2-3c0.2-3.7,0.5-7.5,0.5-11.2c0-4.4,0.3-8.9-0.5-13.2c-0.4-2.7-2.2-5.3-3.8-7.6
		c-0.8-1-3-1.8-4.2-1.4c-1.1,0.4-2.1,2.4-2.4,3.8C350.6,421.6,350.9,424,350.9,426.4z M392.9,300.5c0.3,6.7,0.4,13.5,4.7,19.3
		c1.4,2,4.2,3.2,6.5,2.3c2.5-0.9,2.6-3.1,2.3-5.3c-0.2-1.1-0.4-2.4-1.1-3.2c-3.6-4.8-4.3-10.3-4.8-16c-0.1-1.6-0.6-3.3-1.5-4.5
		c-0.6-0.9-2.3-1.6-3.4-1.4c-0.9,0.1-2,1.6-2.2,2.6C393,296.3,393.1,298.4,392.9,300.5z M403.5,459.8c0-5.9-2.1-8.9-6.3-8.9
		c-3.3,0-5.4,3-5.4,7.8c0,4.7,2.3,7.5,6.2,7.4C401.8,466,403.5,464,403.5,459.8z M450.1,189.5c0.3,0.5,0.7,2.4,1.7,2.7
		c1.4,0.4,3.6,0.2,4.8-0.7c2.2-1.7,4.2-3.9,5.8-6.3c0.8-1.1,0.9-3.4,0.3-4.5c-0.5-1-2.6-1.5-4-1.5C454,179.4,450,183.9,450.1,189.5z
		 M399.6,275.5c-0.4-2.7-0.7-6.4-1.4-10.1c-0.2-1-1.5-1.9-2.5-2.4c-0.3-0.2-1.8,0.9-2,1.6c-1,4-1.9,8-2.4,12.1
		c-0.3,2.5,2.1,4.6,4.3,4.5C397.8,281.2,399.6,279.1,399.6,275.5z M674.7,315.2c0.3,1.6,0.5,3.5,1,5.3c0.7,2.4,4,3.9,6.4,2.6
		c2.3-1.2,2-3.5,1.1-5.3c-1.1-2.2-2.5-4.3-4.1-6.2c-1.5-1.8-3.4-1.3-4.1,0.9C674.8,313.3,674.8,314.1,674.7,315.2z M369.6,451.3
		c3.7,0.2,4.9-2.1,2.9-6.1c-1.1-2.2-2.1-5.2-5.2-4.6c-3,0.6-2.1,3.8-2.2,5.9C365.1,450.4,365.8,451.1,369.6,451.3z M389.2,305
		c-0.4-1.6-0.8-3.6-1.5-5.4c-0.7-1.7-2-1.9-3.3-0.3c-2.6,3-2.7,8.4-0.1,11.5c1.3,1.5,3.1,1.3,3.8-0.6
		C388.6,308.7,388.8,307,389.2,305z"/>
	<path fill="#414042" d="M556.5,354.9c-4.9-0.6-10.1-0.6-14.8-2c-11-3.3-20.5-9.3-26.9-19.1c-2.7-4.1-4.4-8.8-4.7-14
		c-0.9-15.6,6.9-26.2,19.5-33.8c7.2-4.3,15.1-6.8,23.6-6.4c6.6,0.3,13.3-0.8,19.8,1.4c9.9,3.5,18.6,8.4,24.6,17.6
		c5.4,8.2,6.2,17.1,4.8,26.3c-1.3,8.7-7,15.2-14,20.1c-4.3,3-9.5,5-14.3,7.3C568.6,354.9,562.6,354.7,556.5,354.9z M591.7,310.9
		c0-3.7-2.5-8.5-6.3-12.4c-5.9-6.1-13.5-9.5-21.3-12.2c-2.1-0.7-4.3-1.3-6.5-1.2c-1.6,0.1-3,1.5-4.5,2.4c0.8,1.4,1.4,3.3,2.6,4
		c2.5,1.4,5.3,2.2,8,3.1c9.2,2.8,16.5,7.7,19.5,17.4c0.8,2.5,2.3,4.3,5.3,3.9C591.6,315.3,591.7,312.8,591.7,310.9z"/>
	<path fill="#414042" d="M576.1,415.4c-5.5-0.1-12.3,0.6-18.8-0.6c-6.1-1.1-12-3.8-17.8-6.4c-4.3-1.9-8.4-4.4-12.2-7.1
		c-4.8-3.4-9.5-7.2-13.9-11.2c-4.3-3.9-8.8-7.3-14.1-9.8c-2.4-1.1-4.4-0.3-6.6,0.6c-2.1,1-4.5,1.8-6.8,1.9c-2.8,0.1-4-2-3.5-4.7
		c0.8-3.8-1-7.2-4.3-9.6c-1.4-1-2.8-2.4-3.4-4c-0.9-2.6,1-4.1,3.6-3.1c0.8,0.3,1.5,0.8,2.2,1.4c1.7,1.6,3.5,1.9,5.8,1.2
		c4.3-1.4,4.8-0.9,5.8,3.5c0.4,1.5,1.4,3.4,2.7,4.1c5.3,2.7,10.8,5.2,16.4,7.5c3,1.2,6.2,2.1,9.4,2.8c7,1.6,14.1,3,21.2,4.3
		c1.5,0.3,3.1,0.4,4.6,0.4c12.6,0.1,25.3,0.5,37.9,0.3c10.8-0.2,21.6-0.6,32.3-1.5c3.4-0.3,6.9-2.3,10-4.1c4.1-2.4,8-5.3,11.9-8.1
		c1.5-1.1,2.9-2.6,4.1-4c2-2.3,3.8-2.4,5.8-0.1c0.9,1.1,1.8,2.3,2.2,3.7c1,3.3,1.9,6.7,2.5,10.1c0.3,1.5,0,3.3-0.6,4.7
		c-1,2.3-3.1,2.3-4.4,0.2c-0.3-0.5-0.5-1.1-0.7-1.6c-2.1-4.5-5-5.7-9.7-3.7c-7.2,3.1-13.6,7.7-18.9,13.4
		C607.7,408.1,593.8,414.3,576.1,415.4z M547.4,391.3c0-0.2,0-0.4,0-0.7c-5.6,0-11.2-0.1-16.7,0.1c-1.2,0-2.4,1.3-3.7,1.9
		c1,1.2,1.7,3,2.9,3.4c6.1,1.7,12,4,18.6,3.4c3.4-0.3,6.9,0.1,10.4-0.1c2-0.1,4-0.5,5.9-1c2.2-0.5,4.2-1.8,3.8-4.4
		c-0.4-2.5-2.6-2.7-4.7-2.7C558.4,391.3,552.9,391.3,547.4,391.3z M590.9,390.6c0,0.1,0,0.1,0,0.2c-2.8,0-5.6-0.4-8.3,0.1
		c-1.9,0.3-4.5,1.5-5,2.9c-0.5,1.4,1.2,3.7,2.2,5.4c0.5,0.7,1.8,1.2,2.7,1.3c2,0.2,4.1,0.5,6,0.1c5.7-1.2,11.4-2.7,17-4.3
		c1-0.3,1.7-1.5,2.6-2.3c-1-0.8-1.8-1.8-2.9-2.3c-0.9-0.5-2-0.5-3.1-0.6C598.4,390.9,594.6,390.8,590.9,390.6z"/>
	<path fill="#414042" d="M442.2,377c-0.5-1.2-1.5-2.4-1.5-3.6c-0.3-9.5-0.6-19-0.6-28.6c0-1.8,1.3-3.5,2-5.3
		c0.1-0.3,0.6-0.6,0.7-0.9c1-5.1,5.8-6.9,8.9-10.1c0.3-0.3,0.6-0.5,1-0.6c10.9-4.1,22.2-6.9,33.8-4.6c4.5,0.9,9,3.1,12.5,6.6
		c1.9,1.9,4.1,3.4,6.1,5.2c5.5,4.7,10.9,9.6,16.6,14.2c2.9,2.4,6.9,3.7,9.2,6.4c3.4,3.9,8.7,3.8,12.2,7.3c0.7,0.7,1.9,1,2.9,1
		c11.9,0.8,23.8,2.1,35.8,2.2c6.9,0.1,14.1-0.7,20.5-2.9c5.2-1.8,10.3-5.4,13.8-10.3c2-2.8,4.6-5.2,5.1-8.8c0.1-0.6,0.7-1.2,1.2-1.6
		c2.1-1.7,3.9-4,6.3-4.9c5.3-2,10.9-4.6,16.4-4.5c5.2,0.1,10.5,2.7,15.2,5.9c4.5,3.1,6.8,7.6,9.1,12c1.3,2.4,1.5,5.6,1.5,8.4
		c0.1,8.2-0.2,16.4-0.3,24.6c0,0.4,0,0.8-0.2,1.1c-2.2,4.1-4.2,8.3-6.6,12.4c-2,3.4-4.4,6.5-6.6,9.7c-2.6,3.8-5.3,7.5-7.8,11.2
		c-0.6,0.9-0.9,1.9-1.4,2.8c-0.6,1.1-1.1,2.2-1.7,3.3c-1,1.8-2.1,3.6-3.2,5.3c-1.8,2.8-3.3,6-5.6,8.3c-4.6,4.5-9.4,8.8-14.5,12.5
		c-3.7,2.7-8.2,4.4-12.3,6.6c-0.3,0.2-0.9,0.2-1.1,0.4c-2.6,3.6-6.6,3.5-10.4,4.2c-0.5,0.1-1,0.1-1.4,0.4c-5.4,4.7-12.3,3-18.5,4.2
		c-10.7,2-21.3-0.2-31.9-1.1c-2.6-0.2-5-1.7-7.5-2.6c-0.4-0.2-0.8-0.7-1.2-0.7c-5.2-0.7-9.9-2.4-14.6-4.8c-2.6-1.3-5.4-2-7.9-3.8
		c-3.5-2.5-7.7-4.1-11.4-6.4c-2.9-1.8-5.7-3.8-8.5-5.9c-5.8-4.3-11.5-8.5-17.2-12.9c-1.8-1.4-3.4-3.1-5.1-4.6
		c-4.8-4.5-9.8-8.9-14.4-13.6c-1.9-2-3-4.8-4.5-7.2c-2.2-3.8-4.4-7.6-6.6-11.3c-0.7-1.1-1.4-2.3-2.3-3.2c-2.3-2.6-2.4-5.4-1.7-8.4
		c0.4-0.2,0.7-0.3,1.1-0.5c0.9,1.6,1.8,3.3,2.6,4.9c0.8,1.6,1.6,3.2,2.5,4.7c2.3,4.1,4.7,8.1,7,12.1c0.2,0.4,0.2,1.1,0.5,1.3
		c4.8,4,6.7,10.7,12.8,13.6c1.2,0.6,2,2.1,3.1,3c5.7,4.7,11.2,9.5,17.1,13.8c5.3,3.9,10.9,7.4,16.3,11c3.6,2.4,7.1,5.2,10.9,7.3
		c4.2,2.3,8.8,4.1,13.3,5.7c2.9,1,6.2,1,8.7,3.4c0.8,0.8,2.3,1,3.5,1.1c7.3,1,14.7,2,22.1,2.7c2.9,0.3,5.9-0.3,8.9-0.6
		c6-0.6,12.1-1.3,18.1-2c1.4-0.2,2.7-0.9,3.9-1.5c2.1-0.9,4.3-2,6.4-3c2-1,4-2,6-3c0.2-0.1,0.4-0.4,0.7-0.6c3.7-2,7.4-3.9,10.9-6.1
		c2.7-1.7,5.2-3.6,7.5-5.7c3.2-2.8,6.3-5.8,9.4-8.7c0.4-0.4,0.8-0.9,1-1.4c1.7-3.5,3.4-7.1,5-10.6c0.1-0.2,0.1-0.4,0.2-0.5
		c2.4-3.4,4.8-6.7,7.2-10.1c2.1-3,4.1-6,6.2-8.9c0.9-1.3,1.9-2.6,2.9-4c0.2-0.3,0.7-0.5,0.8-0.8c2.2-6.2,7.5-11.2,7.1-18.4
		c-0.1-2.2,0.6-4.5,0.9-6.8c0.2-1.3,0.3-2.7,0.2-4c-0.4-3.3-0.9-6.7-1.5-10c-1.6-8.5-6.7-14.2-14.6-17.5c-0.6-0.3-1.3-0.5-1.7-1
		c-2.1-2.3-5.2-3.1-7.7-2.3c-7.8,2.5-16.3,3.9-20.8,12.2c-2.2,4-5.1,7.7-8.2,11c-1.9,2.1-4.9,3.1-7.4,4.6c-0.5,0.3-1.2,0.3-1.5,0.7
		c-2.4,3.1-5.9,3.2-9.2,3.3c-8.3,0.3-16.7,0.3-25,0.2c-6.5-0.1-13.1,0-19.6-1c-5.6-0.8-11.2-2.4-16.5-4.5c-3.1-1.2-5.7-4.1-8.5-6.2
		c-0.4-0.3-0.6-0.8-1-1.1c-4.9-3.6-9.8-7.2-14.7-10.8c-1.9-1.4-3.6-3.2-5.4-4.8c-3-2.6-5.9-5.5-9.2-7.8c-5.2-3.6-10.3-7.4-17.4-6.4
		c-4.1,0.6-8.3-0.1-12.4,0.4c-2.2,0.3-4.4,1.6-6.5,2.6c-1.3,0.6-2.5,1.5-3.8,1.8c-3,0.6-5.4,2-6.9,4.7c-0.4,0.7-1,1.5-1.7,2
		c-5.9,4.2-5.5,10.3-5,16.4c0.1,1.9,0,3.8,0.1,5.7c0.1,3.1,0.3,6.1,0.3,9.2c0.1,2.6,0,5.2,0,7.8C442.8,376.9,442.5,377,442.2,377z"
		/>
	<path fill="#414042" d="M452.1,266.7c0,5.3-0.3,10.6,0.1,15.9c0.3,3.4,1.2,6.9,2.8,9.9c3.2,5.8,2.1,11.9,2.3,17.8
		c0.1,2.7-3.3,4.2-5.3,2c-4.1-4.6-9.7-2.9-14.5-4.3c-1.8-0.5-4.2,1-6.2,1.8c-2.1,0.9-4.2,1.8-6.1-0.2c-2-2-1.5-4.1-0.3-6.4
		c0.5-1,0.6-2.4,0.6-3.6c-0.2-3.3,0.9-4.8,4.1-5.4c2.7-0.5,5.1,0.3,7.2,2.1c2,1.5,4,3,6.2,4.1c1.2,0.6,3.3,1,4.2,0.4
		c1.1-0.8,1.9-2.9,1.7-4.3c-0.5-3.3-1.7-6.5-2.6-9.7c-0.6-2-1.7-4-1.9-6c-1.8-12.6-2.9-25.2,0.3-37.6c1.2-4.8,3.5-9.4,5.7-13.8
		c4.5-9,11.8-15.7,20.1-21c3.3-2.1,7-3.7,10.7-5.1c1.8-0.7,4.1-0.7,6-0.3c6.1,1.1,12.3,2,18,4.1c9.4,3.5,16.8,9.8,22.4,18.4
		c3.7,5.8,6.1,12.2,7.6,18.6c1.4,5.8,0.6,12.2,0.7,18.3c0,0.5-0.7,1-1.1,1.4c-0.5-0.5-1.1-0.9-1.4-1.5c-0.3-0.7-0.4-1.5-0.4-2.3
		c-0.2-7.9-4-14.7-7.1-21.5c-3.5-7.8-9.1-14.3-16.8-18.9c-10.7-6.4-22.1-5.7-32.9-2.1c-9.9,3.3-16,11.5-19.8,21.3
		c-3.5,9.1-4.3,18.5-5.1,28C451.6,266.7,451.8,266.7,452.1,266.7z"/>
	<path fill="#414042" d="M655.4,273.8c0,3.2,0.3,6.4-0.1,9.5c-0.4,3.2-1,6.4-2.1,9.5c-0.9,2.5-0.9,4.3,1,6.3
		c1.7,1.8,3.2,3.8,4.6,5.9c0.5,0.7,0.4,1.9,0.5,2.9c-0.9,0.1-1.8,0.4-2.7,0.3c-1.1-0.1-2.2-0.6-3.3-0.9c-4-1.2-5.1-3.5-5.1-7.6
		c0.1-8.3,0.1-16.5-0.3-24.8c-0.2-5.6-0.6-11.2-1.8-16.6c-2.2-9.9-6.1-19.1-13.6-26.3c-2.5-2.4-5.5-4.7-8.7-6
		c-4.9-1.9-10-3.6-15.2-4.1c-10.7-1.1-18.5,4.5-24.5,12.6c-3.7,4.9-6.5,10.4-9.5,15.8c-1,1.9-1.2,4.3-1.9,6.3
		c-0.3,0.9-1.2,1.5-1.9,2.3c-0.4-0.9-1.1-1.7-1.3-2.6c-0.6-3.9-0.3-7.6,1.8-11.2c0.8-1.3,1.1-2.9,1.5-4.4
		c3.1-9.8,8.3-18.5,17.2-23.8c6.6-3.9,14-6.1,22.1-4.2c7.8,1.8,15.5,4,22.3,8.4c2.6,1.7,5.1,3.9,7.1,6.3c6.1,7.5,10.3,16,11.6,25.7
		c0.9,6.8,1.8,13.7,2.7,20.5C655.8,273.7,655.6,273.7,655.4,273.8z"/>
	<path fill="#414042" d="M497,266.9c7.5-0.1,11.7,2.7,14.3,9.1c1.1,2.7,0.3,4.9-1.5,6.9c-1.8,1.8-3.5,1.7-5.2-0.1
		c-1.1-1.2-2.2-2.5-3.4-3.4c-2.9-2.2-5.7-2.1-9.2-0.6c-5.5,2.4-9.6,6.4-13.7,10.4c-1,0.9-1.6,3-1.3,4.3c0.5,2.6,3.3,3.1,5,1
		c1.1-1.3,2-2.8,3.2-4.1c3.9-4.3,10.7-5.3,15.5-2c1.3,0.9,2.7,2.7,2.7,4c-0.1,1.3-1.9,2.5-3.1,3.6c-0.3,0.3-0.9,0.4-1.3,0.6
		c-4.7,1.9-4.7,1.9-4.3,6.9c0.3,3-0.7,4.3-3.7,4.7c-3.1,0.4-6.3,0.7-9.5,1.2c-2.5,0.4-4.3-0.5-5.6-2.6c-1.6-2.8-3.2-5.5-4.8-8.2
		c-2.4-4.2-1.3-8,1.7-11.1c3.2-3.3,4.5-7.5,6.6-11.4c1-1.9,2.4-3.9,4.2-4.9C487.7,268.3,492.4,266.5,497,266.9z"/>
	<path fill="#414042" d="M623.5,271.7c4.8,0.1,8.3,2.5,9.7,7.8c1.4,5.1,4.8,8.9,7.6,13.1c2.6,3.9,2.5,7.6-1.6,10
		c-4.4,2.6-8.8,4.3-14.2,1.9c-5-2.3-9.6-0.3-12.7,4.4c-0.5,0.7-1,1.6-1.7,2c-0.9,0.5-2.3,1-3.1,0.7c-0.7-0.3-1.2-1.8-1.4-2.8
		c-0.2-1,0.1-2.1,0.3-3.1c0.6-3.2,0.1-6-2.1-8.6c-2.2-2.5-2.5-5.5-0.9-8.6c0.7-1.3,1.2-2.6,1.5-4c1.4-5.7,5.2-9.1,10.6-10.8
		C618.2,272.8,620.9,272.3,623.5,271.7z M620,282.5c-2.2,0.8-4.4,1.3-6.2,2.3c-1,0.6-2.1,2.4-1.8,3.3c0.2,0.9,2.1,2.1,3.2,2
		c4.7-0.3,8.1,1.8,11.1,5.1c0.8,0.9,1.5,2,2.5,2.3c1.5,0.5,3.4,0.9,4.7,0.4c0.8-0.3,1.3-2.7,1-3.9c-1-4.6-4.9-6.9-8.4-9.3
		C624.3,283.6,622.1,283.3,620,282.5z"/>
	<path fill="#414042" d="M603.7,427c-2,2.8-4.1,5.3-7.1,7.5c-8.5,6.1-17.4,4.8-26.6,3.2c-0.7-0.1-1.5-0.2-1.9-0.6
		c-0.7-0.7-1.4-1.7-1.4-2.5c0-0.5,1.3-1.3,2.1-1.4c1.7-0.3,3.5-0.4,5.2-0.1c9.5,1.3,17.7-2.9,26.1-6c1-0.4,2.1-0.6,3.2-0.9
		C603.4,426.3,603.5,426.7,603.7,427z"/>
	<path fill="#414042" d="M439.7,396.7c-0.1,3.1,0.4,5.8,2.6,8.3c1.2,1.3,1.9,3.4,2.2,5.2c0.2,1.1-0.8,2.5-1.3,3.7
		c-1.3-0.6-3-1-3.7-2c-2.5-4.1-4.6-8.3-5.6-13.2c-1-4.9-3.5-9.5-5.2-14.2c-0.4-1.2-0.4-2.5-0.6-3.7c1.3,0.4,2.6,0.7,4,1.1
		c0.1,0,0.2,0.1,0.2,0.1C435.5,386.5,439.9,390.5,439.7,396.7z"/>
	<path fill="#414042" d="M465.2,528.1c-0.5,1.2-0.8,2.8-1.7,4.1c-0.6,0.8-2.2,1.7-3.1,1.5c-0.8-0.2-1.7-1.7-1.9-2.8
		c-0.6-3.3-0.6-6.7-1.2-10c-0.6-2.9-1.8-5.6-2.5-8.5c-0.3-1.1,0.1-2.4,0.2-3.6c1.1,0.3,2.4,0.2,3.2,0.9c2.9,2.2,4.8,5.1,5.2,8.9
		C463.8,521.6,464.5,524.6,465.2,528.1z"/>
	<path fill="#414042" d="M419.2,382.4c0,2.5-0.8,3.4-2.5,2.6c-1.4-0.6-3.3-1.3-3.8-2.4c-1.8-4.2-3.2-8.5-4.4-12.9
		c-0.2-0.9,1.2-2.3,1.9-3.4c0.6,1,1.3,2.1,1.9,3.1c1.5,2.8,3.1,5.5,4.5,8.3C417.7,379.4,418.6,381.2,419.2,382.4z"/>
	<path fill="#414042" d="M479.3,471.3c-11-1.4-14.3-9.3-14.8-14.7c0.2,0,0.4-0.2,0.5-0.1c3.7,3.1,7.5,6,11,9.3
		C477.5,467.3,478.3,469.5,479.3,471.3z"/>
	<path fill="#414042" d="M463.1,448.1c-0.9,1.6-1.4,2.5-2,3.4c-0.8-0.7-1.9-1.2-2.4-2c-2.3-3.9-4.5-7.9-6.7-11.8
		c-0.4-0.7-0.3-1.6-0.4-2.4c0.9-0.1,1.8-0.3,2.7-0.3c0.5,0,1.2,0.3,1.5,0.8C458.3,439.9,460.7,444.1,463.1,448.1z"/>
	<path fill="#414042" d="M434.4,503.7c0.3-0.4,0.8-2.1,1.5-2.2c1-0.2,2.6,0.6,3.4,1.4c1.4,1.5,2.5,3.2,3.3,5c0.5,1.1,0.6,2.9,0,3.7
		c-0.6,0.8-2.4,1.1-3.6,0.9C436.1,512.1,434.3,508.8,434.4,503.7z"/>
	<path fill="#414042" d="M625.9,318.4c-4.6-0.6-6.8-3.3-5.4-6.8c0.4-0.9,1.4-1.9,2.4-2.2c1.9-0.6,6.8,3.8,6.2,5.7
		C628.7,316.4,627,317.3,625.9,318.4z"/>
	<path fill="#414042" d="M424.6,360.8c0.3-0.3,0.7-1.5,1.4-1.6c0.9-0.2,2.4,0,2.8,0.6c1.3,1.8,2.6,3.9,3.3,6c0.6,1.8-0.9,2.3-2.5,2
		C427.2,367.4,424.6,364.1,424.6,360.8z"/>
	<path fill="#414042" d="M412.9,356.9c-1.5,1.2-2.4,2.5-3.4,2.6c-0.7,0.1-2.2-1.6-2.1-2.3c0.1-1,1.3-2,2.1-2.9
		C410.4,354.9,411.3,355.7,412.9,356.9z"/>
	<path fill="#414042" d="M488.8,503.5c2,0.4,4.1,0.8,6.1,1.3c0.3,0.1,0.8,0.9,0.7,1.1c-0.2,0.4-0.7,1-1.1,1c-2.4,0.3-4.5,0-6-2.1
		C488.6,504.4,488.7,503.9,488.8,503.5z"/>
	<path fill="#414042" d="M660.6,603.7c0-9.1,0.1-18.1-0.1-27.2c-0.1-3.2-0.9-6.4-1.4-9.7c-0.2-1.1-0.6-2.2-0.7-3.4
		c-0.6-7.8-0.8-15.6-1.6-23.3c-0.5-4.9-1.7-9.8-2.7-14.7c-0.6-2.9-1.6-5.8-2-8.7c-0.2-1.4,0.3-3.6,1.2-4.2c1.9-1.2,2.9,0.7,4,2.1
		c4.9,6.3,9.5,12.9,15,18.7c13,13.9,26.1,27.6,39.6,41c5.6,5.6,12,10.5,19.6,13.6c3.8,1.5,4.1,5.1,1,7.7
		c-6.9,5.6-13.6,11.8-20.8,16.9c-8.2,5.8-16.9,11-25.6,16.1c-6.3,3.7-13,6.7-19.5,10c-3.7,1.9-5.8,0.9-5.9-3.3c-0.2-5.5,0-11,0-16.5
		C660.6,613.8,660.6,608.7,660.6,603.7C660.6,603.7,660.6,603.7,660.6,603.7z"/>
	<path fill="#414042" d="M553.3,635.3c-0.5-6,1.2-11.1,6.6-14.4c1.7-1,3.6-1.9,5.5-2.1c3.2-0.3,6.5,0,9.8-0.1
		c5.4-0.1,13.4,8.9,12.1,14.4c-0.2,1-0.2,2.1-0.1,3.2c1.4,8.2-6.6,16.8-14.9,16c-1.9-0.2-3.9,0.1-5.8-0.1
		c-8.4-0.8-13.4-6.4-13.3-14.8C553.3,636.7,553.3,636,553.3,635.3z"/>
	<path fill="#414042" d="M582.7,609.7c-7,0.9-12.1-2.1-15.4-8c-5.3-9.5-1.1-26.1,13.2-25.6c5.1,0.2,10.5-0.3,14.3,3.9
		c2.1,2.4,4.1,5.5,4.8,8.7c2.6,11.2-4.4,22.4-16.3,21.1C583.1,609.6,582.9,609.7,582.7,609.7z"/>
	<path fill="#414042" d="M583.6,659.8c1.3,0.7,2.3,1.3,3.3,1.9c-0.9,0.8-1.8,2.1-2.9,2.2c-1.5,0.2-3.1-0.3-4.6-0.7
		c-0.1,0-0.3-1.2-0.1-1.2C580.7,661.2,582.1,660.6,583.6,659.8z"/>
	<path fill="#414042" d="M349,375.5c-1.3-4.9-2.4-9.9-0.6-15c0.3-0.7,1.3-1.2,1.9-1.8c0.4,0.8,1.1,1.6,1.1,2.4
		c-0.1,4.3-0.5,8.6-0.8,12.9c0,0.6-0.5,1.1-0.8,1.7C349.5,375.6,349.2,375.6,349,375.5z"/>
</g>
</svg>
