<?xml version="1.0" encoding="utf-8"?>
<!-- Generator: Adobe Illustrator 18.0.0, SVG Export Plug-In . SVG Version: 6.00 Build 0)  -->
<!DOCTYPE svg PUBLIC "-//W3C//DTD SVG 1.1//EN" "http://www.w3.org/Graphics/SVG/1.1/DTD/svg11.dtd">
<svg version="1.1" id="Layer_1" xmlns="http://www.w3.org/2000/svg" xmlns:xlink="http://www.w3.org/1999/xlink" x="0px" y="0px"
	 viewBox="0 0 1024 768" enable-background="new 0 0 1024 768" xml:space="preserve">
<g>
	<path fill="#FFF100" stroke="#000000" stroke-width="4.765" d="M252.2,602.6L112,440.9l17.3-197.7l165.9-131.8l616.9,54l-43,491.2
		L252.2,602.6z M166.4,372.2c12.2,1.1,22.9-7.9,23.9-20.1c1.1-12.2-7.9-22.9-20.1-23.9c-12.2-1.1-22.9,7.9-23.9,20.1
		C145.3,360.4,154.3,371.1,166.4,372.2z M168.4,350.2"/>
	<path d="M822.9,438.5c0.6-6.8,6.5-11.7,13.3-11.1c6.8,0.6,11.7,6.5,11.2,13.2c-0.6,6.8-6.5,11.7-13.3,11.1
		C827.3,451.1,822.3,445.3,822.9,438.5z M824.9,438.7c-0.5,5.7,3.8,10.6,9.3,11.1c5.6,0.5,10.6-3.6,11.1-9.3
		c0.5-5.8-3.8-10.6-9.3-11.1C830.5,428.9,825.4,432.9,824.9,438.7z M840.1,447l-2.3-0.2l-3-6.6l-2.5-0.2l-0.6,6.3l-2-0.2l1.2-13.7
		l5.8,0.5c2.5,0.2,4.6,1.2,4.4,4c-0.2,2.7-2.2,3.5-4,3.4L840.1,447z M832.8,434.5l-0.3,3.4l2.1,0.2c1.9,0.2,4.4,0.7,4.5-1.2
		c0.2-1.7-1.3-2-2.9-2.1L832.8,434.5z"/>
	<path d="M693.5,412.3l19.6,40.5l2.2,0.2c2.6-4.5,4.9-9,8-13.3l16.9-23.3l84.2,7.4l-77.8,77.6l-5.5,63.5l-73.3-6.4l5.5-63.5
		l-64.6-90L693.5,412.3z"/>
	<path d="M611.3,405.1l-7.6,87.1c-3.8,43-41.8,59.3-97.5,54.4c-55.6-4.9-90.3-27.6-86.5-70.5l7.6-87.1l72.2,6.3l-7.2,82
		c-1,11.5-1.4,21.7,17.9,23.4c19.2,1.7,20.7-8.4,21.7-19.9l7.2-82L611.3,405.1z"/>
	<path d="M246,372.8l87.2,7.6c39.9,3.5,80,13.9,77.1,47.9c-1.1,12.9-11.3,24.8-29.7,27.3l-0.1,1.2c21.9,7.6,35.1,20.6,33.6,38.2
		c-2.6,30.3-42.9,37.2-79,34l-102-8.9L246,372.8z M317.3,436.1c10.9,1,23.3,1.3,24.2-8.9c1-10.9-13.1-11.4-24-12.3l-5.2-0.5
		l-1.8,21.1L317.3,436.1z M305.6,491l8.5,0.7c12.3,1.1,30.1,2.4,31.1-9.7c1.1-12.3-18.1-13.8-30.1-14.8l-7.4-0.6L305.6,491z"/>
	<path d="M414.6,221.8l138.6,12.1l-3.5,40.2l-63.1-5.5l-1.2,14.1l57.7,5l-3.3,38.3l-57.7-5l-1.3,14.4l65.3,5.7l-3.5,40.2L401.7,369
		L414.6,221.8z"/>
	<path d="M573.8,330.9l3.6,2.5c12.7,8.6,28.3,16.1,45.6,17.6c7.4,0.6,19.3-0.5,19.9-7.1c0.6-6.6-9.2-8.1-16-9.7l-14.9-3.3
		c-28.9-6.3-52.4-20.7-50.4-43.8c3.1-34.9,49.3-50.6,94.1-46.7c23.5,2.1,44.7,8,64.2,18.6L696.5,295c-12.3-7.4-26.4-13.5-42.5-14.9
		c-6.6-0.6-16.3,0.3-16.8,6.4c-0.5,5.5,8.7,7.1,14.4,8.5l16.7,4.2c31.3,7.8,53.2,22,51,47c-3.1,35.1-49.4,48.6-94,44.7
		c-26-2.3-55.6-10-78.1-20.4L573.8,330.9z"/>
	<path d="M725.8,249l157.4,13.8l-4.2,47.8l-41.2-5l-8.8,100.7l-74.9-6.5l8.8-100.7l-41.4-2.2L725.8,249z"/>
	<path d="M230.5,204.8l87.2,7.6c39.9,3.5,80,13.9,77.1,47.9c-1.1,12.9-11.3,24.8-29.7,27.3l-0.1,1.2c21.9,7.6,35.1,20.6,33.6,38.2
		c-2.6,30.3-42.9,37.2-79,34l-102-8.9L230.5,204.8z M301.8,268.1c10.9,1,23.3,1.3,24.2-8.9c1-10.9-13.1-11.4-24-12.3l-5.2-0.5
		l-1.8,21.1L301.8,268.1z M290.1,323l8.5,0.7c12.3,1.1,30.1,2.4,31.1-9.7c1.1-12.3-18.1-13.8-30.1-14.8l-7.4-0.6L290.1,323z"/>
</g>
</svg>
