<?xml version="1.0" encoding="utf-8"?>
<!-- Generator: Adobe Illustrator 18.0.0, SVG Export Plug-In . SVG Version: 6.00 Build 0)  -->
<!DOCTYPE svg PUBLIC "-//W3C//DTD SVG 1.1//EN" "http://www.w3.org/Graphics/SVG/1.1/DTD/svg11.dtd">
<svg version="1.1" id="Layer_1" xmlns="http://www.w3.org/2000/svg" xmlns:xlink="http://www.w3.org/1999/xlink" x="0px" y="0px"
	 viewBox="0 0 1024 768" enable-background="new 0 0 1024 768" xml:space="preserve">
<g>
	<path fill="#1F70C1" d="M783.2,375.5c-0.6,0-1.2,0-1.7,0c-17.6,0-35.2,0-52.8,0c-1.5,0-1.8-0.5-1.8-1.8c0.1-3.4,0-6.9,0-10.3
		c0-0.5,0-1.1-0.4-1.7c-0.8,2.3-1.7,4.6-2.5,7c-0.7,1.9-1.3,3.8-1.9,5.7c-0.3,0.8-0.6,1.2-1.6,1.2c-33.1,0-66.2,0-99.4,0
		c-1,0-1.4-0.3-1.8-1.2c-1.3-4-2.8-7.9-4.2-11.9c-0.1-0.4-0.3-0.7-0.7-1c0,4.6,0,9.3,0,14c-18.8,0-37.5,0-56.3,0
		c0-6.3,0-12.4,0-18.7c0.5,0,1.1-0.1,1.6-0.1c34.6,0,69.1,0,103.7,0c1.1,0,1.5,0.4,1.8,1.3c1.5,4.5,3.1,9,4.7,13.5
		c0.2,0.5,0.4,1,0.8,1.8c1.9-5.2,3.7-10.2,5.4-15.1c0.4-1.2,0.9-1.5,2.1-1.5c34.5,0,68.9,0,103.4,0c0.5,0,1,0,1.6,0.1
		C783.2,363,783.2,369.2,783.2,375.5z"/>
	<path fill="#1F70C1" d="M295.5,303.7c0-6.3,0-12.4,0-18.7c0.6,0,1.1,0,1.7,0c66.4,0,132.8,0,199.1,0c1.3,0,2,0.3,2.5,1.6
		c1.7,5.2,3.4,10.3,5.1,15.5c0.2,0.5,0.1,1,0.2,1.7C434.5,303.7,365.1,303.7,295.5,303.7z"/>
	<path fill="#1F70C1" d="M295.6,464.3c69.4,0,138.6,0,208.3,0c-0.8,3-1.5,5.9-2.4,8.7c-1,3-2.2,5.9-3.3,8.9
		c-0.3,0.9-0.9,1.2-1.9,1.2c-2.7-0.1-5.3,0-8,0c-63.6,0-127.2,0-190.8,0c-0.6,0-1.2,0-1.8,0C295.6,476.7,295.6,470.5,295.6,464.3z"
		/>
	<path fill="#1F70C1" d="M295.6,519c0-6.4,0-12.5,0-18.8c62.6,0,125.1,0,188,0c-0.9,0.7-1.6,1.4-2.3,2c-8.9,7-18.7,12.2-29.9,14.5
		c-6.6,1.3-13.2,2.1-19.8,2.1c-44.6,0.1-89.3,0.1-133.9,0.2C296.9,519,296.3,519,295.6,519z"/>
	<path fill="#1F70C1" d="M295.6,267.8c0-6.2,0-12.3,0-18.6c0.6,0,1.2-0.1,1.8-0.1c43.7,0,87.3,0,131,0c10.5,0,21,1,31.1,4.4
		c8.8,3,16.5,7.9,23.7,13.8c0.1,0.1,0.2,0.2,0.4,0.5C420.8,267.8,358.2,267.8,295.6,267.8z"/>
	<path fill="#1F70C1" d="M333.2,375.5c0-6.4,0-12.5,0-18.8c53.7,0,107.4,0,161.4,0c-1.8,2.3-3.4,4.5-5.2,6.5
		c-3.2,3.6-6.5,7.1-9.8,10.7c-1.1,1.2-2.5,1.7-4.2,1.7c-46.7,0-93.5,0-140.2,0C334.6,375.5,333.9,375.5,333.2,375.5z"/>
	<path fill="#1F70C1" d="M494.6,411.3c-54,0-107.6,0-161.4,0c0-6.2,0-12.4,0-18.6c0.6,0,1.1-0.1,1.6-0.1c47.1,0,94.3,0,141.4,0
		c0.9,0,2,0.3,2.6,0.8C484.8,398.7,489.7,404.8,494.6,411.3z"/>
	<path fill="#1F70C1" d="M276.8,500.1c0,6.3,0,12.5,0,18.7c-43.7,0-87.4,0-131.2,0c0-6.3,0-12.5,0-18.7
		C189.3,500.1,233,500.1,276.8,500.1z"/>
	<path fill="#1F70C1" d="M276.8,249.1c0,6.3,0,12.4,0,18.6c-43.7,0-87.4,0-131.2,0c0-6.2,0-12.3,0-18.6
		C189.3,249.1,233,249.1,276.8,249.1z"/>
	<path fill="#1F70C1" d="M145.6,303.6c0-6.2,0-12.4,0-18.6c43.7,0,87.4,0,131.2,0c0,6.2,0,12.3,0,18.6
		C233.1,303.6,189.4,303.6,145.6,303.6z"/>
	<path fill="#1F70C1" d="M145.6,482.9c0-6.2,0-12.4,0-18.6c43.7,0,87.4,0,131.1,0c0,6.2,0,12.3,0,18.6
		C233,482.9,189.4,482.9,145.6,482.9z"/>
	<path fill="#1F70C1" d="M820.9,285c0,6,0,11.9,0,17.8c0,0.3-0.6,0.8-1,1c-0.3,0.2-0.8,0-1.2,0c-40.4,0-80.7,0-121.1,0
		c-0.6,0-1.2,0-2.1,0c0.9-2.5,1.7-4.8,2.5-7.1c1.2-3.5,2.5-6.9,3.7-10.4c0.3-0.9,0.7-1.4,1.8-1.4c38.7,0,77.3,0,116,0
		C819.9,284.9,820.3,285,820.9,285z"/>
	<path fill="#1F70C1" d="M639.4,285.1c2.2,6.1,4.4,12.3,6.6,18.6c-41.8,0-83.5,0-125.2,0c0-6.2,0-12.3,0-18.6
		C560.3,285.1,599.8,285.1,639.4,285.1z"/>
	<path fill="#1F70C1" d="M820.9,267.8c-37.6,0-75,0-112.6,0c0.9-2.6,1.8-5.1,2.6-7.6c1.2-3.3,2.4-6.5,3.5-9.8c0.4-1.1,0.9-1.4,2-1.4
		c34.3,0,68.6,0,102.9,0c1.3,0,1.7,0.4,1.6,1.7C820.8,256.3,820.9,262,820.9,267.8z"/>
	<path fill="#1F70C1" d="M633.3,267.8c-37.6,0-75,0-112.5,0c0-6.2,0-12.4,0-18.7c0.6,0,1.1-0.1,1.7-0.1c34.2,0,68.5,0,102.7,0
		c0.6,0,1.5,0.4,1.6,0.8C629.1,255.8,631.2,261.7,633.3,267.8z"/>
	<path fill="#1F70C1" d="M783.2,320.8c0,6.4,0,12.5,0,18.8c-33.4,0-66.7,0-100.2,0c0.1-0.4,0.1-0.8,0.2-1.1c1.9-5.5,3.9-11,5.8-16.5
		c0.3-0.9,0.7-1.3,1.7-1.3c30.4,0,60.9,0,91.3,0C782.4,320.8,782.7,320.8,783.2,320.8z"/>
	<path fill="#1F70C1" d="M558.5,320.8c0.7,0,1.2,0,1.8,0c30,0,60.1,0,90.1,0c1.3,0,1.9,0.4,2.3,1.6c1.9,5.7,4,11.4,6.1,17.3
		c-33.5,0-66.8,0-100.2,0C558.5,333.4,558.5,327.2,558.5,320.8z"/>
	<path fill="#1F70C1" d="M727.1,500.1c31.3,0,62.4,0,93.6,0c0,0.6,0.1,1.1,0.1,1.6c0,5.2,0,10.5,0,15.7c0,1.2-0.3,1.6-1.6,1.6
		c-30.2,0-60.5,0-90.7,0c-0.8,0-1.6,0.1-1.6-1.2c0.1-5.6,0-11.2,0-16.8C727,500.7,727.1,500.5,727.1,500.1z"/>
	<path fill="#1F70C1" d="M614.4,500.2c0,6.2,0,12.4,0,18.7c-31.2,0-62.3,0-93.5,0c0-6.2,0-12.4,0-18.7
		C552,500.2,583.1,500.2,614.4,500.2z"/>
	<path fill="#1F70C1" d="M727,482.9c0-6.2,0-12.3,0-18.5c31.2,0,62.4,0,93.7,0c0,6.1,0,12.3,0,18.5
		C789.5,482.9,758.4,482.9,727,482.9z"/>
	<path fill="#1F70C1" d="M614.4,464.4c0,6.2,0,12.3,0,18.6c-31.2,0-62.3,0-93.5,0c0-6.2,0-12.3,0-18.6
		C552,464.4,583.1,464.4,614.4,464.4z"/>
	<path fill="#1F70C1" d="M625.9,392.6c30,0,59.9,0,89.9,0c-1.6,4.5-3.1,8.9-4.6,13.3c-0.5,1.4-1,2.8-1.4,4.2
		c-0.3,0.9-0.7,1.3-1.7,1.2c-4.6-0.1-9.3,0-13.9,0c-20.1,0-40.1,0-60.2,0c-1.3,0-1.8-0.4-2.3-1.6c-1.8-5.4-3.7-10.7-5.6-16.1
		C626,393.4,626,393.1,625.9,392.6z"/>
	<path fill="#1F70C1" d="M445.5,320.8c20.1,0,39.9,0,60.1,0c-0.2,2.3-0.1,4.5-0.5,6.7c-0.6,3.6-1.4,7.1-2.1,10.7
		c-0.2,1.2-0.8,1.6-2.1,1.6c-17.9,0-35.8-0.1-53.7,0c-1.5,0-1.8-0.5-1.8-1.8c0.1-5,0-10.1,0-15.1
		C445.5,322.2,445.5,321.6,445.5,320.8z"/>
	<path fill="#1F70C1" d="M506,447.1c-20.1,0-40.2,0-60.3,0c0-6.2,0-12.3,0-18.6c0.5,0,1-0.1,1.4-0.1c18.1,0,36.2,0,54.3,0
		c0.9,0,1.7,0,1.9,1.2c0.9,5.6,1.9,11.3,2.8,16.9C506.1,446.7,506,446.8,506,447.1z"/>
	<path fill="#1F70C1" d="M703.3,428.5c-2.2,6.2-4.3,12.4-6.5,18.6c-0.9,0-1.8,0-2.7,0c-16,0-32,0-48,0c-0.9,0-1.5-0.1-1.8-1.1
		c-1.9-5.7-3.9-11.3-5.9-17c0-0.1,0-0.3-0.1-0.6C660,428.5,681.6,428.5,703.3,428.5z"/>
	<path fill="#1F70C1" d="M183.2,375.4c0-6.3,0-12.5,0-18.8c0.6,0,1.2,0,1.7,0c17.6,0,35.3,0,52.9,0c1.4,0,1.7,0.4,1.7,1.7
		c-0.1,5.2,0,10.5,0,15.7c0,1-0.1,1.5-1.3,1.5c-18,0-36.1,0-54.1,0C183.8,375.5,183.5,375.5,183.2,375.4z"/>
	<path fill="#1F70C1" d="M183.2,320.8c18.7,0,37.3,0,56.1,0c0,0.5,0.1,1,0.1,1.5c0,5.3,0,10.6,0,15.9c0,1.2-0.3,1.6-1.6,1.6
		c-17.8,0-35.6,0-53.4,0c-0.4,0-0.8-0.1-1.3-0.1C183.2,333.4,183.2,327.2,183.2,320.8z"/>
	<path fill="#1F70C1" d="M333.2,339.6c0-6.3,0-12.4,0-18.7c18.6,0,37.3,0,56.1,0c0,0.4,0.1,0.9,0.1,1.4c0,5.3,0,10.6,0,15.9
		c0,1.3-0.4,1.5-1.6,1.5c-17.7,0-35.4,0-53,0C334.3,339.7,333.8,339.6,333.2,339.6z"/>
	<path fill="#1F70C1" d="M333.2,447.1c0-6.2,0-12.3,0-18.5c18.7,0,37.3,0,56.1,0c0,6.1,0,12.3,0,18.5
		C370.6,447.1,352,447.1,333.2,447.1z"/>
	<path fill="#1F70C1" d="M614.4,428.6c0,6.2,0,12.3,0,18.5c-18.8,0-37.4,0-56.2,0c0-6.2,0-12.3,0-18.5
		C576.9,428.6,595.6,428.6,614.4,428.6z"/>
	<path fill="#1F70C1" d="M727,428.5c18.7,0,37.4,0,56.1,0c0,6.2,0,12.3,0,18.6c-18.7,0-37.4,0-56.1,0C727,440.9,727,434.8,727,428.5
		z"/>
	<path fill="#1F70C1" d="M558.2,392.6c18.8,0,37.4,0,56.2,0c0,6.2,0,12.4,0,18.6c-18.7,0-37.4,0-56.2,0
		C558.2,405.1,558.2,398.9,558.2,392.6z"/>
	<path fill="#1F70C1" d="M183.2,392.6c0.7,0,1.2,0,1.7,0c17.6,0,35.2,0,52.7,0c1.5,0,1.9,0.3,1.9,1.9c-0.1,5.1,0,10.2,0,15.3
		c0,0.5,0,1-0.1,1.6c-18.8,0-37.4,0-56.2,0C183.2,405.1,183.2,398.9,183.2,392.6z"/>
	<path fill="#1F70C1" d="M783.2,392.7c0,6.3,0,12.4,0,18.6c-18.7,0-37.4,0-56.2,0c0-6.2,0-12.3,0-18.6
		C745.7,392.7,764.4,392.7,783.2,392.7z"/>
	<path fill="#1F70C1" d="M239.4,447.1c-18.8,0-37.5,0-56.3,0c0-6.2,0-12.3,0-18.6c18.8,0,37.5,0,56.3,0
		C239.4,434.7,239.4,440.8,239.4,447.1z"/>
	<path fill="#1F70C1" d="M690.8,464.3c-1.7,4.9-3.3,9.6-4.9,14.2c0,0.1-0.1,0.2-0.1,0.3c-0.5,1.4-0.7,3.3-1.7,4
		c-1,0.7-2.9,0.3-4.4,0.3c-6.9,0-13.8,0-20.7,0c-1.4,0-1.9-0.4-2.4-1.7c-1.7-5.3-3.6-10.5-5.4-15.8c-0.1-0.4-0.2-0.8-0.4-1.3
		C664.2,464.3,677.4,464.3,690.8,464.3z"/>
	<path fill="#1F70C1" d="M878.4,497.8c0.1,10.5-8.2,18.8-18.7,18.8c-10.4,0-18.9-8.3-19-18.7c-0.1-10.5,8-19.1,18.9-19.1
		C871,478.8,878.7,488.1,878.4,497.8z M844,497.6c0,8.4,5.8,16.1,15.6,16.2c8.7,0.2,15.7-7.2,15.6-16.2c0-8.9-6.9-16.1-15.5-16.1
		C850.3,481.6,844.1,488.8,844,497.6z"/>
	<path fill="#1F70C1" d="M678.4,500.1c-1.4,4.1-2.8,8.1-4.2,12.1c-0.7,2-1.3,4-2.1,5.9c-0.2,0.4-0.9,0.8-1.3,0.8
		c-0.4,0-1-0.4-1.2-0.8c-2.1-5.9-4.1-11.8-6.1-17.7c0-0.1,0-0.2,0-0.3C668.4,500.1,673.3,500.1,678.4,500.1z"/>
	<path fill="#1F70C1" d="M869.1,508.1c-2.3,0.7-3.6-0.1-4.6-2.1c-1-2.1-2.4-3.9-3.6-5.9c-0.6-1.1-1.4-1.7-2.7-1.5
		c-0.8,0.1-1.7,0-2.8,0c0,3.3,0,6.4,0,9.5c-1.2,0.1-2.1,0.3-3.1,0.4c0-7.2,0-14.4,0-21.4c3.2,0,6.4,0,9.5,0c1.2,0,2.4,0.1,3.5,0.4
		c2.9,0.7,4.2,2.7,4,5.8c-0.2,2.6-2.1,4.7-4.7,5.1c-0.5,0.1-0.9,0.2-1.6,0.3C865.1,502,867.1,505,869.1,508.1z M855.5,496.3
		c2.5,0,4.9,0.1,7.2,0c2.2-0.1,3.5-1.3,3.6-3.2c0.1-2.1-0.6-3.4-3-3.7c-2.5-0.3-5.2-0.1-7.9-0.1
		C855.5,491.6,855.5,493.9,855.5,496.3z"/>
</g>
</svg>
