<?xml version="1.0" encoding="utf-8"?>
<!-- Generator: Adobe Illustrator 18.0.0, SVG Export Plug-In . SVG Version: 6.00 Build 0)  -->
<!DOCTYPE svg PUBLIC "-//W3C//DTD SVG 1.1//EN" "http://www.w3.org/Graphics/SVG/1.1/DTD/svg11.dtd">
<svg version="1.1" id="Layer_1" xmlns="http://www.w3.org/2000/svg" xmlns:xlink="http://www.w3.org/1999/xlink" x="0px" y="0px"
	 viewBox="0 0 1024 768" enable-background="new 0 0 1024 768" xml:space="preserve">
<g>
	<path fill-rule="evenodd" clip-rule="evenodd" d="M238,494.6c0.1,0.1,0.2,0.3,0.1,0.4c-2.5,3.6-6.6,7.1-12.6,7.1
		c-5.4,0-8.5-1.6-11.1-4c-3.1-2.8-4.6-7.7-4.6-11.4c0-4.1,1.4-8.1,4.3-11.3c2.3-2.5,5.9-4.5,11-4.5c3.9,0,7,1.2,8.5,2
		c0.6,0.3,0.8,0.3,0.8,0l0.3-1.1c0.1-0.3,0.2-0.3,0.7-0.3c0.5,0,0.6,0.1,0.6,0.7c0,0.8,0.8,7.5,1,8.8c0,0.3,0,0.4-0.2,0.4l-0.8,0.3
		c-0.2,0.1-0.3-0.1-0.5-0.4c-0.5-1.5-1.5-3.6-3.3-5.5c-1.9-1.8-4.1-3.1-7.4-3.1c-6.8,0-9.6,6.1-9.6,12.2c0,2.6,0.8,7.6,3.9,11
		c2.8,3,5.2,3.3,7.3,3.3c4.7,0,8.3-2.3,10.1-4.9c0.2-0.3,0.4-0.4,0.5-0.3L238,494.6L238,494.6L238,494.6L238,494.6z"/>
	<path fill-rule="evenodd" clip-rule="evenodd" d="M330.9,474.4c3.2,2.6,5.8,6.8,5.8,12.5c0,3.1-0.8,6.4-3.1,9.3
		c-2.7,3.4-6.3,6-12.7,6c-2.5,0-6.2-0.8-9.6-2.8c-3-1.8-6.2-6.4-6.2-12.5c0-2.5,0.7-6.6,3.9-10.5c3.7-4.6,8.3-5.4,11.9-5.4
		C324,471,327.4,471.6,330.9,474.4L330.9,474.4L330.9,474.4L330.9,474.4z M314.6,475.2c-2.6,2.5-3.8,6.8-3.8,10.2
		c0,11,6.8,14.9,10.3,14.9c8.5,0,9.9-9.5,9.9-13c0-9.2-6.3-14.5-10.3-14.5C319.9,472.8,317.5,472.4,314.6,475.2L314.6,475.2
		L314.6,475.2L314.6,475.2z"/>
	<path fill-rule="evenodd" clip-rule="evenodd" d="M429.7,492.8c0.1,0.1,0.1,0.2,0.1,0.4c-0.2,0.3-1.9,7.3-2.1,8.4
		c-1.1,0-13.3-0.1-17.6-0.1c-3.8,0-5.3,0.1-5.8,0.1c-0.3,0-0.3-0.1-0.3-0.4v-1c0-0.3,0-0.3,0.2-0.3h1.7c1.5,0,1.8-0.6,1.8-1.1
		c0-0.8,0.2-11.3,0.2-13.9v-2.4c0-2.7-0.1-7.2-0.2-7.9c-0.1-1.1-0.2-1.5-1.4-1.5h-1.8c-0.3,0-0.3-0.3-0.3-0.4v-1
		c0-0.3,0.1-0.3,0.3-0.3c0.4,0,2,0.1,5.8,0.1c4.6,0,6.3-0.1,6.7-0.1c0.3,0,0.4,0.2,0.4,0.4v1c0,0.2-0.1,0.3-0.4,0.3h-2.3
		c-1.3,0-1.4,0.4-1.4,1.6c0,0.6-0.2,6.9-0.2,9.9v3.6c0,0.8,0,9.9,0.2,11.7h2.4c2.4,0,5.4,0,7.1-0.2c2.4-0.3,5.1-5.4,5.7-7
		c0.2-0.2,0.3-0.3,0.5-0.2L429.7,492.8L429.7,492.8L429.7,492.8L429.7,492.8z"/>
	<path fill-rule="evenodd" clip-rule="evenodd" d="M521.5,492.8c0.1,0.1,0.1,0.2,0.1,0.4c-0.2,0.3-1.9,7.3-2.1,8.4
		c-1.1,0-13.3-0.1-17.6-0.1c-3.8,0-5.3,0.1-5.8,0.1c-0.3,0-0.3-0.1-0.3-0.4v-1c0-0.3,0-0.3,0.3-0.3h1.7c1.5,0,1.8-0.6,1.8-1.1
		c0-0.8,0.2-11.3,0.2-13.9v-2.4c0-2.7-0.1-7.2-0.2-7.9c-0.1-1.1-0.3-1.5-1.4-1.5h-1.8c-0.2,0-0.3-0.3-0.3-0.4v-1
		c0-0.3,0.1-0.3,0.3-0.3c0.4,0,1.9,0.1,5.8,0.1c4.6,0,6.3-0.1,6.7-0.1c0.3,0,0.4,0.2,0.4,0.4v1c0,0.2-0.1,0.3-0.4,0.3h-2.3
		c-1.3,0-1.4,0.4-1.4,1.6c0,0.6-0.2,6.9-0.2,9.9v3.6c0,0.8,0,9.9,0.2,11.7h2.4c2.4,0,5.4,0,7.1-0.2c2.4-0.3,5.1-5.4,5.7-7
		c0.2-0.2,0.3-0.3,0.5-0.2L521.5,492.8L521.5,492.8L521.5,492.8L521.5,492.8z"/>
	<path fill-rule="evenodd" clip-rule="evenodd" d="M597,489.3c0,2.3,0.1,6.4,0.1,7.2c0,2.2,0.8,3,1.7,3.3c0.7,0.2,1.7,0.3,3.3,0.3
		c0.8,0,2.7-0.1,3.5-0.2c0.8-0.1,2.4-0.5,3.5-1.4c0.8-0.7,3.1-3.5,3.9-4.5c0.2-0.2,0.3-0.2,0.5-0.2l0.7,0.4c0.1,0.1,0.2,0.2,0.1,0.4
		l-2,6.3c-0.1,0.4-0.4,0.6-0.9,0.6c-0.4,0-3.7-0.1-17.9-0.1c-3.1,0-4.7,0.1-5.4,0.1c-0.3,0-0.3-0.1-0.3-0.3v-1
		c0-0.3,0.1-0.3,0.4-0.3h1.4c1.9,0,2.1-0.2,2.1-1.8v-14.2c0-3.5-0.1-8.7-0.2-9.3c-0.2-1.1-0.6-1.5-1.9-1.5H588
		c-0.2,0-0.3-0.1-0.3-0.3v-1.1c0-0.2,0-0.3,0.3-0.3c0.9,0,2.4,0.2,5.9,0.1h1.2c1.9,0,11.6-0.1,13.4-0.1c0.7,0,1.5,0,1.7,0
		c0.2,0,0.3,0.1,0.3,0.3c0.2,0.5,1.8,6.3,1.9,6.7c0.1,0.3,0,0.4-0.1,0.5l-0.8,0.3c-0.1,0-0.2,0-0.4-0.2c-0.2-0.3-3.6-4.1-4.7-4.7
		c-0.9-0.5-2-1.1-3.2-1.1L597,473l-0.1,12.2c1.3,0,4.3-0.1,4.8-0.2c0.9-0.2,1.4-0.5,2-1.5c0.2-0.6,0.7-1.6,0.7-2.4
		c0-0.3,0.2-0.3,0.3-0.3l1.1,0.1c0.2,0,0.3,0.1,0.3,0.3c-0.1,0.7-0.1,3.5-0.1,4.6c0,1.7,0.2,3.7,0.3,4.7c0,0.2-0.1,0.3-0.3,0.3
		l-0.9,0.2c-0.2,0-0.3,0-0.3-0.3c-0.2-0.7-0.5-1.6-0.7-2.1c-0.4-0.8-1.2-1.4-2.1-1.5c-1.5-0.2-3.6-0.3-4.9-0.3L597,489.3L597,489.3
		L597,489.3L597,489.3z"/>
	<path fill-rule="evenodd" clip-rule="evenodd" d="M709.2,497.3c0,0.6,0.2,1,0.2,1.4c0,0.3-0.3,0.5-0.7,0.7c-3.5,1.8-6.9,2.8-12,2.8
		c-4.1,0-9.3-1.4-12.2-4.9c-2.6-2.9-3.9-6.5-3.9-11.5c0-3.9,1.7-7.9,4.8-10.7c3-2.7,6.9-4.1,12-4.1c4.1,0,7.3,1.3,8.6,2.3
		c0.5,0.4,0.8,0.3,1-0.1l0.5-0.7c0.2-0.3,0.3-0.4,0.6-0.4c0.4,0,0.5,0.3,0.5,0.6l0.4,8.5c0,0.3,0,0.5-0.2,0.6l-1,0.2
		c-0.3,0-0.3-0.1-0.4-0.3c-0.6-1.7-1.7-4.1-3.4-5.8c-1.4-1.5-3.8-3-7-3c-2.6,0-4.9,0.7-7.2,3.3c-2,2.3-3.5,5.8-3.5,9.6
		c0,5,1.4,9.3,3.8,11.7c2,1.9,4.1,2.9,6.8,2.9c2.7,0,4.3-0.3,5.8-1.1c0.9-0.5,1-1.7,1-3.9v-3.1c0-1.5-0.4-1.9-1.5-1.9h-1.8
		c-0.3,0-0.3-0.2-0.3-0.4v-1c0-0.3,0.1-0.3,0.3-0.3c0.5,0,2.5,0.1,6,0.1c3.6,0,5-0.1,5.4-0.1c0.3,0,0.4,0.1,0.4,0.3v1.1
		c0,0.2-0.1,0.3-0.3,0.3h-1.4c-0.8,0-1.3,0.3-1.3,1.6V497.3L709.2,497.3L709.2,497.3L709.2,497.3z"/>
	<path fill-rule="evenodd" clip-rule="evenodd" d="M788.2,489.3c0,2.3,0.1,6.4,0.1,7.2c0,2.2,0.8,3,1.7,3.3c0.7,0.2,1.7,0.3,3.3,0.3
		c0.8,0,2.7-0.1,3.6-0.2c0.8-0.1,2.4-0.5,3.5-1.4c0.8-0.7,3.1-3.5,3.9-4.5c0.2-0.2,0.3-0.2,0.5-0.2l0.7,0.4c0.1,0.1,0.2,0.2,0.1,0.4
		l-2,6.3c-0.1,0.4-0.4,0.6-0.9,0.6c-0.4,0-3.7-0.1-17.9-0.1c-3.1,0-4.7,0.1-5.4,0.1c-0.3,0-0.3-0.1-0.3-0.3v-1
		c0-0.3,0.1-0.3,0.4-0.3h1.4c1.9,0,2.1-0.2,2.1-1.8v-14.2c0-3.5-0.1-8.7-0.2-9.3c-0.2-1.1-0.6-1.5-1.9-1.5h-1.6
		c-0.2,0-0.3-0.1-0.3-0.3v-1.1c0-0.2,0-0.3,0.3-0.3c0.9,0,2.5,0.2,5.9,0.1h1.2c1.9,0,11.6-0.1,13.4-0.1c0.7,0,1.5,0,1.7,0
		c0.2,0,0.3,0.1,0.3,0.3c0.2,0.5,1.8,6.3,1.9,6.7c0.1,0.3,0,0.4-0.1,0.5l-0.8,0.3c-0.1,0-0.3,0-0.4-0.2c-0.2-0.3-3.6-4.1-4.7-4.7
		c-0.9-0.5-2-1.1-3.2-1.1l-6.4-0.2l-0.1,12.2c1.3,0,4.3-0.1,4.8-0.2c0.9-0.2,1.4-0.5,1.9-1.5c0.3-0.6,0.7-1.6,0.7-2.4
		c0-0.3,0.2-0.3,0.3-0.3l1.1,0.1c0.2,0,0.3,0.1,0.3,0.3c-0.1,0.7-0.1,3.5-0.1,4.6c0,1.7,0.2,3.7,0.3,4.7c0,0.2-0.1,0.3-0.3,0.3
		l-0.9,0.2c-0.2,0-0.3,0-0.3-0.3c-0.2-0.7-0.5-1.6-0.7-2.1c-0.4-0.8-1.2-1.4-2.1-1.5c-1.5-0.2-3.5-0.3-4.9-0.3L788.2,489.3
		L788.2,489.3L788.2,489.3L788.2,489.3z"/>
	<path fill-rule="evenodd" clip-rule="evenodd" d="M140.3,399.5c-13.7-8.3-28.3-29.1-28.3-57.2c0-11.7,3.1-30,17.9-47.9
		c16.9-20.6,36-24.5,52.2-24.5c12.1,0,27.9,2.5,43.2,15.2c14.1,12.1,26.4,31,26.4,57.6c0,14.1-4.4,28.7-14.5,42.2
		c-11.8,15.6-28.9,27.1-55.5,27.1C172.3,412,155.5,408.9,140.3,399.5L140.3,399.5L140.3,399.5L140.3,399.5z M232.8,344.2
		c0-42.2-30.1-67-51.5-67c-2.9,0-16-2.3-30.4,11.4c-12.9,12.3-19.3,31.8-19.3,47.6c0,50.6,35.3,68.5,51.7,68.5
		C225.7,404.7,232.8,361.3,232.8,344.2L232.8,344.2L232.8,344.2L232.8,344.2z"/>
	<path fill-rule="evenodd" clip-rule="evenodd" d="M291.8,316.4c0-10.9-0.3-29-0.5-32.1c-0.3-4.4-1.2-6.1-6.3-6.1h-8
		c-1,0-1.2-0.9-1.2-1.7v-3.7c0-0.9,0.2-1.2,1.2-1.2c1.9,0,8,0.5,22.2,0.5c16.6,0,23.8-0.5,25.3-0.5c1.4,0,1.5,0.5,1.5,1.4v3.9
		c0,0.9-0.3,1.4-1.7,1.4H314c-5.3,0-6,1.7-6,6.7c0,2.2-0.5,28-0.5,40v14.7c0,2.9,0,39.8,0.5,46.8c3.8,0.3,37.6,0.7,42.9,0
		c10.1-1.5,20.3-22,22.7-28.7c0.3-0.7,0.7-1,1.4-0.7l2.7,1c0.5,0.3,0.5,0.5,0.3,1.5c-0.5,1.2-7.4,29.4-8.4,34
		c-4.4-0.3-53.7-0.5-72-0.5c-13.5,0-19.7,0.5-21.9,0.5c-1.2,0-1.4-0.3-1.4-1.2V388c0-0.9,0.2-1.2,1.2-1.2h8.2c6.3,0,7.4-2.4,7.4-4.6
		c0-3.2,0.5-45.8,0.5-56.2V316.4L291.8,316.4L291.8,316.4L291.8,316.4z"/>
	<path fill-rule="evenodd" clip-rule="evenodd" d="M428.3,321.3c0-4.1-0.5-34.8-0.7-37.4c-0.3-4.1-2.1-5.8-8.5-5.8h-9.9
		c-0.9,0-1.4-0.3-1.4-1v-4.6c0-0.7,0.5-1,1.2-1c2,0,10.8,0.5,26.7,0.5c15.2,0,20.7-0.5,23.1-0.5c0.9,0,1.2,0.5,1.2,1.2v4.3
		c0,0.9-0.5,1.2-1.4,1.2h-8c-3.4,0-6,1.4-6,4.8c0,1.7-0.5,39.4-0.5,41.5v13.1c0,1.7,0.5,41.2,0.5,43c0,5.3,2.6,6.2,8,6.2h7
		c0.8,0,1.4,0.3,1.4,1.2v4.4c0,0.7-0.5,1-1.5,1c-2.1,0-8.9-0.5-23.8-0.5c-16.2,0-23.6,0.5-25.5,0.5c-0.9,0-1.4-0.3-1.4-1v-4.6
		c0-0.7,0.5-1,1.4-1h9.6c3.4,0,7-0.5,7.7-5c0.3-2.6,0.9-39.5,0.9-48.5V321.3L428.3,321.3L428.3,321.3L428.3,321.3z"/>
	<path fill-rule="evenodd" clip-rule="evenodd" d="M498.2,272.7c0-0.9,0.2-1.2,1.2-1.2c1.7,0,7.4,0.5,20.7,0.5
		c14.3,0,22-0.5,23.6-0.5c1.5,0,1.7,0.5,1.7,1.2v3.9c0,0.9-0.2,1.5-1.4,1.5h-8.2c-4.8,0-7.2,1.5-7.2,4.4c0,1.4,0.2,3.4,0.7,5.8
		c1,6.1,7.4,26.5,10.4,36c2.1,6.5,12,35.9,15.9,46.3h0.3c3.6-8,16.9-43.2,18.3-47.1c1.7-4.6,8.2-24.3,10.8-31.8
		c1.4-4.3,2.4-7.3,2.4-9.7c0-2-1.2-3.9-5.5-3.9h-4.4c-0.7,0-0.9-0.5-0.9-1.5v-3.9c0-0.9,0.2-1.2,1-1.2c1.5,0,9.4,0.5,20.2,0.5
		c12.5,0,16.7-0.5,18.3-0.5c1,0,1.2,0.3,1.2,1.2v4.3c0,0.7-0.2,1.2-1.2,1.2h-4.6c-5.6,0-8.9,2.7-12.1,6.7
		c-4.5,5.5-18.1,40.5-21,47.7c-2.1,5.6-24.1,59.9-25,61.7c-0.7,1.4-1.5,2.2-2.4,2.2c-1.4,0-2.1-1.7-2.9-3.9
		c-5.5-15.7-19.3-54.6-21.5-60.8l-1.7-5.8c-4.1-12.1-12.1-36.9-14.4-42c-1.7-3.9-3.4-5.6-7-5.6h-4.5c-0.7,0-0.9-0.5-0.9-1.2V272.7
		L498.2,272.7L498.2,272.7L498.2,272.7z"/>
	<path fill-rule="evenodd" clip-rule="evenodd" d="M683.3,327.5c1.4,0,19.7-0.7,21.7-1c5-0.8,6.3-2.2,7.9-7.5
		c0.5-1.7,1.2-5.1,1.4-8.4c0-0.9,0.5-1.2,1.2-1.2l4.3,0.2c0.9,0,1.2,0.7,1,1.4c-0.5,2.9-0.5,16.9-0.5,19.5c0,6,0.7,14.2,1,17.8
		c0,0.9-0.3,1.2-1,1.4l-3.7,0.5c-0.9,0.2-1.2-0.3-1.4-1.5c-0.3-2.2-1.4-6.2-1.9-8c-1-3.6-2.9-6.1-7.4-6.7c-8-0.8-19.8-0.8-22.6-0.8
		v10.6c0,9.2,0.3,25.8,0.3,29.2c0.2,8.9,4.4,12.3,9.7,13.3c3.4,0.7,8.4,1.2,12.6,1.2c2.9,0,11.5-0.2,15-0.5c2.9-0.3,10.4-2.2,14.9-6
		c2.1-1.7,11.6-14,14-17.9c0.5-0.9,1-1.5,2-1l2.7,1.5c0.9,0.5,0.9,1,0.3,2.4l-9.1,25.1c-0.5,1.5-1.7,2.6-3.8,2.6
		c-1.7,0-15.2-0.5-68.4-0.5c-12.8,0-18.8,0.5-21.9,0.5c-1,0-1.6-0.3-1.6-1.2v-4.6c0-0.7,0.5-0.9,1.7-0.9h6.8c7.9,0,8.5-1.2,8.5-7.5
		V322c0-14.2-0.3-35.5-0.5-37.2c-0.7-5.5-2.4-6.7-8.7-6.7h-6.2c-0.9,0-1.4-0.2-1.4-1.2v-4.6c0-0.5,0.3-0.8,1.2-0.8
		c3.7,0,9.7,0.5,21,0.5h7.5c16.9,0,33.8-0.2,50.7-0.2c2.7,0,6-0.3,6.8-0.3c0.9,0,1.2,0.3,1.4,0.8c0.7,2.4,8.2,25.8,8.7,27.5
		c0.2,0.7,0.2,1.2-0.5,1.5l-2.6,1.4c-0.5,0.4-1.2-0.2-1.4-0.5c-0.4-0.7-13-16.9-17.1-19.5c-3.6-2.4-8.4-4.4-13-4.6l-30.4-0.7V327.5
		L683.3,327.5L683.3,327.5L683.3,327.5z"/>
	<path fill-rule="evenodd" clip-rule="evenodd" d="M836,279.7h-4.8c-6.2,0-22.9,0-30.4,2.3c-8.7,2.7-14.5,16.2-17.1,22.3
		c-0.4,1-1,1.1-1.9,1l-3.5-1c-0.6-0.2-1.2-0.4-0.8-1.6c1.9-6.9,8.7-31.8,9.1-33.9c0.4-2.5,1.2-3.1,1.9-3.1c1,0,1.5,0.2,2.3,0.8
		l2.5,1.7c3.5,2.5,5.4,3.1,11,3.3c10.2,0.4,18.3,1.2,36.4,1.2h9.2c21,0,29.3-0.8,38.7-1.2c4.3-0.2,6.8-0.8,10-2.7l3.7-2.3
		c1-0.6,1.5-0.8,2.3-0.8c1,0,1.3,0.6,1.7,3.1c0.4,2.3,4,26.2,5.6,34.7c0.2,1-0.2,1.3-1.2,1.5l-3.1,0.8c-0.8,0.2-1,0-1.6-1.4
		c-1.5-3.7-7.3-18.5-13.7-21.6c-5.8-2.9-23.9-3.3-33.3-3.3h-5.4v54.9c0,2.7,0,56.6,0.2,59.9c0.4,4.8,1.9,7.7,6.6,7.7h12.1
		c1.7,0,1.9,0.6,1.9,1.9v4c0,1-0.2,1.5-1.9,1.5c-1.9,0-8.1-0.6-27-0.6c-18.5,0-26.6,0.6-29.3,0.6c-1.5,0-1.7-0.8-1.7-1.9v-3.7
		c0-1.3,0.2-1.9,1.4-1.9h13.1c3.9,0,6.2-2.3,6.4-4.6c0.6-5.6,0.6-64.7,0.6-68.3V279.7L836,279.7L836,279.7L836,279.7z"/>
	<path fill-rule="evenodd" clip-rule="evenodd" d="M450.5,427.7c0-1-0.2-1.8-0.8-1.8c-0.3,0-0.8,0.1-1.4,0.3l-2,0.6
		c-0.1,0.1-0.3,0.1-0.3-0.1l-0.3-0.7c-0.1-0.1,0-0.3,0.2-0.4l7.8-4.1c0.2-0.1,0.4-0.2,0.6-0.2c0.2,0,0.3,0.1,0.3,0.5
		c0,0.3-0.1,5.6-0.1,10v1.4c0,1.2,0.1,7.6,0.1,8.1c0,1.8,0.1,2,2,2h1.2c0.3,0,0.3,0.1,0.3,0.2v0.8c0,0.2-0.1,0.3-0.3,0.3
		c-0.3,0-4.9-0.1-5.5-0.1c-0.7,0-5.5,0.1-5.7,0.1c-0.2,0-0.3-0.1-0.3-0.2v-0.9c0-0.2,0.1-0.2,0.4-0.2h1.3c2,0,2.3-0.1,2.4-1.9
		c0.1-1,0.1-6.1,0.1-7.1V427.7L450.5,427.7L450.5,427.7L450.5,427.7z"/>
	<path fill-rule="evenodd" clip-rule="evenodd" d="M490,425.9c0,2.9-1,4.4-4.5,6.6c2.9,1.5,4.8,3.3,4.8,6.5c0,2.7-2.7,6.1-7.1,6.1
		c-4.9,0-6.6-2.7-6.6-4.8c0-3,1.7-4.8,4.4-6.4c-2.8-1.8-4.6-3.3-4.6-6c0-2.8,2.5-6.5,7.6-6.5C487.4,421.4,490,423.6,490,425.9
		L490,425.9L490,425.9L490,425.9z M479.4,439.7c0,2.9,2.2,4.2,3.9,4.2c2.2,0,3.5-1.4,3.5-4c0-2.3-1.7-3.5-4.6-5.2
		C480.6,435.7,479.4,437.5,479.4,439.7L479.4,439.7L479.4,439.7L479.4,439.7z M487.1,427c0.1-2.3-1.4-4.1-3.5-4.1
		c-2.2,0-3.5,2-3.5,4.2c0,2.1,1.2,3.1,4.2,4.8C485.7,430.9,487,429.2,487.1,427L487.1,427L487.1,427L487.1,427z"/>
	<path fill-rule="evenodd" clip-rule="evenodd" d="M507.1,438.9c-0.5,0-0.8-0.2-0.8-0.5c0-0.4,0.2-0.7,0.5-1l11.7-15.4
		c0.2-0.3,0.5-0.5,0.8-0.5c0.3,0,0.5,0.3,0.5,1.1v13.6h2.4c0.3,0,0.4,0.1,0.4,0.3v2.1c0,0.2-0.1,0.3-0.5,0.3h-2.2v5.3
		c0,0.3-0.1,0.5-0.5,0.5h-2.8c-0.3,0-0.4-0.1-0.4-0.4v-5.4H507.1L507.1,438.9L507.1,438.9L507.1,438.9z M516.1,428.1
		c0-0.5-0.3-0.6-0.6-0.2l-5.7,7.5c-0.3,0.4-0.3,0.7,0.3,0.7h6.1V428.1L516.1,428.1L516.1,428.1L516.1,428.1z"/>
	<path fill-rule="evenodd" clip-rule="evenodd" d="M538.5,438.9c-0.5,0-0.8-0.2-0.8-0.5c0-0.4,0.2-0.7,0.5-1l11.7-15.4
		c0.2-0.3,0.5-0.5,0.8-0.5c0.3,0,0.5,0.3,0.5,1.1v13.6h2.4c0.3,0,0.4,0.1,0.4,0.3v2.1c0,0.2-0.1,0.3-0.5,0.3h-2.2v5.3
		c0,0.3-0.1,0.5-0.5,0.5h-2.8c-0.3,0-0.4-0.1-0.4-0.4v-5.4H538.5L538.5,438.9L538.5,438.9L538.5,438.9z M547.5,428.1
		c0-0.5-0.3-0.6-0.6-0.2l-5.7,7.5c-0.3,0.4-0.3,0.7,0.3,0.7h6.1V428.1L547.5,428.1L547.5,428.1L547.5,428.1z"/>
	<path fill-rule="evenodd" clip-rule="evenodd" fill="#B51835" d="M146.6,458.1c90.5-25.7,183.7-29.6,277.1-34.7v18.7
		C329.8,443.7,239.9,449.4,146.6,458.1L146.6,458.1L146.6,458.1L146.6,458.1z"/>
	<path fill-rule="evenodd" clip-rule="evenodd" fill="#B51835" d="M859.1,458c-90.5-25.7-183.7-29.6-277.1-34.7V442
		C675.9,443.6,765.8,449.3,859.1,458L859.1,458L859.1,458L859.1,458z"/>
</g>
</svg>
