<?xml version="1.0" encoding="utf-8"?>
<!-- Generator: Adobe Illustrator 18.0.0, SVG Export Plug-In . SVG Version: 6.00 Build 0)  -->
<!DOCTYPE svg PUBLIC "-//W3C//DTD SVG 1.1//EN" "http://www.w3.org/Graphics/SVG/1.1/DTD/svg11.dtd">
<svg version="1.1" id="Layer_1" xmlns="http://www.w3.org/2000/svg" xmlns:xlink="http://www.w3.org/1999/xlink" x="0px" y="0px"
	 viewBox="0 0 288 288" enable-background="new 0 0 288 288" xml:space="preserve">
<g>
	<path fill="#F7D117" d="M133.5,272.6L15.4,154.5c-5.8-5.8-5.8-15.2,0-21L133.5,15.4c5.8-5.8,15.2-5.8,21,0l118.1,118.1
		c5.8,5.8,5.8,15.2,0,21L154.5,272.6C148.7,278.5,139.3,278.5,133.5,272.6z"/>
	<g>
		<path fill="#F7D117" d="M144,270.9c-2.3,0-4.5-0.9-6.2-2.6L19.7,150.2c-1.7-1.7-2.6-3.8-2.6-6.2s0.9-4.5,2.6-6.2L137.8,19.7
			c1.7-1.7,3.9-2.6,6.2-2.6s4.5,0.9,6.2,2.6l118.1,118.1c1.7,1.7,2.6,3.9,2.6,6.2s-0.9,4.5-2.6,6.2L150.2,268.3
			C148.5,270,146.3,270.9,144,270.9z"/>
		<path fill="#231F20" d="M144,19.1c1.8,0,3.5,0.7,4.8,2l118.1,118.1c1.3,1.3,2,3,2,4.8c0,1.8-0.7,3.5-2,4.8L148.8,266.9
			c-1.3,1.3-3,2-4.8,2c-1.8,0-3.5-0.7-4.8-2L21.1,148.8c-1.3-1.3-2-3-2-4.8c0-1.8,0.7-3.5,2-4.8L139.2,21.1
			C140.5,19.8,142.2,19.1,144,19.1 M144,15.1c-2.9,0-5.6,1.1-7.6,3.1L18.3,136.4c-2,2-3.1,4.7-3.1,7.6s1.1,5.6,3.1,7.6l118.1,118.1
			c2,2,4.7,3.1,7.6,3.1c2.9,0,5.6-1.1,7.6-3.1l118.1-118.1c2-2,3.1-4.7,3.1-7.6c0-2.9-1.1-5.6-3.1-7.6L151.6,18.3
			C149.6,16.3,146.9,15.1,144,15.1L144,15.1z"/>
	</g>
	<path fill="#231F20" d="M190.9,95.8c-0.8-1.6-1.6-3.1-2.5-4.6c-0.9-1.5-1.9-2.9-2.9-4.3s-2.1-2.7-3.3-4c-2.9-3.2-6.1-6-9.7-8.4
		c-5-3.4-10.6-5.9-16.6-7.5c-4.3-1.1-8.8-1.7-13.4-1.7h0c-11,0-21.3,3.4-29.8,9.1c-1.4,1-2.8,2-4.1,3.1c-4.6,3.8-8.6,8.4-11.7,13.5
		c-1.3,2.2-2.5,4.5-3.5,6.9c-0.7,1.6-1.3,3.2-1.8,4.9c-1.6,5-2.4,10.3-2.4,15.8v11v10.6V154l-17.1-5.1c-0.1,0-0.2,0-0.4-0.1
		c-1.5-0.4-3.1-0.2-4.4,0.7l-0.3,0.2c-2.4,1.6-2.9,4.9-1.3,7.3l23.5,33.7l10.2,14.6l3.3,4.7v0l0,0l0,0v0l3.3-4.7l10.2-14.6
		l23.5-33.7c1.6-2.4,1.1-5.6-1.3-7.3l-0.3-0.2c-1.3-0.9-3-1.1-4.4-0.7c-0.1,0-0.2,0-0.4,0.1l-17.1,5.1v-13.7v-4.9v-5.7v-11
		c0-14.5,11.8-26.3,26.3-26.3c14.7,0,26.7,12,26.7,26.7v16.8v42.7v26.9h26.9v-86.3C196.1,110.8,194.2,102.9,190.9,95.8z"/>
</g>
</svg>
